<svg width="178" height="48" viewBox="0 0 178 48" fill="none" xmlns="http://www.w3.org/2000/svg">
<path d="M22.3762 0.116943C22.6801 0.208114 22.9443 0.278245 23.2014 0.36474C30.2566 2.76323 37.3134 5.15861 44.3717 7.55087C45.073 7.78464 45.2904 8.07919 45.1876 8.88336C44.0203 17.9319 42.8904 26.985 41.7979 36.0429C41.6763 37.0504 41.2789 37.6606 40.3415 38.1679C34.5977 41.2677 28.8867 44.4376 23.1921 47.6239C22.9422 47.7929 22.6475 47.8833 22.3458 47.8833C22.0441 47.8833 21.7494 47.7929 21.4996 47.6239C15.695 44.3909 9.86476 41.2046 4.08127 37.9341C3.63009 37.677 3.30046 36.9078 3.22566 36.3374C2.695 32.2932 2.24149 28.2396 1.77395 24.1813C1.19419 19.1272 0.649507 14.0684 0.0206632 9.02128C-0.0821961 8.19841 0.198337 7.93192 0.876273 7.69113C7.79901 5.24745 14.7171 2.79207 21.6305 0.325003C21.8829 0.243183 22.1471 0.182399 22.3762 0.116943ZM8.219 36.6928C9.90215 36.6928 11.2978 36.6577 12.691 36.7068C13.3924 36.7325 13.7383 36.4567 13.9791 35.8208C14.6547 34.0418 15.4028 32.2909 16.0831 30.5142C16.3028 29.9391 16.5857 29.6563 17.2519 29.6609C20.8364 29.689 24.4162 29.6843 27.9914 29.6469C28.653 29.6469 28.9475 29.8807 29.1883 30.4698C29.9434 32.3025 30.7429 34.1166 31.5541 35.9237C31.6826 36.2112 31.9561 36.639 32.1759 36.646C33.7047 36.7115 35.2406 36.6811 36.9612 36.6811L22.3154 5.43758L8.219 36.6928Z" fill="#082832"/>
<path d="M52.4649 13.9981C53.9868 13.6871 55.1276 13.8017 56.1889 15.2604C59.8918 20.3496 63.7701 25.3126 67.5852 30.32C67.8498 30.6813 68.2101 30.9615 68.6255 31.1288V14.0635C68.7413 13.9975 68.8635 13.9435 68.9902 13.9022C71.1315 13.7058 71.1269 13.7058 71.1245 15.8472C71.1245 21.9112 71.1245 27.9768 71.1245 34.0439C71.1245 34.5372 71.0824 35.0304 71.0591 35.526C69.4624 35.8744 68.3427 35.6569 67.307 34.2263C63.548 29.0319 59.6253 23.9567 55.7587 18.8395C55.5811 18.6057 55.3637 18.393 54.9546 17.9394V35.5681H52.4719L52.4649 13.9981Z" fill="#082832"/>
<path d="M178 35.5566C175.562 36.0662 174.026 35.3976 172.831 33.3147C171.506 31.0004 169.776 28.9151 168.224 26.7294C168.028 26.4876 167.857 26.2268 167.714 25.9509C167.216 24.8242 167.6 24.2023 168.74 23.847C169.925 23.5035 171.069 23.0332 172.153 22.4444C173.631 21.5958 174.024 20.1394 173.837 18.5123C173.694 17.3294 172.901 16.385 171.63 16.2985C169.308 16.1372 166.971 16.1489 164.642 16.1746C164.409 16.1746 164.027 16.7848 164.011 17.1237C163.943 18.7134 163.981 20.31 163.981 21.9044C163.981 26.025 163.981 30.1463 163.981 34.2685V35.594H161.332C161.309 35.2176 161.264 34.8436 161.264 34.4672C161.264 28.0128 161.281 21.5584 161.243 15.104C161.243 14.1408 161.507 13.8276 162.485 13.8579C165.634 13.9538 168.785 13.9094 171.929 14.0309C174.297 14.1221 176.001 15.3284 176.516 17.1752C177.149 19.4591 176.749 21.5607 174.837 23.0755C173.64 24.0223 172.228 24.6932 170.769 25.5769L178 35.5566Z" fill="#082832"/>
<path d="M113.11 14.0149C115.775 13.5754 115.793 13.5894 115.793 16.0089C115.793 19.5833 115.793 23.16 115.793 26.7344C115.791 27.511 115.744 28.2868 115.653 29.058C115.237 32.5646 113.369 34.8252 109.87 35.4353C107.85 35.7822 105.787 35.7987 103.761 35.4844C100.119 34.9047 97.9404 32.4992 97.7907 28.7658C97.5944 23.88 97.744 18.9825 97.744 13.8793C98.4453 13.8793 99.1466 13.7811 99.7895 13.9284C100.047 13.9868 100.344 14.5829 100.348 14.9359C100.39 18.4729 100.372 22.0098 100.379 25.5468C100.379 26.4819 100.379 27.417 100.428 28.352C100.615 31.1994 102.12 33.0532 104.925 33.4646C106.416 33.6657 107.93 33.5952 109.395 33.2566C111.733 32.7189 113.077 30.5472 113.093 27.6905C113.119 23.5714 113.093 19.4524 113.093 15.3333C113.11 14.9009 113.11 14.4777 113.11 14.0149Z" fill="#082832"/>
<path d="M158.02 35.5568C155.147 35.8397 155.154 35.8373 154.197 33.4365C153.681 32.1391 153.103 30.865 152.617 29.5559C152.383 28.9388 152.023 28.7471 151.392 28.7611C149.756 28.7938 148.119 28.7751 146.483 28.7611C146.067 28.7611 145.651 28.7213 145.225 28.7003C145.555 26.6431 145.555 26.6408 147.453 26.6384H151.367L147.203 16.5512C146.81 17.4092 146.541 17.9538 146.312 18.4962C144.08 23.915 141.84 29.3315 139.641 34.7643C139.36 35.454 138.998 35.7415 138.264 35.6643C137.733 35.6082 137.193 35.6527 136.45 35.6527L147.247 11.1067C150.904 19.4102 154.431 27.4239 158.02 35.5568Z" fill="#082832"/>
<path d="M92.9799 25.9699C92.9799 28.8125 92.9939 31.5266 92.9565 34.2407C92.9313 34.396 92.8687 34.5428 92.7743 34.6687C92.6798 34.7945 92.5562 34.8955 92.4141 34.963C88.5382 36.0968 84.6599 36.2067 80.9079 34.5539C77.4575 33.0321 76.0104 30.0889 75.6247 26.4982C75.3348 23.7864 75.4727 21.1074 76.7117 18.6411C78.3247 15.4315 81.2796 14.1411 84.6319 13.8909C86.8153 13.7273 89.0525 13.9494 91.2336 14.2299C93.2043 14.4824 93.1856 14.6203 92.891 16.5232C90.8151 16.2894 88.7509 15.9387 86.6797 15.8967C85.3606 15.9109 84.0533 16.148 82.8131 16.598C81.8242 16.9047 80.9292 17.4572 80.2118 18.2037C79.4943 18.9502 78.9778 19.8664 78.7105 20.8666C77.8946 23.7163 77.9297 26.573 79.1289 29.3034C80.4778 32.3752 83.8254 33.9274 87.9725 33.5113C90.8362 33.2238 90.2377 33.3711 90.2845 31.031C90.3172 29.3689 90.2845 27.7068 90.2845 25.9629L92.9799 25.9699Z" fill="#082832"/>
<path d="M135.035 35.6219H121.121V13.8648C121.654 13.8648 122.15 13.8999 122.641 13.8648C123.412 13.7994 123.665 14.1407 123.655 14.8817C123.627 16.9389 123.655 18.9985 123.655 21.0556C123.655 24.796 123.688 28.5129 123.655 32.2416C123.655 33.1767 123.908 33.5297 124.897 33.5086C127.732 33.4478 130.57 33.4876 133.406 33.4876C135.381 33.4899 135.381 33.4899 135.035 35.6219Z" fill="#082832"/>
<path d="M18.4044 25.2895C19.7112 22.1734 20.9759 19.1507 22.3785 15.8335C23.9612 19.0946 25.4176 22.1196 26.9651 25.2895H18.4044Z" fill="#082832"/>
</svg>
