<svg width="58" height="58" viewBox="0 0 58 58" fill="none" xmlns="http://www.w3.org/2000/svg">
<path d="M39.7587 50.3582C40.1104 51.0699 40.4223 51.6853 40.7275 52.319C41.1688 53.2298 40.973 53.8718 40.0855 54.328C38.316 55.2327 36.5464 56.1274 34.7769 57.0121C33.8977 57.4484 33.2242 57.2029 32.7862 56.3187C31.8771 54.5105 30.9747 52.6973 30.0341 50.8177L28.0185 51.7882C27.3864 52.0967 26.7626 52.4202 26.124 52.7139C25.0904 53.19 24.188 52.6093 24.1598 51.4647C24.1515 51.1163 24.1598 50.7696 24.1598 50.3515H6.6747C2.74967 50.3515 0.012442 47.6591 0.0091241 43.7424C-0.00304137 31.6123 -0.00304137 19.4817 0.0091241 7.35049C0.0091241 3.46196 2.73142 0.767866 6.6299 0.766207C21.2904 0.759572 35.9498 0.759572 50.6081 0.766207C54.5148 0.766207 57.2255 3.45367 57.2289 7.35049C57.2421 19.4806 57.2421 31.6106 57.2289 43.7407C57.2289 47.6591 54.4883 50.3499 50.5649 50.3515L39.7587 50.3582ZM38.0218 46.7815C38.3884 47.82 38.3884 47.82 39.3655 47.82C43.0716 47.82 46.7765 47.82 50.4803 47.82C53.1346 47.82 54.7006 46.254 54.7006 43.6246C54.7006 34.6664 54.7006 25.7082 54.7006 16.75V16.0864H2.53567V43.6329C2.53567 46.2324 4.10667 47.8167 6.70123 47.8184C12.3095 47.8184 17.9189 47.8184 23.5294 47.8184C23.75 47.8184 23.9707 47.7968 24.2411 47.7835V47.0503C24.2411 42.0204 24.2411 36.9917 24.2411 31.964C24.2411 31.3917 24.3323 30.8807 24.9046 30.6087C25.477 30.3366 25.9664 30.4693 26.4591 30.8475C28.1678 32.1531 29.8964 33.4355 31.6167 34.7278C35.0882 37.3389 38.5598 39.9506 42.0314 42.5629C42.6568 43.034 42.8758 43.5433 42.5789 44.1024C42.378 44.4533 42.0825 44.7408 41.7262 44.9318C40.5035 45.5871 39.2544 46.1744 38.0218 46.7815ZM2.54562 13.4371H54.689C54.689 11.2009 54.7172 9.00942 54.6758 6.81963C54.6575 5.92713 54.2577 5.14412 53.629 4.49713C52.7663 3.60463 51.6947 3.30105 50.477 3.30105C35.905 3.30879 21.333 3.30879 6.76096 3.30105C6.57516 3.30105 6.3877 3.30105 6.2019 3.30934C4.23939 3.42049 2.62194 4.93343 2.55226 6.87272C2.48922 9.03596 2.54562 11.2075 2.54562 13.4288V13.4371ZM26.766 49.5536C27.0198 49.4425 27.2056 49.3661 27.3847 49.2782C28.2142 48.8718 29.0437 48.4488 29.8947 48.0573C30.6761 47.7022 31.3048 47.9328 31.7195 48.6827C31.8307 48.8817 31.9252 49.0891 32.0281 49.2915C32.8575 50.9289 33.687 52.5679 34.5414 54.25L37.9057 52.5911C36.9733 50.7231 36.0808 48.9315 35.1834 47.1365C34.6857 46.1296 34.8931 45.5224 35.8967 45.0181C36.3944 44.7659 36.8921 44.5204 37.3897 44.2683C37.8874 44.0161 38.3602 43.7706 38.911 43.4902L26.7577 34.3694L26.766 49.5536Z" fill="black"/>
<path d="M18.7534 36.3087C19.0215 36.3002 19.2849 36.3805 19.5026 36.5371C19.7204 36.6937 19.8804 36.9178 19.9577 37.1747C20.1634 37.7536 20.0141 38.2911 19.5082 38.5864C18.653 39.0856 17.7664 39.5289 16.8539 39.9136C16.2583 40.1641 15.6213 39.8505 15.3326 39.3014C15.0672 38.8037 15.1386 38.0887 15.6329 37.7984C16.5503 37.256 17.5307 36.818 18.4879 36.3435C18.5739 36.3176 18.6636 36.3059 18.7534 36.3087Z" fill="black"/>
<path d="M23.9276 25.9236C23.8712 26.6668 23.6041 27.0699 23.0534 27.2507C22.4727 27.4498 21.9319 27.3022 21.6383 26.7995C21.1303 25.9294 20.6792 25.0273 20.2879 24.0988C20.0507 23.5414 20.3128 23.0337 20.8088 22.7103C21.3049 22.3868 21.8623 22.3552 22.2405 22.7716C23.0932 23.7172 23.4946 24.9133 23.9276 25.9236Z" fill="black"/>
<path d="M32.6919 29.8092C32.9474 29.4674 33.1332 29.0162 33.4716 28.8039C34.2334 28.3519 35.0236 27.9496 35.8372 27.5995C35.9856 27.5249 36.1475 27.4808 36.3132 27.4697C36.4789 27.4586 36.6452 27.4808 36.8022 27.5349C36.9593 27.589 37.1039 27.6739 37.2276 27.7847C37.3514 27.8955 37.4517 28.03 37.5227 28.1801C37.599 28.3225 37.6463 28.4787 37.6618 28.6396C37.6772 28.8005 37.6605 28.9628 37.6127 29.1172C37.5648 29.2715 37.4867 29.4148 37.383 29.5388C37.2793 29.6627 37.152 29.7648 37.0084 29.839C36.2367 30.2741 35.4433 30.6694 34.6312 31.0235C33.7138 31.415 32.8429 30.8493 32.6919 29.8092Z" fill="black"/>
<path d="M31.2118 23.4571C30.9066 24.2501 30.5665 25.3118 30.0904 26.3088C29.8366 26.8396 29.1282 26.9524 28.6156 26.7185C28.3469 26.6008 28.1285 26.3919 27.9989 26.1287C27.8693 25.8655 27.8368 25.565 27.9072 25.2802C28.1743 24.3712 28.4862 23.4737 28.8313 22.5911C29.0536 22.0271 29.6823 21.7799 30.2828 21.9276C30.8004 22.0569 31.2135 22.6143 31.2118 23.4571Z" fill="black"/>
<path d="M16.2041 28.9614C16.9738 29.2434 18.0156 29.5685 19.006 30.0098C19.5451 30.2504 19.6994 31.0052 19.4622 31.5244C19.345 31.8027 19.1305 32.0288 18.8589 32.1607C18.5872 32.2926 18.2769 32.3211 17.9858 32.2411C17.1198 31.9734 16.2632 31.6804 15.4161 31.3618C15.136 31.2763 14.9 31.0857 14.7574 30.8299C14.6148 30.5741 14.5768 30.2731 14.6513 29.9899C14.8023 29.3247 15.2601 28.9514 16.2041 28.9614Z" fill="black"/>
<path d="M8.8829 8.41207C8.86686 8.73777 8.72475 9.04446 8.48664 9.26727C8.24852 9.49007 7.93308 9.61152 7.60703 9.60591C7.28098 9.60031 6.9699 9.4681 6.73958 9.23725C6.50927 9.00639 6.37778 8.695 6.37294 8.36894C6.37044 8.20066 6.40179 8.03359 6.46513 7.87766C6.52847 7.72174 6.62251 7.58013 6.74166 7.46126C6.8608 7.3424 7.00263 7.24869 7.1587 7.18571C7.31477 7.12274 7.48191 7.09178 7.65019 7.09467C7.81846 7.09756 7.98444 7.13425 8.13826 7.20255C8.29207 7.27085 8.43059 7.36937 8.54559 7.49227C8.66058 7.61516 8.74969 7.75991 8.80764 7.91792C8.86558 8.07593 8.89118 8.24397 8.8829 8.41207Z" fill="black"/>
<path d="M13.9889 9.65131C13.8232 9.65306 13.6588 9.62197 13.5052 9.55984C13.3516 9.4977 13.2119 9.40575 13.094 9.28929C12.9762 9.17283 12.8826 9.03418 12.8186 8.88134C12.7547 8.7285 12.7216 8.5645 12.7214 8.39882C12.724 8.06467 12.8582 7.745 13.0948 7.50903C13.3314 7.27306 13.6514 7.13977 13.9855 7.13804C14.1544 7.1319 14.3228 7.15986 14.4806 7.22025C14.6384 7.28064 14.7824 7.37221 14.9041 7.48951C15.0257 7.6068 15.1225 7.74741 15.1885 7.90293C15.2546 8.05845 15.2887 8.2257 15.2887 8.39467C15.2887 8.56365 15.2546 8.73089 15.1885 8.88642C15.1225 9.04194 15.0257 9.18254 14.9041 9.29984C14.7824 9.41713 14.6384 9.50871 14.4806 9.5691C14.3228 9.62949 14.1544 9.65745 13.9855 9.65131H13.9889Z" fill="black"/>
<path d="M20.3372 9.65134C20.0026 9.64829 19.6827 9.51357 19.4467 9.27635C19.2107 9.03913 19.0777 8.71851 19.0764 8.38392C19.0797 8.04646 19.2169 7.72413 19.4579 7.48784C19.6988 7.25155 20.0238 7.12066 20.3613 7.12396C20.6987 7.12726 21.021 7.26448 21.2573 7.50544C21.4936 7.74639 21.6245 8.07134 21.6212 8.4088C21.6142 8.74336 21.4754 9.06163 21.2349 9.29433C20.9945 9.52704 20.6718 9.65535 20.3372 9.65134Z" fill="black"/>
</svg>
