<svg width="58" height="59" viewBox="0 0 58 59" fill="none" xmlns="http://www.w3.org/2000/svg">
<path d="M22.5953 48.6654H4.57771C2.27075 48.6654 0.970215 47.3787 0.970215 45.0947V10.0154C0.970215 7.76664 2.27841 6.46917 4.54248 6.46917C6.93676 6.46917 9.33103 6.46917 11.7238 6.45844C12.0618 6.45295 12.3945 6.37292 12.698 6.22407C14.6528 5.23915 16.8012 4.69878 18.9893 4.64167C19.9927 4.6141 20.273 4.90362 20.2791 5.92689C20.2791 6.08008 20.2791 6.23326 20.2791 6.42474H22.0928C22.1005 6.24858 22.1173 6.06476 22.1173 5.88094C22.1173 4.60031 22.1173 3.31969 22.1173 2.03907C22.1173 1.29459 22.4681 0.949925 23.2203 0.966775C27.5871 1.08217 31.2226 2.76976 34.127 6.02953C34.2411 6.17614 34.3887 6.29318 34.5574 6.37076C34.7262 6.44835 34.9112 6.4842 35.0967 6.4753C41.5304 6.46202 47.9642 6.45895 54.3979 6.4661C56.662 6.4661 57.9702 7.76358 57.9702 10.0123C57.9702 21.7085 57.9702 33.4041 57.9702 45.0993C57.9702 47.3817 56.6681 48.67 54.3627 48.67H36.3605C36.7189 49.56 37.0421 50.4056 37.4067 51.2328C37.4557 51.3431 37.7131 51.412 37.8663 51.4151C38.9768 51.4304 40.0874 51.4151 41.198 51.4243C42.0206 51.4243 42.3393 51.7475 42.3438 52.5716C42.3438 53.3176 42.3438 54.0636 42.3438 54.8081C42.3438 55.7042 42.0375 56.0091 41.1337 56.0091H24.7046C22.4048 56.0091 20.1071 56.0091 17.8113 56.0091C16.9091 56.0091 16.6073 55.7027 16.6042 54.8066C16.6042 54.0223 16.595 53.2395 16.6042 52.4552C16.615 51.7766 16.955 51.4334 17.6352 51.4258C18.7641 51.4151 19.8946 51.4074 21.0251 51.4258C21.3913 51.4258 21.5598 51.317 21.6823 50.9662C21.9488 50.2202 22.2675 49.4865 22.5953 48.6654ZM2.81303 42.201H56.1397V41.8211C56.1397 31.1748 56.1397 20.529 56.1397 9.88365C56.1397 8.81136 55.5989 8.29666 54.4868 8.29666H36.3268C36.1736 8.29666 36.0112 8.32117 35.8105 8.33649L36.1016 8.89867C37.1363 10.8884 37.6977 13.0902 37.7422 15.3324C37.7636 16.227 37.4465 16.5579 36.5565 16.5579C32.1509 16.5579 27.7454 16.5579 23.3398 16.5579C22.413 16.5579 22.1143 16.2515 22.1143 15.311C22.1143 13.1889 22.1143 11.0673 22.1143 8.94616V8.34568H20.3067V18.3946H32.8495C33.7762 18.3946 34.0979 18.7102 34.0535 19.6461C34.0248 20.3288 33.9589 21.0095 33.8559 21.685C32.5308 30.0366 24.2144 35.5742 15.9869 33.5905C4.92697 30.9266 0.921196 17.454 8.73055 9.18666C8.9879 8.91399 9.25904 8.65511 9.61749 8.29513H4.63133C3.26186 8.29513 2.80996 8.74702 2.80996 10.115V42.201H2.81303ZM9.60523 27.7312C12.5387 24.8069 15.4002 21.9623 18.2433 19.0992C18.3965 18.9461 18.4348 18.6565 18.4348 18.4298C18.4471 14.6513 18.4501 10.8676 18.444 7.07884V6.45691C13.1898 7.12786 9.38924 9.6983 7.43614 14.5757C5.53358 19.303 6.4481 23.6917 9.60217 27.7312H9.60523ZM10.9701 28.9735C13.8668 31.6987 19.1119 33.2137 24.0904 31.2483C29.242 29.2156 32.0024 24.355 32.154 20.2604C32.0825 20.2437 32.0097 20.2324 31.9365 20.2267C27.9721 20.2267 24.0092 20.2267 20.0463 20.2359C19.8265 20.2578 19.6215 20.3565 19.4673 20.5147C18.2648 21.6927 17.0791 22.886 15.8858 24.0747L10.9701 28.9735ZM2.81303 44.1066V44.7485C2.81303 46.481 3.15922 46.8302 4.88868 46.8302H54.1758C54.4051 46.8397 54.6347 46.8361 54.8636 46.8195C55.4764 46.7475 55.9436 46.4304 56.0569 45.8284C56.1642 45.2647 56.1274 44.6749 56.1519 44.1066H2.81303ZM35.8565 14.6952C35.3464 7.64869 29.3676 3.03936 23.9893 2.88771V14.6952H35.8565ZM23.493 51.3783H35.4413C35.1059 50.5343 34.801 49.7346 34.461 48.9503C34.4184 48.8764 34.3594 48.8134 34.2884 48.766C34.2175 48.7187 34.1365 48.6885 34.052 48.6777C30.9883 48.6623 27.9276 48.6623 24.8701 48.6777C24.7858 48.6899 24.7055 48.7215 24.6353 48.7698C24.5652 48.8182 24.5071 48.882 24.4657 48.9565C24.1363 49.7408 23.8315 50.5404 23.493 51.3783ZM18.4608 54.1356H40.4827V53.287H18.4654L18.4608 54.1356Z" fill="#D6F5FF"/>
<path d="M41.4278 29.3978H45.1119C47.5046 29.3978 49.8974 29.3978 52.2916 29.3978C52.9825 29.3978 53.4145 29.7992 53.3747 30.3721C53.3379 30.9021 52.9381 31.2253 52.2855 31.2284C50.6388 31.2284 48.9921 31.2284 47.3453 31.2284H40.8028C39.9021 31.2284 39.5957 30.922 39.5957 30.0259C39.5957 26.5302 39.5957 23.0345 39.5957 19.5373C39.5957 19.0058 39.7397 18.5876 40.285 18.4206C40.8978 18.2322 41.4324 18.7132 41.4355 19.4653C41.4431 21.4567 41.4355 23.4389 41.4355 25.4257L41.4278 29.3978Z" fill="#D6F5FF"/>
<path d="M46.0251 25.5973C45.3204 26.4735 44.7261 27.218 44.1271 27.9579C43.6676 28.5231 43.1498 28.6349 42.6964 28.2719C42.2429 27.9088 42.2368 27.3865 42.6964 26.812C43.8284 25.392 44.9696 23.9796 46.1001 22.5581C46.3989 22.1828 46.7435 21.9454 47.2368 22.1154C47.73 22.2854 47.8847 22.6684 47.8679 23.157C47.8572 23.4374 47.8679 23.7192 47.8679 24.1573C48.6721 23.2275 49.3768 22.411 50.0799 21.5946C50.6038 20.9818 51.1215 20.3691 51.6485 19.7655C52.0988 19.2478 52.6151 19.1635 53.0486 19.525C53.4821 19.8866 53.499 20.4242 53.0593 20.9389C51.2946 23.0039 49.5264 25.0647 47.7545 27.1215C47.4574 27.4677 47.1081 27.6729 46.6455 27.5014C46.1829 27.3298 46.0159 26.9759 46.0327 26.5072C46.0312 26.2606 46.0251 26.0139 46.0251 25.5973Z" fill="#D6F5FF"/>
<path d="M46.4614 33.9858C44.5083 33.9858 42.5537 33.9858 40.6006 33.9858C39.9787 33.9858 39.5788 33.5905 39.5926 33.0498C39.6064 32.5091 39.994 32.1828 40.5883 32.1567C40.645 32.1567 40.7032 32.1567 40.7599 32.1567C44.5732 32.1567 48.3849 32.1567 52.1951 32.1567C52.9611 32.1567 53.3915 32.506 53.3762 33.0942C53.3609 33.6825 52.9411 33.9888 52.2074 33.9888C50.2926 33.9888 48.3773 33.9878 46.4614 33.9858Z" fill="#D6F5FF"/>
<path d="M46.4261 36.7384C44.5112 36.7384 42.5964 36.7384 40.6801 36.7384C40.0505 36.7384 39.6645 36.4412 39.5986 35.9372C39.522 35.3643 39.954 34.914 40.6234 34.9094C42.3084 34.9002 43.9935 34.9094 45.6785 34.9094C47.8793 34.9094 50.0816 34.9094 52.2854 34.9094C52.9165 34.9094 53.301 35.205 53.3684 35.7105C53.448 36.2987 52.9977 36.7384 52.2869 36.7399C50.3338 36.7414 48.3807 36.7384 46.4261 36.7384Z" fill="#D6F5FF"/>
<path d="M46.5305 39.4912C44.5758 39.4912 42.6227 39.4912 40.6696 39.4912C39.9803 39.4912 39.5498 39.0807 39.5973 38.5062C39.6387 37.9762 40.0339 37.6622 40.6941 37.6606C42.8004 37.6606 44.9082 37.6606 47.0145 37.6606C48.7578 37.6606 50.501 37.6606 52.2427 37.6606C52.9627 37.6606 53.3855 38.0145 53.3778 38.5874C53.3701 39.1603 52.9489 39.4912 52.2197 39.4927C50.3274 39.4938 48.431 39.4932 46.5305 39.4912Z" fill="#D6F5FF"/>
<path d="M22.6251 50.6992H4.6075C2.30054 50.6992 1 49.4125 1 47.1285V12.0492C1 9.80046 2.3082 8.50298 4.57227 8.50298C6.96654 8.50298 9.36082 8.50298 11.7536 8.49226C12.0916 8.48676 12.4243 8.40673 12.7278 8.25789C14.6826 7.27296 16.831 6.73259 19.0191 6.67549C20.0225 6.64792 20.3028 6.93743 20.3089 7.96071C20.3089 8.11389 20.3089 8.26708 20.3089 8.45856H22.1226C22.1303 8.28239 22.1471 8.09857 22.1471 7.91475C22.1471 6.63413 22.1471 5.3535 22.1471 4.07288C22.1471 3.3284 22.4979 2.98374 23.2501 3.00059C27.6168 3.11599 31.2524 4.80357 34.1568 8.06334C34.2708 8.20996 34.4185 8.32699 34.5872 8.40458C34.756 8.48216 34.9409 8.51801 35.1265 8.50911C41.5602 8.49583 47.994 8.49277 54.4277 8.49992C56.6918 8.49992 58 9.79739 58 12.0461C58 23.7423 58 35.4379 58 47.1331C58 49.4155 56.6979 50.7038 54.3925 50.7038H36.3902C36.7487 51.5938 37.0719 52.4394 37.4365 53.2666C37.4855 53.3769 37.7429 53.4458 37.896 53.4489C39.0066 53.4642 40.1172 53.4489 41.2278 53.4581C42.0504 53.4581 42.369 53.7813 42.3736 54.6054C42.3736 55.3514 42.3736 56.0974 42.3736 56.8419C42.3736 57.7381 42.0673 58.0429 41.1635 58.0429H24.7344C22.4346 58.0429 20.1368 58.0429 17.8411 58.0429C16.9389 58.0429 16.6371 57.7365 16.634 56.8404C16.634 56.0561 16.6248 55.2733 16.634 54.489C16.6447 53.8104 16.9848 53.4673 17.665 53.4596C18.7939 53.4489 19.9244 53.4412 21.0549 53.4596C21.421 53.4596 21.5895 53.3508 21.7121 53C21.9786 52.254 22.2973 51.5203 22.6251 50.6992ZM2.84281 44.2348H56.1694V43.8549C56.1694 33.2086 56.1694 22.5628 56.1694 11.9175C56.1694 10.8452 55.6287 10.3305 54.5166 10.3305H36.3565C36.2034 10.3305 36.041 10.355 35.8403 10.3703L36.1314 10.9325C37.1661 12.9222 37.7275 15.124 37.772 17.3662C37.7934 18.2608 37.4763 18.5917 36.5863 18.5917C32.1807 18.5917 27.7751 18.5917 23.3696 18.5917C22.4428 18.5917 22.1441 18.2854 22.1441 17.3448C22.1441 15.2227 22.1441 13.1011 22.1441 10.98V10.3795H20.3365V20.4284H32.8792C33.806 20.4284 34.1277 20.744 34.0833 21.6799C34.0546 22.3626 33.9886 23.0433 33.8857 23.7188C32.5606 32.0704 24.2442 37.6081 16.0167 35.6243C4.95676 32.9604 0.950982 19.4879 8.76033 11.2205C9.01768 10.9478 9.28882 10.6889 9.64727 10.3289H4.66111C3.29164 10.3289 2.83975 10.7808 2.83975 12.1488V44.2348H2.84281ZM9.63502 29.765C12.5685 26.8407 15.43 23.9961 18.2731 21.1331C18.4263 20.9799 18.4646 20.6903 18.4646 20.4636C18.4768 16.6851 18.4799 12.9014 18.4738 9.11265V8.49072C13.2195 9.16167 9.41903 11.7321 7.46592 16.6095C5.56337 21.3368 6.47788 25.7255 9.63195 29.765H9.63502ZM10.9999 31.0073C13.8966 33.7325 19.1417 35.2475 24.1202 33.2821C29.2718 31.2494 32.0321 26.3888 32.1838 22.2942C32.1122 22.2775 32.0395 22.2662 31.9663 22.2605C28.0019 22.2605 24.039 22.2605 20.0761 22.2697C19.8563 22.2916 19.6513 22.3903 19.497 22.5485C18.2945 23.7265 17.1089 24.9198 15.9156 26.1085L10.9999 31.0073ZM2.84281 46.1404V46.7823C2.84281 48.5148 3.18901 48.8641 4.91846 48.8641H54.2056C54.4349 48.8735 54.6645 48.87 54.8934 48.8533C55.5061 48.7813 55.9734 48.4643 56.0867 47.8622C56.194 47.2985 56.1572 46.7088 56.1817 46.1404H2.84281ZM35.8863 16.729C35.3762 9.6825 29.3974 5.07318 24.0191 4.92152V16.729H35.8863ZM23.5227 53.4121H35.4711C35.1357 52.5681 34.8308 51.7684 34.4908 50.9841C34.4482 50.9102 34.3892 50.8472 34.3182 50.7999C34.2473 50.7526 34.1663 50.7223 34.0817 50.7115C31.0181 50.6962 27.9574 50.6962 24.8999 50.7115C24.8156 50.7238 24.7352 50.7553 24.6651 50.8036C24.595 50.852 24.5369 50.9159 24.4955 50.9903C24.1661 51.7746 23.8613 52.5742 23.5227 53.4121ZM18.4906 56.1694H40.5124V55.3208H18.4952L18.4906 56.1694Z" fill="#082832"/>
<path d="M41.4576 31.4316H45.1417C47.5344 31.4316 49.9272 31.4316 52.3214 31.4316C53.0123 31.4316 53.4443 31.833 53.4044 32.4059C53.3677 32.9359 52.9679 33.2591 52.3153 33.2622C50.6686 33.2622 49.0218 33.2622 47.3751 33.2622H40.8326C39.9319 33.2622 39.6255 32.9558 39.6255 32.0597C39.6255 28.564 39.6255 25.0683 39.6255 21.5711C39.6255 21.0396 39.7695 20.6214 40.3148 20.4544C40.9276 20.266 41.4622 20.747 41.4652 21.4991C41.4729 23.4905 41.4652 25.4727 41.4652 27.4595L41.4576 31.4316Z" fill="#02B2E9"/>
<path d="M46.0549 27.6311C45.3502 28.5073 44.7559 29.2518 44.1569 29.9917C43.6974 30.5569 43.1796 30.6687 42.7262 30.3057C42.2727 29.9426 42.2666 29.4203 42.7262 28.8458C43.8582 27.4258 44.9994 26.0135 46.1299 24.5919C46.4286 24.2166 46.7733 23.9792 47.2666 24.1492C47.7598 24.3192 47.9145 24.7022 47.8977 25.1909C47.887 25.4712 47.8977 25.753 47.8977 26.1912C48.7019 25.2613 49.4065 24.4448 50.1097 23.6284C50.6336 23.0156 51.1513 22.4029 51.6783 21.7994C52.1286 21.2816 52.6449 21.1973 53.0784 21.5588C53.5119 21.9204 53.5287 22.458 53.0891 22.9727C51.3244 25.0377 49.5562 27.0985 47.7843 29.1553C47.4871 29.5015 47.1379 29.7067 46.6753 29.5352C46.2126 29.3636 46.0457 29.0098 46.0625 28.541C46.061 28.2944 46.0549 28.0478 46.0549 27.6311Z" fill="#02B2E9"/>
<path d="M46.4912 36.0196C44.5381 36.0196 42.5835 36.0196 40.6304 36.0196C40.0084 36.0196 39.6086 35.6244 39.6224 35.0836C39.6362 34.5429 40.0238 34.2166 40.6181 34.1906C40.6748 34.1906 40.733 34.1906 40.7897 34.1906C44.603 34.1906 48.4147 34.1906 52.2249 34.1906C52.9908 34.1906 53.4213 34.5398 53.406 35.128C53.3907 35.7163 52.9709 36.0226 52.2372 36.0226C50.3224 36.0226 48.407 36.0216 46.4912 36.0196Z" fill="#02B2E9"/>
<path d="M46.4558 38.7722C44.541 38.7722 42.6262 38.7722 40.7099 38.7722C40.0803 38.7722 39.6943 38.475 39.6284 37.971C39.5518 37.3981 39.9838 36.9478 40.6532 36.9432C42.3382 36.934 44.0233 36.9432 45.7083 36.9432C47.909 36.9432 50.1113 36.9432 52.3152 36.9432C52.9463 36.9432 53.3308 37.2388 53.3982 37.7443C53.4778 38.3326 53.0275 38.7722 52.3167 38.7737C50.3636 38.7753 48.4105 38.7722 46.4558 38.7722Z" fill="#02B2E9"/>
<path d="M46.5602 41.525C44.6056 41.525 42.6525 41.525 40.6994 41.525C40.0101 41.525 39.5796 41.1145 39.6271 40.54C39.6685 40.01 40.0637 39.696 40.7239 39.6945C42.8302 39.6945 44.938 39.6945 47.0443 39.6945C48.7875 39.6945 50.5308 39.6945 52.2725 39.6945C52.9925 39.6945 53.4153 40.0483 53.4076 40.6212C53.3999 41.1941 52.9787 41.525 52.2495 41.5265C50.3572 41.5276 48.4607 41.5271 46.5602 41.525Z" fill="#02B2E9"/>
</svg>
