<svg width="68" height="64" viewBox="0 0 68 64" fill="none" xmlns="http://www.w3.org/2000/svg">
<path d="M53.0638 36.2951V37.1322C53.0638 44.1747 53.0638 51.2177 53.0638 58.2613C53.0638 61.7719 50.8285 63.9982 47.3126 64H24.65C21.1804 64 18.9345 61.7576 18.9345 58.3005C18.9345 51.9693 18.9345 45.6369 18.9345 39.3034V38.4128C18.3859 38.4128 17.8658 38.4128 17.3404 38.4128C16.5781 38.4021 16.261 38.1492 16.0687 37.4118C16.0402 37.305 16.0206 37.1946 15.9992 37.0859C15.5557 34.9593 15.5575 34.9486 13.5217 34.14C13.4239 34.1108 13.3213 34.1013 13.2198 34.112C13.1183 34.1227 13.02 34.1534 12.9304 34.2023C12.2981 34.571 11.6836 34.9789 11.0727 35.3778C10.5028 35.7483 9.99338 35.6788 9.51783 35.1997C8.75196 34.4256 7.98015 33.6537 7.20241 32.8843C6.71795 32.4052 6.66808 31.894 7.04389 31.3259C7.40011 30.7915 7.73851 30.243 8.08583 29.6997C8.16296 29.5909 8.23315 29.4772 8.29599 29.3595C8.4741 28.9908 7.46957 26.8892 7.06882 26.7948C6.35639 26.6166 5.64395 26.4653 4.93151 26.305C4.2921 26.1625 4 25.7564 4 25.1134C4 24.0246 4 22.9363 4 21.8487C4 21.1683 4.32416 20.78 4.99207 20.6375C5.66822 20.5139 6.3376 20.3558 6.99758 20.1637C7.23981 20.0872 7.44641 19.8271 7.61206 19.608C7.74029 19.4388 7.74386 19.1735 7.86853 19.0007C8.52576 18.0959 8.22475 17.3603 7.63699 16.5214C6.45257 14.8329 6.50065 14.7991 7.96649 13.3261C8.48301 12.8061 9.00487 12.2913 9.51604 11.7659C9.98803 11.2797 10.4974 11.212 11.0709 11.5878C11.6445 11.9636 12.2536 12.3804 12.8752 12.7206C13.1197 12.8138 13.3866 12.8311 13.6411 12.7704C13.8512 12.7384 14.0365 12.5425 14.2466 12.5086C15.383 12.3305 15.7766 11.5753 15.8656 10.5334C15.9128 10.1363 15.9993 9.74494 16.1239 9.36499C16.1865 9.10291 16.3471 8.87475 16.5727 8.72735C16.7982 8.57996 17.0717 8.52451 17.3368 8.5724C17.4696 8.59418 17.5967 8.64205 17.7109 8.71323C17.825 8.78441 17.924 8.8775 18.002 8.98713C18.08 9.09675 18.1355 9.22073 18.1653 9.35192C18.1951 9.48312 18.1987 9.61891 18.1757 9.75148C17.9673 10.9074 17.7376 12.0669 17.4241 13.1961C17.3422 13.4882 16.9503 13.7625 16.6369 13.9086C15.7178 14.3414 14.7578 14.6851 13.8334 15.1072C13.6292 15.2199 13.3977 15.2738 13.1647 15.2627C12.9317 15.2517 12.7063 15.1763 12.5136 15.0449C12.0335 14.7665 11.5686 14.4627 11.1208 14.1348C10.6631 13.7625 10.3638 13.864 10.0201 14.2755C9.76004 14.5451 9.47827 14.7929 9.17764 15.0164C9.62291 15.7092 9.99694 16.3308 10.4102 16.9222C10.7824 17.4565 10.7788 17.9463 10.485 18.534C10.0822 19.3469 9.73474 20.1859 9.4448 21.0454C9.24176 21.6349 8.91047 21.9805 8.29599 22.098C7.58356 22.2352 6.87112 22.4133 6.15868 22.5771V24.3849C6.91387 24.563 7.66015 24.7412 8.41533 24.9032C8.95856 25.0137 9.22929 25.3432 9.41809 25.8472C9.75649 26.7574 10.1305 27.6568 10.542 28.5384C10.7699 29.0318 10.7877 29.4646 10.4867 29.917C10.1448 30.4353 9.82952 30.975 9.4733 31.4826C9.27026 31.7729 9.29519 31.9581 9.54454 32.2182C10.4974 33.2103 10.4867 33.2209 11.6124 32.5014C11.7092 32.4488 11.8021 32.3893 11.8902 32.3233C12.7202 31.5841 13.5378 31.577 14.4799 32.1968C15.0392 32.5655 15.7267 32.7668 16.3875 32.9484C17.0732 33.139 17.4562 33.513 17.5684 34.2148C17.6806 34.9165 17.8498 35.5595 17.9994 36.2559H18.8988V29.8903C16.9735 29.7923 15.3527 29.0835 14.0899 27.6336C11.6302 24.8142 12.1823 20.2813 15.2619 18.2651C15.4355 18.1644 15.6275 18.0994 15.8267 18.074C16.0258 18.0486 16.228 18.0633 16.4213 18.1173C16.6956 18.2117 17.0305 18.6908 17.002 18.9651C16.9244 19.3832 16.7033 19.7612 16.3768 20.0337C15.2209 20.9991 14.6224 22.196 14.6812 23.6957C14.7398 24.7816 15.2148 25.8031 16.0073 26.5478C16.7997 27.2925 17.8488 27.7031 18.9362 27.6942V26.9123C18.9362 19.8461 18.9362 12.7811 18.9362 5.71731C18.9362 2.24596 21.1751 0.00178109 24.6357 0C32.2113 0 39.7875 0 47.3643 0C50.8249 0 53.0638 2.24774 53.0638 5.72443C53.0638 12.0568 53.0638 18.3892 53.0638 24.7216V25.5979C53.5981 25.5979 54.1075 25.5979 54.6097 25.5979C55.4415 25.5979 55.7639 25.8615 55.9527 26.6808C56.1023 27.3291 56.2056 27.9899 56.3944 28.6257C56.4977 28.8676 56.678 29.0686 56.9074 29.1974C57.1852 29.3756 57.5539 29.4041 57.8193 29.5893C58.5157 30.072 59.1017 29.9313 59.7144 29.4237C60.1225 29.1172 60.551 28.8387 60.9967 28.5901C61.2062 28.4365 61.4653 28.3662 61.7236 28.3928C61.982 28.4195 62.2212 28.5412 62.3949 28.7344C63.2261 29.543 64.0436 30.3599 64.8475 31.1852C65.2821 31.6269 65.307 32.1202 64.9757 32.6385C64.5803 33.2548 64.1635 33.8604 63.8055 34.498C63.7148 34.7247 63.7005 34.9748 63.7646 35.2104C63.8109 35.4437 64.0139 35.6468 64.0531 35.8783C64.2312 36.9808 64.9704 37.3032 65.9749 37.4813C68.0053 37.8553 67.9947 37.907 67.9947 39.9748C67.9947 40.6873 67.9947 41.3997 67.9947 42.1122C67.9947 42.8673 67.7328 43.1808 66.9866 43.3732L66.6642 43.4551C65.9517 43.6332 65.0986 43.619 64.5928 44.0375C64.0869 44.4561 63.973 45.2843 63.7254 45.9415C63.6687 46.1388 63.6917 46.3505 63.7895 46.531C64.16 47.1616 64.5714 47.7689 64.9704 48.3834C65.3266 48.9284 65.2714 49.4324 64.8172 49.8902C64.0371 50.681 63.2516 51.4664 62.4697 52.2555C61.9924 52.7381 61.4776 52.7898 60.9113 52.4122C60.3769 52.056 59.8266 51.7158 59.2851 51.3685C59.1767 51.2907 59.063 51.2205 58.9449 51.1583C58.5709 50.9802 56.4781 51.9954 56.3873 52.4051C56.2288 53.0979 56.0934 53.7943 55.9242 54.4836C55.7461 55.1961 55.2349 55.5754 54.6418 55.4454C54.0487 55.3154 53.7156 54.7864 53.8563 54.0526C54.0541 53.0285 54.2428 51.999 54.5385 51.0016C54.6819 50.6241 54.9615 50.314 55.3222 50.1324C56.2536 49.6699 57.2145 49.2695 58.1987 48.9337C58.6043 48.8095 59.04 48.8265 59.4347 48.9818C60.0189 49.233 60.5426 49.6319 61.0698 50.0024C61.3672 50.2108 61.5614 50.1805 61.8018 49.9169C62.101 49.5927 62.4483 49.3131 62.8046 48.9854C62.3646 48.2961 61.9906 47.6727 61.5756 47.0761C61.2194 46.5631 61.2194 46.0911 61.4901 45.5247C61.894 44.6886 62.2508 43.8306 62.5588 42.9546C62.7582 42.3953 63.0628 42.0498 63.6577 41.9376C64.3701 41.8022 65.0826 41.6241 65.8306 41.4585V39.6151C65.1182 39.4583 64.4058 39.2838 63.6933 39.1484C63.0771 39.0326 62.7493 38.6853 62.5463 38.094C62.2564 37.2351 61.9089 36.3966 61.5061 35.5844C61.2105 34.9967 61.2069 34.5069 61.5845 33.9815C61.9194 33.5113 62.1936 33.0001 62.5285 32.5299C62.7422 32.2306 62.6852 32.049 62.4412 31.7961C61.4937 30.8147 61.5026 30.8058 60.3734 31.5271C60.1115 31.6945 59.839 31.8495 59.5915 32.033C59.0571 32.4266 58.5584 32.3678 57.9796 32.0739C57.214 31.6761 56.4162 31.3436 55.5947 31.0801C54.9143 30.8663 54.5439 30.4959 54.4245 29.803C54.3052 29.1102 54.1431 28.4601 53.9935 27.7726H53.0923V34.0919C53.4485 34.1453 53.8047 34.1952 54.1752 34.2558C55.4104 34.4648 56.5555 35.0365 57.4648 35.8983C58.3741 36.76 59.0065 37.8728 59.2816 39.095C59.8479 41.7542 59.0215 43.9609 56.886 45.6441C56.5745 45.8799 56.1898 45.9985 55.7995 45.9789C55.0105 45.8952 54.7024 44.8835 55.242 44.2762C55.417 44.1057 55.6039 43.948 55.8013 43.8042C56.4708 43.2437 56.9512 42.4905 57.1772 41.6471C57.4031 40.8037 57.3636 39.9112 57.0639 39.0911C56.7643 38.271 56.2191 37.5632 55.5026 37.0642C54.7862 36.5651 53.9333 36.299 53.0602 36.3022L53.0638 36.2951ZM21.0664 31.9653C21.0664 40.7615 21.0664 49.5589 21.0664 58.3575C21.0664 60.5661 22.3755 61.8663 24.5966 61.8663H47.3945C49.6476 61.8663 50.9336 60.5696 50.9336 58.3041V5.71375C50.9336 3.41079 49.6512 2.13909 47.3358 2.13909H24.666C22.3221 2.13909 21.0611 3.41079 21.0611 5.77252L21.0664 31.9653Z" fill="#02B2E9" fill-opacity="0.11"/>
<path d="M49.0638 36.2951V37.1322C49.0638 44.1747 49.0638 51.2177 49.0638 58.2613C49.0638 61.7719 46.8285 63.9982 43.3126 64H20.65C17.1804 64 14.9345 61.7576 14.9345 58.3005C14.9345 51.9693 14.9345 45.6369 14.9345 39.3034V38.4128C14.3859 38.4128 13.8658 38.4128 13.3404 38.4128C12.5781 38.4021 12.261 38.1492 12.0687 37.4118C12.0402 37.305 12.0206 37.1946 11.9992 37.0859C11.5557 34.9593 11.5575 34.9486 9.52172 34.14C9.42392 34.1108 9.32132 34.1013 9.21983 34.112C9.11834 34.1227 9.01997 34.1534 8.9304 34.2023C8.29811 34.571 7.68363 34.9789 7.07272 35.3778C6.50277 35.7483 5.99338 35.6788 5.51783 35.1997C4.75196 34.4256 3.98015 33.6537 3.20241 32.8843C2.71795 32.4052 2.66808 31.894 3.04389 31.3259C3.40011 30.7915 3.73851 30.243 4.08583 29.6997C4.16296 29.5909 4.23315 29.4772 4.29599 29.3595C4.4741 28.9908 3.46957 26.8892 3.06882 26.7948C2.35639 26.6166 1.64395 26.4653 0.931511 26.305C0.292098 26.1625 0 25.7564 0 25.1134C0 24.0246 0 22.9363 0 21.8487C0 21.1683 0.324157 20.78 0.992067 20.6375C1.66822 20.5139 2.3376 20.3558 2.99758 20.1637C3.23981 20.0872 3.44641 19.8271 3.61206 19.608C3.74029 19.4388 3.74386 19.1735 3.86853 19.0007C4.52576 18.0959 4.22475 17.3603 3.63699 16.5214C2.45257 14.8329 2.50065 14.7991 3.96649 13.3261C4.48301 12.8061 5.00487 12.2913 5.51604 11.7659C5.98803 11.2797 6.49743 11.212 7.07094 11.5878C7.64445 11.9636 8.25358 12.3804 8.87518 12.7206C9.11966 12.8138 9.38655 12.8311 9.64106 12.7704C9.85122 12.7384 10.0365 12.5425 10.2466 12.5086C11.383 12.3305 11.7766 11.5753 11.8656 10.5334C11.9128 10.1363 11.9993 9.74494 12.1239 9.36499C12.1865 9.10291 12.3471 8.87475 12.5727 8.72735C12.7982 8.57996 13.0717 8.52451 13.3368 8.5724C13.4696 8.59418 13.5967 8.64205 13.7109 8.71323C13.825 8.78441 13.924 8.8775 14.002 8.98713C14.08 9.09675 14.1355 9.22073 14.1653 9.35192C14.1951 9.48312 14.1987 9.61891 14.1757 9.75148C13.9673 10.9074 13.7376 12.0669 13.4241 13.1961C13.3422 13.4882 12.9503 13.7625 12.6369 13.9086C11.7178 14.3414 10.7578 14.6851 9.83341 15.1072C9.62918 15.2199 9.3977 15.2738 9.1647 15.2627C8.9317 15.2517 8.70632 15.1763 8.51362 15.0449C8.03348 14.7665 7.56855 14.4627 7.12081 14.1348C6.66307 13.7625 6.36384 13.864 6.02009 14.2755C5.76004 14.5451 5.47827 14.7929 5.17764 15.0164C5.62291 15.7092 5.99694 16.3308 6.41015 16.9222C6.7824 17.4565 6.77884 17.9463 6.48496 18.534C6.08224 19.3469 5.73474 20.1859 5.4448 21.0454C5.24176 21.6349 4.91047 21.9805 4.29599 22.098C3.58356 22.2352 2.87112 22.4133 2.15868 22.5771V24.3849C2.91387 24.563 3.66015 24.7412 4.41533 24.9032C4.95856 25.0137 5.22929 25.3432 5.41809 25.8472C5.75649 26.7574 6.13052 27.6568 6.54196 28.5384C6.76994 29.0318 6.78775 29.4646 6.48674 29.917C6.14477 30.4353 5.82952 30.975 5.4733 31.4826C5.27026 31.7729 5.29519 31.9581 5.54454 32.2182C6.49743 33.2103 6.48674 33.2209 7.61239 32.5014C7.7092 32.4488 7.80206 32.3893 7.89024 32.3233C8.72023 31.5841 9.53775 31.577 10.4799 32.1968C11.0392 32.5655 11.7267 32.7668 12.3875 32.9484C13.0732 33.139 13.4562 33.513 13.5684 34.2148C13.6806 34.9165 13.8498 35.5595 13.9994 36.2559H14.8988V29.8903C12.9735 29.7923 11.3527 29.0835 10.0899 27.6336C7.6302 24.8142 8.18234 20.2813 11.2619 18.2651C11.4355 18.1644 11.6275 18.0994 11.8267 18.074C12.0258 18.0486 12.228 18.0633 12.4213 18.1173C12.6956 18.2117 13.0305 18.6908 13.002 18.9651C12.9244 19.3832 12.7033 19.7612 12.3768 20.0337C11.2209 20.9991 10.6224 22.196 10.6812 23.6957C10.7398 24.7816 11.2148 25.8031 12.0073 26.5478C12.7997 27.2925 13.8488 27.7031 14.9362 27.6942V26.9123C14.9362 19.8461 14.9362 12.7811 14.9362 5.71731C14.9362 2.24596 17.1751 0.00178109 20.6357 0C28.2113 0 35.7875 0 43.3643 0C46.8249 0 49.0638 2.24774 49.0638 5.72443C49.0638 12.0568 49.0638 18.3892 49.0638 24.7216V25.5979C49.5981 25.5979 50.1075 25.5979 50.6097 25.5979C51.4415 25.5979 51.7639 25.8615 51.9527 26.6808C52.1023 27.3291 52.2056 27.9899 52.3944 28.6257C52.4977 28.8676 52.678 29.0686 52.9074 29.1974C53.1852 29.3756 53.5539 29.4041 53.8193 29.5893C54.5157 30.072 55.1017 29.9313 55.7144 29.4237C56.1225 29.1172 56.551 28.8387 56.9967 28.5901C57.2062 28.4365 57.4653 28.3662 57.7236 28.3928C57.982 28.4195 58.2212 28.5412 58.3949 28.7344C59.2261 29.543 60.0436 30.3599 60.8475 31.1852C61.2821 31.6269 61.307 32.1202 60.9757 32.6385C60.5803 33.2548 60.1635 33.8604 59.8055 34.498C59.7148 34.7247 59.7005 34.9748 59.7646 35.2104C59.8109 35.4437 60.0139 35.6468 60.0531 35.8783C60.2312 36.9808 60.9704 37.3032 61.9749 37.4813C64.0053 37.8553 63.9947 37.907 63.9947 39.9748C63.9947 40.6873 63.9947 41.3997 63.9947 42.1122C63.9947 42.8673 63.7328 43.1808 62.9866 43.3732L62.6642 43.4551C61.9517 43.6332 61.0986 43.619 60.5928 44.0375C60.0869 44.4561 59.973 45.2843 59.7254 45.9415C59.6687 46.1388 59.6917 46.3505 59.7895 46.531C60.16 47.1616 60.5714 47.7689 60.9704 48.3834C61.3266 48.9284 61.2714 49.4324 60.8172 49.8902C60.0371 50.681 59.2516 51.4664 58.4697 52.2555C57.9924 52.7381 57.4776 52.7898 56.9113 52.4122C56.3769 52.056 55.8266 51.7158 55.2851 51.3685C55.1767 51.2907 55.063 51.2205 54.9449 51.1583C54.5709 50.9802 52.4781 51.9954 52.3873 52.4051C52.2288 53.0979 52.0934 53.7943 51.9242 54.4836C51.7461 55.1961 51.2349 55.5754 50.6418 55.4454C50.0487 55.3154 49.7156 54.7864 49.8563 54.0526C50.0541 53.0285 50.2428 51.999 50.5385 51.0016C50.6819 50.6241 50.9615 50.314 51.3222 50.1324C52.2536 49.6699 53.2145 49.2695 54.1987 48.9337C54.6043 48.8095 55.04 48.8265 55.4347 48.9818C56.0189 49.233 56.5426 49.6319 57.0698 50.0024C57.3672 50.2108 57.5614 50.1805 57.8018 49.9169C58.101 49.5927 58.4483 49.3131 58.8046 48.9854C58.3646 48.2961 57.9906 47.6727 57.5756 47.0761C57.2194 46.5631 57.2194 46.0911 57.4901 45.5247C57.894 44.6886 58.2508 43.8306 58.5588 42.9546C58.7582 42.3953 59.0628 42.0498 59.6577 41.9376C60.3701 41.8022 61.0826 41.6241 61.8306 41.4585V39.6151C61.1182 39.4583 60.4058 39.2838 59.6933 39.1484C59.0771 39.0326 58.7493 38.6853 58.5463 38.094C58.2564 37.2351 57.9089 36.3966 57.5061 35.5844C57.2105 34.9967 57.2069 34.5069 57.5845 33.9815C57.9194 33.5113 58.1936 33.0001 58.5285 32.5299C58.7422 32.2306 58.6852 32.049 58.4412 31.7961C57.4937 30.8147 57.5026 30.8058 56.3734 31.5271C56.1115 31.6945 55.839 31.8495 55.5915 32.033C55.0571 32.4266 54.5584 32.3678 53.9796 32.0739C53.214 31.6761 52.4162 31.3436 51.5947 31.0801C50.9143 30.8663 50.5439 30.4959 50.4245 29.803C50.3052 29.1102 50.1431 28.4601 49.9935 27.7726H49.0923V34.0919C49.4485 34.1453 49.8047 34.1952 50.1752 34.2558C51.4104 34.4648 52.5555 35.0365 53.4648 35.8983C54.3741 36.76 55.0065 37.8728 55.2816 39.095C55.8479 41.7542 55.0215 43.9609 52.886 45.6441C52.5745 45.8799 52.1898 45.9985 51.7995 45.9789C51.0105 45.8952 50.7024 44.8835 51.242 44.2762C51.417 44.1057 51.6039 43.948 51.8013 43.8042C52.4708 43.2437 52.9512 42.4905 53.1772 41.6471C53.4031 40.8037 53.3636 39.9112 53.0639 39.0911C52.7643 38.271 52.2191 37.5632 51.5026 37.0642C50.7862 36.5651 49.9333 36.299 49.0602 36.3022L49.0638 36.2951ZM17.0664 31.9653C17.0664 40.7615 17.0664 49.5589 17.0664 58.3575C17.0664 60.5661 18.3755 61.8663 20.5966 61.8663H43.3945C45.6476 61.8663 46.9336 60.5696 46.9336 58.3041V5.71375C46.9336 3.41079 45.6512 2.13909 43.3358 2.13909H20.666C18.3221 2.13909 17.0611 3.41079 17.0611 5.77252L17.0664 31.9653Z" fill="#082832"/>
<path d="M54.4144 8.54387C54.6935 8.55039 54.959 8.66584 55.154 8.86555C55.3491 9.06526 55.4582 9.33337 55.4582 9.61253C55.4582 10.2341 54.9238 10.7952 54.3432 10.7827C53.7626 10.7702 53.3315 10.3374 53.3315 9.71405C53.3298 9.02655 53.7946 8.53318 54.4144 8.54387Z" fill="#02B2E9"/>
<path d="M53.3315 13.9708C53.3315 13.2905 53.7911 12.7971 54.4144 12.8096C54.6935 12.8161 54.959 12.9315 55.154 13.1312C55.3491 13.331 55.4582 13.5991 55.4582 13.8782C55.4582 14.498 54.9238 15.0591 54.3414 15.0448C53.759 15.0306 53.3315 14.5996 53.3315 13.9708Z" fill="#02B2E9"/>
<path d="M53.3313 18.2081C53.3438 17.5331 53.8229 17.045 54.4445 17.0753C54.7236 17.0896 54.9859 17.2127 55.1754 17.4181C55.3648 17.6235 55.4662 17.8949 55.458 18.1742C55.4384 18.7976 54.8898 19.3409 54.3109 19.3088C53.7321 19.2767 53.3189 18.8422 53.3313 18.2081Z" fill="#02B2E9"/>
<path d="M8.53457 45.7171C8.54882 45.0759 8.99588 44.6003 9.59076 44.595C9.73415 44.5949 9.87608 44.6237 10.0081 44.6796C10.1402 44.7355 10.2596 44.8174 10.3593 44.9205C10.459 45.0235 10.537 45.1455 10.5885 45.2793C10.6401 45.4131 10.6642 45.5559 10.6594 45.6992C10.6529 45.9994 10.5278 46.2847 10.3116 46.493C10.0953 46.7012 9.80544 46.8154 9.50527 46.8107C8.89257 46.7822 8.52033 46.3636 8.53457 45.7171Z" fill="#02B2E9"/>
<path d="M8.53457 49.9828C8.54882 49.3416 8.99587 48.8661 9.59076 48.8607C9.7343 48.8606 9.87638 48.8895 10.0085 48.9455C10.1407 49.0015 10.2602 49.0836 10.3599 49.1868C10.4597 49.2901 10.5376 49.4123 10.5891 49.5463C10.6405 49.6803 10.6644 49.8233 10.6594 49.9668C10.6529 50.2668 10.5277 50.5519 10.3114 50.7599C10.0951 50.9678 9.80527 51.0817 9.50526 51.0764C8.89435 51.0479 8.52032 50.6258 8.53457 49.9828Z" fill="#02B2E9"/>
<path d="M9.53695 55.3439C8.92248 55.3315 8.53064 54.9165 8.5342 54.2753C8.5342 53.602 9.00797 53.1051 9.62601 53.1229C9.90384 53.1312 10.1675 53.2475 10.361 53.447C10.5546 53.6465 10.6627 53.9136 10.6626 54.1916C10.665 54.4933 10.548 54.7837 10.3372 54.9996C10.1263 55.2155 9.83867 55.3392 9.53695 55.3439Z" fill="#02B2E9"/>
<path d="M23.8931 31.9902L26.921 35.0074C27.0991 35.1855 27.2772 35.344 27.4322 35.531C27.8436 36.0261 27.8276 36.6175 27.4055 37.0271C26.9833 37.4368 26.3938 37.4403 25.9076 37.0093C25.6083 36.7457 25.3394 36.4483 25.0562 36.1651C23.9733 35.0822 22.885 34.0028 21.8093 32.9146C21.1609 32.2591 21.1645 31.7408 21.82 31.08C23.1332 29.7573 24.4518 28.4393 25.7758 27.126C26.3368 26.5685 26.9548 26.5276 27.4161 26.9889C27.8774 27.4502 27.8418 28.07 27.2843 28.631C26.1872 29.7318 25.0758 30.8182 23.8931 31.9902Z" fill="#02B2E9"/>
<path d="M40.0904 31.9652L36.9539 28.8679C36.808 28.7317 36.6695 28.5879 36.5389 28.4369C36.1614 27.9595 36.1827 27.3914 36.5835 26.9906C36.6735 26.8903 36.783 26.8094 36.9053 26.7526C37.0275 26.6959 37.16 26.6646 37.2948 26.6606C37.4295 26.6566 37.5636 26.68 37.689 26.7294C37.8145 26.7788 37.9285 26.8531 38.0244 26.9479C39.5027 28.3894 40.9614 29.8504 42.4005 31.3311C42.8333 31.7782 42.7567 32.3357 42.3311 32.7703C40.9311 34.1951 39.5175 35.6075 38.0903 37.0075C37.9957 37.1109 37.8809 37.1938 37.7531 37.2512C37.6252 37.3086 37.487 37.3392 37.3468 37.3412C37.2067 37.3432 37.0677 37.3166 36.9382 37.2628C36.8088 37.2091 36.6917 37.1295 36.5942 37.0288C36.156 36.6067 36.14 35.9744 36.6155 35.4846C37.588 34.4801 38.589 33.5023 39.5757 32.512C39.7235 32.357 39.8749 32.195 40.0904 31.9652Z" fill="#02B2E9"/>
<path d="M34.1272 27.8704L33.6231 29.8724C33.0888 31.999 32.5634 34.1256 32.0201 36.2522C31.8135 37.0715 31.3077 37.4563 30.6879 37.3049C30.02 37.1428 29.7599 36.5728 29.9754 35.7108C30.6463 33.0035 31.3219 30.2969 32.0023 27.5908C32.1662 26.9389 32.6399 26.6023 33.1992 26.6824C33.7282 26.7572 34.1182 27.2061 34.1272 27.8704Z" fill="#02B2E9"/>
<path d="M31.9457 6.40491C30.9447 6.40491 29.9455 6.40491 28.9463 6.40491C28.2107 6.40491 27.7458 5.98101 27.7369 5.35585C27.728 4.73068 28.1929 4.28719 28.9178 4.28719C30.9625 4.2765 33.0066 4.2765 35.0501 4.28719C35.7875 4.28719 36.2506 4.70931 36.2595 5.33625C36.2684 5.9632 35.7875 6.40491 35.0127 6.4156C33.9886 6.41738 32.9662 6.40491 31.9457 6.40491Z" fill="#082832"/>
</svg>
