<svg width="43" height="71" viewBox="0 0 43 71" fill="none" xmlns="http://www.w3.org/2000/svg">
<path d="M42.533 35.4746C42.533 44.6491 42.533 53.8219 42.533 62.993C42.533 67.9108 39.454 71 34.5514 71C25.661 71 16.7723 71 7.88522 71C3.10945 71 0.00253626 67.8829 0 63.092C0 44.6821 0 26.2722 0 7.8624C0 3.12721 3.1196 0 7.8345 0C16.7858 0 25.7371 0 34.6884 0C39.4008 0 42.5305 3.13735 42.533 7.8624C42.5364 17.0656 42.5364 26.2697 42.533 35.4746ZM10.2668 2.65546H7.94102C4.55512 2.65546 2.65546 4.55512 2.65546 7.94103C2.65546 26.3188 2.65546 44.6965 2.65546 63.0742C2.65546 66.4474 4.56527 68.342 7.95878 68.3445H34.4322C38.0109 68.3445 39.8725 66.488 39.875 62.9195V21.548C39.875 16.8661 39.8877 12.1842 39.875 7.50225C39.875 5.44281 38.9037 3.92106 37.0294 3.06634C35.5076 2.3714 33.892 2.70619 32.2637 2.67829C32.2637 3.3783 32.2916 3.94642 32.2637 4.51708C32.1369 6.65007 30.5213 8.30878 28.4036 8.32147C23.6591 8.36543 18.9146 8.36543 14.1701 8.32147C12.0092 8.30371 10.3657 6.60188 10.282 4.44099C10.249 3.88555 10.2668 3.32503 10.2668 2.65546ZM29.5753 2.72141H12.9222C12.9222 3.00293 12.9222 3.22866 12.9222 3.43663C12.907 5.38955 13.1987 5.68629 15.144 5.68629H27.2597C29.3673 5.68629 29.6362 5.40984 29.6007 3.2667C29.6032 3.12467 29.5905 2.95728 29.5753 2.72141Z" fill="#082832"/>
<path d="M21.2996 62.0318C23.8891 62.0318 26.4812 62.0318 29.0733 62.0318C30.1715 62.0318 30.7802 62.539 30.7523 63.3811C30.7244 64.2231 30.1309 64.6796 29.0935 64.6822C23.879 64.6923 18.6636 64.6923 13.4474 64.6822C12.3619 64.6822 11.7532 64.1521 11.7734 63.305C11.7937 62.4579 12.3517 62.0369 13.4271 62.0369C16.0521 62.0267 18.6746 62.0318 21.2996 62.0318Z" fill="#02B2E9"/>
</svg>
