<svg width="64" height="54" viewBox="0 0 64 54" fill="none" xmlns="http://www.w3.org/2000/svg">
<g clip-path="url(#clip0_327_114)">
<path d="M0.0496721 30.5568C0.463323 29.6941 1.30718 29.9098 1.91938 29.8601C2.05175 28.7818 2.1179 27.7533 2.29991 26.7579C2.44891 26.2174 2.64268 25.6902 2.87908 25.182C3.02622 24.8196 3.25052 24.4937 3.53631 24.2272C3.8221 23.9608 4.16249 23.7601 4.53368 23.6392C6.00913 23.0198 7.45065 22.322 8.85217 21.549C9.71256 21.1011 10.1758 21.1675 10.6556 22.0135C11.1355 22.8595 11.698 23.8051 12.3102 24.817L13.8656 22.113C14.4281 21.1343 14.8418 21.0513 15.8345 21.6154C16.8273 22.1794 18.1841 22.8595 19.4251 23.5231C19.5409 23.0918 19.6071 22.76 19.6898 22.4448C19.7725 22.1296 20.0207 21.3334 20.2027 20.7859C20.34 20.3434 20.5817 19.9404 20.9071 19.6113C21.2325 19.2821 21.6322 19.0363 22.0724 18.8948C24.0414 18.0819 25.9442 17.0866 27.847 16.1078C28.7901 15.6268 29.1872 15.6765 29.7167 16.6055C30.2461 17.5345 31.0569 18.9279 31.7188 20.0892L32.0993 20.6698L33.0424 19.0109C33.5554 18.1151 34.0517 17.2193 34.5812 16.3567C34.6319 16.2157 34.7147 16.0886 34.8231 15.9854C34.9314 15.8822 35.0624 15.8058 35.2054 15.7623C35.3484 15.7188 35.4996 15.7093 35.6469 15.7348C35.7942 15.7602 35.9336 15.8198 36.0538 15.9088C38.1858 17.2627 40.461 18.3755 42.8377 19.2266C43.1458 19.35 43.3947 19.5876 43.5327 19.8901C43.9298 20.8523 44.2275 21.8476 44.575 22.8263C44.6432 23.0609 44.6985 23.299 44.7405 23.5397C45.998 22.8761 47.2059 22.2623 48.3806 21.5988C49.5554 20.9352 49.7373 21.1675 50.2668 22.0799C50.7963 22.9922 51.2926 23.8383 51.9214 24.8336L53.4767 22.1296C54.0558 21.1509 54.4364 21.1011 55.4457 21.6319C56.9514 22.4116 58.4902 23.0752 59.9959 23.8217C60.4103 24.0316 60.7679 24.339 61.0383 24.7175C61.8588 26.0617 62.2567 27.6224 62.18 29.1965C62.18 29.4122 62.18 29.6112 62.18 29.8932H62.9245C63.1534 29.8586 63.3873 29.8978 63.5925 30.0051C63.7977 30.1125 63.9636 30.2824 64.0662 30.4904C64.1519 30.7059 64.1659 30.9433 64.1063 31.1675C64.0467 31.3916 63.9166 31.5905 63.7353 31.7346L59.7643 35.8984L57.2327 38.5526L63.2058 44.8564C63.4209 45.0886 63.7187 45.2711 63.8511 45.5365C64.0393 45.8378 64.11 46.1982 64.0497 46.5485C63.9173 46.8471 63.4871 47.0296 63.1562 47.212C62.8253 47.3945 62.7922 47.212 62.6102 47.212H44.7239C44.4935 47.1936 44.2623 47.236 44.0533 47.3349C43.8442 47.4339 43.6648 47.5859 43.5327 47.7761C42.1473 49.5295 40.3827 50.9444 38.372 51.9139C36.3614 52.8834 34.1574 53.3822 31.9263 53.3726C29.6952 53.363 27.4955 52.8453 25.4932 51.8586C23.4909 50.8718 21.7385 49.4418 20.3682 47.6765C20.2654 47.5241 20.1236 47.4021 19.9577 47.3234C19.7918 47.2446 19.6079 47.2119 19.4251 47.2286H1.52229C1.23575 47.266 0.944384 47.2274 0.677318 47.1168C0.410252 47.0062 0.176725 46.8274 -1.43945e-05 46.5983V45.8517C0.827287 45.0057 1.65459 44.1929 2.48189 43.3302C3.98758 41.7709 5.47677 40.1949 6.98246 38.619L3.67325 35.2017C2.41576 33.8746 1.17479 32.5308 -0.0661621 31.1871L0.0496721 30.5568ZM32.0497 25.7626C29.5203 25.7628 27.048 26.5168 24.9471 27.9289C22.8461 29.341 21.2112 31.3474 20.2502 33.6932C19.2892 36.039 19.0454 38.6183 19.5498 41.1033C20.0542 43.5883 21.2841 45.8669 23.0831 47.6495C24.8821 49.4321 27.1691 50.6383 29.6535 51.1148C32.1378 51.5914 34.7074 51.3167 37.0356 50.3257C39.3639 49.3347 41.3458 47.6722 42.7295 45.5493C44.1132 43.4264 44.8362 40.9391 44.8066 38.4033C44.776 35.0257 43.4106 31.7982 41.0099 29.4285C38.6091 27.0588 35.3689 25.7405 32 25.7626H32.0497ZM60.5585 45.1882L60.0456 44.6408L55.0817 39.7802C54.3041 39.0171 54.3041 38.6024 55.0817 37.8227L60.1779 32.4811L60.6743 31.9171H45.2203C46.2408 33.9794 46.7719 36.2504 46.7719 38.5526C46.7719 40.8548 46.2408 43.1259 45.2203 45.1882H60.5585ZM18.8459 45.1882C17.8254 43.1259 17.2943 40.8548 17.2943 38.5526C17.2943 36.2504 17.8254 33.9794 18.8459 31.9171H3.35888L3.92148 32.5475L8.88529 37.7896C9.62986 38.5858 9.61331 39.0005 8.88529 39.747L3.92148 44.6242C3.75602 44.7735 3.62364 44.9393 3.392 45.1716L18.8459 45.1882ZM9.33196 23.7387L5.16244 25.5801C5.013 25.6388 4.88164 25.7361 4.78181 25.8621C4.11415 27.0685 3.875 28.4664 4.10347 29.8268H18.9949V26.957C18.9949 26.4925 19.21 25.8787 18.9949 25.5635C18.7798 25.2483 18.1344 25.1322 17.6877 24.9165L15.1893 23.6724C14.5109 24.8336 13.8822 25.9616 13.2203 27.0731C12.5585 28.1845 11.7973 28.1016 11.1851 27.0731L9.33196 23.7387ZM44.9059 29.7937H59.9628C60.1493 28.5265 59.9533 27.2324 59.4002 26.0778C59.3075 25.8783 59.1578 25.7108 58.97 25.5967C57.5802 24.9497 56.1737 24.336 54.7177 23.689C54.1717 24.6346 53.6091 25.6299 53.0631 26.6086C52.7653 27.1063 52.5832 27.7698 51.8221 27.7698C51.061 27.7698 50.8625 27.1395 50.5647 26.6252C49.9691 25.6299 49.4065 24.6345 48.9101 23.6724L45.3196 25.3313C45.1872 25.3313 45.0052 25.5801 45.0052 25.7128C44.9059 27.0897 44.9059 28.45 44.9059 29.7937ZM28.3599 18.1815C26.5067 19.0275 24.7363 19.8404 22.9163 20.6366C22.6843 20.7089 22.4737 20.8376 22.3034 21.0113C22.1331 21.185 22.0082 21.3982 21.94 21.6319C21.2889 23.7811 20.9927 26.0225 21.0631 28.2675C21.0631 28.2675 21.0631 28.2675 21.179 28.4168C22.4992 26.9642 24.0953 25.7903 25.8739 24.9642C27.6526 24.1381 29.5779 23.6764 31.5368 23.606L28.3599 18.1815ZM43.0693 28.5661C43.1848 26.0781 42.8311 23.5905 42.0269 21.2338C41.9436 21.046 41.7972 20.8933 41.6133 20.8025L35.7726 18.1981L32.5791 23.6392C34.5745 23.7289 36.5316 24.22 38.3337 25.0836C40.1359 25.9471 41.7464 27.1653 43.0693 28.6657V28.5661Z" fill="#082832"/>
<path d="M25.5802 6.88442C25.4667 5.17749 26.0339 3.49523 27.157 2.2074C28.2802 0.919568 29.8674 0.131538 31.5698 0.0165894C33.2209 -0.117623 34.8587 0.403416 36.1305 1.46756C37.4023 2.53171 38.2065 4.05393 38.3702 5.70662C38.633 8.48224 37.8673 11.2577 36.2193 13.5034C35.7947 14.1369 35.2306 14.664 34.5704 15.044C33.9102 15.4239 33.1717 15.6466 32.412 15.6947C31.6523 15.7428 30.8916 15.6151 30.189 15.3214C29.4864 15.0278 28.8606 14.576 28.3599 14.0011C26.7384 12.2608 25.773 10.0081 25.6299 7.63094C25.5968 7.38211 25.5967 7.13325 25.5802 6.88442ZM32.0166 2.00728C30.9421 1.99432 29.9002 2.3774 29.0888 3.08383C28.2775 3.79025 27.7531 4.77082 27.6153 5.83931C27.3756 7.95735 27.9236 10.0897 29.1542 11.8279C31.0073 14.4656 33.7043 14.2665 35.21 11.4132C35.9022 9.98582 36.307 8.43562 36.4012 6.85126C36.4587 6.2385 36.3883 5.62041 36.1942 5.03649C36.0002 4.45258 35.6869 3.91563 35.2743 3.45987C34.8618 3.00411 34.3591 2.63955 33.7982 2.38945C33.2372 2.13935 32.6305 2.00918 32.0166 2.00728Z" fill="#02B2E9"/>
<path d="M52.1696 20.8357C51.5818 20.8619 50.9949 20.7664 50.4455 20.5552C49.8961 20.344 49.3959 20.0216 48.9762 19.6081C48.0028 18.667 47.2874 17.4904 46.8991 16.1916C46.5108 14.8929 46.4625 13.5158 46.759 12.1929C47.0627 10.9887 47.787 9.93357 48.8003 9.21895C49.8136 8.50433 51.0489 8.17761 52.282 8.29803C53.515 8.41844 54.6642 8.97802 55.5209 9.87526C56.3776 10.7725 56.8852 11.9479 56.9514 13.1882C57.0569 15.3178 56.4191 17.4178 55.1479 19.1271C54.8063 19.6129 54.3625 20.0177 53.8479 20.3129C53.3333 20.6082 52.7604 20.7866 52.1696 20.8357ZM51.7725 10.2686C51.0473 10.26 50.3414 10.503 49.7744 10.9565C49.2075 11.41 48.8145 12.0461 48.6618 12.757C48.4991 13.697 48.5547 14.6619 48.8244 15.5768C49.0942 16.4918 49.5708 17.332 50.2172 18.0322C50.4241 18.2982 50.6927 18.5095 50.9995 18.6479C51.3064 18.7863 51.6424 18.8475 51.9782 18.8263C52.314 18.805 52.6395 18.702 52.9266 18.526C53.2137 18.3501 53.4537 18.1065 53.6256 17.8165C53.9013 17.4754 54.1142 17.0878 54.2544 16.6719C54.5411 15.76 54.7622 14.8286 54.9162 13.885C54.9804 13.4343 54.947 12.9751 54.8182 12.5386C54.6895 12.102 54.4684 11.6984 54.1701 11.3552C53.8718 11.0121 53.5032 10.7374 53.0895 10.5498C52.6758 10.3623 52.2265 10.2664 51.7725 10.2686Z" fill="#02B2E9"/>
<path d="M17.4064 13.6195C17.3472 15.1894 16.9522 16.7282 16.2482 18.1317C15.8924 18.9866 15.2736 19.7052 14.4819 20.1826C13.6901 20.6601 12.767 20.8715 11.847 20.7859C10.9974 20.6789 10.2008 20.3143 9.56362 19.7408C8.54865 18.7456 7.80331 17.5075 7.39801 16.1433C6.99272 14.7791 6.94079 13.3339 7.24714 11.944C7.6378 10.7074 8.47055 9.65922 9.58533 9.00087C10.7001 8.34251 12.0183 8.12045 13.2865 8.37741C14.4782 8.6264 15.5443 9.28828 16.2978 10.2469C17.0512 11.2055 17.4437 12.3996 17.4064 13.6195ZM15.3713 14.0176C15.4825 13.1716 15.2643 12.3151 14.762 11.6262C14.2598 10.9373 13.5121 10.4689 12.6743 10.3183C11.8959 10.1886 11.0975 10.362 10.4424 10.8029C9.78732 11.2439 9.32495 11.9191 9.14997 12.6905C8.97716 13.5538 8.98958 14.444 9.18643 15.3021C9.38327 16.1602 9.76003 16.9664 10.2916 17.6672C10.4872 18.0603 10.7938 18.3871 11.1732 18.6069C11.5526 18.8266 11.9881 18.9297 12.4254 18.9031C12.8628 18.8766 13.2827 18.7217 13.633 18.4577C13.9832 18.1937 14.2482 17.8323 14.395 17.4184C14.9651 16.3702 15.2984 15.2092 15.3713 14.0176Z" fill="#02B2E9"/>
<path d="M25.878 46.2831C26.06 44.9228 26.209 43.5293 26.4572 42.169C26.5386 41.85 26.529 41.5145 26.4295 41.2007C26.3301 40.8869 26.1447 40.6074 25.8946 40.3941C24.9184 39.4817 24.0414 38.4697 23.1149 37.5242C22.7839 37.1758 22.5357 36.7611 22.7839 36.3464C23.0019 36.016 23.3306 35.7747 23.7105 35.6662C25.1831 35.351 26.6557 35.0856 28.1283 34.8533C28.3007 34.8308 28.4646 34.7641 28.6037 34.6594C28.7429 34.5548 28.8527 34.4159 28.9225 34.2561C29.5844 32.9788 30.2793 31.718 30.9411 30.4573C31.1893 30.0094 31.4541 29.6112 32.0166 29.6278C32.5792 29.6444 32.8274 30.026 33.059 30.4739C33.754 31.7678 34.4324 33.0452 35.1439 34.3225C35.3102 34.5615 35.5569 34.7322 35.8388 34.8036C37.2783 35.1022 38.7343 35.351 40.1904 35.6164C40.6702 35.6994 41.1004 35.8487 41.2493 36.3629C41.3034 36.5858 41.2933 36.8195 41.2201 37.0368C41.1468 37.2542 41.0135 37.4462 40.8357 37.5905C39.8098 38.6356 38.8005 39.6807 37.8243 40.759C37.6178 40.9983 37.506 41.3052 37.5099 41.6216C37.6754 43.0483 37.8739 44.4749 38.0724 45.9015C38.0724 46.4158 38.2049 46.9135 37.725 47.2618C37.5283 47.3988 37.2944 47.4722 37.0549 47.4722C36.8153 47.4722 36.5816 47.3988 36.3848 47.2618L32.513 45.3873C32.3626 45.2983 32.1912 45.2513 32.0166 45.2513C31.842 45.2513 31.6706 45.2983 31.5203 45.3873C30.1635 46.084 28.7736 46.7476 27.3672 47.3945C27.1974 47.5032 26.9987 47.5576 26.7973 47.5504C26.596 47.5432 26.4017 47.4747 26.2401 47.3541C26.0785 47.2335 25.9572 47.0664 25.8926 46.8751C25.8279 46.6838 25.8229 46.4774 25.878 46.2831ZM38.2875 37.3251C37.1624 37.126 36.1366 36.8606 35.0942 36.7445C34.7558 36.7204 34.4309 36.6021 34.1561 36.4028C33.8813 36.2034 33.6675 35.9311 33.5388 35.6164C33.0756 34.6709 32.5461 33.7584 32.0001 32.7299C31.4044 33.8414 30.8584 34.8202 30.3455 35.8155C30.2242 36.056 30.0463 36.2632 29.8272 36.4193C29.6081 36.5754 29.3544 36.6756 29.088 36.7113C27.9794 36.8772 26.8873 37.1094 25.7788 37.3251C26.6061 38.2043 27.4334 38.984 28.1614 39.83C28.3686 40.0157 28.5225 40.2537 28.6068 40.5191C28.6912 40.7846 28.7031 41.0679 28.6413 41.3396C28.4593 42.451 28.3434 43.5459 28.1779 44.7569C29.2865 44.2095 30.2958 43.7616 31.2886 43.2307C31.5365 43.0746 31.8232 42.9918 32.1159 42.9918C32.4086 42.9918 32.6954 43.0746 32.9432 43.2307C33.936 43.745 34.9453 44.2095 36.0373 44.7237C35.8718 43.5127 35.7395 42.4013 35.5575 41.2898C35.4966 41.0351 35.5042 40.7688 35.5798 40.5181C35.6554 40.2674 35.7961 40.0414 35.9876 39.8632C36.666 39.0835 37.4271 38.2375 38.2875 37.3251Z" fill="#02B2E9"/>
</g>
<defs>
<clipPath id="clip0_327_114">
<rect width="64" height="53.3333" fill="white"/>
</clipPath>
</defs>
</svg>
