<svg width="1920" height="1302" viewBox="0 0 1920 1302" fill="none" xmlns="http://www.w3.org/2000/svg">
<g clip-path="url(#clip0_385_943)">
<rect width="1920" height="1302" fill="white"/>
<rect width="1920" height="1302" fill="#191E35"/>
<g filter="url(#filter0_f_385_943)">
<circle cx="207.479" cy="397" r="206" fill="#2A3E84"/>
</g>
<g filter="url(#filter1_f_385_943)">
<circle cx="1586.48" cy="324" r="206" fill="#2A3E84"/>
</g>
<g opacity="0.05">
<path d="M33.3243 293.955C33.3243 293.955 146.958 302.967 212.301 429.345C277.645 555.724 118.091 492.319 81.6139 451.139C81.6139 451.139 202.356 518.6 168.966 424.857C145.085 377.503 107.785 338.231 61.7236 311.942L33.3243 293.955Z" fill="#00C3FF"/>
<path d="M53.2146 488.083C53.2146 488.083 26.2155 369.854 100.786 290.616C175.357 211.378 223.646 227.57 184.584 365.366C184.584 365.366 182.394 268.787 130.729 308.532C79.0648 348.276 63.3034 397.32 58.9232 427.012C54.543 456.704 53.2146 488.083 53.2146 488.083Z" fill="#8EC939"/>
<path d="M238.582 362.35C238.582 362.35 178.193 458.247 40.4332 450.528C-97.3268 442.809 -9.40025 346.05 64.5601 333.269C64.5601 333.269 -42.0002 414.194 77.7006 419.185C77.7006 419.185 162.181 424.786 206.593 386.585C249.748 349.497 238.582 362.35 238.582 362.35Z" fill="#FF9100"/>
</g>
<g style="mix-blend-mode:luminosity" opacity="0.05">
<path d="M1612.61 1079.72C1612.61 1079.72 1663.02 1106.61 1667.76 1177.76C1672.49 1248.91 1611.86 1187.84 1603.34 1161.62C1603.34 1161.62 1645.32 1216.79 1648.74 1167.02C1647.24 1140.48 1637.96 1114.97 1622.06 1093.67L1612.61 1079.72Z" fill="#00C3FF"/>
<path d="M1582.9 1172.91C1582.9 1172.91 1594.15 1113.18 1644.27 1091.69C1694.4 1070.2 1713.35 1087.31 1667.82 1142.81C1667.82 1142.81 1686.15 1097.99 1654.45 1105.92C1622.75 1113.84 1605.7 1133.22 1597.74 1145.99C1589.79 1158.76 1582.9 1172.91 1582.9 1172.91Z" fill="#8EC939"/>
<path d="M1693.24 1152.23C1693.24 1152.23 1646.3 1184.21 1584.54 1153.1C1522.78 1121.98 1582.55 1095.11 1619.09 1104.04C1619.09 1104.04 1553.93 1119.9 1607.94 1146.15C1607.94 1146.15 1645.64 1165.63 1673.69 1156.97C1700.95 1148.56 1693.24 1152.23 1693.24 1152.23Z" fill="#FF9100"/>
</g>
<g style="mix-blend-mode:luminosity" opacity="0.05">
<path d="M235.496 769.857C235.496 769.857 269.893 724.236 340.916 730.624C411.94 737.012 342.185 787.408 314.955 791.748C314.955 791.748 375.979 758.853 327.355 747.739C300.904 745.091 274.259 750.291 250.746 762.691L235.496 769.857Z" fill="#00C3FF"/>
<path d="M322.932 813.7C322.932 813.7 265.675 793.292 252.243 740.434C238.811 687.576 258.655 671.516 306.404 725.123C306.404 725.123 264.979 700.053 267.877 732.596C270.776 765.139 287.27 785.004 298.646 794.848C310.021 804.692 322.932 813.7 322.932 813.7Z" fill="#8EC939"/>
<path d="M319.663 701.479C319.663 701.479 343.956 752.825 303.612 808.995C263.268 865.166 246.023 801.944 260.527 767.232C260.527 767.232 266.061 834.07 300.391 784.801C300.391 784.801 325.498 750.589 321.3 721.528C317.234 693.298 319.663 701.479 319.663 701.479Z" fill="#FF9100"/>
</g>
<g opacity="0.05">
<path d="M1727.32 718.2C1727.32 718.2 1804.71 665.728 1911.33 713.163C2017.94 760.598 1883.28 801.775 1838.81 794.101C1838.81 794.101 1950.7 775.414 1881.28 732.5C1841.71 714.417 1797.7 708.387 1754.73 715.162L1727.32 718.2Z" fill="#00C3FF"/>
<path d="M1839.56 832.315C1839.56 832.315 1761.67 770.445 1768.81 681.485C1775.95 592.524 1815.17 578.142 1860.78 686.4C1860.78 686.4 1809.88 625.679 1797.17 677.61C1784.46 729.54 1799.5 769.024 1811.91 790.282C1824.33 811.54 1839.56 832.315 1839.56 832.315Z" fill="#8EC939"/>
<path d="M1893.82 656.792C1893.82 656.792 1904.3 749.152 1812.13 814.818C1719.96 880.483 1726.67 773.457 1767.48 727.365C1767.48 727.365 1740.72 833.802 1819.93 775.646C1819.93 775.646 1876.89 735.932 1885.75 688.707C1894.38 642.839 1893.82 656.792 1893.82 656.792Z" fill="#FF9100"/>
</g>
</g>
<defs>
<filter id="filter0_f_385_943" x="-348.521" y="-159" width="1112" height="1112" filterUnits="userSpaceOnUse" color-interpolation-filters="sRGB">
<feFlood flood-opacity="0" result="BackgroundImageFix"/>
<feBlend mode="normal" in="SourceGraphic" in2="BackgroundImageFix" result="shape"/>
<feGaussianBlur stdDeviation="175" result="effect1_foregroundBlur_385_943"/>
</filter>
<filter id="filter1_f_385_943" x="1030.48" y="-232" width="1112" height="1112" filterUnits="userSpaceOnUse" color-interpolation-filters="sRGB">
<feFlood flood-opacity="0" result="BackgroundImageFix"/>
<feBlend mode="normal" in="SourceGraphic" in2="BackgroundImageFix" result="shape"/>
<feGaussianBlur stdDeviation="175" result="effect1_foregroundBlur_385_943"/>
</filter>
<clipPath id="clip0_385_943">
<rect width="1920" height="1302" fill="white"/>
</clipPath>
</defs>
</svg>
