<svg width="179" height="38" viewBox="0 0 179 38" fill="none" xmlns="http://www.w3.org/2000/svg">
<path d="M13.7328 14.2306C14.7367 13.1923 15.789 12.3504 16.9863 11.6746C19.2189 10.3926 21.816 9.78059 24.4299 9.92043C31.4714 10.2527 36.8946 15.2328 37.9854 21.5448C39.0966 27.9757 35.387 34.3277 28.9886 36.8076C20.9831 39.9048 11.8671 36.0129 9.10963 28.3113C8.59032 26.8459 8.33001 25.3107 8.339 23.7666C8.339 15.9877 8.33643 8.20851 8.33129 0.429145C8.33129 0.157909 8.40135 0.0843544 8.69139 0.0869814C10.2672 0.10143 11.8433 0.10143 13.4196 0.0869814C13.6935 0.0869814 13.737 0.163164 13.737 0.397622C13.729 4.86349 13.7272 9.32761 13.7314 13.79L13.7328 14.2306ZM23.2768 32.4783C24.4804 32.4783 25.6723 32.2558 26.7841 31.8235C27.8959 31.3912 28.9059 30.7576 29.7562 29.959C30.6065 29.1604 31.2804 28.2124 31.7394 27.1693C32.1985 26.1262 32.4335 25.0085 32.4312 23.8802C32.4312 19.1378 28.323 15.2834 23.267 15.2814C18.2109 15.2795 14.0648 19.1681 14.0894 23.9065C14.0983 26.1844 15.0705 28.366 16.7927 29.9728C18.515 31.5797 20.8468 32.4808 23.2768 32.4783Z" fill="#082832"/>
<path d="M77.7517 14.2265C78.1899 13.7738 78.6558 13.3456 79.1473 12.9439C81.2294 11.2672 83.6205 10.1974 86.3591 9.97538C90.957 9.60038 94.9166 10.9671 98.1148 14.1037C100.567 16.5061 101.864 19.4161 102.138 22.7235C102.724 29.8065 97.733 36.0974 90.3685 37.5777C84.3715 38.7829 78.0705 36.3207 74.7546 31.4805C73.1678 29.1668 72.365 26.6324 72.3615 23.8879C72.3517 16.0533 72.3482 8.21903 72.351 0.384926C72.351 0.122228 72.4406 0.0880773 72.6858 0.0893908C74.2621 0.0990231 75.8382 0.0990231 77.414 0.0893908C77.6838 0.0893908 77.7587 0.145871 77.758 0.407255C77.7487 4.87313 77.7466 9.33724 77.7517 13.7996V14.2265ZM87.2628 32.4788C88.4664 32.4822 89.659 32.2633 90.7723 31.8344C91.8856 31.4056 92.8978 30.7753 93.7511 29.9795C94.6045 29.1837 95.2821 28.2381 95.7453 27.1967C96.2086 26.1553 96.4483 25.0385 96.4509 23.9102C96.4635 19.1521 92.3476 15.2825 87.2789 15.2825C82.2298 15.2825 78.1104 19.1416 78.1013 23.878C78.0922 28.6145 82.1983 32.4689 87.2628 32.4788Z" fill="#082832"/>
<path d="M111.164 14.2246C111.78 13.5798 112.458 12.9897 113.189 12.4619C115.793 10.6184 118.71 9.7541 121.982 9.92945C128.606 10.2841 133.976 14.8032 135.248 20.8203C136.411 26.3074 134.751 30.9893 130.199 34.6323C126.9 37.2763 122.99 38.2766 118.687 37.7249C112.581 36.9414 107.733 32.8577 106.233 27.3161C105.924 26.1711 105.768 24.9943 105.771 23.8131C105.771 16.0118 105.768 8.21009 105.763 0.40796C105.763 0.145262 105.839 0.0868119 106.109 0.0894388C107.684 0.10126 109.261 0.10323 110.837 0.0894388C111.127 0.0894388 111.169 0.177443 111.169 0.417812C111.162 4.87142 111.16 9.32481 111.164 13.778V14.2246ZM120.673 32.4821C121.877 32.4856 123.07 32.2666 124.184 31.8376C125.298 31.4086 126.31 30.778 127.164 29.9818C128.017 29.1856 128.695 28.2395 129.159 27.1976C129.622 26.1557 129.861 25.0384 129.864 23.9096C129.882 19.1594 125.759 15.2806 120.692 15.2806C115.641 15.2806 111.526 19.1351 111.515 23.8748C111.504 28.6145 115.608 32.4657 120.673 32.4768V32.4821Z" fill="#082832"/>
<path d="M167.724 26.0372C164.14 26.0372 160.557 26.0372 156.973 26.0372C156.787 26.0372 156.631 26.0122 156.693 26.2841C157.241 28.561 158.399 30.4551 160.574 31.7036C162.138 32.6013 163.871 32.9691 165.679 32.9816C169.223 33.0072 172.488 32.1035 175.452 30.2758C175.666 30.1445 175.724 30.1937 175.83 30.3717C176.531 31.5433 177.232 32.7123 177.957 33.8721C178.092 34.0895 178.04 34.1782 177.842 34.3076C175.354 35.9284 172.606 36.9562 169.637 37.4764C166.431 38.0385 163.245 37.986 160.133 37.0166C155.504 35.5718 152.581 32.5679 151.286 28.1972C150.259 24.7263 150.338 21.2482 151.875 17.9204C153.758 13.8434 157.056 11.263 161.733 10.3436C164.667 9.76629 167.597 9.85758 170.42 10.842C174.763 12.3598 177.444 15.3138 178.537 19.5229C179.077 21.5956 179.102 23.6998 178.83 25.8126C178.797 26.072 178.646 26.0391 178.472 26.0391L167.724 26.0372ZM164.914 21.6054C167.552 21.6054 170.191 21.6054 172.831 21.6054C172.992 21.6054 173.189 21.6711 173.143 21.3769C172.923 19.98 172.432 18.6875 171.513 17.556C169.083 14.5592 164.239 13.781 160.69 15.8274C158.518 17.0798 157.309 18.962 156.726 21.2449C156.656 21.5293 156.692 21.6146 157.034 21.6133C159.66 21.5989 162.288 21.6054 164.914 21.6054Z" fill="#082832"/>
<path d="M66.891 19.0401C66.891 21.4573 66.891 23.8748 66.891 26.2925C66.891 28.1682 66.6073 29.9966 65.8065 31.7297C64.6562 34.2208 62.7338 35.9986 60.024 36.9436C56.4062 38.2072 52.733 38.2571 49.1131 36.9817C45.5402 35.7227 43.3915 33.2284 42.4506 29.793C42.1297 28.6227 42.0176 27.4287 42.0183 26.2183C42.0226 21.1425 42.0207 16.0666 42.0127 10.9904C42.0127 10.7158 42.0828 10.6521 42.3742 10.6541C44.0659 10.6685 45.7583 10.6685 47.4513 10.6541C47.7491 10.6541 47.8114 10.7309 47.8114 10.9995C47.8026 16.0315 47.7998 21.0637 47.803 26.0962C47.803 27.1758 47.9172 28.2378 48.3537 29.2453C49.2855 31.3974 51.0432 32.5231 53.4644 32.7917C54.6974 32.9289 55.9165 32.8416 57.0871 32.4443C59.2512 31.7094 60.4135 30.1844 60.8703 28.1248C61.0081 27.4479 61.0715 26.7596 61.0594 26.0705C61.0599 21.0491 61.0566 16.0282 61.0496 11.0081C61.0496 10.7132 61.1302 10.6528 61.4321 10.6554C63.124 10.6705 64.8173 10.6731 66.5092 10.6554C66.8455 10.6515 66.8959 10.7533 66.8952 11.035C66.8861 13.7007 66.891 16.3704 66.891 19.0401Z" fill="#082832"/>
<path d="M140.257 18.6806C140.257 12.6215 140.254 6.56188 140.248 0.501867C140.248 0.145254 140.36 0.0815507 140.709 0.0848344C142.378 0.10191 144.047 0.096656 145.716 0.0881183C145.954 0.0881183 146.053 0.10979 146.053 0.379056C146.043 12.5643 146.043 24.7494 146.053 36.9342C146.053 37.1805 145.989 37.2435 145.726 37.2415C144.022 37.2297 142.318 37.2297 140.612 37.2415C140.313 37.2415 140.25 37.1581 140.25 36.8921C140.259 30.8225 140.261 24.752 140.257 18.6806Z" fill="#082832"/>
<path d="M4.4149 37.8643C3.93009 37.8645 3.45003 37.7748 3.00242 37.6002C2.55481 37.4256 2.14852 37.1696 1.80702 36.847C1.46551 36.5245 1.19554 36.1417 1.01271 35.7207C0.82987 35.2998 0.737783 34.8491 0.741762 34.3947C0.743405 33.94 0.840895 33.4901 1.02863 33.0708C1.21637 32.6516 1.49064 32.2712 1.8357 31.9517C2.18075 31.6321 2.58977 31.3796 3.03925 31.2088C3.48874 31.0379 3.96982 30.952 4.45484 30.9559C5.42774 30.9646 6.35781 31.3323 7.04342 31.9795C7.72903 32.6266 8.11493 33.501 8.11747 34.4131C8.11701 34.8678 8.02078 35.318 7.83429 35.7378C7.6478 36.1576 7.37472 36.5388 7.03072 36.8594C6.68672 37.1801 6.27857 37.4339 5.82968 37.6063C5.3808 37.7788 4.90001 37.8664 4.4149 37.8643Z" fill="#082832"/>
</svg>
