<svg width="51" height="51" viewBox="0 0 51 51" fill="none" xmlns="http://www.w3.org/2000/svg">
<rect y="0.109863" width="50.0917" height="50.0917" rx="3.85321" fill="#082832"/>
<path fill-rule="evenodd" clip-rule="evenodd" d="M15.9512 14.0005C17.4741 12.4044 19.9818 12.688 21.257 14.4846L22.8362 16.706C23.8748 18.1675 23.7822 20.2095 22.5496 21.5009L22.2518 21.8148C22.2182 21.9466 22.2147 22.085 22.2418 22.2185C22.3206 22.7567 22.7473 23.8964 24.5343 25.7695C26.3212 27.6426 27.4099 28.0911 27.928 28.1755C28.0584 28.2047 28.1935 28.2007 28.3222 28.1636L28.8327 27.6281C29.9289 26.4805 31.6107 26.2655 32.9672 27.0424L35.3573 28.4143C37.4058 29.5856 37.9226 32.5193 36.2458 34.2776L34.4676 36.1402C33.907 36.7272 33.1537 37.2166 32.2352 37.3076C29.9702 37.5305 24.6932 37.2456 19.1459 31.4323C13.969 26.0056 12.9755 21.2727 12.8491 18.9405C12.7865 17.7613 13.3146 16.764 13.9878 16.0596L15.9512 14.0005ZM19.7553 15.6705C19.1209 14.7775 17.9396 14.7062 17.2739 15.404L15.3092 17.4618C14.8963 17.8945 14.6986 18.372 14.7236 18.8284C14.8237 20.6817 15.6246 24.9516 20.4699 30.0301C25.5529 35.3566 30.2468 35.5163 32.0612 35.3369C32.4316 35.3012 32.7995 35.0981 33.1437 34.738L34.9206 32.8741C35.6439 32.117 35.485 30.7372 34.4613 30.1515L32.0712 28.781C31.4105 28.4037 30.6372 28.5277 30.1567 29.0316L29.5873 29.6291L28.9241 28.9274C29.5873 29.6291 29.586 29.6305 29.5848 29.6305L29.5835 29.6331L29.5798 29.6371L29.571 29.645L29.5522 29.6634C29.499 29.7146 29.4421 29.7614 29.3821 29.8033C29.282 29.8732 29.1493 29.951 28.9829 30.0156C28.645 30.1489 28.197 30.2201 27.6439 30.1304C26.559 29.955 25.1212 29.1754 23.2103 27.173C21.3008 25.1706 20.555 23.6642 20.3873 22.5219C20.3009 21.9388 20.3698 21.4666 20.4974 21.1104C20.5682 20.9103 20.6687 20.7233 20.7952 20.5564L20.8353 20.5103L20.8528 20.4905L20.8603 20.4826L20.864 20.4786L20.8665 20.476L21.2269 20.0987C21.7625 19.5354 21.8376 18.6028 21.3333 17.8919L19.7553 15.6705Z" fill="white"/>
</svg>
