<svg width="40" height="32" viewBox="0 0 40 32" fill="none" xmlns="http://www.w3.org/2000/svg">
<path d="M31.558 31.9999C25.14 31.9999 22.6268 27.5957 22.6268 21.9308C22.6268 13.8755 27.907 3.17612 34.2022 0.0244141C34.7595 0.301939 35.2233 0.73677 35.5361 1.27511C35.8489 1.81345 35.9971 2.43168 35.9622 3.05333C35.9622 6.45062 33.1953 10.0935 33.1953 13.1142C33.1953 20.6701 39.7443 13.9983 39.7443 24.5749C39.7443 28.9791 35.2009 31.9999 31.558 31.9999Z" fill="white"/>
<path d="M8.90662 32C2.45587 32 0 27.5958 0 21.9309C0 13.9166 5.25556 3.17626 11.5508 0C12.1068 0.279189 12.5694 0.714358 12.882 1.25229C13.1945 1.79023 13.3436 2.40762 13.3108 3.02892C13.3108 6.42621 10.5439 10.0691 10.5439 13.0898C10.5439 20.6457 17.0929 13.9739 17.0929 24.5505C17.0847 28.9793 12.5577 32 8.90662 32Z" fill="white"/>
</svg>
