<svg width="69" height="67" viewBox="0 0 69 67" fill="none" xmlns="http://www.w3.org/2000/svg">
<path d="M0.477661 57.4236C0.890315 56.9153 1.43403 56.7913 2.06098 56.8444C2.42758 56.8763 2.79773 56.8444 3.24226 56.8444V55.9199C3.24226 44.4093 3.24226 32.8975 3.24226 21.3845C3.24226 18.9423 4.55815 17.1252 6.76133 16.5443C7.25558 16.4329 7.76012 16.3735 8.26672 16.3672C8.9043 16.3371 9.54364 16.3672 10.1564 16.3672C10.0767 15.6587 9.9014 14.9804 9.94567 14.3234C10.0502 12.7967 10.8648 11.6951 12.2179 10.9796C15.7482 9.11533 19.2761 7.24569 22.8017 5.37075C25.5504 3.91495 28.3043 2.468 31.0477 1.00158C33.2633 -0.179713 35.4753 -0.204507 37.698 0.957299C38.518 1.38766 39.338 1.81803 40.1509 2.26433C40.776 2.60791 40.9726 3.16402 40.6822 3.68117C40.4094 4.17883 39.8533 4.32229 39.2459 4.01412C38.3816 3.5749 37.5315 3.10381 36.669 2.66104C35.1671 1.89064 33.6494 1.87293 32.1581 2.66104C25.7989 6.01895 19.4426 9.38393 13.0893 12.756C12.3419 13.1509 11.908 13.762 11.9062 14.6085C11.9045 15.4551 12.3153 16.0732 13.0663 16.4717C19.442 19.8473 25.8178 23.2229 32.1936 26.5985C32.8521 26.97 33.5936 27.1693 34.3496 27.1779C35.1056 27.1866 35.8516 27.0044 36.5184 26.6481C38.1301 25.8316 39.717 24.9709 41.3871 24.0907C40.6078 23.2052 39.8728 22.3551 39.1361 21.5138C37.4205 19.5633 35.7026 17.6081 33.9823 15.6481C33.9097 15.5649 33.8353 15.4834 33.7662 15.3966C33.3235 14.8476 33.3341 14.2455 33.7893 13.8718C34.2444 13.4981 34.8058 13.5831 35.2539 14.0843C36.2811 15.239 37.2942 16.4079 38.3143 17.5697L43.1971 23.1343C44.0914 22.665 44.9681 22.2098 45.8395 21.7476C49.0539 20.0421 52.263 18.3224 55.4881 16.6364C56.3418 16.1901 56.9333 15.6003 56.9227 14.5997C56.912 13.6256 56.3099 13.0553 55.4899 12.6249C51.3504 10.4477 47.2179 8.26345 43.0926 6.07208C42.3842 5.69662 42.1415 5.13165 42.4461 4.57909C42.7348 4.04777 43.3193 3.94682 44.0082 4.30989C48.202 6.52724 52.3935 8.74754 56.5826 10.9708C58.5839 12.0334 59.3118 13.8665 58.6618 16.0519C58.637 16.1352 58.6193 16.2202 58.5821 16.3778H60.4594C63.6278 16.3778 65.5955 18.3366 65.5955 21.4961C65.5955 32.9619 65.5955 44.427 65.5955 55.8916V56.8551H66.8051C68.121 56.8551 68.3902 57.0924 68.3512 58.3852C68.3158 59.5045 68.3512 60.6575 68.0891 61.7325C67.4391 64.4581 65.0323 66.3372 62.234 66.4665C61.9914 66.4771 61.7488 66.4878 61.5061 66.4878C43.458 66.4878 25.4099 66.4878 7.36172 66.4878C4.61837 66.4878 2.5303 65.4003 1.21796 62.9793C0.863748 62.3329 0.723835 61.5749 0.484744 60.87L0.477661 57.4236ZM5.22938 56.8001H63.573C63.5836 56.577 63.5995 56.4034 63.5995 56.2281C63.5995 44.5852 63.5995 32.9418 63.5995 21.2978C63.5995 19.4966 62.4696 18.3808 60.6525 18.3631C59.4128 18.3507 58.173 18.3631 56.9333 18.3631C56.7579 18.3423 56.5801 18.3604 56.4126 18.4163C54.8559 19.2186 53.3062 20.0403 51.7548 20.855L51.7866 21.0109H59.5031C60.6738 21.0109 60.9429 21.2836 60.9429 22.4578C60.9429 32.5551 60.9429 42.6501 60.9429 52.7427C60.9429 53.9151 60.6702 54.1914 59.5013 54.1914H18.5423C18.3217 54.2001 18.1008 54.1847 17.8835 54.1453C17.6491 54.111 17.4373 53.9868 17.2929 53.7991C17.1484 53.6113 17.0827 53.3747 17.1096 53.1394C17.1062 52.9027 17.1961 52.6742 17.3598 52.5032C17.5235 52.3322 17.7478 52.2325 17.9845 52.2255C18.249 52.2058 18.5144 52.1993 18.7797 52.2061H58.9045V23.0405H50.067C50.067 24.1332 50.067 25.1887 50.067 26.2425C50.0882 30.493 48.2268 33.5516 44.3482 35.3528C44.2048 35.4183 43.994 35.5635 43.994 35.6663C44.0153 36.3995 43.8063 37.1469 44.2526 37.8535C44.876 38.8417 45.4498 39.8636 46.0059 40.8926C46.3203 41.444 46.4498 42.0816 46.3756 42.712C46.3013 43.3424 46.0272 43.9324 45.5933 44.3957C44.8441 45.2211 43.8789 45.3875 42.8198 45.3734C40.1225 45.3362 38.7464 42.9718 40.0907 40.6216C40.6043 39.7202 41.1674 38.8506 41.6261 37.9155C41.8688 37.4231 41.9379 36.844 42.115 36.1905C41.72 36.2808 41.5482 36.3162 41.38 36.3676C36.1341 37.7844 30.9662 37.5436 25.7948 35.8628C20.7827 34.2335 18.553 30.1955 18.7637 26.0601C18.8133 25.0736 18.7637 24.0801 18.7637 23.0493H9.90848V52.2096H10.6612C11.8106 52.2096 12.9635 52.1972 14.1076 52.2255C14.7204 52.2415 15.0729 52.6222 15.0835 53.1766C15.0941 53.7309 14.7452 54.1064 14.1519 54.1843C14.0201 54.1979 13.8876 54.2026 13.7552 54.1985C12.2516 54.1985 10.7444 54.1985 9.24788 54.1985C8.17108 54.1985 7.87886 53.8992 7.87886 52.8135C7.87886 42.6725 7.87886 32.5315 7.87886 22.3905C7.87886 21.3066 8.16754 21.0162 9.25674 21.0144C11.6193 21.0144 13.9837 21.0144 16.3409 21.0144H17.0263C16.619 20.6354 16.155 20.437 15.7494 20.1572C13.5568 18.6394 11.1553 18.1825 8.49873 18.3135C6.52578 18.4092 5.18333 19.5285 5.19396 21.6325C5.24886 33.077 5.21875 44.5215 5.21875 55.966L5.22938 56.8001ZM66.4509 58.8811C66.1321 58.8599 65.9816 58.8404 65.8293 58.8404C58.2728 58.8404 50.7193 58.8369 43.1687 58.8298C42.7242 58.8298 42.5843 58.998 42.4603 59.3965C41.8564 61.272 40.2359 62.572 38.2789 62.6216C35.6967 62.6853 33.1092 62.7101 30.5288 62.611C28.5027 62.533 27.116 61.3872 26.4235 59.4886C26.2464 58.9874 26.0392 58.8245 25.5043 58.8245C18.0813 58.8433 10.66 58.8481 3.24049 58.8386H2.54447C2.06275 62.1221 4.01621 64.4883 7.19878 64.49C25.3555 64.4995 43.5117 64.4995 61.6673 64.49C63.8882 64.49 65.5866 63.3211 66.1392 61.3588C66.3606 60.5902 66.3464 59.7596 66.4509 58.8811ZM20.7579 22.8102C20.7579 24.2271 20.7473 25.5252 20.7579 26.8234C20.7898 29.8732 22.6069 32.4518 25.437 33.5835C29.2426 35.1251 33.383 35.6529 37.4536 35.1155C38.9731 34.9206 40.4643 34.5186 41.9148 34.2211V26.0743C40.4183 26.8659 39.0068 27.6328 37.5758 28.366C35.5125 29.4286 33.4244 29.4605 31.347 28.4067C30.1462 27.7993 28.9649 27.1546 27.7748 26.5259L20.7579 22.8102ZM43.9586 33.3267C45.5787 32.5574 46.851 31.208 47.5237 29.5455C48.4252 27.3884 47.9488 25.1356 48.0887 22.8067C46.702 23.5364 45.4622 24.1881 44.2225 24.8576C44.1486 24.9107 44.0874 24.9796 44.0434 25.0592C43.9993 25.1388 43.9733 25.2272 43.9675 25.318C43.9568 27.9516 43.9604 30.578 43.9604 33.3267H43.9586ZM40.5299 58.89H28.2955C28.756 59.919 29.4626 60.5902 30.5164 60.6132C33.1139 60.6722 35.7162 60.6722 38.3231 60.6132C39.3769 60.5884 40.08 59.9243 40.5299 58.89ZM42.9828 39.5997C42.5435 40.3524 42.1344 41.0272 41.7537 41.725C41.2684 42.6105 41.7253 43.3632 42.7401 43.3827C42.9597 43.3827 43.1811 43.3951 43.4007 43.3827C44.1782 43.3243 44.6405 42.6141 44.2863 41.9163C43.9002 41.1406 43.4397 40.4144 42.9828 39.5997Z" fill="#02B2E9"/>
<path d="M23.8094 47.5694H33.2225C33.4654 47.5568 33.7089 47.571 33.9487 47.6119C34.4091 47.7129 34.7509 48.0405 34.6659 48.4974C34.5602 48.8746 34.3414 49.2102 34.039 49.4591C33.8796 49.6026 33.5325 49.5565 33.2704 49.5565C26.93 49.5565 20.5891 49.5565 14.2475 49.5565C13.9854 49.5565 13.6365 49.5972 13.4807 49.4538C13.2009 49.197 12.8537 48.8003 12.8768 48.4886C12.8998 48.1769 13.3089 47.851 13.6188 47.6243C13.78 47.5039 14.0882 47.5729 14.3272 47.5729L23.8094 47.5694Z" fill="#082832"/>
<path d="M20.432 45.3646C18.3156 45.3646 16.1974 45.3646 14.081 45.3646C13.2982 45.3646 12.8413 45.0103 12.8236 44.4046C12.8059 43.7989 13.2823 43.3792 14.0864 43.3774H26.8556C27.6419 43.3774 28.0847 43.7316 28.0953 44.3444C28.1148 44.9909 27.665 45.3628 26.8432 45.3646C24.7085 45.3681 22.5714 45.3681 20.432 45.3646Z" fill="#082832"/>
</svg>
