<svg width="65" height="65" viewBox="0 0 65 65" fill="none" xmlns="http://www.w3.org/2000/svg">
<path d="M11.5715 59.4545C10.2604 59.3918 9.28051 58.8443 8.69294 57.6953C8.31128 56.9092 8.2153 56.0147 8.42147 55.1655C8.62765 54.3163 9.12311 53.5654 9.82275 53.0418C9.90261 52.9729 9.96612 52.8871 10.0086 52.7906C10.0512 52.6941 10.0716 52.5893 10.0686 52.4839C9.8489 50.9356 9.62922 49.3856 9.33979 47.8496C9.11662 46.6605 8.39828 45.7207 7.6102 44.8333C5.24074 42.1639 4.16149 39.0691 4.42826 35.4862C4.82752 30.1126 9.43917 25.3737 14.7988 24.6466C21.3754 23.7539 27.8143 28.5173 28.5152 35.4827C28.8639 38.8983 27.7498 42.0018 25.4204 44.5368C24.0988 45.9753 23.2096 47.5009 23.0457 49.4676C22.969 50.3951 22.7685 51.314 22.6011 52.2328C22.5244 52.6443 22.6325 52.8831 23.0004 53.1342C24.3743 54.0687 24.4283 55.5019 24.2296 56.9369C24.0552 58.1573 23.3055 59.057 22.0833 59.2767C21.2586 59.4249 21.0825 59.7474 20.9622 60.5268C20.6013 62.8701 18.4201 64.3922 15.8833 64.2179C14.7797 64.1231 13.7453 63.6404 12.9637 62.8556C12.1821 62.0708 11.7037 61.0345 11.6134 59.9305C11.6046 59.7945 11.5907 59.6672 11.5715 59.4545ZM20.5106 52.4455C20.5525 52.3184 20.588 52.1892 20.617 52.0584C20.8454 50.62 21.0406 49.1781 21.3022 47.7467C21.6212 45.9927 22.6203 44.624 23.8146 43.3443C26.7333 40.2164 27.3557 35.6936 25.4309 32.0409C23.4014 28.1912 19.1855 25.97 15.0063 26.6604C11.1914 27.2898 8.45582 29.4169 7.06797 33.0365C5.67314 36.6892 6.2764 40.1449 8.8115 43.1002C10.4208 44.9762 11.4425 46.9935 11.6517 49.4519C11.7371 50.4561 11.9708 51.4482 12.1347 52.4385H15.273C15.2929 52.3231 15.3062 52.2067 15.3131 52.0898C15.3131 48.4807 15.3131 44.8716 15.3253 41.2625C15.3253 40.865 15.1091 40.7551 14.8267 40.6139C14.1359 40.2771 13.5794 39.7166 13.2476 39.0234C12.9158 38.3303 12.8282 37.5453 12.9991 36.7961C13.17 36.0468 13.5892 35.3774 14.1888 34.8967C14.7883 34.4159 15.5328 34.1521 16.3013 34.1481C17.0697 34.1441 17.8169 34.4002 18.4214 34.8747C19.0259 35.3491 19.4521 36.0141 19.6308 36.7616C19.8094 37.509 19.73 38.2949 19.4054 38.9914C19.0809 39.688 18.5302 40.2543 17.843 40.5982C17.4472 40.7917 17.3199 41.0027 17.3287 41.4316C17.3461 44.8873 17.3374 48.3447 17.3409 51.8022C17.3409 52.0096 17.3618 52.2189 17.3722 52.4368L20.5106 52.4455ZM16.4098 54.611V54.6214C14.7814 54.6214 13.1529 54.611 11.5279 54.6214C10.7259 54.6214 10.4295 54.9423 10.3964 55.7286C10.3833 55.9452 10.3833 56.1623 10.3964 56.3789C10.4452 56.9996 10.8235 57.4041 11.4425 57.4059C14.7203 57.4175 17.9988 57.4175 21.2778 57.4059C21.895 57.4059 22.2332 57.0397 22.2855 56.4312C22.3099 56.1499 22.3099 55.867 22.2855 55.5856C22.2228 54.8882 21.8793 54.604 21.1679 54.6058L16.4098 54.611ZM19.0251 59.519H13.6202C13.4999 60.8424 14.7168 62.2477 16.3889 62.2337C17.9476 62.2233 19.0949 61.0621 19.0321 59.5225L19.0251 59.519ZM16.3418 38.8669C17.2014 38.8669 17.7611 38.3438 17.7367 37.5488C17.735 37.1756 17.5852 36.8184 17.3202 36.5556C17.0552 36.2929 16.6967 36.1462 16.3235 36.1478C15.9503 36.1495 15.5931 36.2992 15.3304 36.5643C15.0677 36.8293 14.921 37.1878 14.9226 37.561C14.9174 38.3525 15.4718 38.8651 16.3418 38.8669Z" fill="#02B2E9"/>
<path d="M54.778 5.23235C55.4127 4.74591 56.1153 4.20018 56.8232 3.66317C57.4962 3.15232 57.9025 3.16801 58.4848 3.73989C59.2903 4.5268 60.0894 5.32708 60.8822 6.14073C61.4052 6.67948 61.4453 7.09619 61.0112 7.70991C60.5178 8.39861 59.9842 9.06115 59.5152 9.76554C59.4538 9.87581 59.4153 9.9974 59.4021 10.123C59.3889 10.2485 59.4013 10.3754 59.4385 10.4961C59.7593 11.3923 60.1185 12.2762 60.509 13.1463C60.5632 13.2585 60.6399 13.3584 60.7344 13.4397C60.8289 13.521 60.9391 13.582 61.0583 13.6187C61.8463 13.7774 62.6484 13.8594 63.4434 13.9779C64.2385 14.0965 64.4895 14.4086 64.5 15.1984C64.5 16.3718 64.5 17.5469 64.5 18.7203C64.5 19.4491 64.2472 19.7508 63.5376 19.878C62.7669 20.014 61.9858 20.0925 61.2221 20.2546C61.1018 20.2877 60.9895 20.3449 60.8921 20.4229C60.7946 20.5008 60.7141 20.5978 60.6555 20.708C60.2545 21.5972 59.8918 22.5038 59.5571 23.4192C59.5231 23.5305 59.5123 23.6477 59.5252 23.7634C59.5381 23.8791 59.5744 23.991 59.632 24.0922C60.1045 24.7896 60.6328 25.4608 61.1263 26.1495C61.59 26.7964 61.5569 27.1834 60.992 27.7571C60.2144 28.5463 59.4304 29.3303 58.64 30.1091C58.0402 30.7001 57.6462 30.728 56.9819 30.2294C56.3734 29.7743 55.7614 29.3175 55.1773 28.8346C55.0759 28.7269 54.9399 28.6582 54.7931 28.6404C54.6463 28.6226 54.4978 28.6567 54.3735 28.7369C53.5558 29.1345 52.6945 29.4343 51.8733 29.8354C51.6269 29.9613 51.4393 30.1783 51.3503 30.4404C51.1602 31.1971 51.0556 31.9747 50.9126 32.7436C50.7749 33.4776 50.4523 33.781 49.7323 33.7897C48.5798 33.8054 47.4256 33.8071 46.2731 33.7897C45.5757 33.7792 45.2618 33.4881 45.145 32.7802C45.009 31.966 44.9271 31.143 44.7632 30.3392C44.7252 30.2191 44.6635 30.1079 44.5818 30.012C44.5 29.9162 44.3998 29.8377 44.2872 29.7813C43.4486 29.3785 42.5716 29.056 41.7399 28.641C41.4243 28.4841 41.25 28.519 41.0076 28.7265C40.3974 29.2495 39.7715 29.7569 39.1403 30.2555C38.5632 30.7141 38.1081 30.6949 37.5816 30.1806C36.7575 29.3751 35.9438 28.5614 35.1406 27.7396C34.6088 27.1991 34.5792 26.7894 35.0186 26.1792C35.5137 25.4905 36.0473 24.8279 36.5145 24.1218C36.5735 24.0105 36.6095 23.8884 36.6203 23.7629C36.631 23.6374 36.6164 23.511 36.5773 23.3913C36.2565 22.4928 35.9008 21.6082 35.5103 20.7376C35.4545 20.6246 35.376 20.5242 35.2797 20.4429C35.1834 20.3616 35.0714 20.3011 34.9506 20.2651C34.1207 20.0995 33.2768 20.0001 32.4381 19.8815C31.8174 19.7926 31.5193 19.4038 31.5106 18.811C31.4914 17.5713 31.4879 16.3317 31.5106 15.092C31.5228 14.4208 31.8698 14.0912 32.5567 13.9901C33.3744 13.8716 34.1974 13.7792 34.9977 13.6205C35.1073 13.5833 35.208 13.5238 35.2935 13.4458C35.3791 13.3678 35.4475 13.2729 35.4946 13.1672C35.8781 12.2954 36.2391 11.4097 36.5616 10.5135C36.6003 10.3937 36.6147 10.2674 36.604 10.1419C36.5932 10.0165 36.5574 9.89442 36.4988 9.78297C36.0316 9.07684 35.4981 8.41605 35.0029 7.72735C34.5618 7.11363 34.5914 6.71087 35.1232 6.16863C35.9299 5.34568 36.7435 4.53203 37.5641 3.72768C38.0959 3.20462 38.5126 3.18719 39.1229 3.64399C39.768 4.12521 40.3852 4.64304 41.0407 5.10159C41.1415 5.15659 41.2525 5.1901 41.3669 5.2C41.4812 5.2099 41.5963 5.19598 41.705 5.15912C42.5768 4.82262 43.4346 4.46171 44.275 4.05895C44.3871 3.99877 44.4858 3.91666 44.5655 3.81752C44.6452 3.71838 44.7041 3.60422 44.7388 3.48184C44.9131 2.631 45.0038 1.76621 45.1328 0.906646C45.227 0.296409 45.5931 -0.00173593 46.2068 7.6023e-06C47.382 7.6023e-06 48.5571 7.6023e-06 49.7305 7.6023e-06C50.4663 7.6023e-06 50.7766 0.301639 50.8882 1.04613C51.005 1.84118 51.0905 2.6432 51.2491 3.42954C51.2847 3.54913 51.3445 3.6601 51.4249 3.75551C51.5053 3.85091 51.6046 3.92869 51.7164 3.98398C52.6963 4.3972 53.6831 4.78078 54.778 5.23235ZM47.0123 1.98241C46.8781 2.88381 46.7194 3.71722 46.6357 4.55935C46.5677 5.25676 46.1911 5.54444 45.5687 5.77982C44.4108 6.20397 43.2775 6.69234 42.174 7.24265C41.3476 7.65935 41.1645 7.71689 40.4166 7.14501C39.768 6.6481 39.1246 6.14771 38.6172 5.75018L37.0481 7.08399C37.6008 7.83196 38.1029 8.54158 38.6399 9.22679C39.0392 9.7359 39.0148 10.1962 38.7463 10.7855C38.1974 11.9842 37.7137 13.2117 37.2974 14.4626C37.0899 15.092 36.7743 15.4216 36.1362 15.5C35.4248 15.5889 34.7117 15.6744 34.0073 15.8069C33.833 15.84 33.561 16.0388 33.5488 16.18C33.4982 16.778 33.5279 17.383 33.5279 17.9915C34.4694 18.131 35.3272 18.2757 36.1885 18.3803C36.8196 18.4553 37.0916 18.8092 37.2921 19.3933C37.7176 20.64 38.2005 21.8709 38.7428 23.0704C39.0078 23.6545 39.0479 24.1166 38.6434 24.6309C38.0959 25.3283 37.5868 26.0571 37.0864 26.7354L38.4934 28.1807C39.1909 27.6106 39.8883 27.0509 40.5682 26.4825C41.0564 26.078 41.5429 26.0554 42.0503 26.439C43.0944 27.2304 44.3086 27.7677 45.5966 28.0081C46.2103 28.1232 46.5503 28.4423 46.627 29.0804C46.7334 29.9522 46.8851 30.8239 47.0158 31.7114H49.061C49.2075 30.9163 49.3801 30.1736 49.476 29.4204C49.5719 28.6672 49.9554 28.315 50.6581 28.0587C51.8506 27.6057 53.0192 27.0918 54.1591 26.5192C54.6961 26.2576 55.1337 26.2489 55.601 26.6203C56.2775 27.159 56.9697 27.6769 57.627 28.1895L59.1055 26.7807C58.5824 26.0641 58.0594 25.3353 57.5171 24.6379C57.1109 24.1148 57.1684 23.665 57.423 23.0792C57.9705 21.8587 58.4342 20.5999 58.8841 19.3375C59.0724 18.8145 59.3374 18.478 59.9145 18.403C60.7706 18.2914 61.6249 18.1484 62.4792 18.0177V15.8522C61.6075 15.7319 60.7723 15.6116 59.9354 15.5035C59.3444 15.4285 58.9643 15.1722 58.7533 14.562C58.3087 13.277 57.8257 12.0008 57.273 10.7594C57.022 10.1927 56.9871 9.74985 57.3689 9.25643C57.9147 8.55901 58.429 7.82847 58.9224 7.16419L57.4788 5.69788C56.8424 6.18607 56.1903 6.69169 55.5347 7.19208C54.8792 7.69248 54.6176 7.63668 53.8906 7.24962C52.8481 6.67869 51.7619 6.1913 50.6424 5.79203C49.6416 5.44332 49.4777 5.38055 49.34 4.3013C49.2406 3.53241 49.1168 2.76525 49.0035 1.98589L47.0123 1.98241Z" fill="#082832"/>
<path d="M41.0372 57.5541C42.5087 56.8828 44.0273 56.2935 45.4448 55.5211C48.9755 53.6 51.9942 50.8605 54.2479 47.5322C54.7082 46.8575 55.2435 46.6866 55.7752 47.0406C56.307 47.3945 56.368 47.9751 55.9095 48.6376C52.4503 53.6398 47.8666 57.1809 42.1216 59.1947C41.9577 59.2523 41.7938 59.3081 41.6317 59.3691C41.5986 59.383 41.5742 59.4179 41.5044 59.4789C42.1199 59.8468 42.7162 60.1955 43.3037 60.5599C43.8913 60.9243 44.0761 61.4892 43.7972 61.9879C43.5008 62.5196 42.908 62.6434 42.2733 62.2703C40.9413 61.4927 39.615 60.7052 38.2946 59.9078C37.5815 59.4772 37.4629 58.9733 37.9127 58.2654C38.7264 56.9799 39.5511 55.7013 40.3868 54.4297C40.7896 53.8124 41.3649 53.6538 41.8775 53.992C42.3901 54.3303 42.4494 54.8987 42.0519 55.5385C41.6718 56.1453 41.283 56.7468 40.8977 57.3483L41.0372 57.5541Z" fill="#082832"/>
<path d="M24.1791 6.96887C19.9004 8.45262 16.2843 10.6303 13.2663 13.7355C12.255 14.7816 11.3658 15.9376 10.4348 17.0482C10.121 17.4248 9.78097 17.6968 9.26314 17.5539C8.5326 17.3516 8.30943 16.5653 8.80111 15.8818C12.3127 10.9931 17.2359 7.29585 22.9098 5.28636C23.0928 5.22185 23.2689 5.1399 23.5287 5.03355L21.7747 3.94384C21.1139 3.52888 20.9117 2.95526 21.2412 2.4322C21.5707 1.90914 22.1287 1.82196 22.779 2.21426C24.0413 2.97909 25.2996 3.75089 26.5538 4.52967C27.3052 4.99693 27.4098 5.44851 26.9565 6.22264C26.1998 7.51634 25.4356 8.80481 24.6638 10.0881C24.2593 10.7611 23.6891 10.9598 23.1521 10.6111C22.6151 10.2624 22.5611 9.72888 22.9446 9.06809C23.3282 8.40729 23.7066 7.77264 24.1791 6.96887Z" fill="#02B2E9"/>
<path d="M4.15103 30.6792C3.3246 30.6618 2.35171 29.8894 2.37088 29.2652C2.38089 29.0028 2.49397 28.755 2.68558 28.5754C2.87718 28.3959 3.13186 28.2992 3.39434 28.3063C4.22252 28.3202 5.19018 29.0909 5.171 29.722C5.16763 29.8521 5.13849 29.9802 5.08526 30.0989C5.03203 30.2176 4.95577 30.3246 4.8609 30.4136C4.76603 30.5026 4.65444 30.572 4.53259 30.6176C4.41073 30.6631 4.28104 30.6841 4.15103 30.6792Z" fill="#02B2E9"/>
<path d="M5.16758 43.9162C5.07866 44.0435 4.9479 44.3573 4.71427 44.5386C4.39348 44.764 4.0409 44.9403 3.66814 45.0617C3.16949 45.25 2.76848 45.0495 2.50521 44.6188C2.24193 44.1882 2.28727 43.7296 2.67084 43.4454C3.08385 43.1352 3.55005 42.903 4.04649 42.7602C4.6236 42.6016 5.17107 43.1333 5.16758 43.9162Z" fill="#02B2E9"/>
<path d="M17.4246 22.2214C17.3217 22.5701 17.3183 22.9938 17.1021 23.1821C16.837 23.4122 16.3628 23.5935 16.035 23.5308C15.3568 23.3895 15.3167 22.7688 15.3219 22.1778C15.3271 21.5867 15.3864 21.0131 16.0437 20.9015C16.4316 20.8718 16.8153 20.9972 17.1108 21.2502C17.3235 21.4403 17.3235 21.8727 17.4246 22.2214Z" fill="#02B2E9"/>
<path d="M23.2967 25.4765C23.1695 25.4539 22.9812 25.4765 22.9254 25.3998C22.6952 25.0912 22.4023 24.7739 22.3291 24.4199C22.2402 23.9631 23.091 22.8891 23.5496 22.8804C23.9423 22.8751 24.3231 23.0155 24.6184 23.2744C25.0002 23.6667 24.8555 24.1741 24.4963 24.5646C24.1615 24.9273 23.7989 25.2621 23.438 25.6108L23.2967 25.4765Z" fill="#02B2E9"/>
<path d="M28.4924 42.7271C29.1707 42.7271 30.1558 43.5517 30.1575 44.1219C30.1558 44.3852 30.052 44.6376 29.8679 44.8259C29.6838 45.0142 29.4339 45.1237 29.1707 45.1314C28.5064 45.1314 27.5161 44.298 27.5143 43.7366C27.5106 43.6056 27.5331 43.4753 27.5806 43.3531C27.628 43.231 27.6994 43.1197 27.7905 43.0256C27.8817 42.9315 27.9908 42.8566 28.1113 42.8054C28.2319 42.7541 28.3614 42.7275 28.4924 42.7271Z" fill="#02B2E9"/>
<path d="M10.2395 24.4862C10.2417 24.6168 10.2173 24.7465 10.1679 24.8674C10.1184 24.9884 10.0449 25.098 9.95181 25.1896C9.8587 25.2812 9.74795 25.353 9.62627 25.4005C9.50458 25.448 9.37451 25.4704 9.24395 25.4661C8.66335 25.4661 7.84912 24.4862 7.84912 23.8062C7.85371 23.5426 7.96249 23.2916 8.15166 23.108C8.34083 22.9244 8.59501 22.8231 8.85863 22.8264C9.44097 22.8281 10.2535 23.7923 10.2395 24.4862Z" fill="#02B2E9"/>
<path d="M1.996 35.636C2.47199 35.5994 2.96018 35.6901 3.1973 36.2271C3.30556 36.4328 3.33394 36.6712 3.27697 36.8965C3.22 37.1218 3.0817 37.3181 2.88869 37.4476C2.50163 37.744 1.27592 37.737 0.899322 37.4354C0.711672 37.3013 0.578951 37.1038 0.525737 36.8794C0.472524 36.655 0.502423 36.4189 0.609895 36.2149C0.801683 35.7703 1.1469 35.6343 1.996 35.636Z" fill="#02B2E9"/>
<path d="M28.4925 30.6793C28.3622 30.6812 28.2328 30.6568 28.1122 30.6075C27.9915 30.5581 27.8821 30.485 27.7904 30.3923C27.6988 30.2997 27.6267 30.1895 27.5787 30.0683C27.5307 29.9471 27.5076 29.8175 27.5109 29.6872C27.5109 29.0857 28.4577 28.2924 29.1725 28.3046C29.3027 28.3043 29.4316 28.33 29.5518 28.3799C29.672 28.4299 29.7811 28.5032 29.8727 28.5957C29.9643 28.6881 30.0367 28.7978 30.0856 28.9185C30.1345 29.0391 30.159 29.1682 30.1576 29.2984C30.1559 29.9017 29.2126 30.6828 28.4925 30.6793Z" fill="#02B2E9"/>
<path d="M30.7032 37.8469C30.2517 37.5732 29.7861 37.4163 29.5176 37.0955C29.1899 36.7049 29.3433 36.2237 29.7286 35.8855C30.1471 35.5106 31.3937 35.5176 31.8104 35.8855C32.2271 36.2534 32.3335 36.7694 31.976 37.1565C31.6988 37.4721 31.2054 37.5906 30.7032 37.8469Z" fill="#02B2E9"/>
<path d="M48.0009 10.9319C49.5944 10.9575 51.1141 11.6082 52.2324 12.7436C53.3507 13.8791 53.9782 15.4084 53.9796 17.0021C53.9809 18.5958 53.3561 20.1263 52.2398 21.2637C51.1234 22.401 49.6048 23.0543 48.0114 23.0826C47.2049 23.097 46.4037 22.9506 45.6544 22.652C44.9051 22.3535 44.2227 21.9088 43.6471 21.3438C43.0714 20.7788 42.614 20.1048 42.3016 19.3612C41.9891 18.6176 41.8278 17.8192 41.8272 17.0126C41.8265 16.206 41.9864 15.4074 42.2975 14.6632C42.6087 13.9191 43.0649 13.2443 43.6396 12.6783C44.2143 12.1123 44.8959 11.6664 45.6447 11.3666C46.3934 11.0667 47.1944 10.919 48.0009 10.9319ZM48.0341 21.0619C48.8398 21.0577 49.6263 20.8144 50.2936 20.3627C50.961 19.9111 51.4792 19.2715 51.7827 18.5251C52.0862 17.7786 52.1612 16.9588 51.9982 16.1697C51.8353 15.3805 51.4417 14.6575 50.8674 14.0922C50.2931 13.527 49.5639 13.145 48.7723 12.9946C47.9806 12.8442 47.1622 12.9323 46.4206 13.2476C45.6791 13.5628 45.0478 14.0912 44.6068 14.7657C44.1659 15.4401 43.9351 16.2303 43.9437 17.036C43.9529 18.1121 44.3889 19.1405 45.1558 19.8954C45.9228 20.6502 46.958 21.0698 48.0341 21.0619Z" fill="#082832"/>
</svg>
