<svg width="61" height="59" viewBox="0 0 61 59" fill="none" xmlns="http://www.w3.org/2000/svg">
<path d="M0.397354 30.0305C0.782244 29.3859 1.3584 29.2041 2.08804 29.2218C3.46349 29.2596 4.84248 29.2336 6.22029 29.2336H6.8543C6.77047 28.1876 6.66185 27.2135 6.61817 26.236C6.44139 22.3702 7.19361 18.5185 8.81181 15.0033C9.13176 14.2949 9.76931 14.021 10.3962 14.2949C11.0432 14.5724 11.29 15.2394 10.9582 15.9773C9.58824 18.9538 8.90242 22.1994 8.95112 25.4756C8.97001 26.5925 9.14711 27.7059 9.22975 28.8227C9.25455 29.1569 9.39504 29.2714 9.71146 29.2407C11.3207 29.0908 11.813 29.6504 11.7032 31.3257C11.689 31.537 11.7032 31.7507 11.7032 31.9987H14.329V31.347C14.329 27.7861 14.329 24.2249 14.329 20.6633C14.329 19.5665 14.7268 19.1674 15.8189 19.1663H24.8438V18.4815C24.8438 16.5925 24.8438 14.7034 24.8438 12.8144C24.8438 11.8852 25.2912 11.4153 26.211 11.4165C29.6152 11.4236 33.019 11.4405 36.4224 11.4673C37.3161 11.4744 37.7211 11.9171 37.7211 12.8534C37.7211 16.7101 37.7211 20.5669 37.7211 24.4237V25.197C37.9784 25.2112 38.2028 25.2336 38.4295 25.2336C41.1646 25.2336 43.8998 25.2336 46.6349 25.2336C47.8829 25.2336 48.2406 25.5984 48.2406 26.8605C48.2406 30.796 48.2406 34.7315 48.2406 38.667V39.4084C48.3596 39.319 48.4713 39.2203 48.5747 39.1132C52.5004 34.1545 53.9844 28.5099 53.2395 22.2548C53.1769 21.7294 53.0624 21.21 52.9714 20.6869C52.8404 19.929 53.197 19.3138 53.8451 19.1792C54.5535 19.0317 55.1438 19.4331 55.2902 20.2158C56.7259 27.9136 55.086 34.8476 50.119 40.9491C49.8581 41.2691 49.6231 41.6434 49.2926 41.8653C47.9053 42.7886 48.2477 44.1522 48.2713 45.5123C50.1344 45.0838 51.9526 44.68 53.7637 44.2431C55.0269 43.9385 56.2773 43.7791 57.5276 44.2821C59.2182 44.9633 60.2737 46.1959 60.7224 47.9563C60.7554 48.085 60.8074 48.2101 60.8499 48.3364V49.8713C60.812 49.9143 60.7817 49.9634 60.7602 50.0165C60.2749 52.2396 58.903 53.5856 56.7129 54.1417C52.1415 55.2971 47.572 56.4581 43.0044 57.6246C39.9785 58.392 37.0056 58.2338 34.0906 57.0886C28.8627 55.0366 23.6194 53.0201 18.4093 50.9185C16.924 50.3199 15.4577 49.915 13.8437 50.0519C13.1483 50.1109 12.4446 50.0614 11.7056 50.0614C11.7056 50.3671 11.7056 50.5808 11.7056 50.7945C11.6985 51.9646 11.3148 52.3483 10.1412 52.3483C7.40684 52.3483 4.67129 52.3306 1.93691 52.3601C1.22853 52.3683 0.722031 52.144 0.402076 51.5183L0.397354 30.0305ZM11.7315 47.7001C13.0952 47.7001 14.4104 47.6682 15.7221 47.7154C16.3062 47.7283 16.8842 47.8372 17.4329 48.0377C23.2723 50.3046 29.0988 52.6021 34.9312 54.8855C37.1744 55.7615 39.4802 56.0283 41.8179 55.4557C46.6585 54.2751 51.4933 53.0271 56.3233 51.7816C57.9242 51.3683 58.7767 49.9185 58.3859 48.4037C57.9951 46.889 56.5689 46.033 54.9679 46.3966C51.367 47.2148 47.7565 47.994 44.1721 48.876C40.8167 49.7024 37.5605 49.5785 34.3503 48.2573C32.5723 47.5242 30.7588 46.876 28.9619 46.1865C27.1295 45.4781 25.2948 44.7827 23.4683 44.0613C22.7836 43.791 22.5026 43.1676 22.7245 42.5359C22.9394 41.9244 23.5852 41.6351 24.2759 41.8488C24.4246 41.8948 24.5675 41.9669 24.7151 42.0188L32.0847 44.8465C32.9583 45.1818 33.8285 45.1699 34.6478 44.7178C35.7824 44.0932 36.3574 43.1026 36.2842 41.8063C36.2146 40.5737 35.5581 39.7106 34.42 39.2384C30.6844 37.6862 26.9457 36.1412 23.2039 34.6032C22.8804 34.47 22.5347 34.3991 22.185 34.3942C18.9004 34.3789 15.6147 34.3836 12.3301 34.3859C12.1389 34.3859 11.9476 34.4025 11.7315 34.4131V47.7001ZM35.3326 13.8156H27.2381C27.2263 13.9856 27.2051 14.1379 27.2051 14.2878C27.2051 20.6019 27.2023 26.9168 27.1968 33.2325C27.1968 33.5866 27.3042 33.7508 27.6289 33.883C30.0481 34.8688 32.4589 35.8736 34.8734 36.87C35.0115 36.9267 35.1602 36.9597 35.335 37.0129L35.3326 13.8156ZM37.7529 27.6362C37.74 27.7909 37.7222 27.9054 37.7211 28.0199C37.7211 31.5418 37.7211 35.0648 37.7293 38.5867C37.7449 38.8371 37.8206 39.0801 37.9501 39.2951C38.8568 40.9267 38.943 42.6103 38.1331 44.2703C37.7954 44.9622 37.7104 45.628 37.7081 46.3589C37.7081 46.7697 37.858 46.8748 38.2405 46.9397C40.8663 47.3896 43.3409 46.6505 45.8498 46.046V27.6362H37.7529ZM2.80587 31.6268V49.9433H9.29941V31.6221L2.80587 31.6268ZM16.7375 21.5476V32.0282C18.0421 32.0282 19.2983 32.0282 20.5545 32.0282C21.9606 32.0282 23.388 31.8594 24.6868 32.6327C24.7127 32.6492 24.7623 32.6268 24.8048 32.6209V21.5429L16.7375 21.5476Z" fill="#02B2E9"/>
<path d="M31.087 0.625488C34.2004 0.663269 36.9902 1.13671 39.6927 2.14616C40.5463 2.46611 40.8934 3.06234 40.6372 3.76246C40.3929 4.4189 39.7199 4.66211 38.9088 4.36931C33.8548 2.54404 28.7915 2.51845 23.7186 4.29257C21.1165 5.20801 18.7124 6.61038 16.6348 8.42482C15.8166 9.13321 15.1401 9.20169 14.6277 8.63026C14.1153 8.05882 14.2593 7.35634 15.0999 6.63379C19.7682 2.63967 25.1909 0.682159 31.087 0.625488Z" fill="#082832"/>
<path d="M52.8014 4.01709C53.1957 4.33704 53.5842 4.54366 53.8144 4.86479C54.1013 5.26503 54.0057 5.74319 53.6904 6.12454C53.1509 6.77626 52.5913 7.41026 52.0375 8.04899C49.42 11.0644 46.8096 14.0868 44.1662 17.0809C43.8934 17.3902 43.4283 17.6901 43.0469 17.696C42.7057 17.696 42.2594 17.3655 42.0363 17.0538C41.7423 16.6417 41.8781 16.1458 42.2205 15.7551C43.3799 14.417 44.5404 13.0789 45.7022 11.7409C47.7022 9.43861 49.6939 7.13635 51.7105 4.84236C51.9773 4.53775 52.3669 4.33941 52.8014 4.01709Z" fill="#082832"/>
<path d="M51.0139 18.3363C50.4291 18.3377 49.8571 18.1658 49.3699 17.8423C48.8828 17.5187 48.5025 17.0581 48.277 16.5186C48.0515 15.979 47.9909 15.3848 48.103 14.8108C48.215 14.2369 48.4946 13.709 48.9064 13.2939C49.3183 12.8787 49.8439 12.595 50.4169 12.4784C50.9899 12.3618 51.5847 12.4176 52.126 12.6388C52.6673 12.86 53.131 13.2366 53.4584 13.7211C53.7858 14.2057 53.9622 14.7763 53.9655 15.3611C53.9683 16.147 53.659 16.9018 53.1055 17.4597C52.5521 18.0176 51.7997 18.3329 51.0139 18.3363ZM51.6928 15.4756C51.6928 15.3906 51.6869 15.3068 51.6845 15.223C51.4484 15.0777 51.2288 14.844 50.9761 14.8097C50.8984 14.7935 50.8179 14.7978 50.7423 14.8221C50.6668 14.8463 50.5988 14.8898 50.5451 14.9483C50.4915 15.0067 50.4539 15.0781 50.4361 15.1554C50.4183 15.2328 50.4209 15.3134 50.4436 15.3894C50.505 15.6197 50.8108 15.9195 51.0245 15.9325C51.2382 15.9455 51.4696 15.6386 51.6928 15.4756Z" fill="#082832"/>
<path d="M47.3975 6.81327C47.3975 7.59733 47.0861 8.34929 46.5316 8.90371C45.9772 9.45813 45.2253 9.7696 44.4412 9.7696C43.6571 9.7696 42.9052 9.45813 42.3508 8.90371C41.7963 8.34929 41.4849 7.59733 41.4849 6.81327C41.4849 6.0292 41.7963 5.27724 42.3508 4.72282C42.9052 4.1684 43.6571 3.85693 44.4412 3.85693C45.2253 3.85693 45.9772 4.1684 46.5316 4.72282C47.0861 5.27724 47.3975 6.0292 47.3975 6.81327ZM44.564 6.12495H44.3172C44.1626 6.36108 43.8698 6.59721 43.8922 6.81327C43.9146 7.02932 44.2464 7.35282 44.4542 7.354C44.662 7.35518 44.9784 7.01634 44.9985 6.80264C45.0185 6.58894 44.721 6.35282 44.5652 6.12495H44.564Z" fill="#082832"/>
<path d="M11.2262 11.3231C11.2264 11.1702 11.2574 11.0189 11.3174 10.8782C11.3774 10.7376 11.4651 10.6105 11.5753 10.5044C11.6855 10.3984 11.8159 10.3157 11.9588 10.2612C12.1017 10.2067 12.2541 10.1816 12.4069 10.1873C12.5643 10.1877 12.7201 10.2202 12.8646 10.2829C13.009 10.3455 13.1392 10.437 13.2471 10.5518C13.355 10.6665 13.4383 10.802 13.492 10.9501C13.5456 11.0982 13.5685 11.2556 13.5592 11.4128C13.5412 11.7203 13.4049 12.0088 13.1789 12.2179C12.9528 12.427 12.6545 12.5405 12.3466 12.5344C12.0378 12.5212 11.7468 12.3865 11.5369 12.1596C11.327 11.9327 11.2153 11.632 11.2262 11.3231Z" fill="#082832"/>
</svg>
