<svg width="221" height="62" viewBox="0 0 221 62" fill="none" xmlns="http://www.w3.org/2000/svg">
<path d="M49.5503 0.0211526C49.3789 0.598911 48.9937 0.824378 48.7025 1.11561C35.8728 13.95 23.0462 26.7804 10.2228 39.607C9.44073 40.3914 9.04851 40.328 8.32514 39.5812C5.74167 36.9131 3.10418 34.2968 0.447899 31.7016C-0.12986 31.1379 -0.16274 30.8232 0.431458 30.2313C10.3269 20.386 20.2052 10.5218 30.0662 0.638838C30.435 0.270106 30.7873 -0.00233354 31.3697 1.50691e-05C37.3892 0.0281984 43.4134 0.0211526 49.5503 0.0211526Z" fill="#082832"/>
<path d="M190.754 37.5404C187.665 37.5404 184.574 37.5404 181.484 37.5286C180.864 37.5286 180.572 37.6296 180.638 38.36C181.206 44.7013 188.034 48.3698 193.499 45.2602C194.696 44.582 195.696 43.6033 196.4 42.4208C196.766 41.8101 197.116 41.7326 197.708 42.0896C198.27 42.4444 198.869 42.7365 199.495 42.961C200.449 43.2898 200.55 43.689 199.979 44.5439C196.613 49.5676 191.392 51.1764 185.464 49.9293C180.687 48.9241 176.916 44.1235 176.375 38.8509C175.99 35.0767 176.57 31.5256 178.698 28.3174C181.594 23.9701 186.526 22.1006 191.963 23.2843C196.573 24.2895 200.033 28.1177 200.853 33.0874C201.033 34.1771 201.015 35.2622 201.073 36.3543C201.12 37.2421 200.874 37.585 199.899 37.5638C196.86 37.4981 193.807 37.5404 190.754 37.5404ZM188.68 34.0174C190.909 34.0174 193.142 33.9611 195.369 34.0409C196.435 34.0809 196.543 33.637 196.334 32.8009C195.864 31.0018 194.995 29.4799 193.464 28.3714C188.875 25.041 182.155 27.7255 181.028 33.3035C180.896 33.954 181.098 34.008 181.636 34.008C183.985 34.008 186.333 34.0174 188.682 34.0174H188.68Z" fill="#082832"/>
<path d="M76.7285 31.4784C76.7285 25.8417 76.7473 20.2215 76.7097 14.5942C76.7097 13.6782 76.9445 13.4034 77.884 13.4199C84.147 13.4622 90.4037 13.4622 96.6541 13.4199C97.5442 13.4199 97.7697 13.6759 97.765 14.5425C97.7462 17.5957 97.7791 17.5957 94.74 17.5957C90.5947 17.5957 86.4494 17.6239 82.3064 17.5746C81.367 17.5746 81.017 17.7578 81.0405 18.7794C81.1063 22.0236 81.1063 25.2671 81.0405 28.5097C81.0194 29.5407 81.2425 29.9189 82.3675 29.893C86.5504 29.8202 90.7356 29.893 94.9208 29.8437C95.818 29.8437 96.1327 30.034 96.121 30.9969C96.0834 34.0242 96.121 34.0242 93.0678 34.0242C89.4321 34.0242 85.7871 34.0524 82.1585 34.0031C81.2683 34.0031 81.0429 34.2568 81.0499 35.1257C81.0922 39.6186 81.0499 44.1139 81.0898 48.6091C81.0898 49.511 80.8151 49.7177 79.9578 49.7153C76.7261 49.6989 76.7261 49.7294 76.7261 46.4907L76.7285 31.4784Z" fill="#082832"/>
<path d="M135.091 49.5533H131.569C131.569 48.5105 131.569 47.4693 131.569 46.4297C131.569 46.1948 131.569 45.9271 131.294 45.8613C131.019 45.7955 130.899 46.014 130.876 46.27C128.889 49.2316 125.962 50.42 122.552 50.4341C117.216 50.4575 113.628 47.2564 113.357 41.8358C113.073 36.0653 113.249 30.2712 113.209 24.489C113.209 23.9112 113.444 23.7139 113.984 23.7679H114.102C117.545 23.6317 117.524 23.6317 117.55 27.0936C117.585 31.5066 117.385 35.9267 117.655 40.335C117.855 43.6231 119.173 45.4527 121.648 46.1878C124.419 47.0121 127.327 46.075 129.215 43.757C129.839 42.9535 130.341 42.0624 130.704 41.1124C131.439 40.6709 131.329 39.9381 131.331 39.2523C131.35 34.1042 131.36 28.9568 131.362 23.8102H135.091C135.091 32.3842 135.091 40.9652 135.091 49.5533Z" fill="#082832"/>
<path d="M23.5817 35.7107C25.8317 33.4294 28.0809 31.1489 30.3293 28.8692C30.4499 28.7426 30.596 28.6431 30.758 28.5771C30.9199 28.5111 31.094 28.4802 31.2687 28.4864L49.2191 28.5005C49.3153 28.5175 49.4071 28.5534 49.4892 28.6061L33.211 45.0957C32.8611 44.7904 32.49 44.5039 32.1612 44.1774C29.2974 41.3591 26.4376 38.5369 23.5817 35.7107Z" fill="#082832"/>
<path d="M155.496 45.5467C155.496 46.6411 155.393 47.5547 155.52 48.4331C155.703 49.7014 155.05 50.0654 153.986 50.2533C152.342 50.5445 150.698 50.5468 149.124 49.9785C146.283 48.9615 144.742 46.6693 144.732 43.44C144.716 38.6676 144.702 33.8952 144.749 29.1134C144.749 28.0894 144.549 27.5305 143.413 27.7418C143.334 27.7489 143.256 27.7489 143.178 27.7418C139.85 27.7418 139.864 27.7418 140.204 24.4092C140.256 23.9019 140.439 23.7281 140.923 23.7398C141.862 23.7609 142.802 23.7022 143.741 23.7586C144.502 23.8056 144.768 23.559 144.747 22.7769C144.695 20.9802 144.747 19.1788 144.716 17.3751C144.697 16.647 144.951 16.3839 145.655 16.4591C146.771 16.5765 148.185 15.9894 148.925 16.7081C149.564 17.3351 149.082 18.7185 149.11 19.7613C149.138 20.804 149.155 21.7975 149.11 22.8144C149.075 23.519 149.293 23.7774 150.029 23.7539C151.553 23.7022 153.082 23.7539 154.606 23.7281C155.207 23.7281 155.405 23.9113 155.437 24.5266C155.609 27.7348 155.628 27.7277 152.445 27.7371C151.395 27.7371 150.019 27.3989 149.392 27.925C148.638 28.5474 149.157 29.9777 149.145 31.0534C149.108 34.4941 149.131 37.9372 149.131 41.3873C149.131 41.702 149.131 42.0143 149.131 42.3267C149.249 45.7862 151.511 47.2306 154.707 45.8872C154.911 45.8097 155.118 45.7134 155.496 45.5467Z" fill="#082832"/>
<path d="M33.1922 45.2625L49.5151 61.7708C49.2802 62.0174 48.8998 61.8671 48.5756 61.8671C42.9813 61.8671 37.3869 61.8671 31.7901 61.8859C31.4447 61.908 31.0987 61.8524 30.7776 61.7231C30.4565 61.5939 30.1685 61.3943 29.9347 61.1391C27.8538 58.9666 25.7213 56.8435 23.6076 54.7039L24.237 54.1872C24.3309 54.321 24.446 54.4408 24.6175 54.3821C26.7758 53.6282 28.9389 52.8837 31.0855 52.1016C31.9804 51.7775 31.9663 51.2256 31.3204 50.6149C30.6745 50.0043 30.0521 49.4406 30.0968 48.466C30.9376 47.2212 32.1025 46.2817 33.1922 45.2625Z" fill="#082832"/>
<path d="M158.561 27.4788V24.1908C158.594 24.172 158.655 24.1461 158.653 24.1344C158.637 24.0747 158.616 24.0165 158.589 23.9606C159.705 23.505 160.87 23.7939 162.007 23.7821C162.798 23.7821 162.995 23.5191 162.986 22.7699C162.955 20.8205 163.007 18.8665 163.023 16.9148C163.056 16.896 163.117 16.8701 163.115 16.8584C163.1 16.7993 163.078 16.7419 163.052 16.687C164.327 16.2313 165.635 16.5484 166.939 16.5085C167.521 16.4897 167.39 17.0463 167.394 17.4056C167.406 19.1248 167.46 20.8487 167.375 22.5726C167.326 23.5872 167.688 23.8361 168.637 23.7798C169.961 23.7023 171.298 23.8056 172.629 23.7422C173.433 23.7046 173.597 24.0123 173.604 24.7544C173.625 27.7536 173.649 27.7536 170.649 27.7536C169.905 27.7536 169.158 27.8076 168.421 27.7395C167.563 27.662 167.385 28.0284 167.39 28.8128C167.42 33.2752 167.39 37.7376 167.406 42.1811C167.406 45.845 169.755 47.3316 173.094 45.8191C173.266 45.7416 173.44 45.6712 173.799 45.5209C173.799 46.8666 173.799 48.0902 173.799 49.3162C173.799 49.6568 173.592 49.8 173.329 49.9034C169.264 51.4628 163.261 49.7648 163.061 44.1399C163.089 44.1164 163.146 44.0788 163.141 44.0694C163.111 44.0134 163.076 43.96 163.038 43.9097C163.021 38.9518 162.974 33.9939 163.007 29.0383C163.007 28.0401 162.821 27.6291 161.736 27.7301C160.773 27.8264 159.789 27.7301 158.812 27.7043L158.561 27.4788Z" fill="#082832"/>
<path d="M33.1922 45.2625C32.1025 46.2771 30.9376 47.2165 30.0968 48.4683C27.9595 50.1922 26.1441 52.2426 24.2252 54.1896L23.6029 54.7039C20.5309 51.6648 17.4542 48.6265 14.3728 45.589C14.0017 45.2249 14.152 45.0323 14.4339 44.7528C17.4902 41.7435 20.5434 38.7294 23.5935 35.7107C26.4525 38.529 29.3131 41.3474 32.1753 44.1657C32.5041 44.4922 32.8799 44.7787 33.2251 45.084C33.2338 45.1455 33.2222 45.2081 33.1922 45.2625Z" fill="#082832"/>
<path d="M210.231 27.5305C212.765 23.3852 217.042 22.481 219.951 23.2349C220.724 23.4345 221.058 23.7563 220.992 24.59C220.912 25.5624 220.961 26.5441 220.978 27.5211C220.978 28.0354 220.879 28.2257 220.306 28.0049C214.303 25.6845 210.299 30.9242 210.442 35.558C210.573 39.8936 210.442 44.2362 210.489 48.5741C210.489 49.4266 210.306 49.8141 209.394 49.699C208.321 49.5652 206.933 50.1688 206.24 49.4477C205.609 48.7901 206.057 47.435 206.055 46.3945C206.038 39.2806 206.055 32.1667 206.027 25.0527C206.027 24.1133 206.233 23.7727 207.243 23.7915C210.212 23.8455 210.214 23.7915 210.235 26.7672C210.233 27.0185 210.231 27.2745 210.231 27.5305Z" fill="#082832"/>
<path d="M103.164 13.4692H106.673V49.5486H103.15C103.15 37.5222 103.155 25.4957 103.164 13.4692Z" fill="#082832"/>
<path d="M103.164 13.4692C103.164 25.4973 103.161 37.5237 103.153 49.5486C102.401 49.6238 102.728 49.0413 102.721 48.7548C102.688 47.2728 102.704 45.7885 102.704 44.2924C102.704 34.4142 102.712 24.5367 102.728 14.66C102.728 14.2772 102.298 13.5984 103.164 13.4692Z" fill="#082832"/>
<path d="M106.673 49.5486V13.4692C107.472 13.5585 107.11 14.1903 107.112 14.5543C107.141 19.8645 107.131 25.1747 107.131 30.4849C107.131 36.4974 107.131 42.5098 107.105 48.5199C107.094 48.844 107.559 49.5251 106.673 49.5486Z" fill="#082832"/>
<path d="M135.091 49.5532C135.091 40.9667 135.087 32.3794 135.08 23.7913C135.681 23.7725 135.517 24.2352 135.517 24.5382C135.526 32.6487 135.526 40.7585 135.517 48.8675C135.507 49.1305 135.749 49.6519 135.091 49.5532Z" fill="#082832"/>
<path d="M131.334 23.8008C131.334 28.9489 131.323 34.0963 131.303 39.2429C131.303 39.9193 131.411 40.6521 130.676 41.103C131.296 35.7341 130.798 30.3464 130.977 24.9704C131 24.5805 130.66 24.0122 131.334 23.8008Z" fill="#082832"/>
<path d="M130.864 46.2607C130.887 46.0047 130.981 45.7792 131.282 45.852C131.583 45.9248 131.557 46.1878 131.557 46.4204C131.557 47.4616 131.557 48.5028 131.557 49.544C130.873 49.2739 131.31 48.6915 131.204 48.264C131.047 47.6111 131.545 46.8314 130.864 46.2607Z" fill="#082832"/>
<path d="M163.052 16.6917C163.078 16.7466 163.1 16.804 163.115 16.8631C163.115 16.8631 163.056 16.9007 163.023 16.9195L163.052 16.6917Z" fill="#082832"/>
<path d="M158.589 23.9653C158.616 24.0213 158.637 24.0794 158.653 24.1391C158.653 24.1509 158.594 24.1767 158.561 24.1955L158.589 23.9653Z" fill="#082832"/>
<path d="M158.561 27.4788L158.796 27.7019C158.632 27.7207 158.552 27.6479 158.561 27.4788Z" fill="#082832"/>
<path d="M163.023 43.9072C163.062 43.9575 163.097 44.011 163.127 44.0669C163.127 44.0669 163.075 44.1139 163.047 44.1374C163.04 44.0622 163.04 43.9847 163.023 43.9072Z" fill="#082832"/>
<path d="M24.237 54.187C26.1534 52.24 27.9689 50.1944 30.1085 48.4658C30.0639 49.4405 30.7121 50.0183 31.3321 50.6148C31.9522 51.2113 31.9827 51.7774 31.0973 52.1015C28.9506 52.8836 26.7876 53.6281 24.6292 54.382C24.4366 54.4477 24.3215 54.328 24.237 54.187Z" fill="#082832"/>
</svg>
