<svg width="240" height="261" viewBox="0 0 240 261" fill="none" xmlns="http://www.w3.org/2000/svg">
<g opacity="0.05">
<path d="M33.3243 50.9549C33.3243 50.9549 146.958 59.9665 212.301 186.345C277.645 312.724 118.091 249.319 81.6139 208.139C81.6139 208.139 202.356 275.6 168.966 181.857C145.085 134.503 107.785 95.2307 61.7236 68.9423L33.3243 50.9549Z" fill="#00C3FF"/>
<path d="M53.2146 245.083C53.2146 245.083 26.2155 126.854 100.786 47.6159C175.357 -31.6222 223.646 -15.4299 184.584 122.366C184.584 122.366 182.394 25.7869 130.729 65.5316C79.0648 105.276 63.3034 154.32 58.9232 184.012C54.543 213.704 53.2146 245.083 53.2146 245.083Z" fill="#8EC939"/>
<path d="M238.582 119.35C238.582 119.35 178.193 215.247 40.4332 207.528C-97.3268 199.809 -9.40025 103.05 64.5601 90.2688C64.5601 90.2688 -42.0002 171.194 77.7006 176.185C77.7006 176.185 162.181 181.786 206.593 143.585C249.748 106.497 238.582 119.35 238.582 119.35Z" fill="#FF9100"/>
</g>
</svg>
