<svg width="102" height="102" viewBox="0 0 102 102" fill="none" xmlns="http://www.w3.org/2000/svg">
<circle cx="51.4571" cy="51.0001" r="37" transform="rotate(60 51.4571 51.0001)" fill="#D3F5FF"/>
<path d="M25 48.8499C25.2431 48.3392 25.1888 47.7769 25.2798 47.2404C26.7263 38.6145 31.2559 32.1182 38.9718 28.0368C49.9542 22.2237 63.156 24.9537 71.0919 34.5358C74.9927 39.2488 77.1115 44.7223 76.9906 50.8342C76.8331 58.8707 74.0542 65.8492 67.7236 71.1108C64.0918 74.1301 59.8705 75.8863 55.2105 76.6061C54.2402 76.7553 53.2628 76.8536 52.2822 76.9008C52.1912 76.9008 52.073 76.8574 52.0336 77H51.7281C51.164 76.835 50.5645 76.835 50.0004 77H49.798C49.7261 76.8194 49.5658 76.9022 49.4476 76.8941C47.8256 76.7943 46.2152 76.5553 44.6342 76.1796C39.1049 74.8296 34.4477 72.0629 30.8403 67.623C27.7069 63.7698 26.0091 59.3026 25.2988 54.4267C25.2051 53.7883 25.2377 53.1282 25 52.5116V48.8499ZM50.9946 74.8405C63.9818 74.8785 74.9261 64.2085 74.7496 51.2512C74.5472 36.4808 63.8161 27.4406 51.0883 27.4121C38.2805 27.3849 27.5561 36.4264 27.2791 51.1561C27.0359 64.0971 37.9301 74.7997 50.9946 74.8405Z" fill="#082832"/>
<path d="M51.0096 70.3178C40.6614 70.2675 31.8942 63.0256 31.6742 50.9389C31.4827 40.3735 40.3979 31.6674 51.0259 31.6742C61.6538 31.681 70.5745 40.4074 70.3599 50.9607C70.1113 63.2103 61.1866 70.2947 51.0096 70.3178ZM50.9824 68.1827C60.3689 68.2275 68.2669 60.5604 68.1215 51.1739C67.9531 40.3327 60.0579 34.0361 51.0761 34.0117C42.006 33.9859 34.1054 40.3273 33.9071 51.1576C33.736 60.4817 41.5606 68.1446 50.9824 68.1827Z" fill="#082832"/>
<path d="M48.2169 48.4378C48.2169 46.5594 48.2169 44.681 48.2169 42.8026C48.2169 41.8695 48.9789 41.3222 49.7789 41.6644C50.3018 41.8872 50.458 42.3313 50.4512 42.8624C50.4512 44.8589 50.4512 46.8555 50.4512 48.852C50.4512 50.1383 50.4702 51.4245 50.4403 52.7093C50.4308 53.1304 50.5761 53.2078 50.9578 53.2051C53.1744 53.1901 55.391 53.1942 57.613 53.2051C58.1943 53.2051 58.5529 53.4903 58.6995 54.0091C58.767 54.2377 58.7574 54.4822 58.6722 54.7048C58.587 54.9274 58.431 55.1158 58.2282 55.241C57.9941 55.3798 57.7246 55.4473 57.4527 55.4353C54.7961 55.4353 52.1394 55.4434 49.4828 55.4353C48.6461 55.4353 48.2197 54.9762 48.2169 54.1273C48.2142 52.2231 48.2169 50.3284 48.2169 48.4378Z" fill="#02B2E9"/>
</svg>
