<svg width="102" height="102" viewBox="0 0 102 102" fill="none" xmlns="http://www.w3.org/2000/svg">
<circle cx="51.4571" cy="50.5429" r="37" transform="rotate(60 51.4571 50.5429)" fill="#D3F5FF"/>
<path d="M34.9842 56.7694C34.2669 56.7694 33.5895 56.8429 32.933 56.755C32.1196 56.65 31.3729 56.2507 30.834 55.6326C30.295 55.0144 30.0012 54.2203 30.0079 53.4003C29.9973 46.7323 29.9973 40.0648 30.0079 33.3979C30.0129 32.527 30.3511 31.6911 30.9529 31.0616C31.5548 30.4321 32.3747 30.0568 33.2445 30.0128C33.3898 30.0032 33.5368 30 33.6822 30C42.0957 30 50.5092 30 58.9228 30C60.7615 30 62.1082 31 62.4964 32.6662C62.569 33.0231 62.6016 33.3869 62.5938 33.7509C62.6034 35.4443 62.5938 37.1361 62.5938 38.8278V39.4045H63.0938C64.8511 39.4045 66.594 39.4045 68.3448 39.4045C70.5334 39.4045 71.9983 40.8678 71.9999 43.0516C71.9999 49.5588 71.9999 56.0654 71.9999 62.5715C71.9999 64.7457 70.5622 66.1931 68.3928 66.2154C67.9439 66.2154 67.4966 66.2154 67.0157 66.2154V68.8385C67.0157 68.9983 67.0157 69.158 67.0157 69.3178C67.0365 69.6517 66.947 69.9376 66.6339 70.0894C66.3208 70.2411 66.0237 70.1469 65.7537 69.9137C64.4326 68.7667 63.1114 67.6196 61.7695 66.495C61.5602 66.329 61.3032 66.2344 61.0363 66.225C55.0722 66.2112 49.1082 66.2085 43.1442 66.217C42.4477 66.217 41.7767 66.1372 41.1665 65.7761C39.97 65.0684 39.3965 64.0061 39.3997 62.6226C39.3997 61.2073 39.3997 59.7919 39.3997 58.3765V57.8014C39.1984 57.9611 39.0802 58.0522 38.9619 58.1512C38.0769 58.9116 37.1935 59.6731 36.3117 60.4357C36.0353 60.6753 35.7558 60.8734 35.3692 60.6881C34.9826 60.5028 34.9682 60.1928 34.9714 59.8398C34.9889 58.8653 34.9842 57.8717 34.9842 56.7694ZM36.4043 58.5266C37.4954 57.5873 38.521 56.7231 39.5227 55.8317C39.8203 55.5534 40.2161 55.4046 40.6233 55.4179C46.7035 55.4286 52.7836 55.4286 58.8637 55.4179C60.3813 55.4179 61.1976 54.6191 61.1976 53.1047C61.1976 46.6423 61.1976 40.1798 61.1976 33.7174C61.1976 32.1966 60.3989 31.4042 58.8748 31.4026H49.4256C44.1624 31.4026 38.8986 31.4026 33.6343 31.4026C32.2684 31.4026 31.3978 32.2333 31.3978 33.5465C31.3978 40.125 31.3978 46.704 31.3978 53.2836C31.3978 54.5265 32.2668 55.3939 33.5176 55.4147C34.1886 55.4243 34.8595 55.4147 35.5305 55.4147C36.1695 55.4147 36.3963 55.6463 36.3979 56.2853C36.4059 57.0058 36.4043 57.7167 36.4043 58.525V58.5266ZM40.8454 56.8269C40.8454 58.9676 40.8055 61.0507 40.8662 63.1323C40.8885 63.9198 41.4461 64.4598 42.1969 64.7058C42.5334 64.7973 42.8821 64.8361 43.2305 64.8208C49.2946 64.8272 55.3593 64.8272 61.4245 64.8208C61.7893 64.8075 62.1449 64.9377 62.4149 65.1834C63.3447 66.003 64.2904 66.8049 65.2297 67.6117C65.3351 67.7011 65.447 67.781 65.6067 67.904C65.6067 67.1052 65.6067 66.3832 65.6067 65.6595C65.6067 65.0844 65.8543 64.8368 66.4342 64.8288C67.0892 64.8192 67.7458 64.8288 68.4024 64.8288C69.7778 64.8176 70.6037 63.9885 70.6053 62.6147C70.6053 56.0958 70.6053 49.5764 70.6053 43.0564C70.6053 41.665 69.7618 40.8199 68.3688 40.8199C66.5892 40.8199 64.8101 40.8199 63.0315 40.8199C62.8942 40.8199 62.7568 40.8327 62.5954 40.8407V41.4525C62.5954 45.3025 62.5954 49.153 62.5954 53.0041C62.6064 53.3828 62.5753 53.7616 62.5028 54.1335C62.129 55.7789 60.7583 56.8205 58.9883 56.8221C53.1307 56.8221 47.2695 56.8221 41.4045 56.8221L40.8454 56.8269Z" fill="#082832"/>
<path d="M55.4562 50.8441C55.6449 50.8829 55.8295 50.9396 56.0074 51.0134C56.2949 51.1732 56.4451 51.4655 56.3189 51.7515C56.2215 51.9687 55.9722 52.1381 55.7566 52.2771C55.6527 52.3458 55.4722 52.2994 55.3269 52.2994H37.2591C37.1568 52.2994 37.0546 52.2994 36.9539 52.2994C36.5498 52.2739 36.2638 52.0279 36.251 51.6604C36.2344 51.4906 36.2827 51.3208 36.3861 51.1851C36.4895 51.0494 36.6404 50.9578 36.8086 50.9288C36.906 50.9032 37.0067 50.8904 37.1409 50.8665C37.1409 50.7259 37.16 50.5853 37.16 50.4447C37.16 48.0676 37.16 45.689 37.1504 43.3119C37.1504 43.093 37.0019 42.871 36.9076 42.6569C36.6967 42.1776 36.382 41.7064 36.2846 41.2C36.1728 40.6073 36.2287 39.9795 36.251 39.3676C36.2769 39.1661 36.3509 38.9738 36.4667 38.8069C37.323 37.3835 38.1952 35.9697 39.0483 34.5432C39.1309 34.3815 39.2586 34.2473 39.416 34.1569C39.5734 34.0664 39.7536 34.0236 39.9349 34.0336C44.18 34.0399 48.4235 34.0399 52.6654 34.0336C52.8469 34.0235 53.0274 34.0662 53.1851 34.1567C53.3427 34.2471 53.4707 34.3814 53.5536 34.5432C54.4067 35.9681 55.2853 37.3803 56.1336 38.8069C56.2575 39.0342 56.3291 39.2864 56.3429 39.5449C56.3764 39.9795 56.3429 40.4188 56.354 40.8565C56.364 41.1999 56.3056 41.5418 56.1822 41.8624C56.0587 42.183 55.8728 42.4759 55.6352 42.724C55.5428 42.8113 55.4826 42.9273 55.4642 43.0531C55.4546 45.6485 55.452 48.2455 55.4562 50.8441ZM51.9306 42.7304C50.7372 43.748 49.4416 43.8151 48.1652 42.7416C46.7674 43.7959 45.9639 43.7959 44.4047 42.7416C43.9202 43.2313 43.2643 43.5137 42.5756 43.5291C41.8407 43.5291 41.2289 43.2224 40.6857 42.7304C40.4127 43.0032 40.0852 43.2153 39.7246 43.353C39.3639 43.4906 38.9784 43.5506 38.593 43.5291V50.8777H54.0169V43.5291C53.6326 43.5498 53.2482 43.4894 52.8887 43.3518C52.5293 43.2142 52.2028 43.0024 51.9306 42.7304ZM47.3761 38.6152C47.2435 37.5369 47.1157 36.4953 46.9847 35.4346C46.5725 35.4346 46.2243 35.4202 45.8776 35.4426C45.7786 35.4426 45.6092 35.5464 45.5996 35.6199C45.4623 36.6071 45.3488 37.5992 45.2274 38.6152H47.3761ZM48.4017 35.4362C48.5359 36.54 48.6621 37.5736 48.7883 38.6104H50.897C50.5216 37.5848 50.1669 36.6039 49.7963 35.6279C49.7726 35.5804 49.7382 35.539 49.6958 35.5072C49.6533 35.4753 49.6041 35.4537 49.5519 35.4442C49.1924 35.4266 48.8298 35.4394 48.4017 35.4394V35.4362ZM44.1986 35.4362C43.7705 35.4362 43.3999 35.4266 43.0229 35.4362C42.9766 35.4444 42.9329 35.463 42.895 35.4907C42.857 35.5184 42.8259 35.5544 42.804 35.5959C42.4334 36.5864 42.0755 37.5816 41.7049 38.6008H43.8104C43.9398 37.5608 44.066 36.5289 44.1986 35.4394V35.4362ZM54.3971 38.6472C53.7421 37.5672 53.1431 36.5704 52.5376 35.5895C52.5155 35.5537 52.4862 35.5228 52.4516 35.4989C52.4169 35.4749 52.3777 35.4585 52.3363 35.4505C51.9849 35.4362 51.6334 35.4505 51.2293 35.4505C51.6111 36.5017 51.9577 37.4714 52.3251 38.4315C52.358 38.4895 52.404 38.5389 52.4595 38.5758C52.515 38.6127 52.5785 38.6361 52.6446 38.644C53.1942 38.6583 53.7453 38.6472 54.3971 38.6472ZM38.192 38.6472C38.7895 38.6472 39.3103 38.6328 39.8231 38.6472C39.8786 38.658 39.9357 38.6578 39.9911 38.6465C40.0465 38.6351 40.0992 38.6129 40.146 38.5811C40.1927 38.5494 40.2328 38.5086 40.2637 38.4613C40.2947 38.4139 40.3159 38.3609 40.3263 38.3053C40.5052 37.751 40.7209 37.211 40.919 36.6646C41.0595 36.2733 41.1953 35.8819 41.3535 35.4314C40.9653 35.4314 40.6474 35.4186 40.3311 35.4394C40.2762 35.4452 40.2231 35.4624 40.1752 35.4899C40.1273 35.5174 40.0858 35.5546 40.0531 35.5991C39.4461 36.588 38.847 37.58 38.1968 38.6472H38.192ZM39.9621 40.0849H37.6457C37.6313 40.8022 37.5003 41.5227 38.2288 41.9524C38.4135 42.0718 38.6304 42.1318 38.8503 42.1244C39.0702 42.1169 39.2825 42.0424 39.4588 41.9109C40.141 41.4524 39.9748 40.7543 39.9668 40.0865L39.9621 40.0849ZM47.4703 40.0721H45.1539C45.1428 40.7495 44.9734 41.4428 45.6476 41.9077C45.8233 42.0402 46.0354 42.1157 46.2553 42.1239C46.4753 42.1322 46.6925 42.0729 46.8776 41.954C47.6109 41.5227 47.4751 40.8134 47.4687 40.0737L47.4703 40.0721ZM41.3998 40.0721C41.379 40.775 41.2401 41.4843 41.9509 41.9364C42.1389 42.0659 42.3633 42.132 42.5914 42.1251C42.8196 42.1182 43.0396 42.0387 43.2194 41.8981C43.8791 41.4284 43.7338 40.7431 43.713 40.0721H41.3998ZM54.9371 40.0833H52.6255C52.6111 40.7878 52.4785 41.4891 53.1734 41.9332C53.3548 42.0604 53.5709 42.1286 53.7924 42.1286C54.014 42.1286 54.2301 42.0604 54.4115 41.9332C55.1112 41.4779 54.9419 40.7702 54.9387 40.0865L54.9371 40.0833ZM48.8825 40.0673C48.8985 40.791 48.7132 41.5163 49.4624 41.9524C49.6546 42.0753 49.8808 42.1344 50.1085 42.1212C50.3363 42.108 50.5541 42.0232 50.7308 41.8789C51.3698 41.3997 51.1941 40.7303 51.1877 40.0673H48.8825Z" fill="#02B2E9"/>
</svg>
