<svg width="102" height="102" viewBox="0 0 102 102" fill="none" xmlns="http://www.w3.org/2000/svg">
<circle cx="51.4571" cy="51.1367" r="37" transform="rotate(60 51.4571 51.1367)" fill="#D3F5FF"/>
<path d="M40.9811 73.0001C40.0535 72.7875 39.3772 72.2028 38.7501 71.5276C38.3427 71.0861 37.8988 70.6798 37.4808 70.2489C37.0816 69.8379 37.0569 69.3201 37.4021 68.9572C37.7473 68.5944 38.3004 68.5874 38.7243 69.0007C39.3231 69.5878 39.8985 70.1843 40.4997 70.7691C41.1373 71.3949 41.7714 71.3914 42.416 70.7608C42.8446 70.3405 43.2673 69.9142 43.6901 69.488C44.3782 68.794 44.3629 68.2386 43.6736 67.5447C42.0955 65.9559 40.5314 64.3531 38.9533 62.7632C37.5708 61.3706 36.1821 59.9835 34.7871 58.6018C34.5802 58.3958 34.3614 58.2021 34.1319 58.0217C33.7797 57.747 33.1573 57.7716 32.7874 58.1157C32.2003 58.664 31.6214 59.2288 31.0766 59.8206C30.628 60.3091 30.6891 60.9561 31.194 61.4751C31.807 62.1057 32.4375 62.7174 33.0552 63.3421C33.3393 63.6298 33.4239 63.9703 33.2524 64.3484C33.0904 64.7077 32.7921 64.8991 32.4105 64.851C32.182 64.8179 31.9685 64.7173 31.7976 64.5621C31.1177 63.9163 30.4484 63.2588 29.8014 62.5765C29.2892 62.0389 29.0024 61.3255 29 60.5829C28.9976 59.8404 29.2798 59.1251 29.7885 58.5842C30.3451 57.983 30.924 57.3982 31.5298 56.8463C32.3776 56.0749 33.3745 55.8905 34.476 56.2099C34.618 56.2522 34.8494 56.2604 34.9363 56.177C35.8122 55.3339 36.6682 54.4697 37.5278 53.6102C37.5888 53.5503 37.6452 53.4834 37.698 53.4211C35.9367 51.5905 36.6248 49.0237 38.7184 48.1618C37.5912 46.2243 38.5235 44.0239 40.643 43.4227C40.4586 42.589 40.5255 41.7788 40.98 41.0237C41.1878 40.6725 41.4629 40.3658 41.7895 40.1212C42.1162 39.8766 42.4879 39.6989 42.8834 39.5982C42.908 39.0393 42.8552 38.5027 42.9679 38.0036C43.346 36.3351 44.9641 35.3746 46.6702 35.735C46.8565 35.7663 47.0476 35.7274 47.2069 35.6258C47.9771 35.088 48.8214 35.1655 49.6633 35.317C51.5632 35.6611 53.4572 36.0392 55.3571 36.3867C55.7094 36.4525 56.0887 36.4137 56.4468 36.4736C58.2081 36.7684 59.2908 38.2854 59.0101 40.0468C58.996 40.1337 58.9901 40.2217 58.9772 40.3486C59.7992 40.5834 60.4838 41.0261 60.937 41.7764C61.3903 42.5267 61.4713 43.3393 61.2799 44.18C63.1586 44.8071 63.9289 46.1926 63.6283 48.0796C64.7943 48.4119 65.6069 49.1364 65.9157 50.3282C66.2245 51.5201 65.8546 52.5205 64.9857 53.4071L67.1416 55.5606C67.2184 55.628 67.2903 55.701 67.3565 55.779C67.6747 56.2111 68.0058 56.3144 68.5706 56.1195C69.5628 55.7778 70.5198 56.0256 71.3042 56.7383C71.9218 57.2996 72.5132 57.8867 73.0784 58.4996C74.1458 59.6633 74.147 61.3941 73.0338 62.5178C69.8619 65.7266 66.6711 68.9181 63.4616 72.0924C62.3014 73.2396 60.526 73.1997 59.3436 72.063C58.8164 71.5546 58.2938 71.0403 57.7889 70.5096C56.8953 69.5702 56.6699 68.4805 57.1501 67.2722C57.2453 67.0374 57.1912 66.9082 57.0327 66.7474C55.9701 65.6964 54.9191 64.6338 53.8541 63.5875C53.7449 63.4786 53.6022 63.4095 53.449 63.3914C52.4991 63.3515 51.5479 63.3339 50.5968 63.3151C50.2751 63.3081 49.9404 63.2658 49.6351 63.3386C49.3099 63.4149 48.947 63.5382 48.7134 63.7601C47.7129 64.7054 46.7571 65.6988 45.7778 66.664C45.5958 66.8425 45.5594 66.9716 45.678 67.2206C46.2276 68.3737 46.0185 69.6219 45.1332 70.5507C44.6177 71.0908 44.121 71.6615 43.5386 72.1206C43.0689 72.4893 42.4818 72.7077 41.9522 73.0001H40.9811ZM36.269 57.383L44.3993 65.5544C45.4068 64.5445 46.4471 63.5147 47.4699 62.4673C47.7248 62.1938 48.032 61.9741 48.3732 61.8212C48.7144 61.6684 49.0828 61.5854 49.4567 61.5773C50.2753 61.5467 51.095 61.562 51.912 61.6231C53.341 61.7499 54.6127 61.5691 55.5685 60.3314C55.6415 60.2287 55.7366 60.1435 55.8467 60.082C55.9568 60.0206 56.0792 59.9845 56.2051 59.9763C56.3309 59.968 56.457 59.988 56.5741 60.0346C56.6913 60.0812 56.7966 60.1533 56.8824 60.2457C57.257 60.6215 57.2194 61.1135 56.8131 61.5726C56.435 62.0012 56.0828 62.4521 55.7563 62.8431L58.4453 65.5661L66.4382 57.5438L63.6624 54.7421C63.4815 54.9136 63.2831 55.1308 63.0553 55.3128C62.9631 55.3918 62.8551 55.4504 62.7386 55.4846C62.622 55.5187 62.4995 55.5278 62.3792 55.5112C62.2589 55.4945 62.1435 55.4525 62.0406 55.388C61.9378 55.3234 61.8498 55.2378 61.7824 55.1367C61.5229 54.7633 61.5723 54.3218 61.9421 53.9448C62.588 53.2861 63.2584 52.6532 63.8913 51.9804C64.1247 51.7409 64.2542 51.4189 64.2516 51.0845C64.2489 50.7501 64.1144 50.4302 63.8773 50.1944C63.645 49.9546 63.3285 49.8147 62.9949 49.8044C62.6612 49.7941 62.3367 49.9142 62.0901 50.1392C61.8353 50.3576 61.6087 50.6089 61.3668 50.8437C60.9053 51.2899 60.391 51.3275 60.0105 50.9459C59.6301 50.5643 59.6829 50.037 60.128 49.5885C60.6106 49.0977 61.1131 48.6256 61.5781 48.1195C61.8081 47.8778 61.9348 47.556 61.9315 47.2224C61.9282 46.8888 61.7952 46.5695 61.5605 46.3324C61.0603 45.8228 60.2982 45.8052 59.7417 46.3042C59.4692 46.5484 59.2203 46.8185 58.9584 47.0745C58.4888 47.5348 57.9451 47.5782 57.5693 47.1919C57.1936 46.8056 57.2488 46.2948 57.6985 45.8369C58.2222 45.3038 58.7682 44.793 59.272 44.2423C59.3886 44.1196 59.4796 43.9749 59.5395 43.8166C59.5995 43.6583 59.6271 43.4896 59.6209 43.3205C59.6146 43.1513 59.5746 42.9852 59.5032 42.8317C59.4318 42.6782 59.3304 42.5406 59.205 42.4269C58.9609 42.1991 58.6381 42.0747 58.3043 42.0797C57.9704 42.0847 57.6515 42.2189 57.4143 42.4539C57.1349 42.7123 56.8777 42.9941 56.603 43.2571C56.1697 43.6739 55.6424 43.7056 55.2749 43.3463C54.9074 42.987 54.9227 42.4363 55.3665 41.9889C55.8702 41.4782 56.3822 40.9756 56.893 40.4625C57.045 40.3233 57.1607 40.1492 57.2303 39.9553C57.2999 39.7613 57.3211 39.5533 57.2922 39.3493C57.2631 39.1079 57.1665 38.8796 57.0134 38.6907C56.8603 38.5018 56.657 38.36 56.4269 38.2814C56.1968 38.2029 55.9492 38.191 55.7126 38.2469C55.476 38.3029 55.26 38.4245 55.0894 38.5978C54.3332 39.3329 53.6005 40.0914 52.8431 40.8288C52.6376 41.0284 52.5895 41.1693 52.7257 41.457C52.906 41.8465 53.0019 42.2698 53.007 42.699C53.0121 43.1282 52.9264 43.5537 52.7554 43.9474C52.5844 44.3411 52.332 44.6942 52.0148 44.9834C51.6976 45.2726 51.3228 45.4914 50.915 45.6255C50.5995 45.7104 50.2797 45.7782 49.9569 45.8286C49.9404 45.8979 49.9146 45.9813 49.9029 46.0635C49.6575 47.7003 48.7498 48.6174 47.1082 48.8487C46.8464 48.8851 46.8205 49.0143 46.7971 49.2233C46.7317 49.9144 46.4295 50.5617 45.9416 51.0556C45.4537 51.5495 44.8101 51.8596 44.1198 51.9334C43.9942 51.9498 43.8709 51.9792 43.7758 51.9968C43.7262 52.3131 43.6604 52.6267 43.5785 52.9362C43.0196 54.6799 41.0692 55.5195 39.3748 54.7774C39.2433 54.7187 39.0026 54.6858 38.9263 54.7598C38.0033 55.6357 37.1109 56.5422 36.269 57.3853V57.383ZM72.2001 60.4876C72.0134 60.1612 71.8925 59.8418 71.6799 59.6034C71.2314 59.1032 70.7406 58.6405 70.2568 58.172C69.6697 57.6084 69.0121 57.6049 68.4344 58.1803C65.3219 61.281 62.2161 64.384 59.117 67.4895C58.5404 68.066 58.5369 68.733 59.0958 69.3095C59.5624 69.7909 60.0391 70.2665 60.526 70.7362C61.099 71.2892 61.7554 71.3104 62.3132 70.7561C65.4444 67.6398 68.5694 64.5152 71.6882 61.3823C71.9054 61.1592 72.0111 60.8211 72.1966 60.4899L72.2001 60.4876ZM46.662 47.1015C47.4135 47.0592 47.8233 46.8162 48.0312 46.303C48.1399 46.0675 48.172 45.8039 48.1229 45.5492C48.0738 45.2945 47.9461 45.0616 47.7576 44.8834C46.7008 43.8102 45.6346 42.7416 44.5543 41.6895C43.9989 41.1494 43.2157 41.1693 42.7049 41.6895C42.1941 42.2097 42.2 42.9812 42.7495 43.5377C43.7852 44.5945 44.8255 45.6455 45.8929 46.667C46.1348 46.8995 46.4988 47.0169 46.6585 47.1015H46.662ZM49.87 44.0814C50.645 44.0098 51.2438 43.4332 51.2239 42.7052C51.2145 42.3118 51.09 42.0371 50.6473 41.8445C48.8378 41.0531 47.5039 39.7567 46.7348 37.9062C46.6448 37.7195 46.4869 37.5741 46.2933 37.4999C46.0268 37.4127 45.7386 37.4187 45.476 37.5168C45.2133 37.615 44.9918 37.7995 44.8478 38.04C44.6865 38.2884 44.617 38.5853 44.6513 38.8794C44.6856 39.1736 44.8216 39.4465 45.0357 39.6511C46.352 40.9815 47.673 42.3083 49.0187 43.6117C49.2394 43.8301 49.5823 43.9276 49.87 44.0814ZM45.0956 48.8476C44.9876 48.5986 44.9371 48.2945 44.7621 48.1101C43.8932 47.1989 43.0114 46.2995 42.0931 45.4388C41.6234 45.0008 40.8696 45.0865 40.4105 45.5233C39.9514 45.9601 39.8316 46.721 40.2707 47.1966C41.1432 48.1418 42.0603 49.0483 43.0008 49.9267C43.3824 50.2789 43.8991 50.266 44.3629 50.0218C44.8267 49.7775 45.0369 49.3865 45.0956 48.8464V48.8476ZM41.9569 51.8888C41.9252 51.7784 41.9229 51.5365 41.8007 51.4015C41.344 50.8977 40.8907 50.3705 40.3518 49.9654C39.868 49.6014 39.1775 49.7951 38.776 50.2613C38.3955 50.7099 38.3556 51.4203 38.7478 51.8794C39.0981 52.2902 39.4835 52.6697 39.8997 53.0137C40.306 53.3483 40.7944 53.3589 41.2594 53.1182C41.7244 52.8775 41.9346 52.49 41.9569 51.8876V51.8888ZM48.4316 36.9187L48.3517 37.1171C48.8214 38.4933 49.8242 39.3869 50.9491 40.0656C51.7358 39.28 52.4756 38.5391 53.233 37.7829L48.4316 36.9187Z" fill="#082832"/>
<path d="M36.0001 29.0701C36.235 28.7941 36.3888 28.4618 36.6365 28.3656C36.8843 28.2693 37.253 28.3385 37.5289 28.4419C37.7426 28.5217 37.8988 28.7624 38.0738 28.9374C38.9646 29.8243 39.8543 30.712 40.7428 31.6005C41.1937 32.0549 41.2336 32.5775 40.8602 32.9579C40.4868 33.3384 39.9396 33.3031 39.4734 32.8405C38.4777 31.853 37.4773 30.8666 36.5003 29.8627C36.3136 29.6642 36.2009 29.3918 36.0001 29.0701Z" fill="#02B2E9"/>
<path d="M65.5634 28.2469C66.0871 28.2469 66.3643 28.4266 66.5099 28.7648C66.5902 28.9317 66.6144 29.1201 66.5789 29.3019C66.5433 29.4837 66.4499 29.6491 66.3126 29.7734C65.6527 30.4392 64.9881 31.1003 64.3246 31.7637C63.9418 32.1465 63.5637 32.5364 63.1727 32.9109C62.7617 33.3043 62.2333 33.3219 61.8811 32.9708C61.5288 32.6197 61.5194 32.0784 61.914 31.6792C62.952 30.6263 63.9998 29.582 65.0573 28.5464C65.2229 28.3843 65.466 28.3033 65.5634 28.2469Z" fill="#02B2E9"/>
<path d="M52.2407 30.8584C52.2407 31.4878 52.2466 32.116 52.2407 32.7454C52.2325 33.3325 51.8955 33.6977 51.3824 33.7094C50.8692 33.7212 50.4829 33.3301 50.4794 32.7407C50.4716 31.4835 50.4716 30.2255 50.4794 28.9667C50.4794 28.3796 50.8692 27.9863 51.3871 28.0004C51.9049 28.0145 52.2337 28.3937 52.2407 28.9703C52.2466 29.5997 52.2407 30.2255 52.2407 30.8584Z" fill="#02B2E9"/>
<path d="M35.1089 67.5657C34.9916 67.5697 34.8748 67.5498 34.7655 67.5073C34.6561 67.4648 34.5566 67.4006 34.4728 67.3185C34.389 67.2363 34.3228 67.1381 34.2781 67.0296C34.2335 66.9211 34.2113 66.8047 34.2129 66.6874C34.2143 66.4538 34.3085 66.2304 34.4746 66.0662C34.6408 65.9021 34.8653 65.8106 35.0989 65.812C35.3325 65.8134 35.5559 65.9076 35.7201 66.0737C35.8842 66.2399 35.9757 66.4644 35.9743 66.698C35.9749 66.8119 35.953 66.9248 35.9097 67.0302C35.8665 67.1356 35.8028 67.2314 35.7223 67.3121C35.6419 67.3928 35.5462 67.4567 35.441 67.5003C35.3357 67.5438 35.2228 67.566 35.1089 67.5657Z" fill="#082832"/>
<path d="M59.0665 58.9481C58.9529 58.9521 58.8396 58.9334 58.7332 58.8933C58.6268 58.8532 58.5294 58.7924 58.4467 58.7145C58.3639 58.6365 58.2974 58.5429 58.251 58.4392C58.2047 58.3354 58.1793 58.2234 58.1764 58.1098C58.1712 57.9923 58.1895 57.8751 58.2303 57.7648C58.271 57.6546 58.3333 57.5535 58.4136 57.4677C58.4939 57.3818 58.5905 57.3129 58.6977 57.2648C58.805 57.2168 58.9208 57.1907 59.0383 57.188C59.2753 57.1889 59.5025 57.283 59.6708 57.45C59.8391 57.6169 59.935 57.8434 59.9377 58.0804C59.9332 58.3097 59.8399 58.5283 59.6773 58.6902C59.5148 58.8521 59.2958 58.9445 59.0665 58.9481Z" fill="#082832"/>
</svg>
