<svg width="184" height="187" viewBox="0 0 184 187" fill="none" xmlns="http://www.w3.org/2000/svg">
<g style="mix-blend-mode:luminosity" opacity="0.05">
<path d="M39.4962 101.857C39.4962 101.857 73.8925 56.2363 144.916 62.6242C215.94 69.0121 146.185 119.409 118.955 123.748C118.955 123.748 179.979 90.8535 131.355 79.7393C104.904 77.0907 78.2593 82.291 54.7458 94.6911L39.4962 101.857Z" fill="#00C3FF"/>
<path d="M126.932 145.7C126.932 145.7 69.6746 125.292 56.2427 72.4342C42.8108 19.576 62.6551 3.5165 110.404 57.1228C110.404 57.1228 68.9788 32.0531 71.8775 64.5959C74.7762 97.1386 91.2705 117.004 102.646 126.848C114.021 136.692 126.932 145.7 126.932 145.7Z" fill="#8EC939"/>
<path d="M123.663 33.4793C123.663 33.4793 147.956 84.8252 107.612 140.996C67.2685 197.166 50.0234 133.945 64.5266 99.2321C64.5266 99.2321 70.0615 166.07 104.391 116.802C104.391 116.802 129.498 82.5891 125.3 53.5283C121.234 25.2985 123.663 33.4793 123.663 33.4793Z" fill="#FF9100"/>
</g>
</svg>
