<svg width="102" height="102" viewBox="0 0 102 102" fill="none" xmlns="http://www.w3.org/2000/svg">
<circle cx="51.4571" cy="50.5429" r="37" transform="rotate(60 51.4571 50.5429)" fill="#D3F5FF"/>
<path d="M62.1024 68.846C61.2135 70.7128 60.3398 72.5287 59.4763 74.3358C59.3137 74.6761 59.1423 74.9974 58.7016 74.9999C58.2292 74.9999 58.0667 74.6558 57.9168 74.2939C56.6977 71.4095 55.4765 68.5264 54.2532 65.6446C53.7605 64.484 52.7192 63.8731 51.4595 64.0598C50.4931 64.202 49.7553 64.6059 49.3464 65.6231C48.1844 68.5133 46.9336 71.3668 45.7183 74.2354C45.6878 74.3078 45.6548 74.3802 45.6256 74.4526C45.4986 74.7713 45.2916 74.9948 44.9259 74.9999C44.5601 75.005 44.3544 74.7853 44.2071 74.4755C43.3893 72.7636 42.569 71.0527 41.7461 69.3426C41.6724 69.1876 41.5924 69.0352 41.4921 68.8346L38.3402 69.8772C37.4399 70.1756 36.5383 70.4728 35.6417 70.7788C35.2925 70.8982 34.9598 70.9579 34.6766 70.6518C34.3934 70.3458 34.481 70.0169 34.6245 69.6791C36.0113 66.4197 37.3963 63.1603 38.7796 59.9009C38.8469 59.7422 38.9066 59.5797 38.9917 59.365C38.6793 59.3396 38.4012 59.3117 38.1231 59.2965C37.3855 59.2563 36.669 59.0357 36.0366 58.654C35.4042 58.2723 34.8751 57.7411 34.496 57.1072C34.1168 56.4732 33.8991 55.7559 33.8619 55.0181C33.8248 54.2803 33.9694 53.5447 34.2829 52.8759C34.4429 52.5318 34.6347 52.2016 34.7909 51.86C35.076 51.279 35.1682 50.6221 35.054 49.9851C34.9398 49.348 34.6251 48.7641 34.1559 48.3183C33.9096 48.0719 33.648 47.8459 33.394 47.6021C32.8539 47.0853 32.4505 46.4425 32.22 45.7314C31.9895 45.0203 31.9392 44.2631 32.0735 43.5278C32.2078 42.7924 32.5225 42.1019 32.9895 41.5182C33.4565 40.9345 34.0611 40.4758 34.749 40.1834C34.8938 40.1199 35.0411 40.0564 35.1871 40.0005C37.0259 39.2538 37.6977 38.0652 37.3878 36.1096C37.1491 34.6022 37.4285 33.2307 38.5079 32.1031C39.793 30.7621 41.3499 30.3366 43.1468 30.8332C43.5125 30.9348 43.8693 31.0706 44.2401 31.1494C45.5481 31.4262 46.6085 31.0046 47.4149 29.9544C47.6269 29.6788 47.7958 29.3715 47.9876 29.0807C49.8238 26.3136 53.7326 26.3047 55.5841 29.0642C55.7339 29.2877 55.8723 29.5188 56.0209 29.7436C56.8666 31.0313 58.167 31.4872 59.6515 31.0808C60.3779 30.8814 61.1309 30.6528 61.8713 30.6567C64.665 30.6744 66.641 33.1621 66.2105 36.041C65.8994 38.1236 66.5115 39.2017 68.4709 40.0221C70.6183 40.9212 71.6736 42.4996 71.5631 44.6915C71.5119 45.7147 71.0877 46.6837 70.3706 47.4154C70.0989 47.7036 69.7979 47.9627 69.5109 48.2357C68.4417 49.2516 68.2182 50.6295 68.8455 51.973C69.1706 52.6689 69.53 53.3826 69.6709 54.1255C70.1497 56.6437 68.1471 59.1301 65.587 59.2888C65.2759 59.3079 64.9635 59.3333 64.5965 59.3587C64.8504 59.9797 65.0917 60.5448 65.3305 61.1073C66.536 63.946 67.742 66.782 68.9484 69.6156C69.0957 69.9623 69.2239 70.3039 68.9319 70.6315C68.6207 70.9833 68.2537 70.8715 67.8817 70.7458C66.1275 70.1532 64.373 69.5673 62.618 68.9883C62.4707 68.9438 62.3043 68.9032 62.1024 68.846ZM64.8555 35.3451C64.933 33.1863 63.0091 31.6459 60.9989 32.1704C60.6179 32.2694 60.2369 32.3977 59.856 32.4993C58.9579 32.7535 58.0027 32.7186 57.1256 32.3995C56.2485 32.0804 55.4941 31.4933 54.9694 30.7214C54.7523 30.4103 54.5643 30.0789 54.3446 29.769C54.0608 29.3559 53.6806 29.0183 53.2368 28.7853C52.7931 28.5523 52.2993 28.431 51.7981 28.4319C51.2969 28.4328 50.8035 28.5558 50.3606 28.7903C49.9177 29.0249 49.5386 29.3638 49.2562 29.7779C49.0365 30.0877 48.8549 30.4243 48.6289 30.729C47.4961 32.2529 45.9926 32.9018 44.1093 32.5755C43.6141 32.4904 43.1366 32.3037 42.6477 32.1767C42.1433 32.0285 41.6087 32.0168 41.0983 32.1426C40.5878 32.2684 40.1199 32.5273 39.7422 32.8929C38.7822 33.7628 38.631 34.8549 38.8291 36.0677C39.2101 38.4017 38.1485 40.3053 35.9757 41.2247C35.7141 41.3352 35.4474 41.438 35.1922 41.5612C34.7478 41.773 34.3607 42.0882 34.0632 42.4804C33.7657 42.8725 33.5665 43.3303 33.4824 43.8153C33.3982 44.3003 33.4314 44.7984 33.5793 45.2679C33.7272 45.7374 33.9855 46.1646 34.3325 46.5138C34.5864 46.7741 34.8671 47.009 35.1274 47.263C35.8251 47.9194 36.293 48.7829 36.462 49.7258C36.631 50.6687 36.4921 51.6409 36.0659 52.4987C35.8881 52.8708 35.6849 53.2289 35.5223 53.6061C35.3486 54.0148 35.2659 54.4565 35.2801 54.9003C35.2943 55.3442 35.405 55.7797 35.6045 56.1765C35.8041 56.5732 36.0876 56.9218 36.4355 57.1979C36.7834 57.4739 37.1872 57.6709 37.6189 57.7751C38.1269 57.8932 38.6539 57.9021 39.1733 57.9339C41.1784 58.0748 42.7493 59.3777 43.256 61.3346C43.3474 61.6864 43.4185 62.0445 43.51 62.3937C44.0941 64.5106 46.4751 65.3742 48.286 64.1259C48.573 63.929 48.8422 63.7055 49.1241 63.5011C50.7686 62.3163 52.7814 62.3061 54.4412 63.4782C54.7637 63.7055 55.0659 63.9646 55.3948 64.183C55.7975 64.4524 56.258 64.6229 56.7389 64.6809C57.2198 64.7388 57.7077 64.6825 58.1627 64.5164C58.6178 64.3504 59.0273 64.0793 59.3579 63.7253C59.6885 63.3712 59.931 62.9442 60.0655 62.4788C60.1493 62.1905 60.2039 61.8947 60.2712 61.6013C60.6623 59.8984 61.6338 58.6806 63.319 58.1574C63.9729 57.9567 64.6879 57.9288 65.3787 57.8793C67.6061 57.718 68.9484 55.4919 68.0175 53.4664C67.8791 53.1642 67.714 52.8759 67.568 52.5775C66.641 50.6841 67.0105 48.6408 68.542 47.1919C68.7719 46.9747 69.0131 46.7677 69.2354 46.543C69.5932 46.1928 69.8605 45.7609 70.0142 45.2844C70.1679 44.8079 70.2033 44.3012 70.1174 43.808C70.0315 43.3147 69.827 42.8498 69.5213 42.4533C69.2156 42.0568 68.8181 41.7406 68.363 41.532C68.0353 41.3758 67.6899 41.2552 67.3597 41.104C65.6047 40.2977 64.6041 38.6443 64.712 36.7178C64.745 36.2264 64.8149 35.7388 64.8555 35.3451ZM67.1413 68.9972C65.8092 65.858 64.5152 62.8115 63.2186 59.7587C62.4719 60.1879 62.0084 60.7568 61.7824 61.5226C61.6744 61.8858 61.6033 62.2604 61.5106 62.6287C61.0573 64.4217 59.9195 65.5634 58.1378 65.9901C57.4622 66.1526 56.7409 66.0942 56.0044 66.1386C56.8832 68.2085 57.7822 70.3293 58.7232 72.5439C58.8502 72.3103 58.9328 72.163 59.0064 72.0144C59.643 70.6886 60.278 69.362 60.9112 68.0346C61.3189 67.185 61.4751 67.1215 62.3907 67.4263L67.1413 68.9972ZM36.4621 69.0086L41.2876 67.3971C42.094 67.1279 42.3036 67.2168 42.6706 67.9711C43.3182 69.3256 43.9658 70.6802 44.6135 72.0347C44.6846 72.1833 44.771 72.3243 44.889 72.5427L47.6511 66.0307C47.4911 66.0447 47.4136 66.0472 47.3387 66.0586C44.8471 66.4625 42.6782 65.0249 42.0877 62.5791C41.9988 62.2109 41.9327 61.835 41.8134 61.4769C41.7031 61.1104 41.5203 60.7699 41.2757 60.4756C41.0312 60.1813 40.7299 59.9392 40.3898 59.7638C39.0857 62.828 37.7967 65.8631 36.4646 69.0022L36.4621 69.0086Z" fill="#082832"/>
<path d="M51.7998 58.5739C50.2093 58.5926 48.631 58.2951 47.1566 57.6985C45.6822 57.1019 44.341 56.2181 43.2112 55.0986C42.0813 53.9792 41.1852 52.6463 40.575 51.1774C39.9648 49.7086 39.6526 48.1331 39.6567 46.5425C39.6607 44.952 39.9808 43.3781 40.5985 41.9124C41.2162 40.4466 42.119 39.1183 43.2546 38.0046C44.3901 36.8909 45.7357 36.0139 47.2132 35.4248C48.6906 34.8357 50.2704 34.5462 51.8607 34.573C58.4514 34.5933 63.8053 39.9776 63.7977 46.5811C63.7913 53.2023 58.4108 58.5841 51.7998 58.5739ZM51.782 57.1516C57.5841 57.1783 62.3322 52.4683 62.3729 46.6458C62.4135 40.8234 57.6959 36.0232 51.8785 35.9953C50.4894 35.9889 49.1126 36.2563 47.8267 36.782C46.5409 37.3078 45.3712 38.0816 44.3845 39.0594C43.3977 40.0372 42.6132 41.1998 42.0757 42.4808C41.5383 43.7618 41.2584 45.136 41.2521 46.5252C41.2457 47.9143 41.5131 49.2911 42.0388 50.577C42.5646 51.8628 43.3384 53.0325 44.3162 54.0192C45.294 55.006 46.4566 55.7905 47.7376 56.3279C49.0185 56.8654 50.3928 57.1453 51.782 57.1516Z" fill="#082832"/>
<path d="M50.3915 46.6573C51.8887 44.91 53.3529 43.2083 54.8094 41.4991C55.2234 41.014 55.7047 40.6495 56.3498 40.5543C56.8291 40.471 57.3223 40.5378 57.7622 40.7456C58.202 40.9533 58.567 41.2919 58.807 41.7149C59.054 42.1349 59.1623 42.6221 59.1168 43.1071C59.0712 43.5922 58.8739 44.0506 58.5531 44.4173C57.2679 45.9411 55.9625 47.451 54.6659 48.9647C53.8837 49.8791 53.1065 50.7972 52.3141 51.7026C51.241 52.9281 49.688 52.9547 48.5959 51.7572C47.4326 50.4873 46.28 49.2039 45.138 47.9069C44.2262 46.8758 44.2897 45.4383 45.2649 44.543C46.2402 43.6477 47.7133 43.7163 48.6619 44.7398C49.2308 45.3532 49.7845 45.983 50.3915 46.6573ZM57.6959 43.0305C57.6959 42.3956 57.3086 41.9867 56.807 41.9537C56.3765 41.9257 56.1085 42.1734 55.852 42.4731C54.2706 44.3271 52.6862 46.1777 51.0988 48.025C50.6086 48.5977 50.2302 48.6066 49.7261 48.0517C49.0251 47.2783 48.3292 46.4935 47.6269 45.7252C47.2003 45.2617 46.6504 45.2173 46.2402 45.5856C45.83 45.9538 45.8008 46.5113 46.2161 46.9824C47.3497 48.2599 48.4926 49.5298 49.6448 50.7921C50.1528 51.3585 50.7306 51.3572 51.2271 50.7807C53.2919 48.384 55.3496 45.9809 57.4 43.5715C57.5205 43.4041 57.6199 43.2224 57.6959 43.0305Z" fill="#02B2E9"/>
</svg>
