<svg width="102" height="102" viewBox="0 0 102 102" fill="none" xmlns="http://www.w3.org/2000/svg">
<circle cx="51.4571" cy="50.5429" r="37" transform="rotate(60 51.4571 50.5429)" fill="#D3F5FF"/>
<path d="M65.2721 66.4177C65.5911 67.2001 65.8722 67.9154 66.1811 68.6193C66.2208 68.6697 66.2714 68.7104 66.329 68.7385C66.3867 68.7665 66.4499 68.7812 66.5141 68.7814C67.9827 68.7573 69.4513 68.7497 70.9161 68.6725C71.426 68.6355 71.9101 68.4337 72.2953 68.0976C72.6806 67.7614 72.9461 67.3091 73.0519 66.8089C73.6728 64.0083 73.6577 61.104 73.0075 58.31C72.7543 57.2225 71.839 56.5616 70.7135 56.5642C68.4886 56.5701 66.2638 56.5701 64.039 56.5642C63.011 56.5642 62.2323 57.0022 61.6335 57.8391C61.4778 58.0593 61.1967 58.2961 60.9537 58.3189C60.7106 58.3417 60.3206 58.1796 60.194 57.9758C60.0674 57.772 60.1155 57.3795 60.2447 57.1617C61.0562 55.797 62.283 55.0702 63.8731 55.0525C66.1621 55.0259 68.4498 55.0525 70.7375 55.0449C71.6146 55.0302 72.4697 55.3195 73.1576 55.8637C73.8456 56.4078 74.324 57.1734 74.5116 58.0302C75.1802 60.9981 75.2014 64.0752 74.5736 67.052C74.3797 68.0039 73.8403 68.8504 73.0595 69.4283C72.8957 69.576 72.7962 69.7818 72.7822 70.0018C72.7556 71.0286 72.7733 72.0553 72.7683 73.0821C72.7683 73.6505 72.4872 73.9873 72.0352 73.9974C71.5833 74.0076 71.2617 73.648 71.2554 73.0656C71.2478 72.2604 71.2554 71.4552 71.2554 70.65C71.2554 70.4969 71.2414 70.3424 71.2338 70.1905L66.8774 70.3411C67.004 70.6437 67.1116 70.94 67.237 71.2274C67.3826 71.5717 67.2901 71.7274 66.9015 71.7236C65.8443 71.7148 64.7872 71.7236 63.6528 71.7236C63.6528 72.1857 63.6528 72.6364 63.6528 73.0872C63.6528 73.6467 63.3616 73.9873 62.9046 73.9936C62.4476 74 62.145 73.6581 62.1387 73.1074C62.1323 72.6681 62.1387 72.2275 62.1387 71.7249H61.3727C60.3599 71.7249 59.3471 71.7084 58.3406 71.7338C57.9823 71.7414 57.8088 71.6135 57.6696 71.2932C57.2809 70.3968 56.8479 69.5207 56.4529 68.6257C56.3478 68.3864 56.22 68.2902 55.9566 68.3079C55.611 68.3307 55.2628 68.3193 54.9159 68.3079C54.0474 68.2864 53.4322 67.6951 53.384 66.8254C53.3638 66.4316 53.3916 66.0354 53.3726 65.6416C53.3385 64.9124 53.5195 64.2933 54.231 63.8958C54.1525 63.7198 54.0867 63.5641 54.0158 63.4109C53.5018 62.3107 52.9903 61.2105 52.4712 60.1116C52.3269 59.8052 52.3117 59.59 52.746 59.59C55.8883 59.59 59.0306 59.59 62.1728 59.6064C62.3286 59.6064 62.5526 59.8039 62.6248 59.9635C63.0375 60.8978 63.4136 61.8486 63.8212 62.8424C63.9478 62.7437 64.0415 62.6791 64.1238 62.5968C64.8188 61.9068 65.5076 61.2105 66.2026 60.5218C66.5824 60.1521 67.0129 60.1255 67.3307 60.4395C67.6484 60.7535 67.6282 61.1865 67.261 61.5637C66.4216 62.4221 65.5721 63.2703 64.7442 64.1388C64.6289 64.2654 64.5315 64.5073 64.5796 64.6453C64.6277 64.7832 64.8746 64.8883 65.0353 64.8909C66.2824 64.9099 67.5307 64.9048 68.7777 64.8997C69.4538 64.8997 69.7146 64.6301 69.7197 63.9464C69.7197 63.2995 69.7197 62.6513 69.7197 62.0043C69.7197 61.4498 70.0222 61.1105 70.4793 61.1181C70.9363 61.1257 71.225 61.4612 71.23 62.022C71.23 62.7323 71.2414 63.4425 71.23 64.1528C71.2309 64.4499 71.1731 64.7443 71.0599 65.019C70.9468 65.2938 70.7806 65.5435 70.5707 65.7539C70.3609 65.9643 70.1117 66.1313 69.8372 66.2452C69.5628 66.3591 69.2686 66.4177 68.9714 66.4177C67.7674 66.4304 66.5685 66.4177 65.2721 66.4177ZM57.9721 68.3167C58.2583 68.9282 58.4938 69.4752 58.7735 69.9993C58.8249 70.0621 58.8893 70.1128 58.9624 70.1481C59.0354 70.1833 59.1153 70.2021 59.1964 70.2031C61.0106 70.2171 62.8261 70.2031 64.6403 70.2145C65.0201 70.2145 65.1151 70.0715 64.9708 69.7208C63.844 66.9634 62.7274 64.2034 61.5867 61.4523C61.5386 61.3649 61.4705 61.2901 61.388 61.234C61.3055 61.1779 61.2109 61.1421 61.1119 61.1295C59.1242 61.1067 57.1353 61.1168 55.1464 61.113C54.7666 61.113 54.6577 61.251 54.8286 61.6055C55.1223 62.2157 55.4211 62.8247 55.6844 63.4488C55.7984 63.7172 55.9604 63.7818 56.2276 63.773C56.7795 63.7565 57.3328 63.754 57.8835 63.773C57.9616 63.7777 58.0377 63.7996 58.1064 63.837C58.175 63.8744 58.2347 63.9265 58.2811 63.9894C58.9039 65.2631 59.504 66.5481 60.1105 67.8306C60.2814 68.1927 60.1409 68.3205 59.7712 68.3142C59.2065 68.3066 58.6381 68.3142 57.9721 68.3142V68.3167ZM56.2959 66.7975C56.6115 66.8106 56.9276 66.8072 57.2429 66.7874C57.3239 66.7813 57.4029 66.7591 57.4753 66.7221C57.5477 66.6852 57.612 66.6342 57.6645 66.5722C57.8443 66.2797 57.3075 65.3061 56.9644 65.2909C56.4137 65.2694 55.8591 65.2732 55.3084 65.2909C55.24 65.2956 55.1734 65.3147 55.113 65.347C55.0525 65.3793 54.9996 65.4241 54.9577 65.4783C54.8705 65.607 54.8205 65.7572 54.8132 65.9124C54.8059 66.0677 54.8416 66.222 54.9163 66.3582C54.9911 66.4945 55.102 66.6075 55.2368 66.6848C55.3717 66.7621 55.5253 66.8006 55.6806 66.7962L56.2959 66.7975Z" fill="#082832"/>
<path d="M40.9022 71.7262C40.9022 72.2326 40.9086 72.691 40.9022 73.1455C40.8921 73.6658 40.5908 73.9962 40.1426 73.9962C39.6944 73.9962 39.3982 73.6658 39.383 73.1467C39.3729 72.7049 39.3741 72.2605 39.3691 71.8212C39.3691 71.8085 39.3539 71.7959 39.3121 71.7262H36.3838C35.6849 71.7262 35.6482 71.6718 35.909 71.0375C35.9963 70.821 36.085 70.6045 36.2154 70.2893C35.4279 70.2893 34.7113 70.3045 33.996 70.2893C33.2807 70.2741 32.5781 70.2146 31.8311 70.1728C31.8222 70.3235 31.807 70.4602 31.807 70.5969C31.807 71.4173 31.807 72.2428 31.807 73.0606C31.807 73.6557 31.5171 74.0038 31.0474 74C30.5777 73.9962 30.2967 73.6506 30.2954 73.0505C30.2954 72.0377 30.2853 71.0249 30.2954 70.012C30.309 69.8904 30.2871 69.7674 30.2323 69.658C30.1775 69.5486 30.0921 69.4574 29.9865 69.3955C29.1066 68.7966 28.609 67.9421 28.409 66.9039C27.8361 63.9976 27.8654 61.0046 28.4951 58.1101C28.9053 56.2287 30.4651 55.0273 32.3945 55.045C34.6037 55.0652 36.8129 55.045 39.0222 55.045C40.6541 55.045 41.9049 55.7527 42.7772 57.1251C43.076 57.5935 43.019 57.9708 42.6506 58.1999C42.21 58.4785 41.7644 58.3848 41.4707 57.9227C40.8377 56.939 39.9514 56.5389 38.7905 56.5579C36.6914 56.5921 34.5923 56.582 32.4932 56.5579C31.093 56.5427 30.2587 57.1567 29.9612 58.5228C29.381 61.2019 29.3728 63.9733 29.9371 66.6558C30.1967 67.9142 31.1386 68.6738 32.4299 68.6814C33.8808 68.6903 35.3317 68.6814 36.8307 68.6814L37.7498 66.4456C37.5662 66.4342 37.4333 66.4178 37.3004 66.4178C36.2268 66.4178 35.1481 66.4279 34.0783 66.4178C33.7814 66.4191 33.4872 66.3619 33.2124 66.2495C32.9377 66.1371 32.6877 65.9716 32.4769 65.7626C32.2661 65.5535 32.0986 65.305 31.9838 65.0312C31.8691 64.7574 31.8095 64.4636 31.8083 64.1668C31.7957 63.4401 31.8007 62.7133 31.8083 61.9866C31.8083 61.4587 32.102 61.1308 32.5464 61.1207C32.9908 61.1106 33.3136 61.4498 33.32 62.0069C33.3275 62.6868 33.32 63.3654 33.32 64.0452C33.32 64.6694 33.5858 64.9378 34.215 64.9428C35.495 64.9517 36.7737 64.953 38.0537 64.934C38.1376 64.9274 38.2188 64.9011 38.2905 64.8571C38.3623 64.8131 38.4225 64.7526 38.4664 64.6808C38.4787 64.5968 38.472 64.5111 38.4468 64.43C38.4216 64.3489 38.3786 64.2745 38.3208 64.2123C37.4687 63.3261 36.58 62.4665 35.7457 61.5625C35.6462 61.4499 35.5703 61.3185 35.5224 61.1761C35.4746 61.0337 35.4558 60.8831 35.4671 60.7333C35.5748 60.1319 36.2863 60.0028 36.7674 60.4699C37.4573 61.1409 38.1321 61.8297 38.8145 62.5095C38.9247 62.6184 39.0399 62.7235 39.2045 62.8805C39.5615 62.0107 39.8945 61.184 40.2401 60.3611C40.6199 59.4558 40.4097 59.6078 41.3415 59.6014C44.2635 59.5938 47.1855 59.5938 50.1075 59.6014C50.7203 59.6014 50.7545 59.6584 50.4874 60.2231C49.9227 61.4372 49.3555 62.65 48.7706 63.9022C49.5302 64.3085 49.686 64.9808 49.6328 65.7569C49.6087 66.1177 49.6328 66.4836 49.6239 66.8457C49.6149 67.2285 49.4606 67.5935 49.1924 67.8667C48.9241 68.1399 48.5619 68.3008 48.1794 68.3168C48.0853 68.3295 47.9899 68.3295 47.8958 68.3168C46.9551 68.1079 46.4715 68.5333 46.1866 69.4107C45.9651 70.0969 45.5853 70.7299 45.3004 71.3945C45.2633 71.5055 45.1889 71.6001 45.0899 71.6625C44.9909 71.7248 44.8734 71.7509 44.7573 71.7364C43.4976 71.7186 42.2354 71.7262 40.9022 71.7262ZM45.0637 68.3143C44.4205 68.3143 43.8559 68.3143 43.2912 68.3143C42.8152 68.3143 42.7494 68.2117 42.9507 67.7813C43.5305 66.5393 44.1103 65.2961 44.7142 64.0655C44.7631 63.988 44.8286 63.9223 44.9058 63.873C44.9831 63.8238 45.0703 63.7922 45.1612 63.7806C45.7271 63.7464 46.3006 63.7806 46.864 63.7553C46.949 63.7482 47.0314 63.7226 47.1055 63.6804C47.1796 63.6382 47.2436 63.5804 47.2932 63.511C47.6185 62.8779 47.9009 62.2297 48.2072 61.5904C48.3883 61.2106 48.2262 61.1106 47.8692 61.1118C45.8803 61.1118 43.8913 61.1118 41.9024 61.127C41.8104 61.1381 41.7224 61.1706 41.6452 61.2218C41.5681 61.273 41.5039 61.3416 41.458 61.422C40.3123 64.187 39.188 66.9622 38.0549 69.7335C37.9283 70.0551 37.9891 70.2133 38.3575 70.2121C40.1882 70.2121 42.0201 70.2121 43.8508 70.2032C43.985 70.2032 44.1876 70.1285 44.242 70.026C44.5281 69.4841 44.775 68.9283 45.0649 68.3143H45.0637ZM46.731 66.795H47.2514C48.1287 66.795 48.1503 66.7735 48.1376 65.8936V65.7037C48.1275 65.4125 47.973 65.2783 47.6856 65.2796C47.1653 65.2796 46.6437 65.2682 46.1233 65.2796C45.7537 65.291 45.1852 66.2418 45.3713 66.5608C45.423 66.6236 45.4867 66.6754 45.5586 66.7133C45.6306 66.7511 45.7094 66.7742 45.7904 66.7811C46.1039 66.8029 46.4183 66.8084 46.7323 66.7976L46.731 66.795Z" fill="#082832"/>
<path d="M44.1395 29.4774C44.6345 29.6306 45.0941 29.7977 45.5675 29.9053C45.787 29.947 46.0138 29.9264 46.2221 29.8458C46.8678 29.5926 47.5058 29.3267 48.1325 29.0343C48.3295 28.925 48.5049 28.7809 48.6503 28.6089C48.744 28.5009 48.8131 28.374 48.8529 28.2367C49.1605 27.2606 49.8847 26.9631 50.8254 27.0036C51.566 27.0352 52.3117 27.02 53.0435 27.115C53.3245 27.1517 53.7094 27.3783 53.8145 27.6214C54.2158 28.5456 54.8653 29.0343 55.8097 29.4179C56.7542 29.8015 57.5518 30.0218 58.4747 29.5546C58.6244 29.4758 58.7961 29.4492 58.9626 29.479C59.1291 29.5088 59.2809 29.5934 59.3939 29.7192C60.1484 30.4577 60.8954 31.203 61.6348 31.955C61.7633 32.0768 61.8483 32.2374 61.8767 32.4121C61.9051 32.5869 61.8752 32.7661 61.7918 32.9223C61.3436 33.8161 61.5512 34.5909 61.9298 35.4885C62.3374 36.4558 62.802 37.2027 63.8035 37.6003C64.0314 37.6914 64.2694 38.0725 64.2833 38.332C64.3377 39.3449 64.3124 40.3767 64.301 41.3996C64.3103 41.5762 64.2621 41.7511 64.1638 41.898C64.0654 42.045 63.9221 42.1562 63.7554 42.215C62.7856 42.5593 62.3627 43.2809 61.969 44.2077C61.5753 45.1344 61.3866 45.9219 61.8424 46.8296C62.0171 47.1765 61.9222 47.5171 61.6563 47.788C60.9287 48.5299 60.194 49.2651 59.4521 49.9935C59.3314 50.1225 59.1718 50.2086 58.9976 50.2385C58.8235 50.2685 58.6443 50.2406 58.4874 50.1593C57.6012 49.7225 56.8213 49.9061 55.9186 50.2859C54.9311 50.6999 54.1905 51.1911 53.7828 52.2001C53.6955 52.4154 53.3271 52.6357 53.0789 52.6471C52.0418 52.6996 51.0026 52.6971 49.9657 52.6395C49.6961 52.6243 49.3087 52.3635 49.2061 52.1191C48.8175 51.1747 48.13 50.7265 47.2007 50.3328C46.2715 49.939 45.4612 49.7947 44.5256 50.1948C44.3805 50.237 44.2276 50.2451 44.0789 50.2183C43.9302 50.1915 43.7897 50.1305 43.6685 50.0403C42.872 49.325 42.1146 48.5672 41.3998 47.7703C41.307 47.6413 41.2453 47.4926 41.2194 47.3358C41.1935 47.179 41.2041 47.0184 41.2504 46.8664C41.6517 45.9421 41.4909 45.1661 41.0871 44.2507C40.6756 43.3164 40.2135 42.6138 39.2526 42.2251C39.0133 42.1263 38.7677 41.7288 38.7462 41.4566C38.6867 40.4197 38.6867 39.3803 38.7462 38.3434C38.7614 38.0725 39.0158 37.6813 39.2526 37.5838C40.1958 37.1951 40.6452 36.5115 41.0427 35.5835C41.4403 34.6555 41.6239 33.8376 41.1693 32.9172C41.0936 32.7664 41.0698 32.5948 41.1016 32.429C41.1334 32.2633 41.2191 32.1126 41.3453 32.0006C42.0847 31.241 42.8291 30.5004 43.5875 29.7673C43.7432 29.6306 43.9546 29.5761 44.1395 29.4774ZM44.3357 31.0903C44.1382 31.2574 43.9268 31.4701 43.6875 31.6322C42.876 32.1994 42.5848 32.8716 43.0773 33.825C43.2039 34.0782 43.1634 34.4808 43.0595 34.7631C42.7304 35.662 42.3493 36.5431 41.9543 37.4218C41.8316 37.668 41.6561 37.8841 41.4403 38.0548C41.241 38.2113 41.0143 38.3294 40.7718 38.4029C40.2654 38.57 40.1072 38.9258 40.1515 39.4158C40.1603 39.494 40.1603 39.573 40.1515 39.6512C40.0084 40.5742 40.2781 41.2363 41.2529 41.511C41.7201 41.6376 41.91 42.0174 42.0543 42.477C42.2568 43.1722 42.5305 43.8446 42.8709 44.4837C43.1861 45.0445 43.3115 45.5598 43.0064 46.1295C42.6481 46.7942 42.8494 47.2689 43.371 47.7665C44.2749 48.6287 44.2572 48.6717 45.465 48.2653C45.6633 48.1955 45.8747 48.1706 46.0838 48.1925C46.2929 48.2144 46.4945 48.2825 46.6741 48.3919C47.3229 48.7481 48.0063 49.0374 48.7136 49.2554C49.3353 49.4313 49.7784 49.7213 49.9645 50.3315C50.1772 51.0278 50.619 51.2354 51.3343 51.2177C52.6092 51.1873 52.6257 51.2392 53.1777 50.1125C53.3916 49.6782 53.6955 49.4567 54.1538 49.3123C54.8508 49.115 55.5237 48.8412 56.1604 48.4957C56.739 48.1602 57.2733 48.0615 57.8468 48.3691C58.5051 48.7198 58.9584 48.5046 59.4407 48.0032C60.313 47.0955 60.351 47.117 59.9471 45.913C59.8754 45.7148 59.8484 45.5031 59.8681 45.2932C59.8878 45.0833 59.9537 44.8804 60.0611 44.6989C60.4043 44.0792 60.685 43.427 60.8992 42.7517C61.084 42.1187 61.3778 41.6579 62.007 41.4642C62.7274 41.2426 62.9312 40.7691 62.9071 40.0424C62.8653 38.7891 62.9071 38.7764 61.7601 38.2092C61.5764 38.1236 61.4138 37.9985 61.2838 37.8429C61.1538 37.6874 61.0597 37.5051 61.0081 37.3091C60.7897 36.5861 60.5053 35.8847 60.1586 35.2138C59.856 34.6631 59.7446 34.1617 60.032 33.611C60.3953 32.9261 60.1497 32.4614 59.6522 31.9297C59.0419 31.2802 58.4684 30.9789 57.6265 31.4372C57.1948 31.6714 56.7732 31.5638 56.3288 31.3258C55.7107 30.9739 55.0544 30.6936 54.3728 30.4902C53.7195 30.3104 53.2498 30.0066 53.0536 29.3584C52.8447 28.6671 52.3839 28.4886 51.6989 28.5051C50.4253 28.5355 50.4101 28.495 49.8543 29.6268C49.6492 30.0446 49.3543 30.2598 48.9187 30.4105C48.1331 30.6874 47.3634 31.0077 46.6133 31.3701C46.2449 31.5461 45.917 31.6157 45.5308 31.4739C45.1447 31.3321 44.7801 31.2321 44.3357 31.0941V31.0903Z" fill="#082832"/>
<path d="M35.5849 54.2916C32.3641 54.2916 30.6474 51.3304 32.1198 48.3274C32.4857 47.5491 33.075 46.8973 33.8124 46.4549C35.1139 45.6839 36.6256 45.7801 37.8296 46.7689C39.1766 47.8754 39.7438 49.3478 39.5311 51.0595C39.2754 53.0902 37.7536 54.2916 35.5849 54.2916ZM35.5722 52.7724C35.8909 52.8067 36.2133 52.7726 36.5178 52.6723C36.8223 52.572 37.1018 52.4078 37.3377 52.1907C37.5736 51.9737 37.7604 51.7087 37.8856 51.4136C38.0108 51.1185 38.0716 50.8001 38.0638 50.4796C38.041 48.8667 36.8864 47.4525 35.576 47.4665C34.2657 47.4804 33.1262 48.911 33.1338 50.5227C33.1389 51.8697 34.1201 52.7724 35.571 52.7724H35.5722Z" fill="#02B2E9"/>
<path d="M67.5978 54.3031C65.9064 54.2436 64.5593 53.7625 63.8668 52.2774C63.0793 50.5936 63.3908 48.9693 64.4808 47.5146C65.8431 45.6953 68.1384 45.4244 69.7982 46.8715C71.0363 47.9539 71.5516 49.3668 71.3896 50.9873C71.2262 52.6332 70.2147 53.7511 68.6283 54.1423C68.2878 54.2133 67.9438 54.267 67.5978 54.3031ZM67.4193 52.7724C67.7341 52.806 68.0525 52.7726 68.3535 52.6745C68.6546 52.5763 68.9314 52.4156 69.166 52.203C69.4006 51.9903 69.5875 51.7304 69.7146 51.4404C69.8416 51.1504 69.9059 50.8368 69.9032 50.5202C69.9032 48.9098 68.7638 47.4817 67.4573 47.4665C66.1507 47.4513 64.9834 48.868 64.9746 50.4822C64.9682 51.8596 65.9456 52.7724 67.4193 52.7724Z" fill="#02B2E9"/>
<path d="M51.5293 31.5448C56.0782 31.5347 59.837 35.2657 59.856 39.8107C59.8737 44.4356 56.1592 48.2083 51.5774 48.221C50.4777 48.2282 49.3874 48.0178 48.3693 47.6021C47.3512 47.1863 46.4253 46.5733 45.6449 45.7984C44.8646 45.0235 44.2452 44.1019 43.8223 43.0867C43.3995 42.0715 43.1816 40.9827 43.1811 39.8829C43.1672 35.2923 46.9083 31.5562 51.5293 31.5448ZM58.3393 39.9196C58.3393 36.1532 55.3008 33.0717 51.5749 33.0615C50.2246 33.05 48.9012 33.4395 47.7724 34.1805C46.6436 34.9216 45.7601 35.981 45.2337 37.2246C44.7074 38.4681 44.5619 39.8399 44.8157 41.1662C45.0695 42.4924 45.7111 43.7136 46.6593 44.675C47.6076 45.6364 48.8198 46.2947 50.1425 46.5667C51.4651 46.8387 52.8388 46.7121 54.0895 46.2029C55.3401 45.6937 56.4116 44.8249 57.1681 43.7063C57.9246 42.5878 58.3322 41.27 58.3393 39.9196Z" fill="#082832"/>
<path d="M47.8185 43.9013C47.9553 43.0999 48.1199 42.2314 48.2414 41.3565C48.2591 41.1511 48.1955 40.947 48.0641 40.7881C47.5198 40.2171 46.9475 39.6714 46.3727 39.1309C46.0853 38.8612 45.9043 38.5662 46.0334 38.1687C46.1626 37.7711 46.5006 37.6888 46.8576 37.6395C47.6071 37.5344 48.3553 37.4116 49.1074 37.3318C49.2474 37.327 49.3827 37.2801 49.4956 37.1972C49.6085 37.1144 49.6938 36.9993 49.7404 36.8672C50.0607 36.1645 50.4228 35.4746 50.7532 34.7846C50.9153 34.4465 51.133 34.1946 51.5331 34.2009C51.9129 34.2073 52.1218 34.4541 52.2737 34.7706C52.6067 35.4682 52.9624 36.1544 53.2802 36.8583C53.4182 37.1634 53.5866 37.309 53.9385 37.3457C54.7396 37.4221 55.5359 37.5426 56.3237 37.7066C56.5769 37.7597 56.8985 37.9902 56.9707 38.213C57.0428 38.4358 56.9302 38.8232 56.7593 39.0131C56.1997 39.6335 55.5641 40.1842 54.9868 40.7919C54.8466 40.9613 54.7788 41.1792 54.7982 41.3983C54.8995 42.1795 55.0514 42.9543 55.1868 43.7316C55.2501 44.0924 55.2312 44.4305 54.8982 44.6659C54.5855 44.8862 54.2804 44.8153 53.9651 44.6457C53.2853 44.2773 52.5877 43.9418 51.918 43.5582C51.6166 43.386 51.3862 43.4062 51.0938 43.5696C50.3915 43.9603 49.6783 44.3313 48.9542 44.6824C48.3629 44.9711 47.8046 44.6102 47.8185 43.9013ZM53.4574 42.6542C53.3714 42.1478 53.3308 41.7465 53.2296 41.354C53.07 40.7526 53.2144 40.288 53.6993 39.8905C54.0158 39.6297 54.2816 39.3081 54.6247 38.9599C54.0424 38.8764 53.5765 38.7954 53.1055 38.746C52.6345 38.6966 52.3459 38.5042 52.1686 38.0724C51.9914 37.6407 51.7622 37.2027 51.5141 36.6798C51.2457 37.2191 51.0077 37.6597 50.8064 38.1142C50.7345 38.2898 50.6145 38.4414 50.4602 38.5516C50.3058 38.6619 50.1234 38.7262 49.9341 38.7371C49.4416 38.7966 48.9516 38.8764 48.4148 38.9536C48.8098 39.3575 49.1491 39.7246 49.51 40.069C49.8087 40.3538 49.9379 40.6615 49.8429 41.0818C49.7328 41.5705 49.6771 42.0706 49.5897 42.6504C50.1075 42.382 50.5582 42.1668 50.9912 41.9199C51.1519 41.8198 51.3374 41.7668 51.5267 41.7668C51.7161 41.7668 51.9016 41.8198 52.0623 41.9199C52.4801 42.1579 52.9169 42.3732 53.4574 42.6542Z" fill="#082832"/>
</svg>
