<svg width="102" height="102" viewBox="0 0 102 102" fill="none" xmlns="http://www.w3.org/2000/svg">
<circle cx="51.4571" cy="51.1367" r="37" transform="rotate(60 51.4571 51.1367)" fill="#D3F5FF"/>
<path d="M75.3007 40.1548C75.1632 40.8126 75.0631 41.4811 74.8815 42.1261C74.2229 44.4756 72.8101 46.5433 70.8607 48.0109C68.9114 49.4785 66.5336 50.2644 64.0936 50.2477H63.589V50.7994C63.589 56.4436 63.589 62.0874 63.589 67.7309C63.589 70.8124 61.5676 73.2951 58.5754 73.8734C57.9344 73.9971 57.2629 73.9941 56.6051 73.9941C48.8392 74.002 41.073 74.002 33.3064 73.9941C29.7222 73.9941 27.0058 71.2758 26.9999 67.7014C26.9999 66.6634 26.9999 65.6261 26.9999 64.5894C26.9999 63.8855 27.2532 63.6293 27.9699 63.6264C29.5573 63.6205 31.1457 63.6264 32.7331 63.6264H33.3035C33.3152 63.4388 33.3319 63.2749 33.3329 63.11C33.3951 54.2747 33.4559 45.4393 33.5155 36.604C33.5224 35.5526 33.7285 35.3484 34.7917 35.3484C40.9385 35.3484 47.0852 35.351 53.232 35.3563C53.6002 35.3563 53.7661 35.2581 53.9133 34.9037C55.6804 30.6441 59.9439 27.8757 64.502 28.0043C69.971 28.1594 74.5811 32.364 75.2123 37.7703C75.2334 37.8751 75.2626 37.9782 75.2997 38.0785L75.3007 40.1548ZM34.9017 63.6283H51.838C52.5968 63.6283 52.8246 63.8571 52.8266 64.61C52.8266 65.7105 52.8109 66.811 52.8354 67.9115C52.8548 69.1196 53.3504 70.2712 54.2145 71.1158C55.0786 71.9604 56.2412 72.4296 57.4494 72.4214C58.0444 72.4235 58.634 72.3083 59.1844 72.0825C59.7349 71.8566 60.2355 71.5245 60.6576 71.1052C61.0797 70.6858 61.415 70.1874 61.6445 69.6384C61.8739 69.0894 61.9929 68.5006 61.9947 67.9056C62.0202 62.0743 62.0025 56.243 62.0114 50.4107C62.0114 50.1162 61.9181 50.018 61.6334 49.9473C58.8847 49.265 56.6847 47.7709 55.0756 45.4315C55.0169 45.3328 54.9315 45.2527 54.8291 45.2006C54.7268 45.1485 54.6118 45.1264 54.4974 45.137C52.7844 45.1458 51.0703 45.1419 49.3572 45.137C48.4737 45.137 47.5961 45.1488 46.7164 45.137C46.0941 45.1252 45.7033 44.6324 45.8899 44.1091C46.044 43.6733 46.3994 43.5574 46.8303 43.5584C48.6219 43.5653 50.4135 43.5584 52.2061 43.5584H54.0105C53.0887 41.3986 52.8766 39.2163 53.2713 36.9604H35.0803C35.0214 45.8536 34.9615 54.7066 34.9017 63.6283ZM64.1652 48.676C65.4178 48.6804 66.659 48.4378 67.8178 47.9622C68.9765 47.4866 70.0302 46.7873 70.9185 45.9041C71.8068 45.021 72.5124 43.9715 72.9948 42.8155C73.4772 41.6595 73.727 40.4198 73.73 39.1672C73.7614 33.9308 69.5086 29.6192 64.283 29.5927C58.9818 29.5662 54.6702 33.8091 54.6466 39.0799C54.639 40.3357 54.8794 41.5806 55.3541 42.7432C55.8288 43.9059 56.5285 44.9633 57.4128 45.8549C58.2972 46.7465 59.349 47.4547 60.5077 47.9388C61.6665 48.4229 62.9094 48.6734 64.1652 48.676ZM28.5716 65.2108C28.5716 66.1454 28.5432 67.0535 28.5775 67.9596C28.6757 70.512 30.6391 72.4195 33.1807 72.4234C39.7503 72.4332 46.3195 72.4332 52.8884 72.4234C52.9574 72.4235 53.0262 72.4159 53.0936 72.4008C52.6332 71.6498 52.0579 70.9371 51.7379 70.1252C51.4355 69.3556 51.3452 68.4868 51.2637 67.6523C51.1871 66.8483 51.247 66.0325 51.247 65.2089L28.5716 65.2108Z" fill="#082832"/>
<path d="M51.5276 59.2916C49.845 59.2916 48.1633 59.2916 46.4807 59.2916C45.9476 59.2916 45.6227 59.0266 45.5815 58.5887C45.5343 58.0851 45.876 57.7356 46.465 57.7287C47.4231 57.717 48.3823 57.7287 49.3414 57.7287H56.3674C56.5088 57.7287 56.6521 57.7219 56.7915 57.7356C57.2598 57.7818 57.569 58.1067 57.5592 58.5308C57.5494 58.9549 57.2274 59.2838 56.7591 59.2916C55.8481 59.3073 54.9361 59.2975 54.0241 59.2975L51.5276 59.2916Z" fill="#082832"/>
<path d="M51.8547 50.4264C53.5687 50.4264 55.2818 50.4264 56.9948 50.4264C57.5063 50.4264 57.8322 50.7337 57.843 51.1794C57.8538 51.6251 57.5328 51.9392 57.0282 51.9716C56.8878 51.9805 56.7455 51.9716 56.6041 51.9716H49.8137C48.7917 51.9716 47.7698 51.9716 46.7488 51.9716C46.3267 51.9716 46.0057 51.8185 45.882 51.3944C45.7308 50.8721 46.1097 50.4245 46.7145 50.4215C48.4285 50.4225 50.1416 50.4264 51.8547 50.4264Z" fill="#082832"/>
<path d="M44.1032 44.3987C44.1032 45.7308 42.9968 46.8225 41.6253 46.8343C40.2539 46.8461 39.0857 45.7191 39.0994 44.3879C39.1132 43.0567 40.25 41.9729 41.6126 41.9758C42.9752 41.9788 44.0992 43.0606 44.1032 44.3987ZM41.591 45.2567C42.1044 45.2655 42.5354 44.8895 42.5481 44.4222C42.5609 43.9549 42.1398 43.5613 41.6263 43.5525C41.1129 43.5436 40.6868 43.9137 40.676 44.3869C40.6652 44.8601 41.0726 45.2449 41.591 45.2528V45.2567Z" fill="#082832"/>
<path d="M44.1032 51.198C44.1032 52.5321 42.9948 53.6218 41.6244 53.6326C40.2539 53.6434 39.0867 52.5174 39.1004 51.1852C39.1141 49.8531 40.249 48.7742 41.6136 48.7771C42.9781 48.7801 44.1012 49.8629 44.1032 51.198ZM41.6283 52.056C42.1456 52.0491 42.5629 51.6584 42.5511 51.1911C42.5393 50.7238 42.1005 50.3429 41.5949 50.3518C41.0893 50.3606 40.6701 50.7503 40.679 51.2245C40.6878 51.6987 41.1021 52.056 41.6283 52.056Z" fill="#082832"/>
<path d="M44.1032 57.9964C44.1032 59.3315 42.9987 60.4222 41.6283 60.432C40.2578 60.4418 39.0906 59.3285 39.0994 57.9915C39.1083 56.6544 40.2352 55.5902 41.6096 55.5902C42.984 55.5902 44.0982 56.6544 44.1032 57.9964ZM41.6067 58.8514C42.127 58.8514 42.5481 58.4735 42.5481 58.0052C42.5481 57.5369 42.1113 57.1472 41.6096 57.1462C41.108 57.1452 40.678 57.532 40.676 58.0032C40.6741 58.4745 41.0844 58.8514 41.6067 58.8514Z" fill="#082832"/>
<path d="M64.8367 44.9278C64.8367 45.238 64.8563 45.5218 64.8367 45.8015C64.8253 45.9921 64.7398 46.1706 64.5986 46.299C64.4574 46.4274 64.2715 46.4955 64.0808 46.4887C63.6724 46.4887 63.2797 46.2129 63.3298 45.8153C63.4279 45.0741 63.0598 44.7933 62.457 44.4753C61.4331 43.9353 60.9079 42.9919 60.852 41.8188C60.8255 41.2602 61.0954 40.9244 61.5637 40.897C62.032 40.8695 62.3294 41.1512 62.3942 41.7108C62.5091 42.6925 63.1059 43.3149 63.9993 43.3964C64.4463 43.4364 64.8914 43.3021 65.2416 43.0214C65.5918 42.7408 65.8199 42.3357 65.8783 41.8907C65.9366 41.4457 65.8206 40.9955 65.5546 40.6341C65.2885 40.2726 64.8931 40.0281 64.4509 39.9516C64.0484 39.8858 63.6321 39.8789 63.2414 39.7749C61.9652 39.4342 60.9914 38.2856 60.8667 37.0163C60.7243 35.5702 61.387 34.2479 62.6504 33.6687C63.1472 33.4409 63.3749 33.2092 63.318 32.6448C63.2709 32.1843 63.5899 31.88 64.0052 31.8457C64.4852 31.8064 64.873 32.1254 64.8367 32.6408C64.7994 33.1818 64.9967 33.3928 65.4993 33.6029C66.7 34.1036 67.3273 35.0902 67.4627 36.3801C67.5197 36.9348 67.2291 37.3265 66.7608 37.3746C66.2926 37.4227 65.9578 37.0978 65.893 36.5303C65.7693 35.4505 65.0262 34.7986 63.9963 34.8683C63.5617 34.9084 63.1576 35.109 62.863 35.4311C62.5684 35.7531 62.4044 36.1734 62.403 36.6099C62.4089 37.5582 63.154 38.2994 64.1534 38.3553C65.9499 38.4535 67.1898 39.5501 67.4461 41.2651C67.6758 42.8064 66.7029 44.2789 65.0801 44.8463L64.8367 44.9278Z" fill="#02B2E9"/>
</svg>
