<svg width="65" height="65" viewBox="0 0 65 65" fill="none" xmlns="http://www.w3.org/2000/svg">
<path d="M30.3738 54.1231C31.3192 54.5196 31.4501 54.7062 31.4501 55.6856C31.4501 58.3047 31.4501 60.9225 31.4501 63.5392C31.4501 64.5904 31.0914 64.9474 30.0384 64.9474H15.6712C14.6146 64.9474 14.2577 64.5886 14.2559 63.5446C14.2559 60.9255 14.2559 58.3077 14.2559 55.691C14.2559 54.7026 14.3868 54.5124 15.3196 54.1321C15.3196 53.2944 15.3573 52.4441 15.3196 51.5974C15.2676 50.6305 14.7707 49.877 14.0532 49.2438C11.8377 47.2885 9.65458 45.2973 7.41583 43.3689C6.32211 42.4375 5.54948 41.1854 5.20757 39.7901C3.77247 34.2793 2.27997 28.7811 0.789266 23.2865C0.231371 21.2235 0.726481 19.548 2.43784 18.2349C2.60044 18.0727 2.6926 17.8529 2.69436 17.6232C2.74279 15.4006 4.19224 13.6049 6.23546 13.2695C8.36838 12.9107 10.4116 14.2184 11.1417 16.3442C12.6629 20.781 14.1991 25.2119 15.7502 29.6368C15.8522 29.8978 16.0368 30.1183 16.2758 30.2646C19.2751 32.0442 22.287 33.8004 25.2936 35.5673C28.6912 37.5657 30.3864 40.5358 30.3792 44.4775C30.372 47.6867 30.3738 50.9085 30.3738 54.1231ZM28.2212 54.1895V53.6819C28.2212 50.4816 28.2553 47.2795 28.2104 44.0793C28.1709 41.331 26.9547 39.1856 24.6406 37.6877C23.9231 37.2267 23.1822 36.8177 22.4485 36.3889C20.0178 34.9646 17.5907 33.5331 15.151 32.1213C13.8576 31.3697 12.4064 31.845 11.922 33.1456C11.5381 34.2004 11.922 35.2068 12.9786 35.8221C14.9519 36.9701 16.9252 38.1003 18.8984 39.2555C19.5119 39.6143 19.668 40.1991 19.3648 40.7409C19.0617 41.2826 18.4535 41.4584 17.858 41.1176C15.743 39.9085 13.6119 38.7192 11.5399 37.4383C10.7371 36.9468 10.1317 36.1897 9.8286 35.2985C9.52551 34.4073 9.54392 33.4381 9.88062 32.559C10.0276 32.2187 10.1019 31.8515 10.0988 31.4808C10.0957 31.1101 10.0153 30.7442 9.86268 30.4064C9.78554 30.227 9.7389 30.0225 9.68329 29.8323C8.76841 27.0034 7.86071 24.1744 6.94045 21.3491C6.59603 20.2907 5.72242 19.6593 4.68197 19.6862C4.23042 19.698 3.79625 19.8627 3.45049 20.1534C3.10474 20.4441 2.86788 20.8435 2.77867 21.2863C2.70173 21.7687 2.7305 22.262 2.86298 22.7322C4.34831 28.3255 5.86772 33.9098 7.35843 39.5013C7.56112 40.3069 8.00558 41.0312 8.63208 41.5768C10.8816 43.5501 13.1006 45.5789 15.3645 47.5468C16.8121 48.8025 17.5351 50.3488 17.4777 52.2665C17.4579 52.9051 17.4777 53.5437 17.4777 54.1949L28.2212 54.1895ZM16.4193 62.7337H29.2544V56.3942H16.4193V62.7337ZM13.4397 29.5866C12.7042 27.4554 11.9902 25.3907 11.2762 23.3241C10.5479 21.2169 9.81902 19.1091 9.08952 17.0007C8.70025 15.8814 7.60598 15.1979 6.53504 15.3952C6.05986 15.4948 5.6352 15.7592 5.33614 16.1416C5.03708 16.524 4.88289 16.9999 4.90082 17.4851C7.25797 17.7237 8.62849 19.0798 9.20612 21.3329C9.33707 21.8514 9.5326 22.3519 9.69764 22.8613C10.469 25.2352 11.241 27.6145 12.0135 29.9991L13.4397 29.5866Z" fill="#02B2E9"/>
<path d="M49.7171 54.1233C50.6625 54.5198 50.7935 54.7063 50.7935 55.6858C50.7935 58.3048 50.7935 60.9227 50.7935 63.5394C50.7935 64.5906 50.4347 64.9476 49.3817 64.9476H35.0128C33.9562 64.9476 33.5992 64.5888 33.5992 63.543C33.5992 60.9263 33.5992 58.3084 33.5992 55.6894C33.5992 54.7027 33.7302 54.5144 34.6755 54.1287C34.6755 51.0343 34.7168 47.9237 34.6755 44.8167C34.6074 40.5652 36.4084 37.4493 40.1092 35.3612C43.0081 33.7234 45.8657 32.0085 48.7197 30.3043C48.9929 30.1327 49.2032 29.8771 49.3189 29.576C50.8736 25.1511 52.4169 20.7226 53.9489 16.2905C54.6808 14.1756 56.6863 12.9199 58.8103 13.2661C60.8571 13.5997 62.3083 15.3936 62.3622 17.6126C62.3739 17.8626 62.4827 18.0981 62.6653 18.2692C64.2906 19.5428 64.818 21.1627 64.2924 23.1467C62.9494 28.148 61.6099 33.1518 60.2741 38.1579C59.2157 42.1349 59.4094 41.7671 56.3276 44.51C54.5893 46.0563 52.8618 47.6152 51.102 49.1364C50.1351 49.9705 49.6472 50.9715 49.7118 52.2523C49.7423 52.8766 49.7171 53.5026 49.7171 54.1233ZM47.5645 54.1753C47.5645 53.4704 47.5753 52.8246 47.5645 52.1788C47.525 50.3131 48.2282 48.8045 49.6346 47.5757C51.911 45.5899 54.1857 43.5987 56.3957 41.5393C56.9689 41.0101 57.3916 40.3386 57.6209 39.593C59.1942 33.9315 60.6956 28.2503 62.2115 22.5727C62.5702 21.2147 61.9944 20.0702 60.8069 19.7276C59.6767 19.4029 58.4928 20.1276 58.0784 21.4085C57.0361 24.6177 55.9885 27.8251 54.9768 31.0434C54.8836 31.3946 54.9037 31.7662 55.0342 32.1053C55.5042 33.3162 55.601 34.5396 54.975 35.6751C54.6019 36.355 54.0637 37.051 53.4197 37.4582C51.3998 38.7373 49.2938 39.8818 47.2255 41.0837C46.7698 41.3474 46.2675 41.4084 45.9375 41.0083C45.6915 40.6852 45.5785 40.2802 45.6217 39.8764C45.663 39.5983 46.0361 39.3131 46.3249 39.1409C48.1923 38.0377 50.0759 36.9595 51.9559 35.8796C52.6053 35.5065 53.1112 35.024 53.2116 34.2436C53.3264 33.379 53.0735 32.6399 52.3344 32.1322C51.5541 31.5941 50.7396 31.612 49.9324 32.0838C46.8625 33.8777 43.795 35.6751 40.7298 37.4762C38.1395 39.001 36.8371 41.2828 36.8228 44.2839C36.8084 47.373 36.8228 50.462 36.8228 53.5511V54.1628L47.5645 54.1753ZM35.7823 56.3854V62.7554H48.587V56.3764L35.7823 56.3854ZM60.1629 17.4799C60.1216 16.3928 59.4274 15.5515 58.4802 15.3918C57.4039 15.2124 56.3742 15.8528 55.9849 16.9686C54.575 21.012 53.1686 25.0578 51.7657 29.106C51.7119 29.262 51.6743 29.4253 51.6276 29.5957L53.0412 29.9975C54.0153 26.9874 55.0145 24.0275 55.9257 21.0443C56.5733 18.9365 57.9098 17.7185 60.1629 17.4799Z" fill="#02B2E9"/>
<path d="M32.5318 3.82513C34.1714 2.22142 36.2678 1.1654 38.5323 0.802454C44.4127 -0.203909 50.3342 4.3902 50.806 10.3333C51.0841 13.8331 49.9772 16.7912 47.4999 19.2614C42.8741 23.8752 38.2537 28.4933 33.6387 33.1155C32.731 34.0232 32.3184 34.0214 31.4071 33.1155C26.6766 28.385 21.9085 23.6923 17.2355 18.9134C12.1552 13.7237 13.6172 5.15439 20.0752 1.85725C21.9838 0.894157 24.136 0.521266 26.2574 0.78612C28.3788 1.05097 30.3732 1.94157 31.9865 3.34437L32.5318 3.82513ZM32.4188 31.2014C32.5222 31.1363 32.6217 31.065 32.7166 30.988C37.273 26.4315 41.8654 21.911 46.3716 17.3025C49.6005 13.9946 49.475 8.63989 46.2119 5.36786C44.637 3.79085 42.5114 2.88684 40.2831 2.84635C38.0547 2.80586 35.8976 3.63205 34.2665 5.1508C33.9382 5.45576 33.6369 5.78942 33.305 6.089C32.8063 6.54285 32.243 6.54285 31.7461 6.089C31.4142 5.78942 31.1129 5.45576 30.7864 5.1508C29.42 3.87205 27.6725 3.07566 25.811 2.88325C23.9495 2.69084 22.0761 3.113 20.477 4.08524C15.6335 7.05231 14.9052 13.5425 18.9845 17.6397C23.2324 21.9056 27.4875 26.163 31.7497 30.4121C31.9865 30.6525 32.1838 30.9252 32.4188 31.2014Z" fill="#082832"/>
<path d="M29.2993 18.7411C28.2445 18.7411 27.2848 18.7411 26.325 18.7411C25.3976 18.7411 25.0083 18.3572 25.0029 17.4477C25.0029 16.1507 24.994 14.8537 25.0029 13.555C25.0029 12.6867 25.403 12.2993 26.2892 12.2993C27.2686 12.2993 28.2481 12.2993 29.2975 12.2993C29.2975 11.2875 29.2975 10.326 29.2975 9.37704C29.2975 8.36888 29.6563 8.00652 30.6716 8.00293C31.9273 8.00293 33.183 8.00293 34.4297 8.00293C35.3536 8.00293 35.7339 8.38682 35.7411 9.30528C35.75 10.2668 35.7411 11.2283 35.7411 12.2975H38.4839C39.7289 12.2975 40.0446 12.6078 40.0446 13.824C40.0446 15.0098 40.0446 16.1955 40.0446 17.3813C40.0446 18.3769 39.6679 18.7393 38.6543 18.7428C37.7161 18.7428 36.7797 18.7428 35.7465 18.7428C35.7465 19.7277 35.7465 20.6784 35.7465 21.631C35.7465 22.6804 35.3877 23.0356 34.3347 23.0392C33.079 23.0392 31.8233 23.0392 30.5765 23.0392C29.6993 23.0392 29.31 22.6427 29.3011 21.7673C29.2921 20.7825 29.2993 19.803 29.2993 18.7411ZM33.6046 10.1807H31.4519C31.4519 11.1045 31.4519 11.9925 31.4519 12.8805C31.4519 14.1362 31.147 14.4429 29.8608 14.4429H27.2004V16.5471C27.2591 16.5646 27.3191 16.5772 27.3798 16.5848H29.8608C31.1721 16.5848 31.4555 16.8754 31.4555 18.2101V20.8471H33.6082V18.1527C33.6082 16.8862 33.9095 16.592 35.1993 16.592H37.8596V14.4896C37.8012 14.4709 37.7411 14.4576 37.6803 14.4501H35.0648C33.9364 14.4501 33.6064 14.1093 33.6028 12.9594L33.6046 10.1807Z" fill="#082832"/>
</svg>
