<svg width="68" height="65" viewBox="0 0 68 65" fill="none" xmlns="http://www.w3.org/2000/svg">
<path d="M0.664612 28.9374C0.703007 28.7925 0.753619 28.6477 0.779797 28.4993C0.915414 27.5853 1.39389 26.7571 2.11804 26.183C2.84218 25.6089 3.7577 25.332 4.67861 25.4086C5.56581 25.4754 6.39649 25.8697 7.00928 26.5147C7.62208 27.1597 7.97323 28.0095 7.99453 28.899C8.05037 30.7908 8.01373 32.6879 8.01896 34.5832C8.01896 34.7071 8.03467 34.831 8.04339 34.9549L8.21791 35.0858C8.24275 34.9839 8.27723 34.8845 8.32088 34.7891C9.33311 33.0212 10.9527 32.2044 12.8968 32.0823C15.2826 31.9322 17.6822 31.81 20.0697 31.8728C28.4467 32.0893 36.8238 32.3877 45.2008 32.6687C45.6424 32.6844 45.782 32.557 45.8762 32.1242C46.4144 29.6226 47.7952 27.3816 49.7876 25.776C51.7801 24.1705 54.2634 23.2978 56.8222 23.3038C57.9287 23.3038 59.0369 23.3038 60.2289 23.3038V21.2008C60.2289 20.0246 60.2289 18.8483 60.2289 17.672C60.2463 15.5219 61.8432 13.8936 63.9096 13.9058C65.9445 13.918 67.5344 15.5394 67.5361 17.6563C67.5361 32.7071 67.5361 47.7572 67.5361 62.8068C67.5361 63.641 67.3354 63.9517 66.489 63.9849C64.7298 64.0564 62.9654 64.0529 61.2045 64.0163C60.5256 64.0023 60.2289 63.5346 60.2271 62.7248C60.2271 58.9133 60.2271 55.1017 60.2271 51.2901V50.5257H8.03118V62.5224C8.03118 63.744 7.83397 64.0058 6.62104 64.0424C4.94563 64.0931 3.26848 64.0529 1.59132 64.0529C1.15851 64.0529 0.970024 63.7981 0.914177 63.4072C0.826916 62.8068 0.739656 62.2065 0.664612 61.6061V28.9374ZM60.2324 40.0806H8.08004V48.3355H60.2324V40.0806ZM65.468 61.9464V18.0629C65.478 17.8237 65.4721 17.5841 65.4506 17.3457C65.4273 17.0615 65.3189 16.791 65.1396 16.5693C64.9603 16.3477 64.7183 16.1852 64.4453 16.1031C63.2691 15.6999 62.3354 16.4713 62.3354 17.8675C62.3354 32.3481 62.3354 46.8276 62.3354 61.3059C62.3354 61.5119 62.3581 61.7196 62.3703 61.9429L65.468 61.9464ZM60.2184 25.3091C58.4017 25.4086 56.6233 25.344 54.9042 25.6389C52.3353 26.0805 50.4033 27.6058 49.0194 29.81C47.4365 32.3301 47.6913 35.119 47.7454 37.8956H60.2184V25.3091ZM45.5918 34.6966C44.9739 34.6966 44.3893 34.7123 43.8064 34.6966C38.1083 34.5308 32.4101 34.3336 26.712 34.201C22.3629 34.0997 18.0121 34.098 13.6612 34.016C11.3017 33.9706 9.88111 35.8764 9.3366 37.3825C9.29264 37.5501 9.26344 37.7212 9.24934 37.8939H45.5918V34.6966ZM5.9439 61.922V61.1367C5.9439 50.6025 5.9439 40.0684 5.9439 29.5343C5.9439 29.2952 5.9439 29.0561 5.91597 28.817C5.84965 28.1189 5.43953 27.7122 4.79205 27.5377C3.61926 27.2218 2.81647 28.0159 2.81647 29.4906C2.81647 40.0678 2.81647 50.6456 2.81647 61.2239C2.81647 61.4543 2.83915 61.6847 2.85311 61.922H5.9439Z" fill="#02B2E9"/>
<path d="M28.9145 17.0364C28.1309 17.0364 27.4171 17.0364 26.705 17.0364C24.5741 17.019 22.9109 15.6124 22.7102 13.5041C22.5979 12.3124 22.6096 11.1122 22.7451 9.92294C22.9598 8.02938 24.609 6.64019 26.52 6.59656C27.2809 6.57911 28.0418 6.59656 28.9127 6.59656V4.83738C28.9127 1.89145 30.4834 0.310283 33.4241 0.322499C34.3578 0.322499 35.3072 0.284104 36.2164 0.441174C38.0385 0.751823 39.302 2.32077 39.3456 4.17769C39.3648 4.95605 39.3456 5.73442 39.3456 6.59132C40.1222 6.59132 40.8325 6.59132 41.5446 6.59132C43.8919 6.60528 45.5865 8.27371 45.6144 10.6053C45.6249 11.4552 45.6302 12.3052 45.6144 13.1533C45.6009 14.1776 45.188 15.1561 44.4636 15.8804C43.7393 16.6047 42.7608 17.0177 41.7366 17.0312C40.9757 17.0487 40.2147 17.0312 39.3543 17.0312C39.3543 17.7293 39.3543 18.396 39.3543 19.0626C39.3456 21.6613 37.7104 23.2948 35.1117 23.3053C34.3927 23.3053 33.6737 23.314 32.9564 23.3053C30.6527 23.2704 28.972 21.6072 28.9145 19.2913C28.8987 18.5687 28.9145 17.834 28.9145 17.0364ZM39.9914 14.9422C40.5149 14.9422 41.0385 14.9527 41.562 14.9422C42.7697 14.916 43.5149 14.1795 43.5359 12.9823C43.5481 12.2196 43.5464 11.457 43.5359 10.6961C43.5184 9.41857 42.7732 8.68209 41.4922 8.67686C40.6423 8.67686 39.7941 8.69256 38.946 8.68558C37.5271 8.67686 37.2583 8.40809 37.2531 7.01017C37.2531 6.18294 37.2653 5.35571 37.2671 4.52847C37.2671 3.1323 36.5446 2.41327 35.1292 2.40454C34.5428 2.40454 33.9546 2.40454 33.3665 2.40454C31.6353 2.40454 31.0698 2.94207 31.0052 4.68729C30.9843 5.25099 31.0279 5.81819 31.0279 6.38364C31.0361 6.77497 31.0233 7.16647 30.9895 7.55643C30.904 8.38192 30.5864 8.66813 29.7679 8.67162C28.7661 8.67162 27.7644 8.67162 26.7643 8.67162C25.5427 8.68558 24.7905 9.39589 24.7434 10.5914C24.7108 11.3953 24.7108 12.2005 24.7434 13.0067C24.7923 14.2075 25.5567 14.9265 26.7643 14.9265C27.7434 14.9265 28.7242 14.9073 29.7033 14.9265C30.6824 14.9457 30.9686 15.2162 31.0052 16.1673C31.0436 17.1673 30.993 18.1691 31.0052 19.1708C31.0209 20.4117 31.7731 21.1726 32.9965 21.1936C33.8238 21.2093 34.651 21.2128 35.4782 21.1936C36.4451 21.1656 36.9966 20.7415 37.1589 19.7974C37.2723 19.1394 37.2339 18.4553 37.2601 17.7817C37.2863 17.108 37.2601 16.4762 37.3369 15.8305C37.4067 15.2319 37.7906 14.9212 38.4207 14.9387C38.946 14.9614 39.4695 14.9509 39.9914 14.9492V14.9422Z" fill="#082832"/>
</svg>
