<svg width="99" height="98" viewBox="0 0 99 98" fill="none" xmlns="http://www.w3.org/2000/svg">
<mask id="mask0_217_98" style="mask-type:luminance" maskUnits="userSpaceOnUse" x="0" y="0" width="99" height="98">
<path d="M0.890808 0.074707H98.7416V97.9255H0.890808V0.074707Z" fill="white"/>
</mask>
<g mask="url(#mask0_217_98)">
<path d="M21.6026 0.074707H26.014V4.43315H30.0504V0.074707H34.4618V13.2683H30.0504V8.85274H26.014V13.2683H21.6066L21.6026 0.074707ZM40.2595 4.44945H36.378V0.074707H48.5564V4.44945H44.6709V13.2683H40.2595V4.44945ZM50.489 0.074707H55.0879L57.9175 4.71039L60.7429 0.074707H65.3419V13.2683H60.9508V6.72856L57.9175 11.4213H57.84L54.8025 6.73264V13.2683H50.489V0.074707ZM67.5354 0.074707H71.9509V8.90982H78.1481V13.2723H67.5354V0.074707Z" fill="#082832"/>
<path fill-rule="evenodd" clip-rule="evenodd" d="M21.4639 90.065L13.1222 19.3066H86.5103L78.1644 90.0569L49.7755 97.9257L21.4639 90.065ZM38.331 51.3324L37.54 42.4443H70.7481L71.5228 33.7682H28.0607L30.401 60.0126H60.4779L59.4708 71.2654L49.7918 73.8829H49.7836L40.1208 71.2736L39.5011 64.3547H30.7842L31.9992 77.9804L49.7755 82.9138L67.5802 77.9804L69.7493 53.6645L69.9613 51.3365L38.331 51.3324Z" fill="#082832"/>
</g>
</svg>
