<svg width="178" height="61" viewBox="0 0 178 61" fill="none" xmlns="http://www.w3.org/2000/svg">
<g clip-path="url(#clip0_217_65)">
<path d="M32.2897 0C32.7066 0.196513 33.1644 0.147832 33.6008 0.200116C37.2518 0.635964 40.7925 1.75196 44.0454 3.49215C44.4003 3.68145 44.4003 3.68867 44.088 3.93566C42.8309 4.9048 41.8345 6.18024 41.1908 7.64416C40.9441 8.19764 40.9335 8.18502 40.3675 7.92541C39.3469 7.45225 38.2974 7.04636 37.2255 6.71027C34.6814 5.93851 32.0366 5.56406 29.3818 5.5997C28.216 5.65938 27.0544 5.78577 25.9026 5.9783C24.6201 6.1856 23.3571 6.50284 22.1272 6.92661C19.3586 7.87254 16.7813 9.31949 14.5195 11.1976C11.5682 13.6349 9.21614 16.7372 7.64988 20.2588C6.77993 22.2057 6.16382 24.2597 5.81715 26.3687C5.51375 28.1394 5.40604 29.9391 5.49602 31.7341C5.63553 34.727 6.31007 37.6692 7.48665 40.4167C9.61401 45.4375 13.3121 49.6048 18.0075 52.2723C19.9244 53.3701 21.9794 54.1974 24.116 54.7314C25.3117 55.0297 26.5273 55.2382 27.7531 55.3552C29.1371 55.4952 30.5305 55.5109 31.9171 55.4021C34.1688 55.2226 36.3851 54.7269 38.5029 53.9292C41.3061 52.8746 43.8971 51.3107 46.1496 49.3138C50.3862 45.5891 53.2323 40.4963 54.2097 34.8909C54.3658 34.0057 54.4492 33.106 54.5184 32.2046C54.6017 31.2696 54.6195 30.3297 54.5716 29.3921C54.4633 27.4167 54.1378 25.4599 53.6012 23.5581C53.321 22.5923 52.982 21.6452 52.5863 20.7222C52.5118 20.5419 52.5863 20.5329 52.7141 20.486C53.4805 20.1896 54.2139 19.8113 54.9016 19.3574C55.7071 18.8165 56.3494 18.1152 57.02 17.4337C57.0571 17.3972 57.0962 17.3629 57.1371 17.331C57.5175 18.0562 57.8465 18.8081 58.1218 19.5809C58.7944 21.3426 59.2988 23.1658 59.628 25.0256C59.8173 26.0383 59.9452 27.0619 60.0113 28.0905C60.0627 28.9919 60.1443 29.8933 60.123 30.7948C60.0742 33.7223 59.6252 36.6287 58.7889 39.4305C57.2378 44.5526 54.3888 49.1704 50.5275 52.8207C46.6662 56.471 41.9284 59.0256 36.789 60.2284C35.6407 60.5072 34.4764 60.7126 33.3028 60.8431C30.6265 61.1165 27.9265 61.0347 25.271 60.5998C20.1699 59.7819 15.3683 57.6213 11.3437 54.333C5.77279 49.8024 2.2404 43.9629 0.682669 36.8921C0.176625 34.6162 -0.0492416 32.2853 0.0102556 29.9528C0.198319 22.7828 2.50475 16.3863 7.06085 10.8695C10.9197 6.19645 15.7543 3.00898 21.5098 1.24578C23.6076 0.601459 25.7717 0.20581 27.9589 0.0667052C28.037 0.0667052 28.1239 0.0847383 28.1825 0.00360925L32.2897 0Z" fill="#082832"/>
<path d="M16.3562 30.4847C16.351 28.6243 16.7151 26.7819 17.4266 25.0677C18.138 23.3535 19.1823 21.8026 20.4969 20.5077C21.8116 19.2129 23.3696 18.2007 25.0779 17.5316C26.7863 16.8625 28.6098 16.5502 30.4396 16.6135C37.6765 16.8118 43.7815 22.7612 43.746 30.5352C43.7087 38.4534 37.6818 43.7899 31.2238 44.383C28.6926 44.6031 26.151 44.103 23.8837 42.9386C21.6163 41.7741 19.7127 39.9914 18.3858 37.7899C17.0528 35.5945 16.3498 33.0644 16.3562 30.4847Z" fill="#082832"/>
<path d="M98.2967 16.6044C101.127 16.5678 103.904 17.3956 106.266 18.9806C109.137 20.9097 110.945 23.6122 111.731 27.0106C111.949 28.0039 112.072 29.0165 112.098 30.034C112.183 32.0594 111.844 34.0802 111.101 35.9618C110.491 37.4978 109.603 38.9042 108.484 40.1084C107.441 41.2406 106.214 42.1817 104.856 42.8902C103.692 43.5066 102.442 43.9366 101.15 44.1649C100.541 44.2694 99.9272 44.3271 99.3169 44.4065C98.5859 44.5002 97.8674 44.4064 97.1506 44.3668C96.3128 44.3132 95.4833 44.1657 94.6774 43.9269C92.9618 43.4588 91.3559 42.6464 89.9542 41.5376C88.5526 40.4288 87.3836 39.046 86.5162 37.4708C85.7776 36.1244 85.2513 34.6686 84.9566 33.1566C84.7708 32.09 84.6965 31.0065 84.7349 29.924C84.7643 28.1841 85.1359 26.4678 85.8278 24.876C86.3974 23.5166 87.1825 22.2614 88.1519 21.1603C90.3289 18.6831 93.0416 17.2535 96.2546 16.7523C96.93 16.6445 97.6131 16.595 98.2967 16.6044ZM106.172 30.7948C106.162 28.9198 105.826 27.4018 105.051 25.9902C102.496 21.337 96.1056 20.6969 92.7258 24.7552C90.2934 27.6795 90.0539 32.2587 92.1669 35.5021C92.7226 36.3644 93.445 37.1031 94.2901 37.6731C95.1353 38.2431 96.0856 38.6327 97.0835 38.8182C98.0813 39.0036 99.1058 38.9811 100.095 38.752C101.084 38.5229 102.017 38.0919 102.837 37.4852C105.15 35.7815 106.107 33.3657 106.172 30.7948Z" fill="#082832"/>
<path d="M120.666 20.0029C122.63 18.3371 124.812 17.2211 127.281 16.7938C129.874 16.3467 132.427 16.5955 134.815 17.771C137.011 18.8527 138.436 20.6555 139.314 22.9326C139.806 24.2436 140.116 25.618 140.235 27.016C140.327 27.9896 140.363 28.9613 140.363 29.9367C140.363 34.4138 140.363 38.8903 140.363 43.3662C140.363 43.6854 140.29 43.7809 139.965 43.7773C138.109 43.7617 136.253 43.7617 134.396 43.7773C134.089 43.7773 134.011 43.7016 134.011 43.3897C134.022 38.5346 134.011 33.6813 134.011 28.8279C134.011 27.1314 133.624 25.5539 132.627 24.1711C131.91 23.1266 130.834 22.3927 129.611 22.1141C128.098 21.7697 126.7 22.1609 125.341 22.7595C124.04 23.3032 122.913 24.2024 122.085 25.3574C121.564 26.0794 121.286 26.9522 121.29 27.8472C121.29 33.007 121.293 38.1668 121.299 43.3266C121.299 43.6691 121.237 43.7845 120.87 43.7791C119.012 43.7575 117.156 43.7647 115.299 43.7791C115.027 43.7791 114.944 43.707 114.944 43.4185C114.951 34.808 114.951 26.1963 114.944 17.5834C114.944 17.2734 115.05 17.2229 115.324 17.2229C116.844 17.2355 118.363 17.2409 119.883 17.2229C120.185 17.2229 120.259 17.3509 120.291 17.5943C120.387 18.3154 120.481 19.0366 120.58 19.7469C120.603 19.834 120.632 19.9195 120.666 20.0029Z" fill="#082832"/>
<path d="M166.617 38.958C168.334 38.9864 170.003 38.3797 171.313 37.2507C172.084 36.6406 172.761 35.9176 173.323 35.1053C173.41 34.9737 173.488 34.9773 173.607 35.0584C175.036 36.0296 176.466 36.9983 177.897 37.9647C178.074 38.0783 177.995 38.145 177.917 38.2657C177.107 39.5016 176.085 40.58 174.9 41.4496C173.972 42.1589 172.98 42.7799 171.939 43.3048C171.028 43.7277 170.07 44.0394 169.087 44.2332C168.472 44.3704 167.845 44.4388 167.217 44.437C166.336 44.4349 165.456 44.3607 164.587 44.2152C163.174 43.9683 161.803 43.5159 160.517 42.8721C159.739 42.4718 159.001 41.9954 158.314 41.4496C157.653 40.9238 157.041 40.3379 156.485 39.699C155.65 38.7577 154.958 37.6949 154.432 36.5458C153.886 35.3576 153.494 34.1026 153.266 32.8121C153.073 31.6813 153.026 30.5297 153.128 29.3866C153.22 28.1143 153.491 26.8619 153.931 25.6673C154.463 24.183 155.244 22.8033 156.238 21.5892C158.479 18.8651 161.365 17.3236 164.782 16.7774C167.932 16.2726 170.875 16.8297 173.577 18.6181C174.785 19.3794 175.892 20.2942 176.872 21.3404C177.258 21.7751 177.614 22.2372 177.936 22.7232C178.027 22.8584 178.037 22.936 177.867 23.0495C176.472 23.987 175.087 24.939 173.703 25.8909C173.525 26.0117 173.419 26.0171 173.286 25.8224C172.434 24.5673 171.293 23.5435 169.961 22.8404C169.168 22.4083 168.291 22.1567 167.392 22.103C166.317 22.0308 165.238 22.1704 164.215 22.5141C162.597 23.0657 161.224 24.1831 160.342 25.6673C159.259 27.4125 158.897 29.3361 159.071 31.3806C159.261 33.6198 160.104 35.5362 161.764 37.047C162.774 37.9671 164.019 38.5794 165.355 38.8138C165.77 38.9046 166.193 38.9529 166.617 38.958Z" fill="#082832"/>
<path d="M75.589 30.5063C75.589 26.2191 75.589 21.9325 75.589 17.6464C75.589 17.3021 75.6794 17.2192 76.0112 17.2228C77.8564 17.2408 79.6997 17.2372 81.5449 17.2228C81.8305 17.2228 81.9423 17.2678 81.9423 17.6014C81.9317 26.1974 81.9317 34.7911 81.9423 43.3824C81.9423 43.6997 81.8536 43.7718 81.5538 43.77C79.698 43.7556 77.8416 43.7556 75.9846 43.77C75.6528 43.77 75.5907 43.6672 75.5907 43.3553C75.5978 39.0765 75.5972 34.7935 75.589 30.5063Z" fill="#082832"/>
<path d="M150.309 30.5353C150.309 34.7991 150.309 39.061 150.309 43.3248C150.309 43.6638 150.252 43.7845 149.881 43.7791C148.025 43.7575 146.169 43.7647 144.312 43.7791C144.051 43.7791 143.957 43.725 143.957 43.4348C143.965 34.8135 143.965 26.1928 143.957 17.5727C143.957 17.2806 144.051 17.2265 144.312 17.2283C146.192 17.2373 148.071 17.2409 149.95 17.2283C150.254 17.2283 150.305 17.3293 150.305 17.6087C150.298 21.9176 150.299 26.2264 150.309 30.5353Z" fill="#082832"/>
<path d="M55.9648 11.5059C55.9186 15.0918 53.1722 17.8736 49.6682 17.852C46.2281 17.8303 43.8986 15.2919 43.5136 12.2901C43.3983 11.4425 43.4581 10.5798 43.689 9.75693C43.9199 8.93406 44.317 8.16909 44.8548 7.51073C46.0968 5.92421 47.7716 5.167 49.7445 5.167C50.5632 5.16557 51.3742 5.32868 52.1307 5.64696C52.8871 5.96523 53.5742 6.43238 54.1523 7.02152C54.7304 7.61066 55.1882 8.31017 55.4992 9.07977C55.8103 9.84938 55.9685 10.6739 55.9648 11.5059Z" fill="#082832"/>
</g>
<defs>
<clipPath id="clip0_217_65">
<rect width="178" height="61" fill="white"/>
</clipPath>
</defs>
</svg>
