<svg width="64" height="64" viewBox="0 0 64 64" fill="none" xmlns="http://www.w3.org/2000/svg">
<g clip-path="url(#clip0_327_162)">
<path d="M48.8245 46.5682L50.5406 48.3616C51.8519 47.3781 52.816 48.0723 53.7609 49.1714C54.3587 48.3037 54.9564 47.5131 55.477 46.7032C56.8493 44.5184 57.9013 42.1483 58.6009 39.665C58.6391 39.5641 58.6713 39.4611 58.6973 39.3564C58.948 38.6044 59.3915 38.2959 60.0278 38.4501C60.6642 38.6044 60.8763 39.1636 60.6835 39.8963C59.6685 43.6234 57.9324 47.1153 55.5735 50.1742L55.3035 50.5213L57.0197 52.276C57.2286 52.4421 57.3973 52.6533 57.5132 52.8937C57.6292 53.134 57.6894 53.3975 57.6894 53.6644C57.6894 53.9313 57.6292 54.1947 57.5132 54.4351C57.3973 54.6755 57.2286 54.8866 57.0197 55.0527L55.3999 56.7111C55.241 56.9118 55.0388 57.0739 54.8084 57.1854C54.578 57.2969 54.3254 57.3548 54.0694 57.3548C53.8135 57.3548 53.5608 57.2969 53.3304 57.1854C53.1 57.0739 52.8978 56.9118 52.7389 56.7111C52.1411 56.1133 51.6205 55.4577 51.0805 54.7828C47.0274 58.107 42.1976 60.3494 37.0426 61.3004L38.3538 61.9367C38.4989 61.9798 38.6336 62.0525 38.7494 62.1501C38.8651 62.2478 38.9594 62.3683 39.0264 62.504C39.0934 62.6398 39.1316 62.788 39.1386 62.9392C39.1457 63.0905 39.1214 63.2415 39.0673 63.3829C39.0011 63.519 38.907 63.6397 38.7911 63.7371C38.6752 63.8344 38.5402 63.9063 38.3947 63.9481C38.2492 63.99 38.0967 64.0008 37.9468 63.9798C37.7969 63.9588 37.6531 63.9066 37.5247 63.8265L32.9161 61.6668C32.7048 61.631 32.5097 61.5309 32.3574 61.3802C32.2051 61.2295 32.103 61.0354 32.0651 60.8246C32.0271 60.6137 32.0551 60.3962 32.1453 60.2018C32.2355 60.0075 32.3834 59.8457 32.5689 59.7385L35.9627 56.5761C36.0587 56.4657 36.1772 56.3772 36.3102 56.3166C36.4433 56.256 36.5878 56.2246 36.734 56.2246C36.8803 56.2246 37.0248 56.256 37.1579 56.3166C37.2909 56.3772 37.4094 56.4657 37.5054 56.5761C37.6077 56.686 37.6855 56.8165 37.7336 56.9588C37.7817 57.1011 37.799 57.252 37.7844 57.4014C37.7698 57.5509 37.7236 57.6956 37.6489 57.8259C37.5742 57.9562 37.4727 58.0691 37.3511 58.1573L36.1749 59.3143C41.0071 58.5714 45.5608 56.5771 49.3836 53.5294C47.9181 51.8132 47.841 51.4661 48.7666 50.0777C48.4967 49.8656 48.1496 49.6535 47.8603 49.3836C47.5852 49.1008 47.3396 48.7907 47.1276 48.458C46.2592 49.1482 45.2477 49.6362 44.167 49.8864C43.0862 50.1366 41.9633 50.1427 40.8799 49.9042C39.1343 49.5255 37.5935 48.5075 36.5605 47.0503C35.7815 45.9735 35.3091 44.7055 35.1938 43.3815C35.0785 42.0574 35.3245 40.7268 35.9057 39.5316C36.4868 38.3363 37.3813 37.321 38.4939 36.594C39.6064 35.8669 40.8954 35.4553 42.2234 35.4029C43.5514 35.3506 44.8688 35.6594 46.0352 36.2966C47.2016 36.9338 48.1732 37.8755 48.8467 39.0213C49.5201 40.1671 49.8702 41.4741 49.8595 42.8031C49.8488 44.1322 49.4777 45.4334 48.7859 46.5682H48.8245ZM47.7832 42.7116C47.7794 41.6721 47.4678 40.657 46.8879 39.7943C46.308 38.9316 45.4857 38.2598 44.5246 37.8638C43.5635 37.4677 42.5066 37.3651 41.4872 37.5688C40.4679 37.7726 39.5316 38.2735 38.7966 39.0086C38.0615 39.7436 37.5606 40.6799 37.3568 41.6992C37.1531 42.7186 37.2557 43.7755 37.6518 44.7366C38.0478 45.6977 38.7196 46.5201 39.5823 47.1C40.445 47.6799 41.4602 47.9914 42.4997 47.9952C43.1926 47.9977 43.8792 47.8635 44.5201 47.6C45.161 47.3366 45.7436 46.9493 46.2345 46.4602C46.7254 45.9711 47.1149 45.3899 47.3806 44.75C47.6464 44.11 47.7832 43.4239 47.7832 42.7309V42.7116ZM55.3421 53.8186L51.9868 50.1742L50.6756 51.3504L53.9923 54.9756L55.3421 53.8186Z" fill="#082832"/>
<path d="M33.0509 33.0316V55.824C33.0509 56.0361 33.0509 56.2675 33.0509 56.4796C33.0361 56.7405 32.9219 56.9859 32.7319 57.1652C32.5418 57.3445 32.2902 57.4442 32.0289 57.4438C31.7676 57.4442 31.516 57.3445 31.3259 57.1652C31.1359 56.9859 31.0217 56.7405 31.0069 56.4796C31.0069 56.2675 31.0069 56.0554 31.0069 55.8433C31.0069 48.5158 31.0069 41.2012 31.0069 33.8994V33.0316H8.19521C7.9831 33.0316 7.75168 33.0316 7.53957 33.0316C7.26852 33.0316 7.00859 32.9239 6.81693 32.7323C6.62527 32.5406 6.51758 32.2807 6.51758 32.0096C6.51758 31.7386 6.62527 31.4786 6.81693 31.287C7.00859 31.0953 7.26852 30.9876 7.53957 30.9876C7.75124 30.9684 7.96424 30.9684 8.17591 30.9876H30.9683V30.2163C30.9683 22.8502 30.9683 15.5034 30.9683 8.13736C30.9395 7.90041 30.9395 7.66085 30.9683 7.4239C30.9974 7.18354 31.1176 6.96353 31.3042 6.80924C31.4908 6.65496 31.7295 6.57817 31.9711 6.59475C32.2087 6.58222 32.4425 6.65797 32.6276 6.80748C32.8127 6.95699 32.936 7.16966 32.9738 7.4046C33.0026 7.64154 33.0026 7.88111 32.9738 8.11806V30.9876H55.824C56.0544 30.9584 56.2877 30.9584 56.5182 30.9876C56.7179 31.0578 56.8908 31.1883 57.0132 31.361C57.1355 31.5337 57.2012 31.7401 57.2012 31.9518C57.2012 32.1634 57.1355 32.3698 57.0132 32.5425C56.8908 32.7152 56.7179 32.8457 56.5182 32.9159C56.2813 32.9452 56.0417 32.9452 55.8047 32.9159H33.0509V33.0316Z" fill="#02B2E9"/>
<path d="M14.5779 20.4399V13.0353C14.5779 11.8397 15.06 11.3577 16.2555 11.3577C18.5887 11.3577 20.9027 11.3577 23.2359 11.3577C23.7202 11.3734 24.184 11.5575 24.5472 11.8783C25.9162 13.1702 27.2468 14.5201 28.558 15.8892C28.8707 16.2329 29.0487 16.678 29.0594 17.1425C29.0594 20.7292 29.0594 24.3351 29.0594 27.9217C29.0594 29.0594 28.5773 29.5414 27.4589 29.5414H16.1591C15.0407 29.5414 14.5586 29.0401 14.5586 27.9217L14.5779 20.4399ZM26.9768 17.9331H24.2579C23.0045 17.9331 22.5032 17.4318 22.5032 16.1784C22.5032 15.2721 22.5032 14.3851 22.5032 13.4595H16.7183V27.4396H27.0154L26.9768 17.9331ZM25.6077 15.8506L24.605 14.8864V15.8506H25.6077Z" fill="#082832"/>
<path d="M35.6541 25.7426C35.6745 25.549 35.7266 25.3601 35.8084 25.1834C35.9514 24.948 36.027 24.6779 36.027 24.4024C36.027 24.127 35.9514 23.8569 35.8084 23.6215C35.7406 23.4454 35.6345 23.2865 35.4977 23.1565C35.361 23.0264 35.1971 22.9284 35.0178 22.8695C34.7188 22.813 34.4533 22.6428 34.2771 22.3947C34.1009 22.1466 34.0277 21.8399 34.0729 21.539C34.0729 20.9798 34.0729 20.4206 34.0729 19.8614C34.0443 19.581 34.1157 19.2995 34.2745 19.0666C34.4332 18.8338 34.6692 18.6645 34.9406 18.5887C35.153 18.5182 35.3478 18.4029 35.5118 18.2507C35.6758 18.0984 35.8051 17.9126 35.8911 17.706C35.977 17.4994 36.0175 17.2767 36.0099 17.0531C36.0023 16.8294 35.9467 16.61 35.8469 16.4097C35.7062 16.1628 35.6581 15.8739 35.7111 15.5948C35.7641 15.3156 35.9148 15.0645 36.1361 14.8863C36.5604 14.5007 36.9653 14.0765 37.3703 13.6523C37.5478 13.4355 37.7968 13.2892 38.0725 13.2397C38.3482 13.1902 38.6326 13.2408 38.8744 13.3823C39.0713 13.4795 39.2865 13.5341 39.506 13.5425C39.7255 13.5509 39.9443 13.5129 40.1481 13.431C40.3519 13.3492 40.5362 13.2252 40.6888 13.0673C40.8415 12.9093 40.9591 12.721 41.034 12.5146C41.0944 12.2369 41.2565 11.9919 41.4885 11.8277C41.7205 11.6636 42.0055 11.5921 42.2874 11.6275C42.8787 11.6275 43.4765 11.6275 44.0807 11.6275C44.351 11.5987 44.6229 11.666 44.8486 11.8176C45.0743 11.9693 45.2393 12.1955 45.3148 12.4567C45.3832 12.6708 45.497 12.8676 45.6484 13.0337C45.7998 13.1998 45.9852 13.3313 46.1921 13.4192C46.3989 13.507 46.6223 13.5492 46.847 13.5429C47.0716 13.5365 47.2923 13.4817 47.4938 13.3823C47.7367 13.2389 48.0236 13.1891 48.3005 13.2424C48.5775 13.2957 48.8255 13.4482 48.9979 13.6715L50.2706 14.9442C50.4672 15.1143 50.6008 15.3458 50.6498 15.6012C50.6987 15.8566 50.6602 16.121 50.5405 16.3519C50.4272 16.5579 50.3618 16.7868 50.3494 17.0216C50.3369 17.2565 50.3776 17.4911 50.4684 17.708C50.5592 17.9249 50.6978 18.1184 50.8739 18.2743C51.05 18.4301 51.259 18.5441 51.4853 18.6079C51.7342 18.6863 51.9486 18.8479 52.0926 19.0656C52.2365 19.2832 52.3013 19.5438 52.2759 19.8035C52.2759 20.382 52.2759 20.9605 52.2759 21.539C52.3185 21.8311 52.2514 22.1287 52.0876 22.3743C51.9239 22.62 51.675 22.7964 51.3889 22.8695C51.1814 22.9402 50.9914 23.0543 50.8314 23.2043C50.6715 23.3542 50.5453 23.5365 50.4614 23.7391C50.3775 23.9416 50.3377 24.1597 50.3447 24.3788C50.3516 24.598 50.4053 24.8131 50.5019 25.0099C50.6513 25.2627 50.7024 25.5616 50.6455 25.8497C50.5886 26.1377 50.4277 26.3947 50.1934 26.5718C49.7885 26.9574 49.4028 27.3431 49.0171 27.7673C48.829 27.9933 48.5663 28.1447 48.2764 28.1942C47.9865 28.2437 47.6885 28.1881 47.436 28.0373C47.2423 27.9468 47.0318 27.8975 46.8181 27.8926C46.6043 27.8878 46.3919 27.9274 46.1942 28.009C45.9966 28.0906 45.818 28.2123 45.67 28.3666C45.5219 28.5209 45.4076 28.7042 45.3341 28.9051C45.2611 29.1976 45.0834 29.4532 44.8347 29.6237C44.586 29.7943 44.2835 29.8678 43.9843 29.8306H42.3067C42.0244 29.8543 41.7427 29.7787 41.5103 29.6167C41.2779 29.4547 41.1095 29.2166 41.034 28.9436C40.9628 28.7363 40.8486 28.5462 40.6991 28.3859C40.5495 28.2256 40.3679 28.0985 40.166 28.0131C39.9641 27.9276 39.7464 27.8855 39.5272 27.8897C39.308 27.8939 39.0921 27.9442 38.8936 28.0373C38.643 28.1887 38.3456 28.2429 38.0577 28.1896C37.7698 28.1363 37.5114 27.9792 37.3317 27.7481C36.8882 27.2853 36.4061 26.8417 35.9819 26.3789C35.8439 26.1829 35.7335 25.9688 35.6541 25.7426ZM38.373 17.1039C38.373 17.3352 38.1995 17.5474 38.103 17.7595C37.9037 18.137 37.7359 18.5305 37.6017 18.9358C37.5586 19.2356 37.4303 19.5168 37.232 19.7458C37.0337 19.9749 36.7738 20.1421 36.4832 20.2277C36.3996 20.271 36.3278 20.3339 36.274 20.4112C36.2203 20.4885 36.1862 20.5778 36.1748 20.6712C36.1748 20.864 36.329 21.1533 36.4832 21.1919C36.7702 21.2806 37.026 21.4492 37.2207 21.678C37.4153 21.9068 37.5408 22.1863 37.5824 22.4838C37.6569 22.8214 37.7943 23.1419 37.9873 23.4286C38.1731 23.6679 38.2835 23.9572 38.3041 24.2594C38.3247 24.5617 38.2547 24.8633 38.103 25.1256C38.0736 25.2147 38.0688 25.3102 38.0892 25.4018C38.1095 25.4935 38.1543 25.5779 38.2187 25.6462C38.2959 25.7169 38.3879 25.7691 38.4881 25.7992C38.5883 25.8292 38.6939 25.8363 38.7972 25.8198C39.0603 25.6706 39.3613 25.6021 39.663 25.6226C39.9647 25.6432 40.2537 25.752 40.4941 25.9355C40.799 26.134 41.1395 26.2715 41.4968 26.3404C41.7748 26.3891 42.0337 26.514 42.2448 26.7013C42.4559 26.8886 42.6108 27.1308 42.6923 27.4009C42.7428 27.4941 42.8145 27.5741 42.9016 27.6344C42.9887 27.6947 43.0888 27.7336 43.1937 27.7481C43.2973 27.7372 43.3968 27.7017 43.484 27.6447C43.5712 27.5877 43.6436 27.5108 43.6951 27.4202C43.7742 27.1401 43.933 26.889 44.152 26.6974C44.3711 26.5057 44.641 26.3817 44.9292 26.3404C45.2454 26.2756 45.5464 26.1513 45.8162 25.974C46.069 25.7703 46.3777 25.6484 46.7014 25.6243C47.0252 25.6002 47.3486 25.675 47.6288 25.839C47.726 25.851 47.8246 25.8417 47.9179 25.8117C48.0111 25.7817 48.0967 25.7318 48.1687 25.6655C48.2314 25.5961 48.275 25.5117 48.2953 25.4204C48.3156 25.3292 48.3119 25.2342 48.2844 25.1449C48.1381 24.8687 48.0747 24.556 48.1021 24.2447C48.1295 23.9333 48.2464 23.6365 48.4387 23.3901C48.6019 23.1153 48.7192 22.8157 48.7857 22.5031C48.8311 22.2041 48.9602 21.924 49.1581 21.6954C49.3561 21.4667 49.6147 21.2988 49.9042 21.2111C49.9927 21.1515 50.0653 21.0711 50.1157 20.977C50.1661 20.8829 50.1928 20.7779 50.1934 20.6712C50.1893 20.5782 50.1603 20.4879 50.1094 20.4099C50.0585 20.3319 49.9877 20.269 49.9042 20.2277C49.6228 20.1475 49.37 19.9888 49.1754 19.7703C48.9808 19.5517 48.8523 19.2824 48.805 18.9936C48.7309 18.6379 48.5938 18.2983 48.4001 17.9909C48.2216 17.7594 48.1155 17.4804 48.0949 17.1888C48.0743 16.8973 48.1402 16.6061 48.2844 16.3519C48.324 16.2674 48.3445 16.1752 48.3445 16.0819C48.3445 15.9886 48.324 15.8964 48.2844 15.8119C48.1494 15.6769 47.8409 15.542 47.7059 15.6191C47.4286 15.7698 47.1137 15.8372 46.799 15.8132C46.4843 15.7893 46.1832 15.675 45.9319 15.4841C45.6245 15.2904 45.2849 15.1533 44.9292 15.0792C44.663 15.0322 44.4153 14.9115 44.2142 14.7309C44.0131 14.5502 43.8666 14.3168 43.7915 14.0572C43.74 13.9666 43.6676 13.8897 43.5804 13.8327C43.4933 13.7757 43.3937 13.7402 43.2901 13.7293C43.1889 13.7312 43.0898 13.7587 43.0021 13.8093C42.9144 13.8598 42.841 13.9319 42.7888 14.0186C42.703 14.3004 42.5402 14.5525 42.3187 14.7467C42.0973 14.9409 41.826 15.0694 41.5354 15.1177C41.1579 15.1999 40.7985 15.3502 40.4748 15.5612C40.2511 15.7081 39.993 15.7941 39.7259 15.811C39.4588 15.828 39.1919 15.7751 38.9514 15.6576C38.8408 15.6238 38.7237 15.6166 38.6098 15.6367C38.4958 15.6569 38.3882 15.7036 38.2958 15.7733C38.2238 15.9859 38.2238 16.2164 38.2958 16.429C38.2772 16.6347 38.2837 16.8419 38.3151 17.046L38.373 17.1039Z" fill="#02B2E9"/>
<path d="M11.7048 43.0973C11.7049 41.2947 12.2402 39.5327 13.2428 38.0348C14.2455 36.5368 15.6704 35.3704 17.3369 34.6832C19.0033 33.9961 20.8363 33.8192 22.6034 34.1751C24.3705 34.531 25.9921 35.4036 27.2626 36.6823C28.5332 37.961 29.3954 39.5881 29.74 41.3574C30.0846 43.1267 29.8962 44.9585 29.1984 46.6206C28.5006 48.2826 27.3251 49.7 25.8207 50.6931C24.3164 51.6862 22.5511 52.2103 20.7485 52.1988C18.3447 52.1836 16.0445 51.2179 14.3501 49.5127C12.6558 47.8075 11.7048 45.5012 11.7048 43.0973ZM13.7681 43.0973C13.7643 44.4902 14.1738 45.8528 14.9449 47.0128C15.7159 48.1728 16.8138 49.0779 18.0996 49.6135C19.3853 50.1492 20.8011 50.2914 22.1676 50.022C23.5342 49.7526 24.7901 49.0838 25.7763 48.1002C26.7626 47.1167 27.4348 45.8626 27.708 44.4968C27.9811 43.131 27.8428 41.7149 27.3107 40.4277C26.7786 39.1405 25.8765 38.0401 24.7186 37.2658C23.5608 36.4916 22.1992 36.0783 20.8064 36.0783C19.883 36.0758 18.9682 36.2555 18.1144 36.6071C17.2606 36.9587 16.4845 37.4753 15.8307 38.1273C15.1769 38.7793 14.6582 39.5539 14.3042 40.4068C13.9503 41.2596 13.7681 42.1739 13.7681 43.0973Z" fill="#02B2E9"/>
<path d="M26.9189 2.60324L25.5691 1.98617C25.4298 1.93951 25.3017 1.86442 25.193 1.76567C25.0843 1.66692 24.9972 1.54668 24.9374 1.41253C24.8776 1.27838 24.8463 1.13325 24.8455 0.986365C24.8447 0.839483 24.8744 0.694051 24.9327 0.559255C24.9913 0.426059 25.0776 0.30687 25.1858 0.209705C25.2941 0.11254 25.4219 0.0396077 25.5606 -0.00420297C25.6994 -0.0480136 25.8458 -0.0616919 25.9903 -0.0443365C26.1347 -0.0269811 26.2738 0.0210569 26.3983 0.0964839C27.9602 0.790669 29.5221 1.52341 31.0647 2.25616C31.2733 2.29762 31.4642 2.40193 31.6117 2.5551C31.7593 2.70828 31.8563 2.90292 31.8899 3.11291C31.9235 3.32291 31.892 3.53819 31.7997 3.72974C31.7073 3.9213 31.5585 4.07999 31.3732 4.18445C30.2548 5.23859 29.1364 6.27985 28.018 7.30828C27.9221 7.41864 27.8036 7.50715 27.6705 7.56779C27.5375 7.62843 27.3929 7.65977 27.2467 7.65977C27.1004 7.65977 26.9559 7.62843 26.8229 7.56779C26.6898 7.50715 26.5713 7.41864 26.4754 7.30828C26.3701 7.19979 26.2897 7.06965 26.2397 6.92695C26.1898 6.78425 26.1715 6.63242 26.1862 6.48195C26.2009 6.33148 26.2481 6.18602 26.3247 6.05566C26.4013 5.92531 26.5054 5.81315 26.6296 5.72706L27.8637 4.53153C21.513 5.51451 15.6999 8.66984 11.4154 13.4595C8.60632 16.5633 6.54792 20.271 5.39913 24.2965L5.28344 24.7207C5.25011 24.8582 5.18914 24.9874 5.10422 25.1005C5.0193 25.2137 4.91224 25.3083 4.78954 25.3787C4.66684 25.4491 4.53108 25.4937 4.39055 25.5099C4.25003 25.5261 4.10769 25.5134 3.97221 25.4728C3.83734 25.4319 3.71238 25.3636 3.60519 25.2721C3.49799 25.1807 3.41086 25.068 3.34929 24.9412C3.28772 24.8144 3.25302 24.6763 3.2474 24.5355C3.24177 24.3947 3.26534 24.2543 3.3166 24.123C3.91074 21.8115 4.80536 19.5879 5.97762 17.509C8.07286 13.6846 10.9919 10.3738 14.5236 7.81589C18.0552 5.25801 22.1113 3.51707 26.3983 2.71893L26.9189 2.60324Z" fill="#02B2E9"/>
<path d="M61.4547 26.8418C61.6668 26.3598 61.8596 25.9355 62.0717 25.5113C62.1287 25.3847 62.21 25.2705 62.3111 25.1754C62.4122 25.0802 62.5311 25.0059 62.6609 24.9566C62.7907 24.9074 62.9289 24.8842 63.0677 24.8884C63.2065 24.8925 63.3431 24.9241 63.4697 24.981C63.5964 25.038 63.7105 25.1193 63.8056 25.2204C63.9008 25.3215 63.9751 25.4404 64.0244 25.5702C64.0736 25.7 64.0968 25.8382 64.0926 25.977C64.0884 26.1158 64.057 26.2524 64 26.379C63.2865 27.9602 62.5538 29.5414 61.821 31.1033C61.7638 31.2871 61.6567 31.4513 61.5117 31.5779C61.3668 31.7044 61.1896 31.7884 60.9999 31.8203C60.8101 31.8523 60.6152 31.831 60.4368 31.7589C60.2584 31.6868 60.1034 31.5667 59.9891 31.4119C58.9093 30.2742 57.8294 29.1365 56.7882 27.9795C56.6718 27.8875 56.5778 27.7703 56.5131 27.6367C56.4485 27.5031 56.4148 27.3566 56.4148 27.2082C56.4148 27.0598 56.4485 26.9133 56.5131 26.7798C56.5778 26.6462 56.6718 26.5289 56.7882 26.4369C56.8926 26.344 57.0149 26.2736 57.1477 26.2299C57.2804 26.1862 57.4207 26.1702 57.5598 26.1828C57.699 26.1955 57.834 26.2365 57.9567 26.3034C58.0793 26.3704 58.187 26.4617 58.273 26.5718C58.6586 26.9382 59.0057 27.3432 59.4878 27.8445C59.1109 25.1665 58.3171 22.5639 57.1353 20.1314C55.4686 16.5725 53.0563 13.4136 50.0621 10.8685C47.0678 8.32335 43.5615 6.45156 39.7807 5.37994L39.3371 5.24495C39.2042 5.20323 39.0807 5.13574 38.9738 5.04628C38.8669 4.95682 38.7787 4.84713 38.7142 4.72356C38.6498 4.59999 38.6103 4.46495 38.5981 4.32611C38.5859 4.18727 38.6011 4.04736 38.643 3.91442C38.6815 3.78264 38.7471 3.66043 38.8358 3.55557C38.9244 3.45072 39.034 3.36553 39.1575 3.30559C39.2811 3.24565 39.4157 3.21223 39.5529 3.20749C39.6901 3.20276 39.8269 3.22683 39.9542 3.27811C41.7979 3.84487 43.6016 4.53418 45.3534 5.3414C49.4755 7.33635 53.0723 10.27 55.8552 13.9068C58.6381 17.5437 60.5295 21.7824 61.3775 26.2826C61.3775 26.3983 61.3775 26.4948 61.3775 26.6105L61.4547 26.8418Z" fill="#02B2E9"/>
<path d="M2.62258 37.1775C2.41047 37.6403 2.21762 38.0645 2.00551 38.4887C1.95533 38.6247 1.87733 38.7487 1.77648 38.8528C1.67563 38.9569 1.55415 39.0388 1.41984 39.0932C1.28552 39.1477 1.14133 39.1735 0.996465 39.169C0.851602 39.1646 0.70926 39.1299 0.578564 39.0672C0.452349 39.0063 0.340036 38.9201 0.248551 38.814C0.157067 38.7078 0.0883899 38.5839 0.0467952 38.4501C0.00520065 38.3163 -0.00843788 38.1753 0.00675001 38.036C0.0219379 37.8967 0.0656118 37.762 0.135065 37.6403C0.848533 36.0591 1.58129 34.4779 2.31404 32.8967C2.37131 32.713 2.47836 32.5488 2.62331 32.4222C2.76827 32.2956 2.94546 32.2117 3.13522 32.1797C3.32498 32.1478 3.51986 32.169 3.69827 32.2411C3.87668 32.3132 4.03164 32.4333 4.14592 32.5881C5.22576 33.7258 6.28633 34.8635 7.34689 36.0398C7.46016 36.1339 7.55131 36.2518 7.61388 36.3851C7.67644 36.5184 7.70888 36.6638 7.70888 36.8111C7.70888 36.9584 7.67644 37.1038 7.61388 37.2372C7.55131 37.3705 7.46016 37.4884 7.34689 37.5825C7.23968 37.6733 7.11548 37.7418 6.98154 37.7843C6.84759 37.8267 6.70654 37.8421 6.56661 37.8295C6.42667 37.817 6.29065 37.7767 6.16639 37.7111C6.04214 37.6455 5.93215 37.5559 5.84282 37.4475L4.62799 36.1748C4.9437 38.555 5.59283 40.8788 6.55628 43.0781C8.17745 46.8366 10.619 50.1848 13.7019 52.8774C16.7849 55.57 20.4312 57.5387 24.3737 58.6394C24.4984 58.6691 24.6209 58.7078 24.7401 58.7551C24.8756 58.7902 25.0024 58.8528 25.1127 58.9389C25.223 59.0251 25.3144 59.133 25.3813 59.2559C25.4482 59.3789 25.4891 59.5142 25.5015 59.6536C25.514 59.793 25.4976 59.9335 25.4535 60.0663C25.4147 60.1957 25.3496 60.3158 25.2623 60.419C25.175 60.5221 25.0674 60.6061 24.9461 60.6658C24.8249 60.7255 24.6927 60.7597 24.5577 60.766C24.4227 60.7723 24.2879 60.7508 24.1616 60.7027C22.4512 60.167 20.7766 59.5229 19.148 58.7744C14.9243 56.7942 11.2319 53.8381 8.37538 50.1501C5.51886 46.4621 3.58007 42.1479 2.71897 37.5632C2.72774 37.4605 2.72774 37.3573 2.71897 37.2546C2.71897 37.2546 2.68043 37.3125 2.62258 37.1775Z" fill="#02B2E9"/>
<path d="M21.8669 24.6436H24.8171C25.5885 24.6436 26.0127 25.0292 26.0127 25.6848C26.0127 26.3405 25.5692 26.6876 24.7979 26.7068H18.9166C18.1645 26.7068 17.7018 26.2826 17.721 25.6463C17.7403 25.01 18.1645 24.6436 18.9551 24.6436H21.8669Z" fill="#082832"/>
<path d="M21.8283 20.4206H18.8587C18.126 20.4206 17.7018 20.035 17.6825 19.418C17.6632 18.8009 18.1067 18.3767 18.878 18.3574H24.8172C25.5885 18.3574 26.0127 18.7816 25.9934 19.4373C25.9741 20.0929 25.5499 20.4206 24.8172 20.4206H21.8283Z" fill="#082832"/>
<path d="M21.8861 21.5005H24.8171C25.5884 21.5005 26.0319 21.9054 26.0127 22.5418C25.9934 23.1781 25.5692 23.5638 24.7979 23.5638H19.013C18.2031 23.5638 17.721 23.1588 17.7403 22.5225C17.7596 21.8861 18.2031 21.5198 19.0323 21.5005H21.8861Z" fill="#082832"/>
<path d="M43.1745 15.8312C43.8438 15.7712 44.5182 15.8514 45.1549 16.0664C45.7915 16.2815 46.3764 16.6267 46.8723 17.0802C47.3682 17.5337 47.7643 18.0854 48.0352 18.7004C48.3062 19.3153 48.4461 19.9799 48.4461 20.6519C48.4461 21.3239 48.3062 21.9886 48.0352 22.6035C47.7643 23.2184 47.3682 23.7702 46.8723 24.2237C46.3764 24.6771 45.7915 25.0224 45.1549 25.2374C44.5182 25.4524 43.8438 25.5325 43.1745 25.4726C41.8954 25.4627 40.671 24.9528 39.7629 24.052C38.8549 23.1512 38.3353 21.9308 38.3152 20.6519C38.3177 20.0163 38.4454 19.3874 38.691 18.8012C38.9366 18.2149 39.2952 17.6828 39.7464 17.2351C40.1976 16.7875 40.7326 16.4331 41.3208 16.1923C41.909 15.9514 42.5389 15.8286 43.1745 15.8312ZM45.9705 20.6712C45.9705 20.3066 45.8987 19.9455 45.7591 19.6086C45.6196 19.2717 45.4151 18.9656 45.1572 18.7078C44.8994 18.4499 44.5932 18.2454 44.2564 18.1058C43.9195 17.9663 43.5584 17.8945 43.1938 17.8945C42.8291 17.8945 42.4681 17.9663 42.1312 18.1058C41.7943 18.2454 41.4882 18.4499 41.2303 18.7078C40.9725 18.9656 40.7679 19.2717 40.6284 19.6086C40.4888 19.9455 40.417 20.3066 40.417 20.6712C40.417 21.4076 40.7096 22.1139 41.2303 22.6347C41.7511 23.1554 42.4573 23.4479 43.1938 23.4479C43.9302 23.4479 44.6365 23.1554 45.1572 22.6347C45.678 22.1139 45.9705 21.4076 45.9705 20.6712Z" fill="#02B2E9"/>
<path d="M19.3215 43.9265L22.5804 40.9762L23.3902 40.2434C24.0073 39.6842 24.5858 39.6457 25.0293 40.1277C25.4728 40.6098 25.3764 41.2076 24.7979 41.7475L23.2167 43.1745L20.2086 45.9126C20.1091 46.0558 19.9765 46.1728 19.8221 46.2536C19.6676 46.3344 19.4959 46.3766 19.3215 46.3766C19.1472 46.3766 18.9755 46.3344 18.821 46.2536C18.6666 46.1728 18.534 46.0558 18.4345 45.9126L16.6991 44.1772C16.582 44.0813 16.4878 43.9607 16.423 43.824C16.3583 43.6873 16.3247 43.5378 16.3247 43.3866C16.3247 43.2353 16.3583 43.0859 16.423 42.9492C16.4878 42.8125 16.582 42.6918 16.6991 42.596C16.8013 42.4927 16.9248 42.4129 17.0609 42.3621C17.197 42.3113 17.3426 42.2907 17.4875 42.3017C17.6324 42.3127 17.7732 42.355 17.9001 42.4258C18.027 42.4966 18.1369 42.5941 18.2224 42.7116C18.531 43.0973 18.8973 43.4637 19.3215 43.9265Z" fill="#02B2E9"/>
</g>
<defs>
<clipPath id="clip0_327_162">
<rect width="64" height="64" fill="white"/>
</clipPath>
</defs>
</svg>
