<svg width="103" height="98" viewBox="0 0 103 98" fill="none" xmlns="http://www.w3.org/2000/svg">
<rect x="0.414612" width="102.476" height="98" rx="3" fill="#082832"/>
<path d="M67.2889 82.2515C63.6883 82.2178 60.2761 81.4818 57.2033 79.5044C54.9935 78.0833 53.2891 76.1941 52.0287 73.8893C51.8681 73.5947 51.9424 73.4902 52.2015 73.3399C54.2846 72.1512 56.3602 70.9521 58.4283 69.7427C58.7263 69.57 58.8516 69.6131 59.0235 69.8913C59.5893 70.8131 60.2432 71.6735 61.0535 72.3965C63.7523 74.7989 66.8501 75.2792 70.2105 74.1579C71.5383 73.7156 72.5257 72.8008 72.8444 71.3677C73.1477 70.0088 72.8626 68.7709 71.8743 67.7394C71.2074 67.0483 70.3859 66.5715 69.5376 66.1421C67.8332 65.2783 66.0579 64.5742 64.3095 63.8097C62.7286 63.1186 61.1995 62.3411 59.7638 61.3684C56.1045 58.8848 54.3551 55.4242 54.4225 51.015C54.502 45.7808 57.7208 41.6619 62.8884 40.3756C66.4821 39.4815 70.0481 39.6241 73.4586 41.2075C75.8524 42.3193 77.5188 44.2112 78.8448 46.4451C78.9442 46.6179 78.9407 46.7043 78.7585 46.8209C76.7002 48.1346 74.6459 49.4546 72.5956 50.7809C72.3676 50.9286 72.2881 50.8431 72.1767 50.6504C71.781 49.9594 71.3318 49.3115 70.7496 48.7672C69.135 47.2589 67.2267 46.9056 65.1906 47.5889C62.2198 48.5858 62.3226 52.138 63.7695 53.6118C64.3932 54.2467 65.1319 54.7089 65.9136 55.1123C67.6111 55.9883 69.4019 56.6586 71.14 57.4447C73.2885 58.4192 75.3816 59.4895 77.2286 60.9866C79.929 63.173 81.2758 66.0247 81.4416 69.4697C81.5548 71.8246 81.2213 74.0888 80.037 76.1656C78.5434 78.7831 76.236 80.3743 73.4353 81.3246C71.4458 82.0001 69.3838 82.2411 67.2889 82.2515Z" fill="white"/>
<path d="M47.2022 55.741C47.2022 60.7013 47.2584 65.6616 47.1798 70.6202C47.1374 73.2481 46.4187 75.7309 44.7972 77.8715C43.1282 80.0752 40.8494 81.2993 38.1843 81.8263C34.7833 82.4984 31.4332 82.3558 28.2196 80.9322C25.3404 79.6563 23.3103 77.4949 21.9074 74.7054C21.7882 74.4679 21.8348 74.3599 22.0499 74.2355C24.1808 72.9564 26.3059 71.6698 28.4252 70.3758C28.6723 70.2237 28.7501 70.2945 28.8701 70.5088C29.3401 71.3493 29.8342 72.1743 30.4717 72.9043C31.9645 74.6156 34.6183 75.1408 36.6613 74.1137C37.8707 73.509 38.345 72.4067 38.5748 71.1601C38.6971 70.4226 38.7515 69.6754 38.7372 68.9279C38.7372 59.5544 38.7337 50.1806 38.7268 40.8065C38.7268 40.4005 38.8132 40.2804 39.2374 40.2882C41.7089 40.3107 44.1813 40.2968 46.6528 40.3011C47.3007 40.3011 47.2325 40.1992 47.2333 40.8618C47.2333 45.8221 47.2333 50.7821 47.2333 55.7419L47.2022 55.741Z" fill="white"/>
</svg>
