<svg width="208" height="71" viewBox="0 0 208 71" fill="none" xmlns="http://www.w3.org/2000/svg">
<path d="M30.4931 21.2513C19.4502 44.6025 23.0421 61.6975 27.4635 65.2353C24.8071 62.7038 24.3158 35.3969 40.2351 19.6298C53.7764 6.21796 58.8228 25.4358 55.9781 34.821C70.8038 0.952633 48.214 -16.2212 30.4931 21.2513Z" fill="#ABD56C"/>
<path d="M34.797 51.1716C59.8065 46.1932 71.1283 33.0375 71.2704 27.3189C70.865 30.9976 49.6407 47.7386 27.6894 44.2063C9.01732 41.2017 21.1416 25.5909 30.2396 22.2919C-5.32128 30.4825 -5.33659 59.1606 34.797 51.1716Z" fill="#FDA531"/>
<path d="M54.0251 32.6044C36.7449 13.5606 19.7908 10.6544 14.9264 13.5291C18.2201 11.9517 43.3683 21.5522 51.9169 42.4096C59.1884 60.1512 39.7572 57.8373 32.2247 51.6894C57.7265 78.1849 81.7551 63.1648 54.0251 32.6044Z" fill="#00C3FF"/>
<path d="M73.6448 27V6.20641H77.5056L88.024 23.7472H88.1152V6.20641H90.8512V27H86.96L76.472 9.27681H76.3808V27H73.6448ZM103.17 27.3344C100.698 27.3344 98.7522 26.6048 97.3335 25.1456C95.9351 23.6864 95.2359 21.7611 95.2359 19.3696C95.2359 17.1403 95.9047 15.296 97.2423 13.8368C98.6002 12.3776 100.303 11.648 102.35 11.648C104.579 11.648 106.251 12.3877 107.366 13.8672C108.48 15.3467 109.038 17.3328 109.038 19.8256V20.1296H97.9415C98.0023 21.5685 98.509 22.7643 99.4615 23.7168C100.434 24.6491 101.711 25.1152 103.292 25.1152C105.116 25.1152 106.646 24.6997 107.882 23.8688V26.3616C106.585 27.0101 105.015 27.3344 103.17 27.3344ZM97.9719 18.0624H106.362C106.322 16.9477 105.947 15.9648 105.238 15.1136C104.548 14.2421 103.566 13.8064 102.289 13.8064C101.113 13.8064 100.12 14.232 99.3095 15.0832C98.5191 15.9141 98.0733 16.9072 97.9719 18.0624ZM115.781 27L111.373 11.9824H114.17L117.483 24.3856H117.544L121.071 11.9824H123.867L127.546 24.3856H127.607L130.89 11.9824H133.595L129.157 27H126.056L122.469 14.6576H122.439L118.851 27H115.781ZM148.705 27V8.69921H142.139V6.20641H158.068V8.69921H151.532V27H148.705ZM165.81 27.3344C163.337 27.3344 161.392 26.6048 159.973 25.1456C158.575 23.6864 157.875 21.7611 157.875 19.3696C157.875 17.1403 158.544 15.296 159.882 13.8368C161.24 12.3776 162.942 11.648 164.989 11.648C167.218 11.648 168.89 12.3877 170.005 13.8672C171.12 15.3467 171.677 17.3328 171.677 19.8256V20.1296H160.581C160.642 21.5685 161.148 22.7643 162.101 23.7168C163.074 24.6491 164.351 25.1152 165.931 25.1152C167.755 25.1152 169.285 24.6997 170.522 23.8688V26.3616C169.225 27.0101 167.654 27.3344 165.81 27.3344ZM160.611 18.0624H169.002C168.961 16.9477 168.586 15.9648 167.877 15.1136C167.188 14.2421 166.205 13.8064 164.928 13.8064C163.753 13.8064 162.76 14.232 161.949 15.0832C161.159 15.9141 160.713 16.9072 160.611 18.0624ZM182.433 27.3344C180.082 27.3344 178.228 26.6048 176.87 25.1456C175.533 23.6864 174.864 21.7915 174.864 19.4608C174.864 17.1707 175.583 15.296 177.022 13.8368C178.481 12.3776 180.275 11.648 182.403 11.648C184.267 11.648 185.706 11.9925 186.72 12.6816V15.3568C185.362 14.4245 183.913 13.9584 182.373 13.9584C180.954 13.9584 179.809 14.4549 178.937 15.448C178.066 16.4208 177.63 17.7584 177.63 19.4608C177.63 21.1024 178.066 22.44 178.937 23.4736C179.829 24.5072 181.086 25.024 182.707 25.024C184.389 25.024 185.767 24.6187 186.841 23.808V26.3616C185.585 27.0101 184.115 27.3344 182.433 27.3344ZM190.897 27V4.59521H193.602V14.0192H193.724C194.839 12.4384 196.389 11.648 198.375 11.648C200.077 11.648 201.375 12.1851 202.266 13.2592C203.178 14.3131 203.634 15.7621 203.634 17.6064V27H200.929V17.9408C200.929 16.664 200.675 15.6811 200.169 14.992C199.662 14.2827 198.77 13.928 197.493 13.928C196.379 13.928 195.447 14.2624 194.697 14.9312C193.967 15.5797 193.602 16.5728 193.602 17.9104V27H190.897Z" fill="#1B2022"/>
<path d="M73.62 68V67.0328H74.9468V60.2872H73.62V59.32H77.3524V60.2872H76.0132V67.0328H77.3524V68H73.62ZM78.721 68V62.048H79.6138V62.9904H79.6386C79.8039 62.668 80.0602 62.4117 80.4074 62.2216C80.7546 62.0232 81.1348 61.924 81.5482 61.924C82.2095 61.924 82.722 62.1431 83.0858 62.5812C83.4578 63.0193 83.6438 63.6269 83.6438 64.404V68H82.6518V64.5156C82.6518 63.9204 82.5484 63.4988 82.3418 63.2508C82.1434 63.0028 81.8251 62.8788 81.387 62.8788C80.9158 62.8788 80.519 63.0648 80.1966 63.4368C79.8742 63.8005 79.713 64.2759 79.713 64.8628V68H78.721ZM85.2571 68V62.048H86.1499V62.9904H86.1747C86.34 62.668 86.5963 62.4117 86.9435 62.2216C87.2907 62.0232 87.671 61.924 88.0843 61.924C88.7456 61.924 89.2582 62.1431 89.6219 62.5812C89.9939 63.0193 90.1799 63.6269 90.1799 64.404V68H89.1879V64.5156C89.1879 63.9204 89.0846 63.4988 88.8779 63.2508C88.6795 63.0028 88.3612 62.8788 87.9231 62.8788C87.4519 62.8788 87.0551 63.0648 86.7327 63.4368C86.4103 63.8005 86.2491 64.2759 86.2491 64.8628V68H85.2571ZM96.3441 67.256C95.8315 67.8347 95.1619 68.124 94.3353 68.124C93.5086 68.124 92.8349 67.8347 92.3141 67.256C91.8015 66.6773 91.5453 65.9333 91.5453 65.024C91.5453 64.1147 91.8015 63.3707 92.3141 62.792C92.8349 62.2133 93.5086 61.924 94.3353 61.924C95.1619 61.924 95.8315 62.2133 96.3441 62.792C96.8649 63.3707 97.1253 64.1147 97.1253 65.024C97.1253 65.9333 96.8649 66.6773 96.3441 67.256ZM93.0333 66.6236C93.3639 67.0287 93.7979 67.2312 94.3353 67.2312C94.8726 67.2312 95.3025 67.0287 95.6249 66.6236C95.9555 66.2185 96.1209 65.6853 96.1209 65.024C96.1209 64.3627 95.9555 63.8295 95.6249 63.4244C95.3025 63.0193 94.8726 62.8168 94.3353 62.8168C93.7979 62.8168 93.3639 63.0193 93.0333 63.4244C92.7109 63.8295 92.5497 64.3627 92.5497 65.024C92.5497 65.6853 92.7109 66.2185 93.0333 66.6236ZM102.356 62.048H103.447L101.24 68H99.9624L97.7428 62.048H98.834L100.582 67.008H100.607L102.356 62.048ZM105.672 68.124C105.16 68.124 104.742 67.9711 104.42 67.6652C104.106 67.3511 103.949 66.9419 103.949 66.4376C103.949 65.8424 104.155 65.3795 104.569 65.0488C104.99 64.7181 105.569 64.5528 106.305 64.5528C106.701 64.5528 107.094 64.5941 107.483 64.6768V64.032C107.483 63.2219 107.02 62.8168 106.094 62.8168C105.499 62.8168 104.879 62.9491 104.234 63.2136V62.3456C104.804 62.0645 105.453 61.924 106.181 61.924C106.9 61.924 107.462 62.11 107.867 62.482C108.272 62.8457 108.475 63.3541 108.475 64.0072V68H107.619V67.194H107.594C107.412 67.4751 107.144 67.7024 106.788 67.876C106.433 68.0413 106.061 68.124 105.672 68.124ZM105.809 67.3056C106.346 67.3056 106.772 67.1403 107.086 66.8096C107.4 66.4707 107.532 66.0119 107.483 65.4332C107.061 65.3423 106.673 65.2968 106.317 65.2968C105.895 65.2968 105.557 65.396 105.3 65.5944C105.044 65.7928 104.916 66.0573 104.916 66.388C104.916 66.6608 104.994 66.884 105.151 67.0576C105.317 67.2229 105.536 67.3056 105.809 67.3056ZM112.264 68.124C111.057 68.124 110.454 67.4048 110.454 65.9664V62.9036H109.462V62.048H110.454V60.1384H111.446V62.048H113.269V62.9036H111.446V65.892C111.446 66.7848 111.776 67.2312 112.438 67.2312C112.793 67.2312 113.14 67.1857 113.479 67.0948V67.9256C113.058 68.0579 112.653 68.124 112.264 68.124ZM115.092 60.8576C114.91 60.8576 114.757 60.7956 114.633 60.6716C114.509 60.5476 114.447 60.3947 114.447 60.2128C114.447 60.0392 114.509 59.8904 114.633 59.7664C114.757 59.6424 114.91 59.5804 115.092 59.5804C115.265 59.5804 115.414 59.6424 115.538 59.7664C115.662 59.8904 115.724 60.0392 115.724 60.2128C115.724 60.3947 115.662 60.5476 115.538 60.6716C115.414 60.7956 115.265 60.8576 115.092 60.8576ZM114.583 62.048H115.575V68H114.583V62.048ZM121.735 67.256C121.222 67.8347 120.553 68.124 119.726 68.124C118.9 68.124 118.226 67.8347 117.705 67.256C117.192 66.6773 116.936 65.9333 116.936 65.024C116.936 64.1147 117.192 63.3707 117.705 62.792C118.226 62.2133 118.9 61.924 119.726 61.924C120.553 61.924 121.222 62.2133 121.735 62.792C122.256 63.3707 122.516 64.1147 122.516 65.024C122.516 65.9333 122.256 66.6773 121.735 67.256ZM118.424 66.6236C118.755 67.0287 119.189 67.2312 119.726 67.2312C120.264 67.2312 120.693 67.0287 121.016 66.6236C121.346 66.2185 121.512 65.6853 121.512 65.024C121.512 64.3627 121.346 63.8295 121.016 63.4244C120.693 63.0193 120.264 62.8168 119.726 62.8168C119.189 62.8168 118.755 63.0193 118.424 63.4244C118.102 63.8295 117.941 64.3627 117.941 65.024C117.941 65.6853 118.102 66.2185 118.424 66.6236ZM123.878 68V62.048H124.771V62.9904H124.795C124.961 62.668 125.217 62.4117 125.564 62.2216C125.911 62.0232 126.292 61.924 126.705 61.924C127.366 61.924 127.879 62.1431 128.243 62.5812C128.615 63.0193 128.801 63.6269 128.801 64.404V68H127.809V64.5156C127.809 63.9204 127.705 63.4988 127.499 63.2508C127.3 63.0028 126.982 62.8788 126.544 62.8788C126.073 62.8788 125.676 63.0648 125.353 63.4368C125.031 63.8005 124.87 64.2759 124.87 64.8628V68H123.878ZM140.788 62.0356L141.842 62.048L139.97 68H138.78L137.354 63.288H137.329L135.903 68H134.7L132.828 62.048L133.894 62.0356L135.332 67.0452H135.357L136.758 62.0356H137.924L139.325 67.0452H139.35L140.788 62.0356ZM143.207 60.8576C143.025 60.8576 142.872 60.7956 142.748 60.6716C142.624 60.5476 142.562 60.3947 142.562 60.2128C142.562 60.0392 142.624 59.8904 142.748 59.7664C142.872 59.6424 143.025 59.5804 143.207 59.5804C143.381 59.5804 143.53 59.6424 143.654 59.7664C143.778 59.8904 143.84 60.0392 143.84 60.2128C143.84 60.3947 143.778 60.5476 143.654 60.6716C143.53 60.7956 143.381 60.8576 143.207 60.8576ZM142.699 62.048H143.691V68H142.699V62.048ZM147.482 68.124C146.275 68.124 145.672 67.4048 145.672 65.9664V62.9036H144.68V62.048H145.672V60.1384H146.664V62.048H148.487V62.9036H146.664V65.892C146.664 66.7848 146.994 67.2312 147.656 67.2312C148.011 67.2312 148.358 67.1857 148.697 67.0948V67.9256C148.276 68.0579 147.871 68.124 147.482 68.124ZM149.814 68V58.142H150.793V62.9904H150.818C150.983 62.6763 151.227 62.42 151.55 62.2216C151.88 62.0232 152.219 61.924 152.566 61.924C153.253 61.924 153.786 62.1431 154.166 62.5812C154.546 63.0193 154.736 63.6269 154.736 64.404V68H153.744V64.5156C153.744 63.4244 153.31 62.8788 152.442 62.8788C151.963 62.8788 151.57 63.0772 151.264 63.474C150.959 63.8708 150.806 64.3875 150.806 65.024V68H149.814ZM162.124 68.124C161.281 68.124 160.59 67.8347 160.053 67.256C159.524 66.6773 159.259 65.9333 159.259 65.024C159.259 64.1147 159.524 63.3707 160.053 62.792C160.59 62.2133 161.281 61.924 162.124 61.924C162.653 61.924 163.17 62.0439 163.674 62.2836V63.1764C163.153 62.9367 162.674 62.8168 162.235 62.8168C161.649 62.8168 161.173 63.0193 160.809 63.4244C160.446 63.8295 160.264 64.3627 160.264 65.024C160.264 65.6853 160.446 66.2185 160.809 66.6236C161.173 67.0287 161.649 67.2312 162.235 67.2312C162.674 67.2312 163.153 67.1113 163.674 66.8716V67.7644C163.17 68.0041 162.653 68.124 162.124 68.124ZM164.917 68V62.048H165.81V62.9904H165.835C166 62.668 166.252 62.4117 166.591 62.2216C166.939 62.0232 167.311 61.924 167.707 61.924C167.964 61.924 168.224 61.9736 168.489 62.0728V63.0648C168.199 62.9656 167.902 62.916 167.596 62.916C167.092 62.916 166.682 63.1144 166.368 63.5112C166.062 63.8997 165.909 64.4123 165.909 65.0488V68H164.917ZM172 68.124C171.148 68.124 170.454 67.8347 169.917 67.256C169.379 66.6773 169.111 65.9333 169.111 65.024C169.111 64.0981 169.346 63.35 169.817 62.7796C170.297 62.2092 170.925 61.924 171.702 61.924C172.57 61.924 173.215 62.2381 173.637 62.8664C174.058 63.4947 174.149 64.3131 173.909 65.3216H170.127C170.177 65.9333 170.371 66.4087 170.71 66.7476C171.057 67.0865 171.516 67.256 172.087 67.256C172.599 67.256 173.157 67.1237 173.761 66.8592V67.7272C173.207 67.9917 172.62 68.124 172 68.124ZM170.14 64.5404H173.079C173.112 63.9865 173 63.5525 172.744 63.2384C172.496 62.9243 172.14 62.7672 171.677 62.7672C171.248 62.7672 170.9 62.9243 170.636 63.2384C170.371 63.5443 170.206 63.9783 170.14 64.5404ZM176.774 68.124C176.262 68.124 175.844 67.9711 175.522 67.6652C175.208 67.3511 175.051 66.9419 175.051 66.4376C175.051 65.8424 175.257 65.3795 175.671 65.0488C176.092 64.7181 176.671 64.5528 177.407 64.5528C177.803 64.5528 178.196 64.5941 178.585 64.6768V64.032C178.585 63.2219 178.122 62.8168 177.196 62.8168C176.601 62.8168 175.981 62.9491 175.336 63.2136V62.3456C175.906 62.0645 176.555 61.924 177.283 61.924C178.002 61.924 178.564 62.11 178.969 62.482C179.374 62.8457 179.577 63.3541 179.577 64.0072V68H178.721V67.194H178.696C178.514 67.4751 178.246 67.7024 177.89 67.876C177.535 68.0413 177.163 68.124 176.774 68.124ZM176.911 67.3056C177.448 67.3056 177.874 67.1403 178.188 66.8096C178.502 66.4707 178.634 66.0119 178.585 65.4332C178.163 65.3423 177.774 65.2968 177.419 65.2968C176.997 65.2968 176.658 65.396 176.402 65.5944C176.146 65.7928 176.018 66.0573 176.018 66.388C176.018 66.6608 176.096 66.884 176.253 67.0576C176.419 67.2229 176.638 67.3056 176.911 67.3056ZM183.366 68.124C182.159 68.124 181.556 67.4048 181.556 65.9664V62.9036H180.564V62.048H181.556V60.1384H182.548V62.048H184.371V62.9036H182.548V65.892C182.548 66.7848 182.878 67.2312 183.54 67.2312C183.895 67.2312 184.242 67.1857 184.581 67.0948V67.9256C184.16 68.0579 183.755 68.124 183.366 68.124ZM186.194 60.8576C186.012 60.8576 185.859 60.7956 185.735 60.6716C185.611 60.5476 185.549 60.3947 185.549 60.2128C185.549 60.0392 185.611 59.8904 185.735 59.7664C185.859 59.6424 186.012 59.5804 186.194 59.5804C186.367 59.5804 186.516 59.6424 186.64 59.7664C186.764 59.8904 186.826 60.0392 186.826 60.2128C186.826 60.3947 186.764 60.5476 186.64 60.6716C186.516 60.7956 186.367 60.8576 186.194 60.8576ZM185.685 62.048H186.677V68H185.685V62.048ZM192.155 62.048H193.246L191.039 68H189.762L187.542 62.048H188.633L190.382 67.008H190.406L192.155 62.048ZM194.616 60.8576C194.434 60.8576 194.281 60.7956 194.157 60.6716C194.033 60.5476 193.971 60.3947 193.971 60.2128C193.971 60.0392 194.033 59.8904 194.157 59.7664C194.281 59.6424 194.434 59.5804 194.616 59.5804C194.789 59.5804 194.938 59.6424 195.062 59.7664C195.186 59.8904 195.248 60.0392 195.248 60.2128C195.248 60.3947 195.186 60.5476 195.062 60.6716C194.938 60.7956 194.789 60.8576 194.616 60.8576ZM194.107 62.048H195.099V68H194.107V62.048ZM198.891 68.124C197.684 68.124 197.08 67.4048 197.08 65.9664V62.9036H196.088V62.048H197.08V60.1384H198.072V62.048H199.895V62.9036H198.072V65.892C198.072 66.7848 198.403 67.2312 199.064 67.2312C199.42 67.2312 199.767 67.1857 200.106 67.0948V67.9256C199.684 68.0579 199.279 68.124 198.891 68.124ZM202.028 70.542L202.971 68H202.71L200.478 62.048H201.594L203.33 66.9832H203.355L205.103 62.048H206.207L203.045 70.542H202.028Z" fill="#1B2022"/>
<path d="M88.784 30.7C88.784 30.772 88.784 30.844 88.784 30.916L88.5321 33.076C88.4601 33.724 88.0641 33.832 87.3081 33.832H78.2721V40.348H86.5881C87.2721 40.348 87.4881 40.636 87.4881 41.14V43.192C87.4881 43.804 87.2361 44.056 86.6241 44.056H78.2721V54.1C78.2721 54.748 78.0201 55 77.4081 55H74.6001C73.8801 55 73.6281 54.82 73.6281 54.028V30.988C73.6281 30.412 73.8801 30.088 74.4561 30.088H88.0281C88.5681 30.088 88.784 30.268 88.784 30.7ZM114.748 43.948C114.748 51.364 111.256 55.432 104.236 55.432C96.6403 55.432 93.8683 51.256 93.8683 43.876V30.952C93.8683 30.34 94.2283 30.088 94.8043 30.088H97.6483C98.2603 30.088 98.5123 30.34 98.5123 30.952V43.48C98.5123 48.772 99.8803 51.508 104.416 51.508C108.772 51.508 110.14 48.628 110.14 43.48V30.952C110.14 30.34 110.464 30.088 111.04 30.088H113.884C114.496 30.088 114.748 30.34 114.748 30.952V43.948ZM136.446 47.728C136.446 52.732 132.378 55.432 127.698 55.432C125.538 55.432 122.982 55.036 120.822 54.28C120.354 54.1 120.21 53.884 120.21 53.596C120.21 53.452 120.21 53.308 120.282 53.128L121.038 50.788C121.146 50.428 121.326 50.212 121.686 50.212C121.83 50.212 122.01 50.248 122.226 50.32C123.918 50.932 125.79 51.4 127.59 51.4C129.534 51.4 131.73 50.464 131.73 48.196C131.73 46.54 130.506 45.64 129.102 44.956L124.422 42.616C121.866 41.356 120.174 39.232 120.174 36.424C120.174 32.032 124.494 29.62 128.49 29.62C130.866 29.62 132.846 29.98 134.934 30.88C135.402 31.096 135.654 31.312 135.654 31.6C135.654 31.744 135.618 31.888 135.546 32.068L134.682 34.264C134.538 34.66 134.322 34.804 134.07 34.804C133.89 34.804 133.71 34.732 133.494 34.66C132.018 34.048 130.182 33.544 128.742 33.544C127.05 33.544 125.106 34.264 125.106 36.28C125.106 37.756 126.474 38.62 127.662 39.196L131.658 41.14C134.502 42.508 136.446 44.416 136.446 47.728ZM151.388 32.356C151.388 32.932 151.136 33.112 150.632 33.112H148.58V51.976H150.524C151.028 51.976 151.28 52.3 151.28 52.732V54.28C151.28 54.712 151.1 55 150.632 55H142.064C141.596 55 141.344 54.712 141.344 54.316V52.696C141.344 52.192 141.56 51.976 142.064 51.976H143.972V33.112H141.884C141.38 33.112 141.164 32.86 141.164 32.392V30.808C141.164 30.412 141.38 30.088 141.812 30.088H150.632C151.136 30.088 151.388 30.412 151.388 30.772V32.356ZM178.292 42.4C178.292 50.536 173.648 55.432 167.204 55.432C160.328 55.432 156.368 50.428 156.368 42.616C156.368 34.876 160.688 29.62 167.456 29.62C174.584 29.62 178.292 35.02 178.292 42.4ZM173.324 42.508C173.324 36.46 171.2 33.544 167.348 33.544C163.748 33.544 161.336 36.892 161.336 42.508C161.336 48.484 163.532 51.508 167.348 51.508C170.912 51.508 173.324 48.376 173.324 42.508ZM204.547 54.028C204.547 54.82 204.223 55 203.683 55H201.271C200.731 55 200.263 54.748 199.903 54.244L188.167 38.188H188.095V54.064C188.095 54.748 187.771 55 187.159 55H184.567C183.883 55 183.595 54.82 183.595 54.1V31.06C183.595 30.304 183.919 30.088 184.567 30.088H186.907C187.483 30.088 187.771 30.268 188.131 30.772L199.975 47.044H200.047V31.024C200.047 30.34 200.371 30.088 200.983 30.088H203.683C204.439 30.088 204.547 30.484 204.547 31.06V54.028Z" fill="#919191"/>
</svg>
