<svg width="20" height="18" viewBox="0 0 20 18" fill="none" xmlns="http://www.w3.org/2000/svg">
<path d="M4.46997 2.001C4.46971 2.53143 4.25874 3.04004 3.88348 3.41492C3.50822 3.78981 2.9994 4.00027 2.46897 4C1.93854 3.99974 1.42994 3.78877 1.05505 3.41351C0.680165 3.03825 0.469706 2.52943 0.469971 1.999C0.470236 1.46857 0.681204 0.959965 1.05646 0.585079C1.43172 0.210194 1.94054 -0.000264966 2.47097 2.50361e-07C3.0014 0.000265467 3.51001 0.211233 3.88489 0.586494C4.25978 0.961754 4.47024 1.47057 4.46997 2.001ZM4.52997 5.481H0.529971V18.001H4.52997V5.481ZM10.85 5.481H6.86997V18.001H10.81V11.431C10.81 7.771 15.58 7.431 15.58 11.431V18.001H19.53V10.071C19.53 3.901 12.47 4.131 10.81 7.161L10.85 5.481Z" fill="#1B2022"/>
</svg>
