<svg width="51" height="52" viewBox="0 0 51 52" fill="none" xmlns="http://www.w3.org/2000/svg">
<rect y="0.278809" width="50.0917" height="51.442" rx="3.85321" fill="#082832"/>
<path fill-rule="evenodd" clip-rule="evenodd" d="M25.0459 38.8753L26.0589 37.7338C27.2085 36.4173 28.2424 35.1682 29.1624 33.9802L29.9218 32.9783C33.0927 28.7061 34.6789 25.3152 34.6789 22.8091C34.6789 17.4595 30.3665 13.123 25.0459 13.123C19.7252 13.123 15.4128 17.4595 15.4128 22.8091C15.4128 25.3152 16.9991 28.7061 20.17 32.9783L20.9294 33.9802C22.2418 35.6617 23.6148 37.2935 25.0459 38.8753Z" stroke="white" stroke-width="1.66972" stroke-linecap="round" stroke-linejoin="round"/>
<path d="M25.0459 26.7702C27.2626 26.7702 29.0596 24.9732 29.0596 22.7564C29.0596 20.5397 27.2626 18.7427 25.0459 18.7427C22.8291 18.7427 21.0321 20.5397 21.0321 22.7564C21.0321 24.9732 22.8291 26.7702 25.0459 26.7702Z" stroke="white" stroke-width="1.66972" stroke-linecap="round" stroke-linejoin="round"/>
</svg>
