<svg width="57" height="62" viewBox="0 0 57 62" fill="none" xmlns="http://www.w3.org/2000/svg">
<path d="M23.6484 37.7404C23.1045 36.7294 22.6146 35.6902 22.1809 34.6273C21.8489 33.5623 21.5816 32.4783 21.3803 31.381H7.21623C7.03742 31.3528 6.85448 31.3916 6.70261 31.4901C6.55074 31.5886 6.44068 31.7399 6.39352 31.9146C6.12142 32.5356 5.64276 33.0433 5.0388 33.3513C4.43485 33.6594 3.74287 33.7489 3.08042 33.6046C2.41731 33.4547 1.82403 33.0856 1.39639 32.5571C0.968753 32.0286 0.731706 31.3715 0.723447 30.6917C0.72155 30.0316 0.938846 29.3896 1.34129 28.8665C1.74374 28.3433 2.30855 27.9686 2.94701 27.8011C3.61662 27.6335 4.32391 27.7091 4.94292 28.0146C5.56192 28.32 6.05238 28.8354 6.32681 29.4688C6.38282 29.6487 6.50049 29.803 6.65911 29.9047C6.81774 30.0064 7.00711 30.0489 7.19397 30.0247H21.4249C21.5653 27.7404 22.3349 25.5393 23.6484 23.6652H10.307C9.26194 23.6652 9.10627 23.5096 9.10627 22.4867V15.816C8.63846 15.7188 8.20396 15.5017 7.84534 15.1859C7.48671 14.8702 7.21625 14.4667 7.06056 14.015C6.90505 13.3795 6.90505 12.7159 7.06056 12.0805C7.20468 11.4037 7.59223 10.8034 8.14968 10.3935C8.70713 9.98362 9.39571 9.79268 10.0846 9.85689C10.7317 9.90098 11.3467 10.155 11.8363 10.5804C12.3259 11.0058 12.6634 11.5793 12.7974 12.2139C12.9415 12.975 12.7924 13.7625 12.3799 14.4183C11.9675 15.0741 11.3223 15.5495 10.5738 15.7493V22.2643H24.3822C24.7436 22.2476 25.092 22.1238 25.3828 21.9086C26.7178 20.7455 28.2766 19.8677 29.9633 19.3292C30.1412 19.3292 30.408 19.1069 30.408 18.9735C30.408 17.2836 30.408 15.6159 30.408 13.8815H20.9801C20.0907 13.8815 19.935 13.7036 19.935 12.8141C19.935 10.724 19.935 8.63382 19.935 6.54366C19.9578 6.38572 19.9233 6.22487 19.8376 6.09024C19.7519 5.95561 19.6208 5.85622 19.4681 5.80998C18.8358 5.54991 18.3132 5.07872 17.9891 4.47671C17.665 3.87471 17.5595 3.17903 17.6906 2.50802C17.8216 1.83701 18.1811 1.23219 18.7079 0.796372C19.2347 0.360552 19.8962 0.120707 20.5799 0.117658C21.2475 0.1058 21.8997 0.318508 22.432 0.721729C22.9643 1.12495 23.3457 1.69531 23.515 2.34122C23.6723 3.0157 23.584 3.72405 23.2662 4.33937C22.9483 4.95469 22.4216 5.43673 21.7806 5.69883C21.6202 5.74975 21.483 5.85587 21.3934 5.99836C21.3039 6.14084 21.2678 6.31041 21.2914 6.47703C21.2914 8.43377 21.2914 10.3683 21.2914 12.3695H30.3636V6.61044H30.9862C32.8317 6.61044 34.6773 6.61044 36.5228 6.61044C36.8749 6.54451 37.2378 6.56464 37.5804 6.66907C37.923 6.77349 38.2353 6.95907 38.4908 7.21016C38.7462 7.46126 38.9373 7.77039 39.0476 8.11118C39.1579 8.45197 39.1843 8.81443 39.1244 9.16759C39.1244 10.5907 39.1244 12.036 39.1244 13.4591C39.0962 13.7466 39.1637 14.0354 39.3165 14.2807C39.4693 14.5259 39.6988 14.7139 39.9694 14.8154C41.2146 15.4602 42.4375 16.1718 43.616 17.039C43.8222 17.1907 44.0716 17.2725 44.3276 17.2725C44.5836 17.2725 44.8329 17.1907 45.0391 17.039L48.9304 14.8154C49.1989 14.6126 49.5099 14.4734 49.8401 14.4083C50.1702 14.3431 50.5108 14.3538 50.8362 14.4395C51.1616 14.5251 51.4633 14.6835 51.7186 14.9027C51.974 15.1218 52.1762 15.3962 52.3102 15.7049C53.4664 17.6616 54.5337 19.6183 55.7122 21.575C55.9312 21.8493 56.0821 22.1716 56.1526 22.5154C56.2231 22.8592 56.2113 23.2147 56.118 23.5531C56.0248 23.8914 55.8527 24.2028 55.616 24.4619C55.3793 24.721 55.0846 24.9204 54.7561 25.0438C53.4887 25.7998 52.2212 26.5336 50.9316 27.2673C50.7153 27.3847 50.5386 27.5635 50.4239 27.7811C50.3091 27.9988 50.2613 28.2456 50.2867 28.4904C50.2867 29.9728 50.2867 31.4552 50.2867 32.9375C50.2535 33.1858 50.3002 33.4381 50.4202 33.658C50.5401 33.878 50.7271 34.054 50.9538 34.1605L54.7784 36.384C55.1051 36.5098 55.3975 36.7109 55.6318 36.971C55.8661 37.2312 56.0357 37.543 56.1267 37.8811C56.2177 38.2192 56.2276 38.574 56.1556 38.9166C56.0836 39.2592 55.9317 39.58 55.7122 39.8528C54.6004 41.8095 53.4886 43.744 52.3546 45.6785C52.2275 46.0072 52.0242 46.3009 51.7613 46.5356C51.4984 46.7702 51.1835 46.939 50.8425 47.0281C50.5016 47.1171 50.1444 47.1238 49.8003 47.0476C49.4562 46.9715 49.1352 46.8147 48.8637 46.5901L45.1058 44.3666C44.8907 44.206 44.6294 44.1193 44.361 44.1193C44.0925 44.1193 43.8311 44.206 43.616 44.3666C42.393 45.1226 41.1701 45.8564 39.9027 46.5901C39.6651 46.6791 39.4618 46.8412 39.322 47.0529C39.1821 47.2646 39.113 47.5152 39.1244 47.7687V52.2158C39.1644 52.5515 39.1272 52.8919 39.0158 53.211C38.9044 53.5302 38.7218 53.8198 38.4817 54.0578C38.2416 54.2957 37.9504 54.4758 37.6302 54.5843C37.31 54.6928 36.9694 54.7269 36.634 54.6839H30.3636V48.8582H21.3359C21.3243 49.0433 21.3243 49.229 21.3359 49.4141C21.3359 51.193 21.3359 52.9719 21.3359 54.7507C21.3074 54.9179 21.3416 55.0896 21.4318 55.2332C21.5221 55.3768 21.6621 55.4821 21.8251 55.5289C22.4543 55.7934 22.9717 56.2688 23.2882 56.8735C23.6048 57.4781 23.7007 58.1743 23.5595 58.842C23.4299 59.4748 23.0968 60.0478 22.6109 60.4734C22.1251 60.8991 21.5133 61.1538 20.869 61.199C20.2 61.2466 19.5343 61.0689 18.9782 60.6941C18.422 60.3193 18.0074 59.769 17.8004 59.1311C17.5769 58.4309 17.6242 57.6724 17.933 57.0054C18.2417 56.3384 18.7896 55.8115 19.4681 55.5289C19.6387 55.4773 19.7847 55.3653 19.8788 55.2139C19.973 55.0625 20.0087 54.8821 19.9795 54.7062C19.9795 52.6605 19.9795 50.6371 19.9795 48.5914C19.9795 47.5686 20.0907 47.4351 21.0913 47.4351H30.408V46.1233C30.408 44.9893 30.408 43.8996 30.408 42.6989C30.3889 42.5663 30.3259 42.444 30.2292 42.3513C30.1325 42.2587 30.0076 42.201 29.8744 42.1875C28.1365 41.6844 26.5384 40.7864 25.2049 39.5637C25.0289 39.4003 24.8 39.3056 24.56 39.2969H10.7517H10.5293C10.5183 39.4524 10.5183 39.6083 10.5293 39.7638C10.5293 41.6093 10.5293 43.455 10.5293 45.3006C10.5149 45.4407 10.5521 45.5813 10.634 45.6959C10.7158 45.8105 10.8368 45.8913 10.9741 45.9231C11.4422 46.1186 11.8522 46.4314 12.1646 46.8312C12.4769 47.2309 12.6812 47.7043 12.7577 48.2058C12.8342 48.7074 12.7805 49.2202 12.6016 49.6949C12.4226 50.1696 12.1246 50.5903 11.736 50.9166C11.3475 51.2429 10.8816 51.4637 10.3831 51.5579C9.88456 51.652 9.37022 51.6164 8.88946 51.4543C8.40871 51.2922 7.97772 51.0092 7.63796 50.6324C7.2982 50.2557 7.06108 49.7979 6.94941 49.303C6.79526 48.6173 6.89222 47.899 7.22274 47.2788C7.55325 46.6585 8.09537 46.1775 8.75049 45.9231C8.8879 45.8864 9.00695 45.8003 9.0849 45.6814C9.16284 45.5624 9.1942 45.4189 9.17298 45.2783V38.8744C9.17298 38.0739 9.37312 37.896 10.1736 37.896H23.6484V37.7404ZM31.8311 53.3053H36.5451C37.4345 53.3053 37.7458 52.994 37.7458 52.1268C37.7458 50.637 37.7458 49.1694 37.7458 47.6797C37.7275 47.1566 37.8715 46.6407 38.1582 46.2028C38.4449 45.7649 38.8601 45.4263 39.3468 45.2338C40.5317 44.6525 41.6758 43.9913 42.771 43.2548C43.1918 42.9154 43.71 42.7194 44.2501 42.6954C44.7901 42.6714 45.3237 42.8206 45.7729 43.1214L49.553 45.3449C50.309 45.7674 50.7314 45.6563 51.1761 44.8781C52.3027 42.9658 53.4145 41.0535 54.5115 39.1412C54.9562 38.363 54.8451 37.9405 54.0668 37.4958C52.8216 36.762 51.5764 36.0283 50.309 35.2723C49.8405 35.0439 49.4555 34.6743 49.2082 34.2156C48.9609 33.7568 48.8637 33.232 48.9304 32.7151C48.9304 31.3365 48.9304 29.9356 48.9304 28.557C48.863 28.0514 48.9553 27.5374 49.1945 27.0868C49.4338 26.6363 49.8079 26.2718 50.2645 26.0444L54.0445 23.8208C54.845 23.3761 54.9562 22.9314 54.5115 22.1531C53.3997 20.2409 52.2879 18.3286 51.1984 16.4386C50.7314 15.6158 50.309 15.5046 49.464 15.9938C48.619 16.483 47.0848 17.3281 45.9285 18.0619C45.43 18.4055 44.8308 18.5725 44.2264 18.5362C43.622 18.4999 43.0471 18.2625 42.5932 17.8617C41.6182 17.159 40.5754 16.5556 39.4802 16.0606C38.9426 15.8683 38.4823 15.5059 38.1693 15.0283C37.8563 14.5508 37.7076 13.9842 37.7458 13.4145C37.7458 11.9692 37.7458 10.5017 37.7458 8.96741C37.7458 8.30034 37.479 7.90012 36.9009 7.87789C35.1887 7.87789 33.4988 7.87789 31.7866 7.87789V18.7733C33.4038 18.5626 35.0471 18.6887 36.6133 19.1435C38.1794 19.5983 39.6347 20.372 40.8875 21.4161C42.1404 22.4601 43.1638 23.7519 43.8935 25.2104C44.6233 26.6689 45.0436 28.2625 45.128 29.8911C45.2237 31.4102 45.0133 32.9331 44.5091 34.3693C44.0049 35.8055 43.2173 37.1258 42.193 38.2518C40.9254 39.7088 39.3202 40.8334 37.5179 41.5273C35.7155 42.2211 33.7708 42.463 31.8534 42.232L31.8311 53.3053ZM33.2987 41.098C35.3675 41.098 37.3899 40.4839 39.1094 39.3335C40.829 38.1832 42.1685 36.5484 42.9581 34.6362C43.7478 32.7239 43.9521 30.6204 43.5452 28.5919C43.1384 26.5635 42.1386 24.7014 40.6726 23.2416C39.2066 21.7818 37.3403 20.79 35.3101 20.3918C33.28 19.9936 31.1772 20.2069 29.2684 21.0047C27.3596 21.8025 25.7305 23.149 24.5875 24.8734C23.4445 26.5979 22.8391 28.6229 22.8479 30.6917C22.8391 32.0697 23.1029 33.4358 23.6242 34.7115C24.1455 35.9871 24.9138 37.1471 25.8852 38.1246C26.8565 39.1021 28.0116 39.878 29.2839 40.4073C30.5562 40.9367 31.9206 41.2092 33.2987 41.2091V41.098ZM3.74747 32.2037C4.16248 32.1867 4.55518 32.0112 4.84473 31.7134C5.13427 31.4156 5.29865 31.018 5.30399 30.6027C5.2984 30.1777 5.12856 29.7715 4.83014 29.4689C4.53171 29.1663 4.12784 28.991 3.70302 28.9795C3.27407 28.9963 2.8676 29.1758 2.56613 29.4814C2.26466 29.787 2.09076 30.1958 2.07979 30.6249C2.06089 30.8528 2.09034 31.0822 2.16624 31.298C2.24215 31.5137 2.3628 31.7109 2.52026 31.8768C2.67771 32.0426 2.86839 32.1733 3.07988 32.2603C3.29137 32.3473 3.51889 32.3887 3.74747 32.3816V32.2037ZM11.4632 12.703C11.4462 12.288 11.2707 11.8953 10.9729 11.6057C10.6751 11.3162 10.2776 11.1518 9.86228 11.1465C9.43767 11.1465 9.03044 11.3151 8.7302 11.6154C8.42996 11.9156 8.2613 12.3229 8.2613 12.7475C8.2613 13.178 8.43231 13.5908 8.73672 13.8953C9.04113 14.1997 9.45403 14.3707 9.88453 14.3707C10.2837 14.3562 10.6639 14.1972 10.9544 13.9231C11.2449 13.649 11.4257 13.2785 11.4632 12.8809V12.703ZM20.6688 1.38511C20.2442 1.38511 19.837 1.55377 19.5368 1.85401C19.2365 2.15425 19.0679 2.56141 19.0679 2.98601C19.0679 3.41061 19.2365 3.81778 19.5368 4.11802C19.837 4.41826 20.2442 4.58705 20.6688 4.58705C20.8818 4.58724 21.0928 4.54431 21.2888 4.46083C21.4848 4.37736 21.6619 4.25506 21.8094 4.10132C21.9569 3.94758 22.0718 3.7655 22.1471 3.5662C22.2224 3.36689 22.2566 3.15436 22.2476 2.9415C22.1941 2.5603 22.0051 2.21115 21.7151 1.95796C21.4252 1.70478 21.0537 1.56451 20.6688 1.5629V1.38511ZM22.2698 58.1305C22.2696 57.8119 22.1745 57.5008 21.9966 57.2366C21.8186 56.9725 21.5659 56.7674 21.2707 56.6476C20.9756 56.5279 20.6514 56.4988 20.3397 56.5643C20.028 56.6298 19.7429 56.7868 19.5209 57.0151C19.2989 57.2435 19.1501 57.5328 19.0934 57.8463C19.0367 58.1597 19.0748 58.4829 19.2028 58.7746C19.3309 59.0662 19.543 59.3131 19.8121 59.4835C20.0811 59.654 20.3949 59.7403 20.7133 59.7315C21.104 59.7329 21.4809 59.5873 21.7693 59.3237C22.0576 59.06 22.2363 58.6976 22.2698 58.3084V58.1305ZM11.4632 48.4135C11.4633 48.2043 11.4217 47.9971 11.341 47.8041C11.2602 47.6111 11.142 47.4361 10.993 47.2892C10.844 47.1423 10.6674 47.0266 10.4733 46.9486C10.2792 46.8705 10.0715 46.8319 9.86228 46.8348C9.54469 46.8349 9.23429 46.9293 8.97055 47.1063C8.70682 47.2832 8.50163 47.5344 8.38114 47.8283C8.26065 48.1221 8.23028 48.4451 8.29388 48.7563C8.35747 49.0674 8.51222 49.3528 8.73835 49.5757C8.96447 49.7987 9.25176 49.9493 9.56377 50.0085C9.87578 50.0678 10.1984 50.033 10.4905 49.9084C10.7826 49.7838 11.0311 49.5751 11.2043 49.3089C11.3775 49.0427 11.4677 48.731 11.4632 48.4135Z" fill="#02B2E9"/>
<path d="M32.7649 34.2489H27.4951C26.6501 34.2489 26.4723 34.0933 26.4723 33.2483V28.2675C26.4723 27.4893 26.6724 27.2892 27.4729 27.2892H32.7649V24.3986C32.7649 24.154 32.7649 23.8871 32.7649 23.6647C32.78 23.5562 32.8226 23.4533 32.8885 23.3658C32.9544 23.2782 33.0416 23.209 33.1417 23.1645C33.2419 23.12 33.3517 23.1017 33.4609 23.1114C33.57 23.1212 33.6749 23.1585 33.7656 23.22C33.9162 23.3264 34.0576 23.4455 34.188 23.5758L40.6808 30.0909C41.3034 30.7135 41.3257 30.958 40.6808 31.5806L34.1213 38.1402C33.8323 38.4292 33.4987 38.7629 33.1207 38.496C32.8699 38.2402 32.7267 37.8979 32.7205 37.5398C32.7427 36.428 32.7649 35.383 32.7649 34.2489ZM27.8731 28.6455V32.8926H33.0985C33.9212 32.8926 34.1436 33.0928 34.1436 33.9155V36.1391L39.3022 30.9358L34.1436 25.7326V26.6221C34.1436 28.8457 34.1435 28.6455 32.1423 28.6455H27.8731Z" fill="#082832"/>
</svg>
