<svg width="120" height="51" viewBox="0 0 120 51" fill="none" xmlns="http://www.w3.org/2000/svg">
<rect y="0.818115" width="120" height="50" rx="25" fill="url(#paint0_linear_217_174)"/>
<path d="M41.0736 19.4181V33.3181H38.7936V23.7981L34.5536 33.3181H32.9736L28.7136 23.7981V33.3181H26.4336V19.4181H28.8936L33.7736 30.3181L38.6336 19.4181H41.0736ZM50.4103 33.4581C49.117 33.4581 47.9236 33.1581 46.8303 32.5581C45.7503 31.9448 44.8903 31.0981 44.2503 30.0181C43.6236 28.9248 43.3103 27.6981 43.3103 26.3381C43.3103 24.9781 43.6236 23.7581 44.2503 22.6781C44.8903 21.5981 45.7503 20.7581 46.8303 20.1581C47.9236 19.5448 49.117 19.2381 50.4103 19.2381C51.717 19.2381 52.9103 19.5448 53.9903 20.1581C55.0836 20.7581 55.9436 21.5981 56.5703 22.6781C57.197 23.7581 57.5103 24.9781 57.5103 26.3381C57.5103 27.6981 57.197 28.9248 56.5703 30.0181C55.9436 31.0981 55.0836 31.9448 53.9903 32.5581C52.9103 33.1581 51.717 33.4581 50.4103 33.4581ZM50.4103 31.4781C51.3303 31.4781 52.1503 31.2714 52.8703 30.8581C53.5903 30.4314 54.1503 29.8314 54.5503 29.0581C54.9636 28.2714 55.1703 27.3648 55.1703 26.3381C55.1703 25.3114 54.9636 24.4114 54.5503 23.6381C54.1503 22.8648 53.5903 22.2714 52.8703 21.8581C52.1503 21.4448 51.3303 21.2381 50.4103 21.2381C49.4903 21.2381 48.6703 21.4448 47.9503 21.8581C47.2303 22.2714 46.6636 22.8648 46.2503 23.6381C45.8503 24.4114 45.6503 25.3114 45.6503 26.3381C45.6503 27.3648 45.8503 28.2714 46.2503 29.0581C46.6636 29.8314 47.2303 30.4314 47.9503 30.8581C48.6703 31.2714 49.4903 31.4781 50.4103 31.4781ZM67.1939 26.1781C67.9406 26.3114 68.5739 26.7048 69.0939 27.3581C69.6139 28.0114 69.8739 28.7514 69.8739 29.5781C69.8739 30.2848 69.6872 30.9248 69.3139 31.4981C68.9539 32.0581 68.4272 32.5048 67.7339 32.8381C67.0406 33.1581 66.2339 33.3181 65.3139 33.3181H59.7539V19.4181H65.0539C66.0006 19.4181 66.8139 19.5781 67.4939 19.8981C68.1739 20.2181 68.6872 20.6514 69.0339 21.1981C69.3806 21.7314 69.5539 22.3314 69.5539 22.9981C69.5539 23.7981 69.3406 24.4648 68.9139 24.9981C68.4872 25.5314 67.9139 25.9248 67.1939 26.1781ZM62.0339 25.2581H64.8539C65.6006 25.2581 66.1806 25.0914 66.5939 24.7581C67.0206 24.4114 67.2339 23.9181 67.2339 23.2781C67.2339 22.6514 67.0206 22.1648 66.5939 21.8181C66.1806 21.4581 65.6006 21.2781 64.8539 21.2781H62.0339V25.2581ZM65.1139 31.4581C65.8872 31.4581 66.4939 31.2714 66.9339 30.8981C67.3739 30.5248 67.5939 30.0048 67.5939 29.3381C67.5939 28.6581 67.3606 28.1181 66.8939 27.7181C66.4272 27.3181 65.8072 27.1181 65.0339 27.1181H62.0339V31.4581H65.1139ZM74.6316 19.4181V33.3181H72.3516V19.4181H74.6316ZM79.905 31.4781H84.605V33.3181H77.625V19.4181H79.905V31.4781ZM88.7917 21.2581V25.3381H93.5917V27.1981H88.7917V31.4581H94.1917V33.3181H86.5117V19.3981H94.1917V21.2581H88.7917Z" fill="white"/>
<defs>
<linearGradient id="paint0_linear_217_174" x1="11" y1="0.999999" x2="91.8493" y2="57.2167" gradientUnits="userSpaceOnUse">
<stop stop-color="#02B2E9"/>
<stop offset="1" stop-color="#FE932B"/>
</linearGradient>
</defs>
</svg>
