<svg width="92" height="98" viewBox="0 0 92 98" fill="none" xmlns="http://www.w3.org/2000/svg">
<path d="M17.0098 65.4657C17.0098 70.0222 17.0305 74.5787 17.0019 79.1352C16.9875 81.1969 17.9046 82.6791 19.6272 83.706C21.1954 84.6422 22.7875 85.5353 24.3636 86.4555C26.6753 87.8072 29.0443 88.9216 31.8463 88.7035C33.8539 88.5443 35.6355 87.9648 36.9107 86.3154C37.9917 84.9224 38.377 83.2746 38.3897 81.5615C38.4248 76.8983 38.4025 72.2367 38.4025 67.5736C38.4025 63.2039 38.4025 58.8326 38.4025 54.4597C38.4025 53.4535 38.213 53.272 37.1877 53.2688C36.5509 53.2688 35.9141 53.2688 35.2773 53.2688C34.0036 53.2688 33.8237 53.4551 33.8237 54.751C33.8237 63.5732 33.8237 72.3954 33.8237 81.2176C33.8237 82.9498 32.55 84.2075 30.8226 84.2425C29.9667 84.274 29.1186 84.0697 28.3708 83.6519C26.2773 82.4642 24.2028 81.2431 22.0997 80.0697C21.5393 79.7513 21.345 79.382 21.3466 78.7419C21.3657 69.8677 21.3657 60.9935 21.3466 52.1193C21.3466 51.508 21.5472 51.1498 22.0774 50.8552C23.6265 49.9939 25.1501 49.0864 26.6864 48.2012C32.8085 44.67 38.9289 41.1383 45.0478 37.606C45.5986 37.2876 46.0301 37.2192 46.6399 37.571C54.3317 42.0288 62.0362 46.4659 69.7535 50.8823C70.2964 51.2007 70.4445 51.5892 70.4429 52.1751C70.4302 60.9973 70.4302 69.8194 70.4429 78.6416C70.4429 79.3549 70.1754 79.764 69.5911 80.1C61.9492 84.4888 54.3147 88.8893 46.6876 93.3014C46.0396 93.6787 45.5541 93.6533 44.9363 93.2759C43.1851 92.1917 41.394 91.1585 39.6188 90.1061C39.3227 89.931 39.0361 89.7193 38.6636 89.9469C37.4891 90.6128 36.2546 91.1666 34.9763 91.6011C34.4541 91.7906 34.4987 92.1026 34.9047 92.3971C35.0752 92.5234 35.2527 92.6398 35.4365 92.7458C37.7354 94.1054 40.0885 95.3854 42.3238 96.8422C44.6482 98.3562 46.8198 98.3658 49.2158 96.9616C56.7718 92.5356 64.3803 88.2052 71.9824 83.8429C73.9614 82.7078 74.8959 81.0266 74.8927 78.7626C74.8816 70.0206 74.8609 61.2785 74.9055 52.5365C74.9182 49.9891 73.9757 48.179 71.7118 46.8926C64.0698 42.5542 56.4789 38.1362 48.8815 33.7246C46.8198 32.5289 44.8297 32.5862 42.803 33.7866C40.3209 35.2561 37.8198 36.689 35.3202 38.1282C30.0717 41.1563 24.8221 44.1813 19.5715 47.203C17.8552 48.1981 16.9828 49.6914 16.9939 51.7134C17.0273 56.3001 17.0098 60.8821 17.0098 65.4657ZM52.1707 52.6017C49.8909 52.554 47.4391 52.8517 45.1656 54.0203C42.4304 55.4261 41.0374 58.0116 41.3271 61.0843C41.593 63.9134 43.3061 65.7904 46.3899 66.682C48.7143 67.3539 51.112 67.5354 53.4985 67.8251C55.409 68.0576 57.3306 68.2916 59.109 69.1274C59.8859 69.492 60.3142 70.1002 60.3301 70.9281C60.3524 72.1364 59.9321 73.157 58.816 73.7858C58.2394 74.1135 57.6136 74.3458 56.9628 74.4736C54.8308 74.8631 52.6522 74.9286 50.5006 74.6678C47.7941 74.3733 45.5047 73.5884 45.0876 70.1814C45.0255 69.6862 44.7246 69.4634 44.204 69.4888C43.5942 69.5191 42.9845 69.4968 42.3731 69.4968C40.4849 69.4968 40.34 69.6799 40.6091 71.5553C41.1297 75.1932 43.4016 77.247 46.7609 78.242C49.3082 79.003 51.9367 79.175 54.6034 79.0206C56.9915 78.8804 59.2809 78.5079 61.392 77.3473C64.1415 75.838 65.334 73.4308 65.1859 70.3836C65.0362 67.2838 63.5938 65.5914 60.467 64.5598C58.0184 63.7542 55.4663 63.4915 52.9317 63.1269C51.1566 62.8706 49.3623 62.6779 47.6604 62.0666C46.0683 61.4982 45.6591 59.6785 46.7895 58.4048C47.3146 57.8381 47.9952 57.4388 48.7462 57.2569C50.4274 56.7793 52.1516 56.8366 53.8679 56.8892C54.4951 56.9083 55.1192 57.0595 55.7417 57.1694C57.7477 57.5212 59.0373 58.6723 59.4958 60.6608C59.6837 61.4728 60.0467 61.8166 60.9144 61.7291C61.755 61.6463 62.6099 61.7068 63.4617 61.7116C64.0078 61.7116 64.2577 61.3931 64.2163 60.9155C63.9695 57.8396 62.7214 55.3688 59.8365 53.9598C57.4866 52.8214 54.968 52.5858 52.1707 52.6017ZM67.1234 15.4699C67.1234 11.6839 67.1012 7.89799 67.141 4.11204C67.1505 3.30168 66.8225 2.83839 66.1634 2.4754C64.8006 1.73031 63.4569 0.961336 62.0957 0.201919C61.3331 -0.224756 60.9032 0.0299751 60.9016 0.916758C60.9016 3.19342 60.9016 5.47008 60.9016 7.74674C60.9016 9.36269 60.8921 10.9771 60.9016 12.5914C60.9016 13.1534 60.7345 13.3445 60.2027 13.0515C59.7649 12.8095 59.2825 12.6296 58.8893 12.3303C58.2317 11.832 57.6156 11.9371 56.9788 12.308C54.4967 13.7409 52.0258 15.2072 49.5279 16.6162C48.9531 16.9346 48.786 17.3453 48.7892 17.9615C48.8099 20.9004 48.8162 23.8394 48.7892 26.7768C48.7892 27.4391 49.0025 27.8657 49.5725 28.1889C52.0911 29.6218 54.6098 31.0547 57.1061 32.5162C57.7016 32.868 58.211 32.8569 58.7778 32.5273C61.3012 31.0594 63.8167 29.5756 66.364 28.1507C66.9738 27.8084 67.1362 27.3897 67.133 26.7481C67.1139 22.9892 67.1234 19.2288 67.1234 15.4699ZM42.6868 22.2218C42.6868 20.66 42.6868 19.0982 42.6868 17.5364C42.6868 17.1463 42.6278 16.8184 42.2426 16.5987C39.6379 15.1037 37.0317 13.6119 34.4414 12.0851C33.7505 11.6776 33.1948 11.7858 32.5405 12.1695C30.111 13.6024 27.6544 14.9859 25.2042 16.3853C24.6327 16.7037 24.3302 17.1638 24.3334 17.8564C24.3525 20.7683 24.3445 23.6818 24.3334 26.5937C24.3334 27.1971 24.534 27.6317 25.0928 27.9485C27.6401 29.3957 30.1651 30.87 32.6917 32.3458C33.3365 32.7215 33.9049 32.6642 34.5433 32.279C36.9919 30.827 39.4564 29.4026 41.9369 28.0058C42.4798 27.7018 42.6899 27.3435 42.682 26.7497C42.6724 25.2356 42.6868 23.7264 42.6868 22.2218ZM0.0192528 23.6069C0.0192528 25.5923 0.0654252 27.5776 0.00174234 29.5613C-0.0348753 30.6566 0.509612 30.7394 1.26425 30.308C2.65891 29.5119 4.04719 28.7159 5.44025 27.9199C5.91787 27.6508 6.16942 27.3149 6.14872 26.7179C6.10574 25.3694 6.24425 24.0113 6.10733 22.6724C5.94812 21.0692 6.4544 20.0439 7.95891 19.3768C8.7836 19.0106 9.46182 18.6699 10.2563 19.3657C10.546 19.6204 10.9329 19.7685 11.2863 19.942C11.8674 20.227 12.1461 20.6489 12.1349 21.3255C12.1031 23.0768 12.1349 24.8185 12.1206 26.565C12.1206 27.0426 12.1859 27.5043 12.5982 27.7511C14.1616 28.6745 15.7383 29.574 17.3282 30.4497C17.9078 30.7681 18.3551 30.5133 18.3567 29.8797C18.3695 25.7775 18.3695 21.6747 18.3567 17.5714C18.3647 17.3345 18.305 17.1003 18.1846 16.8961C18.0642 16.692 17.8881 16.5264 17.6769 16.4187C15.1567 14.9652 12.6094 13.5307 10.0939 12.0485C9.46979 11.6823 8.92212 11.6505 8.32509 11.9928C5.7937 13.4479 3.26549 14.9111 0.72932 16.3582C0.215081 16.6528 0.00492921 17.0428 0.0144816 17.6462C0.044731 19.6315 0.0319921 21.6169 0.0319921 23.6022L0.0192528 23.6069ZM73.1287 22.2601C73.1287 23.7168 73.1781 25.1767 73.1096 26.6303C73.0746 27.3849 73.3739 27.7829 73.9916 28.1252C76.4562 29.4912 78.927 30.8636 81.3454 32.2933C81.9599 32.6547 82.4455 32.6595 83.0298 32.3283C84.4961 31.4972 85.9799 30.6948 87.451 29.8717C88.0767 29.5215 88.0512 29.0264 87.3809 28.6395C84.9642 27.2464 82.5554 25.8374 80.1115 24.4905C79.454 24.1291 79.263 23.72 79.1802 22.9749C78.9987 21.2125 79.4763 20.055 81.2276 19.3657C81.9679 19.0743 82.4328 19.0234 83.1588 19.3545C84.6426 20.0296 85.4116 20.9307 85.1393 22.666C84.9928 23.5942 85.5326 23.8489 86.3652 23.3856C87.3077 22.8603 88.1818 22.1773 89.1736 21.784C91.0013 21.0612 91.6047 19.8226 91.3643 17.9233C91.2704 17.1814 91.0841 16.7276 90.4393 16.3646C88.0082 14.9938 85.5867 13.6056 83.189 12.1759C82.5522 11.8002 82.0013 11.7938 81.4091 12.1329C78.8713 13.5849 76.3415 15.0496 73.8054 16.5015C73.3277 16.7786 73.1144 17.1559 73.1255 17.7306C73.1558 19.2367 73.1351 20.746 73.1351 22.2553L73.1287 22.2601ZM91.3102 40.9748C91.3102 38.375 89.2898 36.3706 86.6709 36.3578C84.0185 36.3594 82.0236 38.3654 82.0236 41.0417C82.0188 41.6506 82.1347 42.2544 82.3647 42.8181C82.5947 43.3819 82.9342 43.8945 83.3636 44.3262C83.7929 44.7579 84.3036 45.1002 84.8661 45.3333C85.4286 45.5664 86.0317 45.6857 86.6406 45.6842C87.2576 45.6855 87.8686 45.5643 88.4383 45.3276C89.0081 45.0909 89.5251 44.7434 89.9595 44.3053C90.3939 43.8672 90.737 43.3472 90.9688 42.7755C91.2007 42.2038 91.3167 41.5917 91.3102 40.9748ZM84.0042 22.1629C83.9039 21.7808 84.2016 21.2793 83.8243 21.0485C83.3021 20.7157 82.7767 20.1522 82.1637 20.2286C81.6097 20.2986 81.0795 20.7237 80.586 21.0612C80.3265 21.2379 80.4507 21.6121 80.4777 21.8843C80.5255 22.3858 80.2166 22.9988 80.6624 23.3681C81.1082 23.7375 81.6065 24.1896 82.2545 24.1642C82.9025 24.1387 83.3689 23.712 83.837 23.3458C84.2048 23.0513 83.8911 22.5514 84.0042 22.1629Z" fill="#FEFEFE"/>
<path d="M17.0098 65.4658C17.0098 60.8823 17.0273 56.3003 17.0098 51.7167C16.9987 49.6948 17.8711 48.2014 19.5874 47.2064C24.8306 44.1687 30.0802 41.1438 35.3362 38.1316C37.8341 36.6987 40.3353 35.2658 42.8189 33.79C44.8456 32.5896 46.8357 32.5323 48.8974 33.7279C56.4948 38.1379 64.089 42.5575 71.7277 46.8959C73.9916 48.1823 74.9341 49.9925 74.9214 52.5398C74.8768 61.2819 74.8975 70.0239 74.9087 78.766C74.9087 81.0299 73.9773 82.7111 71.9984 83.8463C64.4026 88.2022 56.7941 92.539 49.2317 96.9649C46.8436 98.3691 44.6641 98.3596 42.3397 96.8455C40.1108 95.3888 37.7513 94.1088 35.4524 92.7491C35.2686 92.6432 35.0911 92.5268 34.9206 92.4005C34.5146 92.0996 34.4701 91.7875 34.9923 91.6044C36.2705 91.17 37.5051 90.6161 38.6795 89.9503C39.0505 89.7306 39.337 89.9423 39.6347 90.1095C41.4099 91.1618 43.1962 92.1951 44.9523 93.2793C45.5652 93.6566 46.0508 93.6821 46.7035 93.3048C54.3264 88.8852 61.9609 84.4847 69.6071 80.1033C70.1914 79.7674 70.4604 79.3582 70.4588 78.645C70.4344 69.8239 70.4344 61.0017 70.4588 52.1784C70.4588 51.5925 70.3124 51.1961 69.7695 50.8856C62.0564 46.465 54.3518 42.0279 46.6558 37.5743C46.046 37.2225 45.6146 37.2894 45.0637 37.6094C38.9395 41.1491 32.8143 44.6798 26.688 48.2014C25.1517 49.0866 23.6281 49.9941 22.079 50.8554C21.5488 51.1499 21.3482 51.5081 21.3482 52.1195C21.3663 60.9937 21.3663 69.8679 21.3482 78.7421C21.3482 79.3789 21.5409 79.7578 22.1013 80.0699C24.2044 81.2432 26.2789 82.458 28.3724 83.652C29.1178 84.0665 29.9624 84.2691 30.8147 84.2379C32.5453 84.2077 33.8141 82.9499 33.8157 81.213C33.8157 72.3897 33.8157 63.5675 33.8157 54.7464C33.8157 53.4505 33.9972 53.2658 35.2693 53.2642C35.9061 53.2642 36.5429 53.2642 37.1798 53.2642C38.2051 53.2642 38.3945 53.4489 38.3945 54.4551C38.3945 58.8269 38.3945 63.1982 38.3945 67.5689C38.3945 72.2321 38.4168 76.8937 38.3818 81.5569C38.369 83.27 37.9838 84.9177 36.9028 86.3108C35.6291 87.9586 33.846 88.5397 31.8384 88.6989C29.0411 88.917 26.6721 87.8026 24.3556 86.4509C22.7795 85.5307 21.1874 84.6375 19.6192 83.7014C17.8966 82.6745 16.9796 81.1923 16.9939 79.1306C17.0305 74.5788 17.0098 70.0223 17.0098 65.4658Z" fill="#082832"/>
<path d="M52.1707 52.6017C54.968 52.5858 57.4867 52.8214 59.8254 53.9661C62.7102 55.3751 63.9648 57.846 64.2052 60.9219C64.2434 61.409 63.9966 61.7259 63.4505 61.7179C62.602 61.7179 61.747 61.6526 60.9032 61.7354C60.0356 61.823 59.6726 61.4791 59.4847 60.6671C59.0262 58.6786 57.7334 57.5276 55.7306 57.1757C55.1081 57.0659 54.484 56.9146 53.8567 56.8955C52.1405 56.843 50.4163 56.792 48.735 57.2633C47.9841 57.4451 47.3035 57.8444 46.7784 58.4112C45.648 59.6848 46.062 61.4982 47.6492 62.0729C49.3512 62.6843 51.1518 62.8769 52.9206 63.1333C55.4552 63.4994 58.0073 63.7701 60.4559 64.5661C63.5859 65.5978 65.0251 67.2902 65.1748 70.3899C65.3228 73.4371 64.1304 75.8444 61.3809 77.3536C59.2698 78.5143 56.974 78.8868 54.5923 79.0269C51.9256 79.1861 49.3034 79.0094 46.7497 78.2484C43.3905 77.247 41.1186 75.1932 40.598 71.5617C40.3289 69.6862 40.4738 69.5047 42.362 69.5031C42.9733 69.5031 43.5831 69.5254 44.1929 69.4952C44.7135 69.4697 45.0144 69.6926 45.0765 70.1877C45.4984 73.5948 47.783 74.3796 50.4895 74.6742C52.6426 74.9354 54.8229 74.8699 56.9565 74.4799C57.6073 74.3521 58.2331 74.1199 58.8097 73.7922C59.9241 73.1649 60.346 72.1428 60.3237 70.9344C60.3078 70.1065 59.8795 69.5015 59.1026 69.1338C57.3243 68.2979 55.4042 68.0639 53.4921 67.8315C51.104 67.5417 48.7159 67.3538 46.3836 66.6883C43.2997 65.7968 41.5866 63.9197 41.3208 61.0906C41.031 58.0179 42.4241 55.4324 45.1593 54.0266C47.4391 52.8517 49.8909 52.554 52.1707 52.6017Z" fill="#082832"/>
<path d="M67.1234 15.4699C67.1234 19.2288 67.1139 22.9892 67.133 26.7481C67.133 27.3849 66.9738 27.8084 66.364 28.1507C63.8167 29.5756 61.3012 31.0594 58.7778 32.5273C58.211 32.8569 57.7016 32.868 57.1061 32.5162C54.6098 31.0483 52.0911 29.617 49.5724 28.1889C49.0025 27.8705 48.7764 27.4391 48.7891 26.7768C48.8194 23.8394 48.813 20.9004 48.7891 17.9615C48.7891 17.3453 48.9484 16.9409 49.5279 16.6162C52.0258 15.2072 54.4967 13.7504 56.9788 12.308C57.6156 11.9371 58.2333 11.8304 58.8892 12.3303C59.2825 12.6296 59.7649 12.8079 60.2027 13.0515C60.7344 13.3445 60.9064 13.1534 60.9016 12.5914C60.8857 10.9771 60.9016 9.36269 60.9016 7.74674C60.9016 5.47008 60.9016 3.19342 60.9016 0.916758C60.9016 0.0299751 61.3331 -0.224756 62.0957 0.201919C63.4505 0.961336 64.8022 1.73031 66.1634 2.4754C66.8241 2.8368 67.1505 3.30168 67.1409 4.11204C67.1011 7.89321 67.1234 11.6839 67.1234 15.4699ZM60.9016 22.5801C60.9016 20.7205 60.8411 20.8049 59.5293 19.8735C58.4148 19.0902 57.5742 19.06 56.3833 19.7987C55.3198 20.4578 54.8311 21.0596 54.839 22.3619C54.847 23.6356 55.2561 24.3043 56.3515 24.9363C57.4468 25.5684 58.2731 25.7101 59.4353 24.9841C60.51 24.3138 61.2821 23.7327 60.9016 22.5801Z" fill="#082832"/>
<path d="M42.6867 22.2215C42.6867 23.7308 42.6724 25.2465 42.6867 26.7494C42.6947 27.3432 42.4846 27.7046 41.9417 28.0055C39.458 29.397 36.9935 30.8214 34.5481 32.2786C33.9113 32.6575 33.3413 32.7212 32.6965 32.3455C30.1699 30.8696 27.6417 29.3954 25.0976 27.9482C24.5387 27.6298 24.3381 27.1967 24.3381 26.5933C24.3381 23.6814 24.3525 20.768 24.3381 17.8561C24.3381 17.1635 24.6374 16.7114 25.209 16.385C27.6592 14.9856 30.1158 13.5989 32.5453 12.1692C33.1996 11.7855 33.7552 11.6772 34.4462 12.0848C37.0317 13.6116 39.6379 15.1097 42.2473 16.5983C42.6326 16.818 42.6931 17.146 42.6915 17.5361C42.682 19.0931 42.6867 20.6549 42.6867 22.2215Z" fill="#082832"/>
<path d="M0.0319414 23.6022C0.0319414 21.6169 0.0510451 19.6316 0.0207957 17.6463C0.0112433 17.0429 0.221395 16.6528 0.735634 16.3583C3.2718 14.9111 5.80001 13.448 8.33141 11.9929C8.92843 11.6506 9.4761 11.6744 10.1002 12.0486C12.6093 13.5308 15.1566 14.9652 17.6912 16.4061C17.9024 16.5137 18.0785 16.6793 18.1989 16.8834C18.3193 17.0876 18.379 17.3218 18.371 17.5587C18.3774 21.661 18.3774 25.7637 18.371 29.867C18.371 30.5039 17.922 30.757 17.3425 30.437C15.7505 29.5603 14.1738 28.6608 12.6125 27.7384C12.1954 27.4917 12.1349 27.0236 12.1349 26.5523C12.1444 24.8011 12.1173 23.0593 12.1492 21.3128C12.1603 20.6362 11.8817 20.2143 11.3006 19.9293C10.9472 19.7558 10.5603 19.6109 10.2705 19.353C9.47451 18.6573 8.79788 18.998 7.97319 19.3641C6.46868 20.0312 5.95763 21.0565 6.12161 22.6597C6.25853 23.9955 6.12161 25.3567 6.16301 26.7052C6.1837 27.3022 5.92419 27.6381 5.45453 27.9072C4.06147 28.7032 2.67319 29.5088 1.27854 30.2953C0.523894 30.7267 -0.0205931 30.644 0.0160246 29.5486C0.071747 27.5729 0.0319414 25.5875 0.0319414 23.6022Z" fill="#082832"/>
<path d="M73.1351 22.2553C73.1351 20.746 73.1558 19.2303 73.1255 17.7274C73.1144 17.1527 73.3214 16.7722 73.8053 16.4983C76.3415 15.0464 78.8713 13.5817 81.4091 12.1297C82.0013 11.7906 82.5585 11.797 83.189 12.1727C85.5867 13.6056 88.0082 14.9907 90.4393 16.3614C91.0841 16.7244 91.2704 17.1782 91.3643 17.9201C91.6047 19.8305 91.0013 21.0612 89.1672 21.784C88.1754 22.1773 87.3013 22.8603 86.3588 23.3856C85.5262 23.8489 84.9865 23.5942 85.1329 22.666C85.4052 20.9307 84.6362 20.0296 83.1524 19.3545C82.4264 19.0234 81.9615 19.0743 81.2212 19.3657C79.4699 20.055 78.9923 21.2125 79.1865 22.9701C79.2693 23.7152 79.4604 24.1244 80.1179 24.4858C82.5617 25.8327 84.9705 27.2416 87.3873 28.6347C88.0576 29.0216 88.083 29.5167 87.4573 29.867C85.9863 30.6901 84.5025 31.4925 83.0362 32.3235C82.4519 32.6547 81.9663 32.6499 81.3518 32.2885C78.9254 30.8556 76.4625 29.4865 73.998 28.1205C73.3803 27.7782 73.0809 27.3801 73.116 26.6255C73.1844 25.1719 73.1351 23.712 73.1351 22.2553Z" fill="#082832"/>
<path d="M91.3101 40.9749C91.3166 41.591 91.2009 42.2023 90.9696 42.7734C90.7384 43.3444 90.3962 43.864 89.9628 44.302C89.5294 44.7399 89.0135 45.0876 88.4449 45.3249C87.8763 45.5621 87.2662 45.6843 86.6501 45.6842C86.0412 45.6857 85.4381 45.5665 84.8756 45.3334C84.3131 45.1003 83.8024 44.758 83.373 44.3263C82.9437 43.8945 82.6042 43.382 82.3742 42.8182C82.1442 42.2544 82.0283 41.6506 82.0331 41.0418C82.0331 38.3655 84.0216 36.3595 86.674 36.3643C89.2898 36.3706 91.3069 38.3751 91.3101 40.9749ZM82.8817 41.0115C82.8882 42.0122 83.2862 42.9706 83.9906 43.6814C84.6949 44.3923 85.6495 44.7992 86.6501 44.815C88.6529 44.815 90.4854 43.0159 90.4981 41.0322C90.5109 38.953 88.7469 37.2112 86.6374 37.2112C86.1412 37.2131 85.6503 37.3129 85.1928 37.5049C84.7353 37.6969 84.3201 37.9773 83.9712 38.3301C83.6223 38.6828 83.3465 39.101 83.1595 39.5606C82.9725 40.0202 82.8781 40.5122 82.8817 41.0083V41.0115Z" fill="#082832"/>
<path d="M84.0042 22.1631C83.8911 22.5516 84.2048 23.0515 83.829 23.346C83.3626 23.7122 82.8738 24.142 82.2465 24.1643C81.6192 24.1866 81.1098 23.7361 80.6545 23.3683C80.1991 23.0005 80.5175 22.386 80.4698 21.8845C80.4427 21.6122 80.3106 21.2381 80.578 21.0614C81.0716 20.7239 81.6017 20.2988 82.1558 20.2287C82.7687 20.1523 83.2941 20.7159 83.8163 21.0486C84.2016 21.2795 83.9039 21.781 84.0042 22.1631Z" fill="#082832"/>
<path d="M84.8894 40.967C84.8894 40.2792 84.9069 39.5914 84.8894 38.8973C84.875 38.4913 85.0072 38.3178 85.4307 38.3369C86.0388 38.3655 86.6534 38.3018 87.2552 38.3703C88.4572 38.5072 89.0065 39.6615 88.3091 40.6374C88.0815 40.9558 88.0847 41.1294 88.2677 41.4334C88.5623 41.9254 88.4604 42.5145 88.5862 43.0526C88.6339 43.2564 88.7454 43.5732 88.3394 43.5604C88.021 43.5509 87.6054 43.7356 87.494 43.2245C87.4132 42.9193 87.3688 42.6056 87.3619 42.29C87.3841 41.6404 87.0148 41.5799 86.4958 41.5847C85.8494 41.5847 86.0723 42.0512 86.0404 42.3728C86.0182 42.61 86.0182 42.8488 86.0404 43.086C86.0818 43.5636 85.7825 43.5732 85.4355 43.5764C85.0884 43.5796 84.8798 43.5159 84.8926 43.0987C84.9085 42.3966 84.8894 41.6818 84.8894 40.967ZM85.9258 40.0261C85.8351 40.4352 85.9258 40.6947 86.4751 40.674C87.0243 40.6533 87.4017 40.4798 87.4303 39.9449C87.459 39.4099 87.0275 39.308 86.5499 39.2778C85.9895 39.2571 85.8319 39.4959 85.929 40.0261H85.9258Z" fill="#082832"/>
<path d="M85.929 40.0257C85.8319 39.4955 85.9895 39.2487 86.5451 39.2774C87.0227 39.3013 87.4446 39.4047 87.4255 39.9445C87.4064 40.4842 87.0052 40.6545 86.4703 40.6736C85.9354 40.6927 85.8446 40.4348 85.929 40.0257Z" fill="#F0F6E3"/>
<path d="M45.5929 55.3453C44.6949 55.3498 43.8049 55.1832 42.9744 54.8551C42.144 54.527 41.3896 54.044 40.7549 53.4339C40.1202 52.8239 39.6178 52.099 39.2769 51.3012C38.936 50.5035 38.7632 49.6487 38.7687 48.7863C38.765 47.9243 38.9396 47.0701 39.2823 46.2733C39.6249 45.4765 40.1289 44.7529 40.765 44.1446C41.401 43.5362 42.1565 43.0552 42.9876 42.7293C43.8188 42.4035 44.709 42.2393 45.6066 42.2463C46.4989 42.2456 47.3826 42.4139 48.207 42.7418C49.0314 43.0696 49.7803 43.5505 50.4108 44.1569C51.0413 44.7632 51.541 45.4831 51.8812 46.2752C52.2214 47.0674 52.3954 47.9162 52.3934 48.7731C52.4009 49.6347 52.2305 50.4891 51.8919 51.2871C51.5534 52.085 51.0535 52.8105 50.421 53.4217C49.7886 54.0329 49.0363 54.5176 48.2075 54.8478C47.3788 55.178 46.4901 55.347 45.5929 55.3453Z" fill="#082832"/>
</svg>
