<svg width="58" height="66" viewBox="0 0 58 66" fill="none" xmlns="http://www.w3.org/2000/svg">
<path d="M47.5054 0.0102992C48.386 0.399968 49.1534 0.91495 49.428 1.91058C49.5082 2.19911 49.5504 2.49689 49.5533 2.79635C49.5648 4.39851 49.5648 6.00411 49.5533 7.61314C49.5396 9.25765 48.4066 10.394 46.7587 10.4095C45.1565 10.4244 43.5504 10.4244 41.9402 10.4095C40.2957 10.3923 39.1747 9.2525 39.1541 7.60284C39.1541 7.17712 39.1541 6.74454 39.1541 6.27934H36.0642V18.2235H39.1541C39.1541 17.7497 39.1455 17.2862 39.1541 16.8227C39.1867 15.2778 40.2802 14.15 41.832 14.1225C43.5029 14.0928 45.1731 14.0928 46.8428 14.1225C48.4375 14.1465 49.5344 15.2675 49.5499 16.8553C49.5659 18.4827 49.5659 20.1106 49.5499 21.7391C49.5362 23.296 48.4787 24.4427 46.9201 24.4856C45.2034 24.5406 43.4868 24.5406 41.7805 24.4856C40.2219 24.4341 39.1782 23.284 39.1524 21.7271C39.1524 21.2807 39.1524 20.8361 39.1524 20.3538H36.0625V32.346H39.1524C39.1524 31.8739 39.1524 31.4293 39.1524 30.9847C39.1747 29.4157 40.2116 28.2605 41.7634 28.2107C43.4954 28.1557 45.2326 28.154 46.9647 28.2107C48.4873 28.2622 49.5396 29.4123 49.5499 30.9401C49.5653 32.5897 49.5688 34.2377 49.5499 35.8873C49.5567 36.242 49.4918 36.5944 49.3592 36.9233C49.2265 37.2523 49.0289 37.5512 48.7781 37.802C48.5273 38.0528 48.2284 38.2505 47.8994 38.3831C47.5704 38.5157 47.2181 38.5806 46.8634 38.5738C45.1926 38.5933 43.5223 38.5933 41.8526 38.5738C40.3077 38.5566 39.1936 37.4323 39.1558 35.8908C39.1438 35.4256 39.1558 34.9604 39.1558 34.4334C37.8547 34.4334 36.6187 34.4334 35.3793 34.4334C34.2893 34.4334 33.9648 34.1106 33.9631 33.0172C33.9631 29.0552 33.9631 25.0939 33.9631 21.1331V20.3383H31.4981C30.7325 27.5601 24.5527 32.4867 17.664 31.8396C11.1546 31.2353 6.20906 25.7096 6.25026 19.1487C6.29145 12.7355 11.3417 7.23205 17.6399 6.68789C24.6265 6.08193 30.7376 11.0498 31.4895 18.1994H33.9683V17.4253C33.9683 13.5068 33.9683 9.58781 33.9683 5.66823C33.9683 4.43571 34.2395 4.16963 35.4875 4.16792H39.1936C38.9756 2.31913 39.2709 0.734707 41.2158 0L47.5054 0.0102992ZM29.433 19.2552C29.4306 17.1634 28.8072 15.1194 27.6419 13.3823C26.4766 11.6452 24.8219 10.2932 22.8873 9.49749C20.9528 8.70183 18.8256 8.49839 16.7753 8.91296C14.7251 9.32752 12.844 10.3414 11.3706 11.8262C9.89719 13.3109 8.89772 15.1997 8.49886 17.2531C8.10001 19.3065 8.31973 21.432 9.13018 23.3604C9.94063 25.2888 11.3053 26.9331 13.0513 28.0851C14.7973 29.2371 16.846 29.8447 18.9377 29.8312C21.731 29.8175 24.4048 28.6963 26.3724 26.7136C28.3401 24.7308 29.4408 22.0485 29.433 19.2552ZM44.3949 16.1653C43.6036 16.1653 42.8122 16.1653 42.0209 16.1653C41.4561 16.1653 41.2072 16.4296 41.2106 16.9892C41.2175 18.5273 41.2175 20.0665 41.2106 21.6069C41.2106 22.1665 41.4612 22.448 42.0157 22.4498C43.5755 22.4498 45.1359 22.4498 46.6969 22.4498C47.2479 22.4498 47.5123 22.1785 47.5088 21.6138C47.4985 20.0757 47.4985 18.5365 47.5088 16.9961C47.5088 16.3901 47.2239 16.1515 46.6402 16.1635C45.8884 16.179 45.1434 16.1687 44.3949 16.1687V16.1653ZM44.3245 36.5259C45.1142 36.5259 45.9055 36.5156 46.6969 36.5259C47.2702 36.5362 47.5088 36.2616 47.5054 35.7054C47.4985 34.165 47.4985 32.6258 47.5054 31.0877C47.5054 30.5281 47.2565 30.2483 46.7003 30.2483H42.0209C41.4647 30.2483 41.2072 30.5212 41.2089 31.0826C41.2192 32.6206 41.2192 34.1599 41.2089 35.7002C41.2089 36.3027 41.4921 36.5431 42.0792 36.5276C42.8277 36.5105 43.5761 36.5259 44.3245 36.5259ZM41.2123 5.17041C41.2123 5.94117 41.2226 6.71536 41.2123 7.48096C41.202 8.06117 41.4492 8.35986 42.0466 8.35815C43.5858 8.35815 45.1256 8.35815 46.666 8.35815C47.2136 8.35815 47.5088 8.12297 47.5071 7.55477C47.5071 5.99381 47.5071 4.43284 47.5071 2.87188C47.5071 2.3569 47.2754 2.06679 46.7398 2.06679H41.99C41.4561 2.06679 41.2106 2.34145 41.2123 2.86329C41.2141 3.63062 41.2123 4.40137 41.2123 5.17041Z" fill="#082832"/>
<path d="M8.32208 45.8299C10.6412 44.4876 12.8728 43.1366 15.1645 41.8938C16.5832 41.1131 18.0571 40.4372 19.5744 39.8716C20.8687 39.3995 22.2266 39.597 23.5449 40.0295C26.5902 41.0269 29.644 41.9951 32.6961 42.9701C32.96 43.058 33.232 43.119 33.5081 43.152C35.8289 43.4061 37.9249 46.0617 36.6787 48.858C36.6493 48.9589 36.6264 49.0615 36.61 49.1653C37.1919 48.8821 37.6966 48.6726 38.1652 48.4014C41.571 46.429 44.9664 44.4378 48.3705 42.462C49.8965 41.5779 51.4758 40.8346 53.2765 40.6973C55.4051 40.5342 57.1715 41.6123 57.7672 43.4628C58.4195 45.4849 57.6762 47.4985 55.8514 48.6229C49.7146 52.3994 43.564 56.1673 37.4426 59.9765C35.156 61.3978 32.7785 61.7343 30.1916 61.015C26.1353 59.8872 22.0515 58.8573 18.0037 57.6917C16.8965 57.3741 16.3112 58.0917 15.4546 58.447C15.7979 59.0684 16.1172 59.6211 16.4193 60.179C17.1815 61.5849 16.8021 63.02 15.4357 63.8285C14.4961 64.3824 13.5463 64.918 12.5861 65.4353C11.2128 66.1734 9.76918 65.7786 8.99671 64.4191C6.1254 59.3619 3.25924 54.2985 0.398234 49.2288C-0.39827 47.8161 0.0257326 46.3707 1.44021 45.5501C2.31053 45.0455 3.18772 44.5545 4.06662 44.0653C5.63388 43.1915 7.01746 43.5863 7.9204 45.157C8.04056 45.3579 8.16072 45.557 8.32208 45.8299ZM14.4452 56.6772C14.9859 56.3665 15.4889 56.1227 15.9387 55.8051C16.5549 55.3674 17.166 55.3571 17.8767 55.5528C22.206 56.739 26.5473 57.8805 30.8765 59.0633C32.6841 59.5559 34.3939 59.4203 36.004 58.4298C42.3257 54.5389 48.644 50.6422 54.9588 46.7397C55.3455 46.4794 55.638 46.1014 55.7931 45.6617C56.3578 43.988 55.2661 42.6285 53.5048 42.7435C52.0543 42.8379 50.7823 43.449 49.5566 44.1597C46.1143 46.1532 42.6765 48.1559 39.2433 50.1678C37.7636 51.0381 36.186 51.5411 34.4694 51.3591C31.2817 51.0364 28.2519 50.0082 25.1826 49.1636C25.0514 49.1297 24.9287 49.0689 24.8223 48.985C24.7159 48.9012 24.6281 48.7961 24.5644 48.6764C24.5008 48.5568 24.4628 48.4253 24.4528 48.2901C24.4428 48.155 24.461 48.0193 24.5062 47.8916C24.6556 47.3646 25.1843 47.0779 25.7799 47.2049C25.9671 47.2444 26.149 47.3114 26.3361 47.3594C28.4252 47.9019 30.5075 48.4752 32.6069 48.9713C33.7999 49.2546 34.7046 48.6589 34.9483 47.562C35.1818 46.508 34.4848 45.5398 33.3673 45.2137C30.4491 44.364 27.5566 43.4765 24.6556 42.5959C23.7973 42.3349 22.9647 41.9693 22.0927 41.7822C20.4379 41.4303 18.9719 42.0775 17.578 42.8637C15.3241 44.1357 13.0925 45.4489 10.8524 46.7449C10.3563 47.0316 9.86188 47.3234 9.33144 47.6324C11.0412 50.6485 12.7166 53.6233 14.4452 56.6772ZM5.62358 45.624C5.48085 45.67 5.34098 45.7244 5.20473 45.787C4.27318 46.31 3.34278 46.8376 2.41353 47.3697C1.96549 47.6272 2.04446 47.9723 2.26075 48.3551C5.07713 53.3206 7.88892 58.2902 10.6961 63.2638C10.9828 63.7788 11.3038 63.8388 11.7913 63.5419C12.5415 63.0887 13.314 62.6733 14.0779 62.2407C14.8744 61.7875 14.9087 61.6742 14.471 60.9L10.4902 53.8619C9.05679 51.3317 7.62857 48.798 6.18319 46.2728C6.01857 46.0386 5.83111 45.8212 5.62358 45.624Z" fill="#02B2E9"/>
<path d="M19.8885 26.0031C19.8885 26.192 19.8885 26.3842 19.8885 26.5748C19.8542 27.2065 19.4765 27.6133 18.9135 27.6356C18.3504 27.6579 17.8337 27.2562 17.8664 26.6589C17.9024 26.0134 17.6054 25.8624 17.0767 25.6907C15.6245 25.2186 14.6185 24.2539 14.1945 22.7519C14.0229 22.1236 14.2872 21.6086 14.8589 21.4267C15.3944 21.255 15.9815 21.5005 16.1171 22.1133C16.5841 24.1921 19.7392 24.3792 21.0713 23.296C21.8094 22.6969 21.7339 21.5503 20.8498 21.0095C20.316 20.6834 19.6757 20.5203 19.068 20.3332C18.4157 20.1323 17.7256 20.0448 17.0887 19.8182C15.3721 19.1934 14.4743 17.9591 14.5018 16.385C14.5293 14.8109 15.5438 13.4359 17.1625 12.8934C17.6621 12.7218 17.8767 12.5364 17.8578 11.9785C17.8491 11.8386 17.8707 11.6985 17.9211 11.5677C17.9716 11.4369 18.0497 11.3186 18.1501 11.2208C18.2505 11.123 18.3708 11.048 18.5029 11.001C18.6349 10.954 18.7756 10.9361 18.9152 10.9485C19.0501 10.9472 19.1837 10.9745 19.3072 11.0287C19.4308 11.0829 19.5414 11.1626 19.6318 11.2628C19.7222 11.3629 19.7903 11.4811 19.8316 11.6095C19.8729 11.7379 19.8864 11.8736 19.8713 12.0077C19.837 12.5604 20.0739 12.7252 20.5443 12.866C21.1195 13.0433 21.6497 13.3425 22.0988 13.7433C22.5479 14.1441 22.9053 14.6371 23.1466 15.1885C23.4436 15.8219 23.2771 16.4176 22.7518 16.6803C22.2265 16.9429 21.6549 16.7283 21.3116 16.1172C20.5031 14.6804 18.9392 14.1963 17.535 14.9568C16.9257 15.2864 16.5463 15.779 16.5635 16.5017C16.5806 17.1884 17.0132 17.6192 17.6106 17.8252C18.3144 18.0655 19.0611 18.1685 19.7718 18.402C20.4693 18.5966 21.1456 18.8606 21.7905 19.1899C23.0814 19.9126 23.6788 21.0782 23.6032 22.5545C23.526 23.9621 22.7072 24.877 21.4867 25.4555C20.9634 25.6646 20.43 25.8474 19.8885 26.0031Z" fill="#02B2E9"/>
<path d="M5.91879 48.4393C5.92463 48.5775 5.90222 48.7155 5.85293 48.8448C5.80364 48.9741 5.7285 49.092 5.6321 49.1913C5.5357 49.2906 5.42008 49.3692 5.29228 49.4223C5.16448 49.4754 5.0272 49.5019 4.88882 49.5001C4.75011 49.5038 4.61208 49.4795 4.48301 49.4285C4.35394 49.3776 4.2365 49.301 4.13774 49.2036C4.03898 49.1061 3.96094 48.9897 3.90829 48.8613C3.85565 48.7329 3.8295 48.5952 3.8314 48.4564C3.83688 48.1882 3.9446 47.9322 4.13253 47.7408C4.32046 47.5493 4.57441 47.4369 4.84248 47.4265C4.98015 47.4202 5.11767 47.4417 5.24689 47.4896C5.37611 47.5375 5.49441 47.6108 5.59478 47.7053C5.69514 47.7997 5.77553 47.9134 5.83119 48.0394C5.88684 48.1655 5.91663 48.3015 5.91879 48.4393Z" fill="#02B2E9"/>
</svg>
