<svg width="60" height="64" viewBox="0 0 60 64" fill="none" xmlns="http://www.w3.org/2000/svg">
<path d="M29.0904 63.8183C24.5091 62.9151 22.1233 59.6678 20.1629 56.0155C19.4956 54.772 19.0132 53.4356 18.4462 52.139C18.3494 51.9148 18.2595 51.6857 18.1782 51.4882C16.5549 51.6857 14.9817 51.9265 13.3999 52.0576C10.9138 52.2635 8.44513 52.1556 6.04384 51.4151C1.30868 49.9525 -0.848855 46.2802 0.305978 41.6317C1.05282 38.6268 2.71073 36.0752 4.65043 33.6629C5.21748 32.959 5.82429 32.2867 6.41035 31.6027C5.54595 30.4704 4.63315 29.3697 3.81716 28.2126C2.44968 26.2868 1.35708 24.2282 0.843632 21.9272C-0.204016 17.2173 2.17826 13.4935 7.03271 12.2351C10.333 11.3801 13.6488 11.5528 16.9733 12.0492C17.3951 12.1123 17.8169 12.1803 18.2197 12.2451C18.8386 10.8638 19.4005 9.50083 20.0522 8.181C20.9912 6.21902 22.2781 4.42871 23.8556 2.89004C27.6261 -0.719172 32.3855 -0.722492 36.1577 2.89004C38.3083 4.97023 39.7207 7.49535 40.8738 10.1666C41.1625 10.8306 41.4184 11.513 41.7192 12.2584C42.4107 12.1538 43.1316 12.0392 43.8491 11.9446C47.056 11.5246 50.2577 11.415 53.3868 12.3796C56.554 13.3574 58.7547 15.2566 59.3045 18.5454C59.6364 20.5376 59.1714 22.4535 58.3882 24.3029C57.3509 26.7433 55.8296 28.8899 54.1025 30.9154C53.9297 31.1245 53.7464 31.3304 53.5441 31.5661C54.1216 32.2402 54.7059 32.8943 55.2608 33.5749C57.1452 35.8892 58.7668 38.3463 59.5724 41.2117C60.3124 43.8497 60.2017 46.3898 58.3623 48.641C56.9049 50.4273 54.8788 51.2973 52.6331 51.7538C49.3051 52.4295 45.9876 52.1489 42.6804 51.5745C42.4073 51.5264 42.1341 51.4832 41.8921 51.4433C41.2265 52.9375 40.6352 54.4317 39.9143 55.8544C38.7076 58.2617 37.1811 60.4547 34.9389 62.1149C33.7287 63.0064 32.3682 63.5161 30.9004 63.8183H29.0904ZM19.0634 31.7189C19.1446 33.6513 19.2224 35.3248 19.2777 36.9999C19.276 37.1831 19.325 37.3634 19.4198 37.5224C19.5146 37.6814 19.6517 37.8134 19.8171 37.9047C22.9104 39.9364 26.1516 41.7523 29.5157 43.3384C29.6606 43.4184 29.8248 43.4604 29.9919 43.4604C30.1591 43.4604 30.3233 43.4184 30.4682 43.3384C33.8336 41.7534 37.076 39.938 40.1702 37.9063C40.3341 37.8134 40.4703 37.6815 40.5657 37.5233C40.6611 37.3651 40.7124 37.186 40.7148 37.0032C40.9343 33.4023 40.9672 29.8047 40.611 26.2121C40.5667 25.9434 40.4155 25.7017 40.1892 25.5381C37.0807 23.4899 33.8009 21.6924 30.3835 20.1641C30.1389 20.0695 29.8657 20.0695 29.6211 20.1641C26.1853 21.6985 22.8891 23.506 19.767 25.5679C19.6633 25.6446 19.5764 25.7403 19.5114 25.8495C19.4464 25.9586 19.4046 26.079 19.3884 26.2038C19.2466 28.1279 19.1515 30.0487 19.0599 31.7189H19.0634ZM8.98452 34.2739C7.83314 35.8643 6.61261 37.3701 5.60991 38.9987C4.92955 40.1228 4.41411 41.3318 4.0782 42.5913C3.36594 45.2011 4.45854 46.9742 7.11742 47.8441C7.34044 47.9172 7.56863 47.9836 7.79684 48.0383C10.0322 48.5663 12.2917 48.4833 14.5391 48.2176C15.381 48.1197 16.2161 47.9703 17.0303 47.8491C16.65 45.8204 16.1089 43.9029 15.9827 41.9588C15.8686 40.199 15.1338 39.0767 13.6661 38.0856C12.0514 36.9982 10.6372 35.6419 8.98106 34.2739H8.98452ZM42.9311 47.8275C45.4084 48.299 47.8651 48.6144 50.3407 48.3156C51.5127 48.182 52.6606 47.8972 53.7533 47.4689C55.5599 46.7401 56.3603 45.1912 56.0664 43.3301C55.4942 39.7242 53.2036 37.0364 50.8922 34.3253C50.7677 34.4133 50.6968 34.4565 50.6329 34.508C48.6482 36.1283 46.6566 37.7436 44.6875 39.3789C44.4943 39.5567 44.3658 39.7896 44.321 40.043C44.06 41.572 43.8508 43.111 43.5846 44.6383C43.403 45.6942 43.1576 46.7384 42.9311 47.8275ZM38.0265 50.5601C37.9364 50.5103 37.8435 50.4654 37.7482 50.4257C35.2673 49.5441 32.7865 48.6576 30.2988 47.796C30.0603 47.7347 29.8075 47.7486 29.5779 47.8358C27.8889 48.4534 26.2137 49.1058 24.5229 49.7184C23.6862 50.0222 22.8252 50.263 21.8398 50.5751C22.6506 52.2352 23.3612 53.8622 24.2152 55.4095C25.0692 56.9568 26.1497 58.3513 27.6987 59.3458C29.2477 60.3402 30.7742 60.3585 32.2783 59.3458C32.9139 58.915 33.4942 58.4134 34.0071 57.8516C35.9156 55.7399 37.0376 53.2114 38.0265 50.5601ZM37.9262 13.0984C37.5165 12.1538 37.15 11.2091 36.7022 10.301C35.722 8.30883 34.6 6.40129 32.7658 4.98849C30.8779 3.54082 29.0731 3.55576 27.1904 5.01173C25.6829 6.17385 24.6422 7.69955 23.7899 9.32817C23.1502 10.5517 22.6126 11.8184 22.0611 13.0088C24.6093 13.9235 27.0279 14.7802 29.4344 15.665C29.6171 15.7424 29.8151 15.7808 30.0148 15.7776C30.2144 15.7744 30.411 15.7298 30.591 15.6468C31.4969 15.2649 32.4189 14.9135 33.357 14.5926C34.8507 14.0945 36.3478 13.6164 37.9262 13.0984ZM17.1047 15.8145C15.853 15.68 14.5772 15.5023 13.3013 15.4127C11.3115 15.2732 9.32509 15.3629 7.43552 16.0386C5.03595 16.8936 4.06783 18.5869 4.59338 20.9892C5.26761 24.0688 7.16237 26.4943 9.14702 28.8435C10.8084 27.5153 12.3608 26.1291 14.0689 24.952C15.2324 24.1502 15.8755 23.3035 16.0138 21.8791C16.2005 19.8736 16.7122 17.8963 17.1047 15.8145ZM42.8308 15.8742C42.8654 16.0402 42.893 16.1548 42.9155 16.2727C43.3443 18.5288 43.7938 20.7833 44.181 23.0462C44.2657 23.5442 44.4334 23.8762 44.8604 24.1502C45.4828 24.5569 46.0792 25.0035 46.6601 25.4667C48.0431 26.574 49.4262 27.6996 50.8317 28.8468C51.0806 28.5579 51.3503 28.2641 51.5975 27.9569C53.1742 25.9996 54.6039 23.9626 55.2781 21.5337C56.0958 18.5886 55.0067 16.6877 51.9485 15.8477C48.9265 15.0159 45.8908 15.3695 42.8308 15.8742ZM19.8967 42.4735L20.8475 46.9792L25.3424 45.5165L19.8967 42.4735ZM40.0907 42.4735L34.6554 45.5215L39.1502 46.9709C39.47 45.4501 39.7639 44.039 40.0907 42.4768V42.4735ZM44.7809 28.7455V34.6009L48.2022 31.6309L44.7809 28.7455ZM11.7817 31.6359L15.2393 34.6109V28.7256L11.7817 31.6359ZM20.9339 16.6844C20.6193 18.1204 20.3271 19.4585 20.0108 20.9095L25.2352 18.0341L20.9339 16.6844ZM38.9843 16.7076L34.7539 18.0358L39.9835 20.9045C39.6879 19.5764 39.4216 18.3628 39.1485 17.1592C39.103 17.0041 39.0481 16.8517 38.9843 16.7026V16.7076Z" fill="#082832"/>
</svg>
