<svg width="60" height="64" viewBox="0 0 60 64" fill="none" xmlns="http://www.w3.org/2000/svg">
<path d="M29.0904 63.6364C24.5091 62.7332 22.1233 59.4859 20.1629 55.8336C19.4956 54.5901 19.0132 53.2537 18.4462 51.9571C18.3494 51.733 18.2595 51.5038 18.1782 51.3063C16.5549 51.5038 14.9817 51.7446 13.3999 51.8757C10.9138 52.0816 8.44513 51.9737 6.04384 51.2332C1.30868 49.7706 -0.848855 46.0983 0.305978 41.4499C1.05282 38.445 2.71073 35.8933 4.65043 33.481C5.21748 32.7771 5.82429 32.1048 6.41035 31.4208C5.54595 30.2885 4.63315 29.1879 3.81716 28.0307C2.44968 26.1049 1.35708 24.0463 0.843632 21.7453C-0.204016 17.0354 2.17826 13.3117 7.03271 12.0532C10.333 11.1983 13.6488 11.3709 16.9733 11.8673C17.3951 11.9304 17.8169 11.9985 18.2197 12.0632C18.8386 10.6819 19.4005 9.31895 20.0522 7.99911C20.9912 6.03713 22.2781 4.24683 23.8556 2.70815C27.6261 -0.901057 32.3854 -0.904377 36.1577 2.70815C38.3083 4.78834 39.7207 7.31346 40.8738 9.98467C41.1625 10.6487 41.4184 11.3311 41.7192 12.0765C42.4107 11.9719 43.1316 11.8573 43.8491 11.7627C47.056 11.3427 50.2577 11.2331 53.3868 12.1977C56.554 13.1755 58.7547 15.0748 59.3045 18.3635C59.6364 20.3558 59.1714 22.2716 58.3882 24.121C57.3509 26.5615 55.8296 28.7081 54.1025 30.7335C53.9297 30.9427 53.7464 31.1485 53.5441 31.3843C54.1216 32.0583 54.7059 32.7124 55.2608 33.3931C57.1452 35.7073 58.7668 38.1644 59.5724 41.0298C60.3124 43.6678 60.2017 46.2079 58.3623 48.4591C56.9049 50.2454 54.8788 51.1154 52.6331 51.5719C49.3051 52.2476 45.9876 51.967 42.6804 51.3926C42.4073 51.3445 42.1341 51.3013 41.8921 51.2615C41.2265 52.7556 40.6352 54.2498 39.9143 55.6725C38.7076 58.0798 37.1811 60.2729 34.9389 61.933C33.7287 62.8245 32.3682 63.3342 30.9004 63.6364H29.0904ZM19.0634 31.537C19.1446 33.4694 19.2224 35.1429 19.2777 36.818C19.276 37.0012 19.325 37.1815 19.4198 37.3405C19.5146 37.4996 19.6517 37.6315 19.8171 37.7228C22.9104 39.7545 26.1516 41.5704 29.5157 43.1565C29.6606 43.2365 29.8248 43.2786 29.9919 43.2786C30.1591 43.2786 30.3233 43.2365 30.4682 43.1565C33.8336 41.5715 37.076 39.7561 40.1702 37.7244C40.3341 37.6315 40.4703 37.4996 40.5657 37.3414C40.6611 37.1832 40.7124 37.0041 40.7148 36.8213C40.9343 33.2204 40.9672 29.6228 40.611 26.0302C40.5667 25.7615 40.4155 25.5198 40.1892 25.3562C37.0807 23.308 33.8009 21.5105 30.3835 19.9822C30.1389 19.8876 29.8657 19.8876 29.6211 19.9822C26.1853 21.5166 22.8891 23.3242 19.767 25.3861C19.6633 25.4628 19.5764 25.5585 19.5114 25.6676C19.4464 25.7767 19.4046 25.8972 19.3884 26.0219C19.2466 27.946 19.1515 29.8669 19.0599 31.537H19.0634ZM8.98452 34.092C7.83314 35.6824 6.61261 37.1882 5.60991 38.8168C4.92955 39.9409 4.41411 41.1499 4.0782 42.4094C3.36594 45.0192 4.45854 46.7923 7.11742 47.6622C7.34044 47.7353 7.56863 47.8017 7.79684 47.8565C10.0322 48.3844 12.2917 48.3014 14.5391 48.0358C15.381 47.9378 16.2161 47.7884 17.0303 47.6672C16.65 45.6385 16.1089 43.721 15.9827 41.7769C15.8686 40.0171 15.1338 38.8949 13.6661 37.9037C12.0514 36.8163 10.6372 35.46 8.98106 34.092H8.98452ZM42.9311 47.6456C45.4084 48.1171 47.8651 48.4325 50.3407 48.1337C51.5127 48.0001 52.6606 47.7153 53.7533 47.287C55.5599 46.5582 56.3603 45.0093 56.0664 43.1482C55.4942 39.5423 53.2036 36.8545 50.8922 34.1435C50.7677 34.2314 50.6968 34.2746 50.6329 34.3261C48.6482 35.9464 46.6566 37.5617 44.6875 39.197C44.4943 39.3748 44.3658 39.6077 44.321 39.8611C44.06 41.3901 43.8508 42.9291 43.5846 44.4564C43.403 45.5123 43.1576 46.5565 42.9311 47.6456ZM38.0265 50.3783C37.9364 50.3284 37.8435 50.2835 37.7482 50.2438C35.2673 49.3622 32.7865 48.4757 30.2988 47.6141C30.0603 47.5528 29.8075 47.5667 29.5779 47.6539C27.8889 48.2715 26.2137 48.9239 24.5229 49.5365C23.6862 49.8404 22.8252 50.0811 21.8398 50.3932C22.6506 52.0534 23.3612 53.6803 24.2152 55.2276C25.0692 56.7749 26.1497 58.1694 27.6987 59.1639C29.2477 60.1583 30.7742 60.1766 32.2783 59.1639C32.9139 58.7331 33.4942 58.2316 34.0071 57.6697C35.9156 55.558 37.0376 53.0295 38.0265 50.3783ZM37.9262 12.9165C37.5165 11.9719 37.15 11.0273 36.7022 10.1191C35.722 8.12694 34.6 6.21941 32.7658 4.8066C30.8779 3.35894 29.0731 3.37388 27.1904 4.82985C25.6829 5.99197 24.6422 7.51766 23.7899 9.14629C23.1502 10.3698 22.6126 11.6365 22.0611 12.8269C24.6093 13.7416 27.0279 14.5983 29.4344 15.4832C29.6171 15.5605 29.8151 15.5989 30.0148 15.5957C30.2144 15.5926 30.411 15.5479 30.591 15.4649C31.4969 15.0831 32.4189 14.7317 33.357 14.4107C34.8507 13.9126 36.3478 13.4345 37.9262 12.9165ZM17.1047 15.6326C15.853 15.4981 14.5772 15.3205 13.3013 15.2308C11.3115 15.0914 9.32509 15.181 7.43552 15.8567C5.03595 16.7117 4.06783 18.4051 4.59338 20.8073C5.26761 23.8869 7.16237 26.3124 9.14702 28.6616C10.8084 27.3334 12.3608 25.9472 14.0689 24.7701C15.2324 23.9683 15.8755 23.1216 16.0138 21.6972C16.2005 19.6917 16.7122 17.7144 17.1047 15.6326ZM42.8308 15.6923C42.8654 15.8584 42.893 15.9729 42.9155 16.0908C43.3443 18.3469 43.7938 20.6015 44.181 22.8643C44.2657 23.3623 44.4334 23.6944 44.8604 23.9683C45.4828 24.375 46.0792 24.8216 46.6601 25.2848C48.0431 26.3921 49.4262 27.5177 50.8317 28.6649C51.0806 28.376 51.3503 28.0822 51.5975 27.775C53.1742 25.8177 54.6039 23.7807 55.2781 21.3519C56.0958 18.4067 55.0067 16.5058 51.9485 15.6658C48.9265 14.834 45.8908 15.1876 42.8308 15.6923ZM19.8967 42.2916L20.8475 46.7973L25.3424 45.3347L19.8967 42.2916ZM40.0907 42.2916L34.6554 45.3396L39.1502 46.789C39.47 45.2683 39.7639 43.8571 40.0907 42.2949V42.2916ZM44.7809 28.5636V34.419L48.2022 31.449L44.7809 28.5636ZM11.7817 31.454L15.2393 34.429V28.5437L11.7817 31.454ZM20.9339 16.5025C20.6193 17.9385 20.3271 19.2766 20.0108 20.7276L25.2352 17.8522L20.9339 16.5025ZM38.9843 16.5257L34.7539 17.8539L39.9835 20.7226C39.6879 19.3945 39.4216 18.1809 39.1485 16.9773C39.103 16.8222 39.0481 16.6698 38.9843 16.5208V16.5257Z" fill="#082832"/>
<path d="M30.0101 37.5684C29.2221 37.5724 28.4411 37.4262 27.7123 37.1383C26.9835 36.8504 26.3215 36.4265 25.7645 35.8911C25.2075 35.3558 24.7667 34.7197 24.4675 34.0196C24.1683 33.3195 24.0167 32.5694 24.0215 31.8126C24.0183 31.0561 24.1715 30.3065 24.4722 29.6073C24.7729 28.9081 25.2152 28.2731 25.7734 27.7392C26.3316 27.2054 26.9945 26.7833 27.7239 26.4973C28.4532 26.2113 29.2344 26.0673 30.0222 26.0734C30.8052 26.0728 31.5807 26.2205 32.3041 26.5082C33.0276 26.796 33.6848 27.2179 34.2381 27.75C34.7914 28.2821 35.2299 28.9139 35.5284 29.609C35.827 30.3042 35.9797 31.0491 35.9779 31.801C35.9845 32.5571 35.835 33.3069 35.5379 34.0072C35.2408 34.7074 34.802 35.3441 34.2471 35.8804C33.6921 36.4168 33.0319 36.8421 32.3046 37.1319C31.5773 37.4216 30.7975 37.57 30.0101 37.5684Z" fill="#082832"/>
</svg>
