<svg width="60" height="56" viewBox="0 0 60 56" fill="none" xmlns="http://www.w3.org/2000/svg">
<path d="M44.5438 0.773926C44.7905 0.988525 45.0877 1.17558 45.2838 1.42461C48.0961 4.89492 50.8964 8.37595 53.6848 11.8677C53.9468 12.2103 54.0928 12.6179 54.1042 13.0382C54.1338 17.2614 54.1227 21.4833 54.1227 25.7065V26.4409C54.8048 26.4409 55.4684 26.4295 56.132 26.4409C56.8945 26.4495 57.6238 26.7326 58.1666 27.2308C58.7095 27.729 59.0238 28.4036 59.0434 29.1128C59.0631 29.8221 58.7865 30.5108 58.2719 31.0344C57.7574 31.5579 57.0447 31.8756 56.2837 31.9207C56.1875 31.9207 56.0913 31.9264 55.9951 31.9264C42.9354 31.9264 29.8752 31.9264 16.8147 31.9264C15.2494 31.9264 14.0888 31.0531 13.8001 29.6909C13.7207 29.3076 13.7306 28.9128 13.8291 28.5333C13.9277 28.1538 14.1125 27.7984 14.3712 27.4911C14.6299 27.1837 14.9565 26.9315 15.3288 26.7515C15.7012 26.5716 16.1107 26.468 16.5298 26.4478C17.218 26.4203 17.9088 26.4478 18.6772 26.4478V25.7834C18.6772 21.5786 18.6858 17.3738 18.6673 13.169C18.6673 12.6182 18.7771 12.1442 19.1903 11.7472C19.5603 11.3926 19.6676 10.9794 19.6602 10.4848C19.6319 8.58901 19.6467 6.69205 19.6491 4.79508C19.6491 3.82766 19.955 3.54421 20.985 3.54191C22.4084 3.54191 23.8318 3.52585 25.2552 3.55109C25.6708 3.55798 25.9163 3.42142 26.158 3.1219C26.8019 2.32891 27.4852 1.56232 28.1525 0.785402L44.5438 0.773926ZM40.3501 26.4191V25.7386C40.3501 23.3057 40.3501 20.8732 40.3501 18.4411C40.3501 17.5701 40.6621 17.2786 41.5921 17.2763C43.3806 17.2702 45.1687 17.2702 46.9564 17.2763C47.9049 17.2763 48.2256 17.585 48.2268 18.4801C48.2268 20.9283 48.2268 23.3788 48.2268 25.8316V26.3927H52.1307V13.6407H36.4524V26.4191H40.3501ZM21.9372 11.7185C22.116 11.738 22.2221 11.7598 22.3282 11.7598C26.4047 11.7598 30.48 11.7678 34.5566 11.7449C34.7848 11.7449 35.082 11.5532 35.2313 11.3696C37.4712 8.62 39.6992 5.86158 41.9153 3.09435C42.0238 2.95894 42.1188 2.81434 42.2508 2.63532C42.1077 2.62155 42.0362 2.60778 41.9646 2.60778C37.7709 2.60778 33.5772 2.60089 29.3909 2.6204C29.2672 2.63385 29.1476 2.67047 29.0395 2.72806C28.9314 2.78565 28.8369 2.86302 28.7618 2.9555C26.5696 5.73878 24.3905 8.53125 22.2246 11.3329C22.1345 11.435 22.0568 11.5521 21.9372 11.7185ZM20.6939 13.635V26.3996H34.395V13.635H20.6939ZM36.4055 30.0926H55.6238C56.6106 30.0926 57.0916 29.7885 57.0879 29.1745C57.0842 28.5605 56.6019 28.2633 55.6152 28.2633H17.1786C17.0046 28.2633 16.8307 28.2541 16.6593 28.269C16.4002 28.2701 16.1522 28.3669 15.9698 28.5381C15.7874 28.7093 15.6856 28.9409 15.6867 29.182C15.6878 29.423 15.7919 29.6538 15.9759 29.8235C16.1599 29.9932 16.4088 30.0879 16.6679 30.0868C16.8591 30.1006 17.0527 30.0926 17.2452 30.0926H36.4055ZM51.1526 11.738L44.2823 3.21829L37.4157 11.738H51.1526ZM46.2262 26.4065V19.148H42.3667V26.4065H46.2262ZM21.656 8.50409L21.7694 8.53393L24.2943 5.40101H21.656V8.50409Z" fill="#02B2E9"/>
<path d="M27.6012 42.1116C29.1109 42.8919 30.6071 43.6987 32.144 44.4308C32.4449 44.5754 32.9395 44.5203 33.2874 44.4067C37.0531 43.1673 40.8114 41.897 44.5635 40.6392C47.118 39.7842 49.8513 40.9158 50.8393 43.2316C51.8273 45.5474 50.6531 48.1226 48.1726 49.1199C43.3622 51.0536 38.5283 52.9494 33.7475 54.9496C32.25 55.5762 30.8353 55.7059 29.2355 55.419C23.257 54.3449 17.26 53.3602 11.2704 52.3435C11.1135 52.3267 10.9558 52.3175 10.798 52.3159C10.798 53.0665 10.798 53.794 10.798 54.5227C10.798 55.4489 10.4699 55.7518 9.48682 55.7518C7.06351 55.7518 4.63979 55.7518 2.21566 55.7518C1.27084 55.7518 0.932874 55.4374 0.931641 54.5514C0.931641 49.5587 0.931641 44.5659 0.931641 39.5731C0.931641 38.647 1.25234 38.3498 2.24279 38.3498C4.53207 38.3498 6.82134 38.3555 9.11062 38.3417C9.45374 38.3378 9.79381 38.2812 10.1171 38.1742C14.37 36.7741 18.618 35.3557 22.8722 33.9568C23.2505 33.8331 23.6479 33.7672 24.0489 33.7617C26.3369 33.7445 28.6274 33.7376 30.9155 33.7617C33.4625 33.7846 35.4212 35.5978 35.4175 37.893C35.4143 38.9612 34.9655 39.9865 34.1657 40.7529C33.3659 41.5193 32.2776 41.9669 31.1301 42.0014C29.962 42.0289 28.7865 42.0014 27.6234 42.0014L27.6012 42.1116ZM27.3545 40.179C28.5275 40.179 29.6981 40.1997 30.8748 40.1664C31.2953 40.1571 31.7098 40.0709 32.0946 39.9128C32.5751 39.6972 32.9643 39.3384 33.2005 38.8935C33.4367 38.4485 33.5063 37.9429 33.3984 37.4569C33.1517 36.3713 32.2513 35.6151 31.0413 35.5978C28.6977 35.5646 26.3468 35.5841 23.9995 35.5898C23.8077 35.5991 23.6189 35.6378 23.4408 35.7046C19.3712 37.0534 15.3009 38.4022 11.2297 39.751C10.9077 39.8565 10.7881 40 10.7893 40.3248C10.8033 43.5288 10.8033 46.7325 10.7893 49.9358C10.7893 50.3272 10.9336 50.4419 11.3308 50.5096C17.7595 51.5838 24.1833 52.6832 30.6133 53.7458C31.0978 53.8197 31.5948 53.7685 32.0502 53.5978C37.1567 51.5746 42.2484 49.5193 47.345 47.4708C48.8757 46.8557 49.5898 45.3168 48.9978 43.9133C48.4057 42.5098 46.764 41.8545 45.1877 42.3847C41.4306 43.647 37.671 44.9002 33.9177 46.1717C32.9605 46.4965 32.0441 46.516 31.14 46.0421C28.5201 44.6879 25.8995 43.3345 23.278 41.9819C22.8154 41.7432 22.5268 41.415 22.6403 40.8963C22.7414 40.4372 23.1448 40.1859 23.7738 40.1836C24.9666 40.1756 26.1593 40.179 27.3545 40.179ZM8.78992 40.2134H2.94956V53.8996H8.78745L8.78992 40.2134Z" fill="#082832"/>
<path d="M37.4145 35.5456V33.7817H39.3054V35.5456H37.4145Z" fill="#02B2E9"/>
<path d="M43.2659 33.7993V35.5482H41.3541V33.7993H43.2659Z" fill="#02B2E9"/>
<path d="M47.1932 33.7925V35.5426H45.2913V33.7925H47.1932Z" fill="#02B2E9"/>
<path d="M37.4108 39.2081V37.4512H39.3189V39.2081H37.4108Z" fill="#02B2E9"/>
<path d="M41.3516 37.4487H43.2573V39.2126H41.3516V37.4487Z" fill="#02B2E9"/>
<path d="M51.1501 33.7812V35.5382H49.2395V33.7812H51.1501Z" fill="#02B2E9"/>
<path d="M45.3011 37.4497H47.1833V39.2204H45.3011V37.4497Z" fill="#02B2E9"/>
<path d="M22.6106 19.9961C22.6106 18.8485 22.6106 17.7066 22.6106 16.5613C22.6106 15.7718 22.9474 15.4447 23.7923 15.4413C26.2921 15.4336 28.7914 15.4336 31.2904 15.4413C32.1131 15.4413 32.4461 15.7603 32.4474 16.5246C32.4548 18.8496 32.4548 21.1746 32.4474 23.4997C32.4474 24.2789 32.0921 24.6002 31.246 24.6025C28.7651 24.6071 26.2847 24.6071 23.8046 24.6025C22.9708 24.6025 22.6156 24.2582 22.6119 23.4847C22.6069 22.3165 22.6106 21.1586 22.6106 19.9961ZM26.5145 17.3153H24.6261V19.078H26.5145V17.3153ZM28.5509 17.3004V19.0619H30.4443V17.3004H28.5509ZM24.6039 22.7285H26.5145V20.9761H24.6027L24.6039 22.7285ZM28.5509 20.9681V22.7319H30.4504V20.9681H28.5509Z" fill="#02B2E9"/>
</svg>
