<svg width="81" height="53" viewBox="0 0 81 53" fill="none" xmlns="http://www.w3.org/2000/svg">
<g clip-path="url(#clip0_327_211)">
<path d="M40.4601 44.0538H34.2217C33.1454 44.0538 32.7867 43.6951 32.8066 42.6192C32.8066 40.6267 33.0258 38.5346 32.9262 36.5022C32.745 35.5475 32.4012 34.6309 31.9097 33.7925C31.9097 33.653 31.4313 33.6131 31.1922 33.6131H24.8541C23.5785 33.6131 23.2596 33.3143 23.2795 32.059C23.2228 30.2974 23.276 28.5339 23.4389 26.7789C23.6481 25.0671 24.2905 23.4368 25.3054 22.0423C26.3202 20.6477 27.6741 19.5349 29.2389 18.809C29.5586 18.6628 29.834 18.4346 30.037 18.1477C30.24 17.8608 30.3635 17.5252 30.3949 17.1752C31.4396 11.1142 34.3687 5.53667 38.766 1.23533L39.5035 0.55789C40.2808 -0.099629 40.7392 -0.119554 41.4966 0.55789C44.206 2.98899 46.4133 5.92665 47.9941 9.20525C49.3044 11.8917 50.2303 14.749 50.7446 17.6932C50.7862 17.8722 50.8643 18.0407 50.9741 18.1881C51.0838 18.3356 51.2228 18.4588 51.3824 18.55C53.3432 19.4375 54.9941 20.8903 56.1234 22.7221C57.2527 24.5539 57.8088 26.6813 57.7205 28.8312V32.1387C57.7205 33.3541 57.4016 33.653 56.2057 33.6729C54.093 33.6729 52.0003 33.6729 49.8876 33.6729C49.6393 33.6324 49.3851 33.6912 49.18 33.8366C48.9748 33.9821 48.8352 34.2024 48.7913 34.45C48.3025 35.5167 48.077 36.6852 48.1336 37.8571C48.2333 39.5028 48.2333 41.1529 48.1336 42.7985C48.1336 43.7549 47.7748 44.1135 46.7982 44.1334L40.4601 44.0538ZM33.0857 14.9635C32.986 15.3022 32.8863 15.6211 32.8066 15.9398C31.4294 22.5586 32.2118 29.4444 35.0389 35.5857C35.103 35.7858 35.2368 35.9562 35.4161 36.0659C35.5954 36.1756 35.8081 36.2173 36.0155 36.1834C38.9653 36.1834 41.9948 36.1834 44.9048 36.1834C45.1519 36.2201 45.4038 36.1626 45.6105 36.0223C45.8172 35.8821 45.9637 35.6694 46.0209 35.4263C47.6465 31.6321 48.6169 27.5899 48.891 23.4714C49.0339 20.6378 48.7244 17.7995 47.9742 15.0632L33.0857 14.9635ZM40.5 2.63006C37.5283 5.42872 35.2374 8.87078 33.8031 12.6921H47.2566C45.8645 8.8346 43.5441 5.37894 40.5 2.63006ZM49.9075 31.3417H55.4682C55.9865 26.2609 54.093 21.738 51.1831 20.941C51.1831 22.6545 51.0635 24.388 50.8442 26.1214C50.625 27.8549 50.2463 29.5684 49.9075 31.3417ZM25.5318 31.3417H30.9131L29.6575 20.9609C26.3489 22.774 25.0733 26.0417 25.5318 31.3616V31.3417ZM35.0389 41.7624H45.9213V38.3951H35.0389V41.7624Z" fill="#082832"/>
<path d="M79.4054 33.7925C80.1628 33.7925 80.7608 34.0914 80.8006 34.8684C80.8405 35.6455 80.3023 35.8846 79.6048 36.0041C76.1619 36.4044 72.891 37.7264 70.1372 39.8306C67.3834 41.9347 65.2489 44.743 63.9588 47.959C63.6798 48.5767 63.4207 49.3338 62.444 48.9354C61.4674 48.5369 61.5272 48.0387 61.9458 46.9429C63.4119 43.391 65.806 40.2982 68.8776 37.9883C71.9491 35.6783 75.5852 34.2361 79.4054 33.8124V33.7925Z" fill="#02B2E9"/>
<path d="M1.73395 33.8125C6.00834 34.2922 10.0344 36.0648 13.2741 38.8933C15.7831 41.0704 17.7545 43.7981 19.0341 46.8632C19.2248 47.202 19.2884 47.5976 19.2135 47.979C19.1343 48.1769 19.0158 48.3566 18.865 48.5073C18.7143 48.658 18.5345 48.7765 18.3365 48.8557C18.1655 48.8618 17.9952 48.8312 17.837 48.7659C17.6789 48.7006 17.5365 48.6021 17.4197 48.4771C17.1857 48.1557 17.0041 47.7993 16.8816 47.4211C15.5656 44.2983 13.4334 41.587 10.7087 39.5713C7.98403 37.5556 4.76708 36.3097 1.3951 35.9643C0.697507 35.9643 0.23914 35.5459 0.199278 34.8286C0.159416 34.1113 0.797189 33.7726 1.73395 33.8125Z" fill="#02B2E9"/>
<path d="M8.61025 42.918C8.62101 43.4766 8.51916 44.0316 8.31087 44.5501C8.10259 45.0686 7.79208 45.5398 7.39783 45.9358C7.00357 46.3318 6.53364 46.6444 6.01601 46.8551C5.49838 47.0657 4.94363 47.1701 4.38481 47.162C3.24634 47.1834 2.14583 46.753 1.32404 45.965C0.502246 45.1771 0.0261571 44.0958 0 42.9578C0.0201317 41.8031 0.485262 40.7007 1.29843 39.8804C2.1116 39.06 3.21007 38.5851 4.36492 38.5544C4.93029 38.5622 5.48858 38.6813 6.00792 38.9048C6.52726 39.1283 6.99746 39.4519 7.39169 39.8571C7.78591 40.2623 8.09644 40.7412 8.30552 41.2664C8.5146 41.7916 8.61816 42.3528 8.61025 42.918ZM4.40476 40.7661C3.84053 40.7983 3.30717 41.0343 2.9039 41.4301C2.50063 41.8259 2.25488 42.3546 2.21232 42.918C2.25744 43.4624 2.50613 43.9697 2.90877 44.339C3.3114 44.7083 3.8384 44.9123 4.38481 44.9105C4.91341 44.9105 5.4204 44.7005 5.79418 44.3269C6.16796 43.9532 6.37792 43.4464 6.37792 42.918C6.37082 42.3796 6.16576 41.8627 5.80184 41.4659C5.43792 41.069 4.94062 40.8199 4.40476 40.7661Z" fill="#02B2E9"/>
<path d="M76.5354 47.162C75.9773 47.165 75.4245 47.0553 74.9098 46.8396C74.3952 46.6238 73.9295 46.3064 73.5405 45.9064C73.1515 45.5064 72.8473 45.032 72.6462 44.5116C72.445 43.9913 72.351 43.4357 72.3698 42.8781C72.3645 41.7401 72.8102 40.6464 73.6096 39.8361C74.4089 39.0258 75.4967 38.565 76.635 38.5544C77.7879 38.5904 78.8821 39.0711 79.6884 39.8957C80.4946 40.7202 80.9503 41.8247 80.9601 42.9778C80.9472 43.5438 80.8222 44.1017 80.5923 44.6192C80.3625 45.1366 80.0322 45.6034 79.6208 45.9925C79.2093 46.3816 78.7248 46.6853 78.1952 46.886C77.6656 47.0868 77.1015 47.1806 76.5354 47.162ZM76.5354 40.7661C75.9943 40.8109 75.4896 41.0567 75.1206 41.455C74.7517 41.8533 74.5454 42.3752 74.5423 42.918C74.5423 43.4464 74.7523 43.9532 75.1261 44.3269C75.4998 44.7005 76.0068 44.9105 76.5354 44.9105C77.0929 44.9232 77.6346 44.7251 78.0522 44.3556C78.4698 43.9862 78.7325 43.4727 78.7876 42.918C78.7429 42.3655 78.5043 41.8467 78.1141 41.453C77.7239 41.0592 77.2071 40.816 76.655 40.7661H76.5354Z" fill="#02B2E9"/>
<path d="M8.61025 26.9981C8.61831 27.555 8.51447 28.1079 8.30497 28.6241C8.09548 29.1402 7.78457 29.609 7.39059 30.0029C6.99661 30.3967 6.52761 30.7076 6.01133 30.917C5.49504 31.1264 4.94192 31.2302 4.38481 31.2222C3.81943 31.2327 3.25753 31.1318 2.73116 30.9252C2.20479 30.7187 1.72429 30.4104 1.3171 30.0182C0.909913 29.6259 0.584007 29.1573 0.358015 28.6391C0.132024 28.1209 0.0103731 27.5633 0 26.9981C0.0204744 25.8419 0.489023 24.7388 1.30694 23.9212C2.12487 23.1035 3.22827 22.6351 4.38481 22.6146C4.95019 22.625 5.50799 22.7466 6.02635 22.9725C6.54471 23.1984 7.01348 23.5242 7.40586 23.9313C7.79824 24.3384 8.1066 24.8187 8.31324 25.3449C8.51989 25.8711 8.62082 26.4329 8.61025 26.9981ZM6.39787 26.9981C6.41704 26.7249 6.37968 26.4508 6.28814 26.1927C6.1966 25.9346 6.05286 25.6982 5.86583 25.4981C5.67881 25.2981 5.45252 25.1387 5.20114 25.03C4.94976 24.9212 4.67866 24.8655 4.40476 24.8661C4.11539 24.8604 3.82795 24.9141 3.5602 25.024C3.29246 25.1338 3.05014 25.2975 2.84831 25.5049C2.64648 25.7123 2.48943 25.9589 2.38689 26.2295C2.28435 26.5 2.23851 26.7888 2.25222 27.0778C2.25082 27.3571 2.30814 27.6336 2.42053 27.8893C2.53292 28.145 2.69784 28.3742 2.90457 28.5621C3.11131 28.75 3.35523 28.8923 3.62054 28.9799C3.88585 29.0674 4.16661 29.0982 4.4446 29.0703C4.71334 29.0654 4.97837 29.0062 5.22364 28.8963C5.46892 28.7864 5.68939 28.628 5.87185 28.4307C6.05432 28.2334 6.19501 28.0013 6.2854 27.7482C6.3758 27.4952 6.41404 27.2265 6.39787 26.9582V26.9981Z" fill="#02B2E9"/>
<path d="M81 27.018C80.9738 28.156 80.4978 29.2373 79.676 30.0252C78.8542 30.8132 77.7536 31.2435 76.6151 31.2222C76.0572 31.2304 75.5034 31.1259 74.9868 30.915C74.4702 30.7041 74.0016 30.3912 73.6089 29.9949C73.2162 29.5986 72.9076 29.1272 72.7016 28.6088C72.4955 28.0904 72.3962 27.5358 72.4097 26.9782C72.3991 26.4139 72.5002 25.8532 72.7071 25.3281C72.914 24.803 73.2226 24.324 73.6152 23.9185C74.0078 23.513 74.4768 23.1891 74.995 22.9654C75.5133 22.7416 76.0706 22.6224 76.635 22.6146C77.7915 22.6403 78.8929 23.1138 79.7071 23.9351C80.5213 24.7565 80.9847 25.8618 81 27.018ZM76.7347 24.8263C76.4615 24.8071 76.1873 24.8445 75.9291 24.936C75.671 25.0275 75.4344 25.1712 75.2343 25.3582C75.0342 25.5451 74.8748 25.7713 74.766 26.0226C74.6572 26.2739 74.6014 26.5449 74.6021 26.8188C74.5829 27.0919 74.6203 27.3661 74.7118 27.6242C74.8034 27.8822 74.9471 28.1187 75.1341 28.3187C75.3211 28.5188 75.5474 28.6782 75.7988 28.7869C76.0502 28.8956 76.3213 28.9514 76.5952 28.9507C76.87 28.9651 77.145 28.9252 77.4044 28.8334C77.6638 28.7416 77.9026 28.5996 78.1071 28.4155C78.3116 28.2314 78.4779 28.0088 78.5963 27.7605C78.7148 27.5122 78.7832 27.2429 78.7976 26.9682C78.812 26.6935 78.7721 26.4186 78.6802 26.1592C78.5883 25.8999 78.4463 25.6612 78.2622 25.4568C78.078 25.2523 77.8554 25.0861 77.607 24.9677C77.3586 24.8493 77.0893 24.7809 76.8145 24.7665L76.7347 24.8263Z" fill="#02B2E9"/>
<path d="M9.22812 29.4888L10.125 29.6681C12.5562 30.263 14.7749 31.5202 16.5342 33.3C18.2935 35.0799 19.5246 37.3126 20.0905 39.7501C20.3297 40.6865 20.0905 41.3042 19.3929 41.4636C18.6953 41.623 18.1572 41.2046 17.9579 40.288C17.522 38.3781 16.6019 36.6123 15.2859 35.1607C13.97 33.7091 12.3025 32.6204 10.4439 31.9993C9.97867 31.8656 9.53058 31.6784 9.10854 31.4414C8.93838 31.3208 8.79787 31.163 8.69773 30.98C8.59759 30.797 8.54043 30.5937 8.53052 30.3854C8.55045 30.0268 9.02881 29.688 9.22812 29.4888Z" fill="#02B2E9"/>
<path d="M61.8661 41.4835C61.1087 41.4835 60.7101 40.806 60.9094 39.8696C61.5094 37.0469 63.0393 34.5071 65.2544 32.6568C66.861 31.2882 68.7441 30.2823 70.7752 29.7079C71.0344 29.7079 71.3533 29.4887 71.5526 29.5883C71.9616 29.7205 72.3086 29.9967 72.5292 30.3654C72.5309 30.5598 72.4888 30.7521 72.406 30.928C72.3232 31.1039 72.2018 31.259 72.0509 31.3816C71.6683 31.6267 71.252 31.8147 70.8151 31.9395C68.9001 32.5369 67.1766 33.6289 65.8188 35.1052C64.461 36.5816 63.5169 38.39 63.0819 40.3478C62.9025 41.1647 62.5836 41.5034 61.8661 41.4835Z" fill="#02B2E9"/>
<path d="M41.5963 49.1744C41.5963 50.0711 41.5963 50.9477 41.5963 51.8244C41.5963 52.7011 41.2773 52.9801 40.5798 53C40.4252 53.0188 40.2683 53.0025 40.1209 52.9524C39.9735 52.9023 39.8392 52.8196 39.7281 52.7105C39.6171 52.6013 39.5321 52.4686 39.4794 52.3221C39.4267 52.1756 39.4077 52.0191 39.4238 51.8643C39.4238 50.0711 39.4238 48.2778 39.4238 46.4846C39.4109 46.3287 39.4328 46.1719 39.4879 46.0256C39.5431 45.8792 39.63 45.7469 39.7426 45.6382C39.8551 45.5295 39.9904 45.4472 40.1386 45.3972C40.2868 45.3471 40.4443 45.3306 40.5997 45.3489C40.745 45.3531 40.8878 45.3879 41.0188 45.4509C41.1498 45.5139 41.266 45.6038 41.36 45.7147C41.454 45.8255 41.5236 45.9549 41.5643 46.0944C41.605 46.234 41.6159 46.3804 41.5963 46.5244C41.6162 47.421 41.5963 48.2977 41.5963 49.1744Z" fill="#082832"/>
<path d="M35.5572 47.8794C35.5572 48.2978 35.5572 48.7361 35.5572 49.1546C35.5572 49.573 35.0988 50.35 34.461 50.2106C34.2201 50.1353 34.0006 50.0039 33.8204 49.8272C33.6402 49.6506 33.5045 49.4337 33.4245 49.1944C33.325 48.2872 33.325 47.3719 33.4245 46.4647C33.4155 46.3167 33.4384 46.1685 33.4916 46.0301C33.5447 45.8918 33.627 45.7664 33.7328 45.6625C33.8386 45.5586 33.9655 45.4786 34.1049 45.428C34.2442 45.3773 34.3928 45.3571 34.5407 45.3688C34.6864 45.3684 34.8306 45.3981 34.9643 45.4561C35.0979 45.5141 35.2181 45.5991 35.3173 45.7057C35.4165 45.8124 35.4926 45.9384 35.5407 46.0759C35.5888 46.2134 35.608 46.3593 35.597 46.5045C35.5771 46.9628 35.5572 47.4211 35.5572 47.8794Z" fill="#082832"/>
<path d="M47.6553 47.8794C47.6553 48.2978 47.6553 48.7361 47.6553 49.1546C47.6553 49.573 47.1969 50.35 46.5591 50.2106C46.3182 50.1353 46.0986 50.0039 45.9185 49.8272C45.7383 49.6506 45.6027 49.4337 45.5227 49.1944C45.4231 48.2872 45.4231 47.3719 45.5227 46.4647C45.5137 46.3167 45.5365 46.1685 45.5897 46.0301C45.6429 45.8918 45.7251 45.7664 45.8309 45.6625C45.9367 45.5586 46.0636 45.4786 46.203 45.428C46.3424 45.3773 46.491 45.3571 46.6388 45.3688C46.7845 45.3684 46.9287 45.3981 47.0623 45.4561C47.196 45.5141 47.3162 45.5991 47.4154 45.7057C47.5146 45.8124 47.5907 45.9384 47.6388 46.0759C47.687 46.2134 47.7062 46.3593 47.6952 46.5045C47.6752 46.9628 47.6553 47.4211 47.6553 47.8794Z" fill="#082832"/>
<path d="M40.4801 30.8636C39.2975 30.8636 38.1414 30.513 37.1581 29.8562C36.1748 29.1994 35.4084 28.2658 34.9559 27.1736C34.5033 26.0814 34.3849 24.8795 34.6156 23.72C34.8463 22.5605 35.4158 21.4954 36.252 20.6594C37.0882 19.8235 38.1537 19.2542 39.3136 19.0235C40.4734 18.7929 41.6757 18.9113 42.7682 19.3637C43.8608 19.8161 44.7947 20.5823 45.4517 21.5653C46.1087 22.5482 46.4594 23.7039 46.4594 24.8861C46.4239 26.4603 45.7825 27.9602 44.6688 29.0735C43.555 30.1869 42.0547 30.8281 40.4801 30.8636ZM40.4801 28.6519C40.9856 28.6628 41.4881 28.5713 41.9573 28.3829C42.4265 28.1945 42.8526 27.9131 43.2102 27.5557C43.5677 27.1982 43.8492 26.7722 44.0377 26.3031C44.2262 25.8341 44.3177 25.3317 44.3068 24.8264C44.3068 23.8065 43.9015 22.8284 43.1801 22.1072C42.4587 21.386 41.4803 20.9809 40.4601 20.9809C39.4399 20.9809 38.4615 21.386 37.7401 22.1072C37.0187 22.8284 36.6134 23.8065 36.6134 24.8264C36.6049 25.3379 36.7008 25.8457 36.8952 26.319C37.0895 26.7922 37.3783 27.2209 37.7439 27.5789C38.1094 27.9368 38.5441 28.2166 39.0214 28.4011C39.4986 28.5856 40.0085 28.6709 40.5199 28.6519H40.4801Z" fill="#082832"/>
</g>
<defs>
<clipPath id="clip0_327_211">
<rect width="81" height="53" fill="white"/>
</clipPath>
</defs>
</svg>
