<svg width="58" height="62" viewBox="0 0 58 62" fill="none" xmlns="http://www.w3.org/2000/svg">
<g clip-path="url(#clip0_224_88)">
<path d="M11.972 48.8256H52.1743C52.4017 48.8612 52.609 48.9774 52.7587 49.1531C52.9084 49.3289 52.9907 49.5527 52.9907 49.7841C52.9907 50.0155 52.9084 50.2393 52.7587 50.415C52.609 50.5908 52.4017 50.7069 52.1743 50.7425H45.8798C46.584 51.2887 47.1565 51.9879 47.5543 52.7877C47.9521 53.5876 48.165 54.4674 48.177 55.3616C48.2076 56.2439 48.0324 57.1212 47.6654 57.9233C47.2984 58.7253 46.7499 59.4299 46.0636 59.9807C44.9475 60.886 43.5388 61.3464 42.1066 61.2739C40.6744 61.2015 39.3189 60.6014 38.2988 59.5881C37.7095 59.0146 37.252 58.3184 36.9583 57.5485C36.6647 56.7785 36.542 55.9533 36.5988 55.1307C36.6543 54.2913 36.8881 53.4735 37.2843 52.7325C37.6806 51.9915 38.2302 51.3444 38.8961 50.8349H22.907C23.6138 51.3788 24.188 52.0774 24.5861 52.8778C24.9841 53.6782 25.1956 54.5592 25.2043 55.454C25.2097 56.3513 25.0045 57.2373 24.6053 58.0399C24.2061 58.8425 23.6243 59.5391 22.907 60.0731C21.7843 60.963 20.3758 61.4075 18.9488 61.3224C17.5217 61.2372 16.1753 60.6283 15.1652 59.6113C14.5798 59.0319 14.1281 58.3303 13.8423 57.556C13.5565 56.7817 13.4434 55.9538 13.5111 55.1307C13.5651 54.2909 13.7983 53.4726 14.1946 52.7314C14.591 51.9902 15.1414 51.3434 15.8084 50.8349H10.295C10.102 50.8586 9.90632 50.8231 9.73372 50.7331C9.56111 50.6431 9.41955 50.5027 9.32766 50.3304C9.23577 50.1582 9.19778 49.962 9.21871 49.7676C9.23964 49.5733 9.31858 49.3898 9.44502 49.2413C10.4558 47.5553 11.5125 45.8463 12.5003 44.1372C12.6755 43.8296 12.7404 43.4709 12.6841 43.121C11.2598 34.9605 9.82017 26.8078 8.36522 18.6627C8.20442 17.8544 8.0436 17.0691 7.92874 16.3532C7.92284 16.2022 7.86806 16.0573 7.77268 15.9406C7.67729 15.8238 7.54657 15.7416 7.40041 15.7065L1.4964 13.651C0.853159 13.42 0.57752 13.0043 0.669411 12.4731C0.761302 11.9419 1.33561 11.5493 2.09371 11.8265C4.02342 12.4731 5.93014 13.1429 7.8139 13.8126C9.69767 14.4824 9.46797 14.2053 9.85851 16.1222C10.1112 17.531 10.341 18.9168 10.5937 20.3025C10.6292 20.4443 10.6753 20.5833 10.7315 20.7182H19.0706C18.2259 19.0413 17.7385 17.2056 17.6396 15.3286C17.5407 13.4515 17.8325 11.5743 18.4963 9.81708C19.4318 7.16414 21.1969 4.88722 23.5273 3.32722C26.0178 1.63633 28.9951 0.822369 31.9943 1.01245C34.9935 1.20253 37.8456 2.38597 40.1052 4.3779C42.3647 6.36984 43.9043 9.05808 44.4835 12.0227C45.0627 14.9873 44.649 18.0613 43.3068 20.7644H52.9094C54.1499 20.7644 54.4256 21.1109 54.2189 22.358C53.009 29.3791 51.8067 36.4002 50.6121 43.4212C50.4054 44.6222 50.1987 44.807 48.9582 44.807H15.0962C14.8792 44.7785 14.6588 44.8217 14.4682 44.93C14.2776 45.0383 14.1273 45.2058 14.0396 45.4074C13.4193 46.516 12.7301 47.5322 11.972 48.8256ZM52.3351 22.6352H52.1054H42.4338C42.2078 22.6635 42.0017 22.7795 41.8595 22.9585C41.2393 23.6052 40.6878 24.2981 40.0676 24.8986C39.2467 25.6619 38.5968 26.5922 38.1611 27.6275C37.7254 28.6628 37.5139 29.7795 37.5406 30.9034C37.5865 31.8189 37.5865 32.7362 37.5406 33.6518C37.333 35.2035 36.5724 36.6268 35.4 37.6575C34.2276 38.6882 32.7231 39.2563 31.1656 39.2563C29.6082 39.2563 28.1038 38.6882 26.9314 37.6575C25.7591 36.6268 24.9984 35.2035 24.7908 33.6518C24.7908 32.5663 24.7908 31.3422 24.7908 30.3491C24.7643 29.2487 24.5189 28.1647 24.0691 27.1612C23.6193 26.1576 22.9743 25.2548 22.1719 24.5059C21.6435 23.9978 21.1841 23.4204 20.6557 22.9123C20.4691 22.7123 20.2154 22.5888 19.9436 22.5659H11.6275H11.168L14.7517 42.7053H48.9352L52.3351 22.6352ZM35.611 31.6193C35.6939 30.511 35.8395 29.4083 36.0474 28.3167C36.5197 26.4262 37.5439 24.7211 38.9879 23.4204C40.7824 21.8657 42.0648 19.7997 42.6655 17.496C43.2661 15.1922 43.1567 12.7595 42.3515 10.5197C41.5464 8.27995 40.0836 6.3388 38.1567 4.95339C36.2299 3.56798 33.93 2.80361 31.5615 2.76146C29.193 2.71932 26.8675 3.40142 24.8932 4.71742C22.9188 6.03341 21.3885 7.92121 20.505 10.1309C19.6215 12.3407 19.4265 14.768 19.9457 17.0917C20.4649 19.4153 21.6737 21.5257 23.4123 23.1433C25.0276 24.6104 26.0906 26.5925 26.4219 28.7555C26.5597 29.6793 26.6057 30.6262 26.6746 31.5501H27.7312V30.8341C27.7312 26.4228 27.7312 22.0116 27.7312 17.6004C27.7312 16.053 26.6975 15.2908 26.1003 13.9975L24.1246 16.5379C24.0645 16.6763 23.9738 16.7991 23.8593 16.8969C23.7449 16.9948 23.6097 17.0651 23.4642 17.1025C23.3187 17.14 23.1666 17.1436 23.0195 17.113C22.8724 17.0825 22.7342 17.0186 22.6154 16.9263C22.4965 16.8339 22.4 16.7156 22.3335 16.5802C22.267 16.4448 22.2321 16.2959 22.2315 16.1449C22.2308 15.9939 22.2644 15.8447 22.3297 15.7087C22.3951 15.5727 22.4903 15.4535 22.6084 15.3601L25.1124 12.1036C25.8016 11.2029 26.4219 11.226 27.0881 12.1036L28.6732 14.4132C29.3853 13.4893 30.0056 12.6579 30.6718 11.8265C30.7545 11.6826 30.8734 11.5631 31.0166 11.48C31.1597 11.397 31.322 11.3532 31.4873 11.3532C31.6526 11.3532 31.815 11.397 31.9581 11.48C32.1013 11.5631 32.2202 11.6826 32.3029 11.8265L32.7623 12.4731L34.1866 14.5286C34.8987 13.6048 35.5191 12.7502 36.1853 11.9188C36.8515 11.0873 37.3339 11.2721 37.7245 11.9188C38.6204 13.166 39.4703 14.4362 40.2514 15.7527C40.3158 15.9161 40.337 16.0935 40.3128 16.2675C40.2887 16.4416 40.22 16.6063 40.1136 16.7458C39.809 16.9477 39.4381 17.0223 39.0798 16.9537C38.8271 16.9537 38.5974 16.6072 38.4136 16.3532C37.9082 15.6372 37.4258 14.8982 36.8975 14.0436C36.2772 14.8982 35.6569 15.6603 35.1055 16.4686C34.9355 16.7303 34.8402 17.0339 34.8299 17.3463C34.8299 21.8499 34.8299 26.3305 34.8299 30.8341C34.8299 31.042 34.8299 31.2729 34.8299 31.4808L35.611 31.6193ZM32.8313 31.6193C32.8313 31.4808 32.8313 31.4115 32.8313 31.3653V16.4917C32.8683 16.34 32.8683 16.1815 32.8313 16.0298C32.4177 15.3831 31.9812 14.7365 31.4988 14.0205C30.9475 14.7134 30.4421 15.3138 29.9827 15.9605C29.7676 16.2923 29.641 16.674 29.615 17.0691C29.615 21.6883 29.615 26.3074 29.615 30.9265C29.615 31.1344 29.615 31.3653 29.615 31.5963L32.8313 31.6193ZM46.1554 55.4078C46.1509 54.6359 45.9188 53.8826 45.4884 53.2433C45.058 52.604 44.4487 52.1073 43.7376 51.8161C43.0264 51.525 42.2453 51.4524 41.4931 51.6074C40.7409 51.7625 40.0514 52.1384 39.5116 52.6874C38.9719 53.2365 38.6062 53.9342 38.4609 54.6922C38.3155 55.4502 38.397 56.2345 38.695 56.946C38.9931 57.6574 39.4943 58.264 40.1353 58.6891C40.7763 59.1142 41.5282 59.3386 42.296 59.3341C42.8096 59.3373 43.3186 59.2369 43.7928 59.0387C44.267 58.8405 44.6968 58.5486 45.0567 58.1803C45.4166 57.8119 45.6994 57.3747 45.8882 56.8945C46.0769 56.4143 46.1677 55.9009 46.1554 55.3847V55.4078ZM23.1827 55.4078C23.1872 54.6349 22.9635 53.878 22.5396 53.2331C22.1158 52.5882 21.511 52.0843 20.802 51.7853C20.093 51.4864 19.3116 51.4058 18.557 51.5538C17.8024 51.7018 17.1085 52.0717 16.5633 52.6166C16.018 53.1615 15.646 53.8569 15.4943 54.6147C15.3426 55.3725 15.4182 56.1585 15.7113 56.873C16.0045 57.5876 16.502 58.1985 17.141 58.6285C17.7799 59.0584 18.5314 59.2879 19.3003 59.2879C19.8137 59.3033 20.325 59.215 20.8038 59.0281C21.2826 58.8412 21.7191 58.5596 22.0876 58.1999C22.4561 57.8402 22.749 57.4097 22.9489 56.9341C23.1489 56.4584 23.2519 55.9473 23.2517 55.4309L23.1827 55.4078ZM35.3812 33.5132H26.6056C26.7586 34.5734 27.2864 35.5427 28.0921 36.2437C28.8979 36.9448 29.9279 37.3306 30.9935 37.3306C32.0591 37.3306 33.089 36.9448 33.8948 36.2437C34.7006 35.5427 35.2282 34.5734 35.3812 33.5132Z" fill="#02B2E9"/>
<path d="M53.7594 8.40868C53.7594 9.32748 53.3964 10.2087 52.7501 10.8584C52.1039 11.508 51.2274 11.873 50.3135 11.873C49.3996 11.873 48.5231 11.508 47.8768 10.8584C47.2306 10.2087 46.8676 9.32748 46.8676 8.40868C46.8676 7.48988 47.2306 6.60869 47.8768 5.959C48.5231 5.30931 49.3996 4.94434 50.3135 4.94434C51.2274 4.94434 52.1039 5.30931 52.7501 5.959C53.3964 6.60869 53.7594 7.48988 53.7594 8.40868ZM48.8204 8.40868C48.8662 8.78358 49.0467 9.12866 49.3281 9.37893C49.6095 9.62921 49.9723 9.76736 50.348 9.76736C50.7237 9.76736 51.0864 9.62921 51.3678 9.37893C51.6492 9.12866 51.8298 8.78358 51.8756 8.40868C51.8756 8.20958 51.8363 8.01248 51.7598 7.82882C51.6833 7.64516 51.5713 7.4786 51.4302 7.3389C51.2891 7.19919 51.1218 7.0891 50.938 7.01503C50.7542 6.94096 50.5575 6.90441 50.3595 6.90748C50.1604 6.90442 49.9626 6.94082 49.7775 7.01461C49.5923 7.0884 49.4235 7.19815 49.2805 7.33756C49.1376 7.47696 49.0234 7.64327 48.9444 7.82706C48.8655 8.01084 48.8233 8.20849 48.8204 8.40868Z" fill="#082832"/>
<path d="M55.0689 0.117281C55.4578 0.114153 55.8435 0.189264 56.2032 0.338172C56.5629 0.487081 56.8893 0.706762 57.1633 0.984353C57.4372 1.26194 57.6533 1.5918 57.7986 1.95454C57.9439 2.31728 58.0156 2.70563 58.0095 3.09663C58.0049 3.68032 57.8286 4.24956 57.5027 4.73267C57.1769 5.21577 56.7161 5.59104 56.1784 5.81126C55.6407 6.03147 55.0501 6.08678 54.4812 5.97012C53.9124 5.85346 53.3906 5.57011 52.9817 5.15577C52.5727 4.74143 52.2949 4.21463 52.1833 3.64181C52.0717 3.069 52.1313 2.47576 52.3545 1.93692C52.5777 1.39808 52.9546 0.937725 53.4376 0.613899C53.9207 0.290073 54.4883 0.117299 55.0689 0.117281ZM56.1257 3.07352C56.1144 2.79539 55.9994 2.53169 55.8036 2.33486C55.6078 2.13803 55.3455 2.0225 55.0689 2.01114C54.8026 2.01702 54.549 2.12595 54.3607 2.31527C54.1724 2.50458 54.0639 2.75968 54.0581 3.02735C54.0486 3.16348 54.0671 3.30007 54.1125 3.42868C54.1579 3.55728 54.2291 3.67513 54.3218 3.77481C54.4145 3.8745 54.5268 3.95385 54.6513 4.00804C54.7759 4.06222 54.9102 4.09006 55.0459 4.08973C55.1854 4.09913 55.3255 4.07997 55.4574 4.03341C55.5894 3.98686 55.7105 3.91386 55.8136 3.81886C55.9166 3.72387 55.9995 3.60881 56.0571 3.48069C56.1147 3.35258 56.1457 3.21408 56.1485 3.07352H56.1257Z" fill="#082832"/>
</g>
<defs>
<clipPath id="clip0_224_88">
<rect width="57.317" height="61.0879" fill="white" transform="translate(0.692383 0.117188)"/>
</clipPath>
</defs>
</svg>
