<svg width="64" height="64" viewBox="0 0 64 64" fill="none" xmlns="http://www.w3.org/2000/svg">
<path d="M64 32.0156C63.8625 47.6257 52.6844 61.141 37.2672 63.4992C25.394 65.3152 15.1171 61.7616 7.15262 52.5101C3.33365 48.0744 1.23321 42.7851 0.389212 37.0051C-0.630455 30.0431 0.33384 23.3694 3.51314 17.0834C7.57653 9.05018 14.0841 3.93466 22.6787 1.4256C25.8979 0.453871 29.2454 -0.0263657 32.608 0.00111596C37.4613 0.0811096 42.2287 1.29406 46.5301 3.54322C47.3225 3.95185 47.5879 4.58962 47.2576 5.21593C46.9273 5.84224 46.2609 5.97972 45.4684 5.55964C40.9471 3.14341 35.8525 2.00592 30.7329 2.26959C17.4448 2.89781 4.4717 12.8138 2.50493 27.3278C1.05754 38.0209 4.18528 47.3908 12.4553 54.6469C17.3206 58.9165 23.1599 61.0322 29.5967 61.4847C36.6752 61.9831 43.2248 60.362 49.0945 56.3291C55.5715 51.88 59.2702 45.6092 60.8875 38.0076C62.3464 31.1525 61.4604 24.6182 58.304 18.3761C57.8763 17.5321 58.113 16.7932 58.8329 16.5545C59.4249 16.3635 59.9519 16.5965 60.2937 17.2572C61.8713 20.2532 62.9399 23.4906 63.4558 26.8371C63.7059 28.5518 63.8186 30.2875 64 32.0156Z" fill="#02B2E9"/>
<path d="M10.1774 32.2046C10.5287 23.7456 13.7443 17.0815 21.197 13.0887C27.9165 9.48934 34.8823 9.21819 41.8195 12.7068C42.8468 13.2243 43.1657 13.8239 42.8163 14.5132C42.4668 15.2025 41.81 15.2579 40.7826 14.7366C34.3419 11.4561 27.9891 11.838 21.8558 15.466C17.0363 18.315 13.8646 22.5178 12.7838 28.0687C10.5784 39.3766 18.1724 49.4148 28.6459 51.1735C40.9469 53.2357 50.0761 43.904 51.1894 33.9613C51.6474 30.1752 50.9132 26.3405 49.0889 22.9913C48.9132 22.7114 48.7974 22.398 48.749 22.071C48.7128 21.5134 49.024 21.1162 49.572 20.9673C50.1621 20.8031 50.6528 21.0246 50.8819 21.5573C51.5674 23.1479 52.3637 24.7156 52.8182 26.3749C56.2438 38.863 47.9604 51.5305 35.1287 53.4649C26.0509 54.8397 13.2516 50.2416 10.5994 36.0427C10.3435 34.7213 10.2996 33.3579 10.1774 32.2046Z" fill="#02B2E9"/>
<path d="M56.0373 7.82811L59.9269 8.13744C60.284 8.16608 60.6735 8.11835 60.9867 8.25201C61.3686 8.41432 61.8823 8.67019 61.9796 8.99289C62.0904 9.35761 61.888 9.89608 61.6627 10.2627C61.4087 10.6771 60.9772 10.9845 60.6239 11.3377C58.3325 13.6291 56.0411 15.9205 53.7497 18.2119C53.5427 18.44 53.2826 18.6135 52.9925 18.7171C52.7024 18.8207 52.3913 18.8512 52.0866 18.8058C50.6182 18.653 49.146 18.5289 47.6718 18.464C47.2878 18.4652 46.9182 18.6111 46.6369 18.8726C42.1534 23.3179 37.6833 27.7772 33.2266 32.2505L32.8752 32.6018C32.2164 33.2396 31.5749 33.3026 31.0612 32.7813C30.5476 32.26 30.6163 31.6241 31.2674 30.9711C35.8324 26.4036 40.4011 21.8406 44.9737 17.282C45.1412 17.1371 45.27 16.9529 45.3487 16.746C45.4273 16.539 45.4534 16.3157 45.4244 16.0962C45.2754 14.6278 45.1914 13.1518 45.0425 11.6834C45.0018 11.4135 45.0273 11.1379 45.1168 10.8801C45.2063 10.6223 45.357 10.3901 45.5561 10.2035C48.2103 7.56842 50.8556 4.92377 53.492 2.26959C53.8987 1.86286 54.3341 1.63945 54.8993 1.84377C55.4645 2.04809 55.6134 2.49872 55.6631 3.03147C55.7891 4.59725 55.9094 6.16494 56.0373 7.82811ZM53.5645 5.62837C53.448 5.65511 53.3908 5.65129 53.364 5.67802C51.4393 7.58751 49.5177 9.50591 47.5993 11.4332C47.4815 11.5451 47.41 11.697 47.3988 11.859C47.4866 13.2778 47.6012 14.6965 47.71 16.163C49.0849 16.2642 50.3833 16.3864 51.6894 16.4399C52.0285 16.4412 52.3562 16.3175 52.6098 16.0924C54.399 14.3471 56.1595 12.5694 57.9239 10.7993C58.048 10.6752 58.153 10.53 58.3306 10.3162C57.3969 10.2493 56.5739 10.1806 55.749 10.1252C54.1526 10.0374 53.8261 9.70513 53.7364 8.0897C53.6886 7.2839 53.6256 6.47619 53.5645 5.62074V5.62837Z" fill="#082832"/>
<path d="M20.4639 31.9832C20.4772 26.0122 24.596 21.3569 30.5479 20.7172C31.8521 20.5778 33.1963 20.7726 34.5196 20.8642C34.8975 20.9182 35.2606 21.0481 35.587 21.2461C36.1885 21.5669 36.3985 22.1283 36.1828 22.6801C35.967 23.232 35.3999 23.5299 34.7163 23.3198C32.591 22.6687 30.4963 22.6935 28.4264 23.5337C24.1664 25.2637 21.9189 29.709 23.0016 34.265C24.0327 38.5709 27.951 41.3778 32.4784 41.0532C39.5912 40.5491 42.0258 33.8335 40.6319 29.4321C40.546 29.1648 40.4104 28.821 40.5078 28.6072C40.6701 28.252 40.9565 27.7918 41.2716 27.7097C41.621 27.62 42.2263 27.7899 42.4363 28.063C42.7606 28.5279 42.9742 29.0609 43.0608 29.6211C44.4661 36.755 39.1272 43.4153 32.0048 43.4344C25.4744 43.4554 20.4639 38.4754 20.4639 31.9832Z" fill="#082832"/>
</svg>
