<svg width="41" height="63" viewBox="0 0 41 63" fill="none" xmlns="http://www.w3.org/2000/svg">
<g clip-path="url(#clip0_327_127)">
<path d="M34.8776 35.9317H38.1502C38.5547 35.9031 38.9603 35.9671 39.3363 36.1189C39.7123 36.2707 40.0487 36.5063 40.3199 36.8077C40.5912 37.1091 40.7901 37.4685 40.9016 37.8584C41.013 38.2483 41.0341 38.6585 40.9632 39.0578C40.3749 44.2434 39.7314 49.4291 39.1247 54.6147C39.0478 55.7041 38.888 56.7861 38.6466 57.8511C38.4265 58.5137 38.4265 59.2297 38.6466 59.8923C38.7328 60.2386 38.7434 60.5994 38.6776 60.9502C38.6118 61.3009 38.4711 61.6334 38.2652 61.9248C38.0593 62.2163 37.793 62.4599 37.4844 62.6391C37.1759 62.8183 36.8323 62.9289 36.4771 62.9632H5.22151C4.61709 63.0279 4.00904 62.8796 3.50223 62.5439C2.99542 62.2082 2.6216 61.7062 2.44526 61.1243C2.44526 60.8669 2.24304 60.5175 2.35335 60.3336C3.12555 58.8809 2.24301 57.5385 2.09592 56.1778C1.47081 50.514 0.735413 44.8502 0.0551439 39.1865C-0.0341109 38.7667 -0.0228882 38.3318 0.0879674 37.9173C0.198823 37.5027 0.406148 37.1202 0.692986 36.801C0.979824 36.4818 1.33807 36.2351 1.73846 36.0808C2.13885 35.9265 2.57006 35.8691 2.99686 35.9133H6.14079L5.47888 34.5341C4.60331 32.3781 4.0938 30.0909 3.9713 27.767C3.67713 24.5674 3.29103 21.3493 3.05201 18.1497C2.82327 14.4328 3.86728 10.7489 6.01208 7.70487C7.96391 4.81384 10.734 2.5712 13.9677 1.26408C17.2014 -0.0430446 20.7516 -0.355182 24.1637 0.367647C27.5758 1.09048 30.6946 2.81541 33.1208 5.32153C35.547 7.82766 37.1701 11.0009 37.7825 14.4352C38.0951 16.5137 38.0951 18.6273 37.7825 20.7058C37.4332 23.9054 37.2309 27.1419 36.7529 30.3231C36.4265 31.9223 35.9652 33.491 35.374 35.0122C35.2264 35.328 35.0606 35.635 34.8776 35.9317ZM20.4816 37.8809H3.18067C2.04076 37.8809 1.83851 38.1015 1.96721 39.2416C2.68425 45.1077 3.38295 50.9553 4.08161 56.8213C4.08161 57.5569 4.48604 57.8695 5.23986 57.8695H35.76C36.5139 57.8695 36.8264 57.5569 36.8999 56.8213C37.5986 50.9553 38.2973 45.1077 39.0143 39.2416C39.143 38.1015 39.0143 37.8809 37.8009 37.8809H20.4816ZM32.1197 15.1524L32.3955 15.281C33.0215 15.4447 33.5773 15.8077 33.9787 16.3154C34.38 16.823 34.6052 17.4475 34.6201 18.0945C34.6457 18.7404 34.4579 19.3768 34.0857 19.9053C33.7135 20.4338 33.1777 20.825 32.561 21.0184C32.4414 21.1031 32.3417 21.2127 32.2687 21.3397C32.1957 21.4667 32.1511 21.608 32.1381 21.7539C32.1169 24.123 31.3757 26.4296 30.0129 28.3674C28.6501 30.3052 26.7301 31.7826 24.508 32.6033C23.8645 32.8608 23.7359 33.2285 24.1955 33.725C24.4095 33.9677 24.6912 34.1406 25.0044 34.2215C27.2475 34.81 29.509 35.3433 31.7704 35.8949C31.9855 35.9757 32.2233 35.9711 32.4352 35.8822C32.6471 35.7934 32.8171 35.6269 32.9103 35.4168C33.8517 33.8761 34.4768 32.1633 34.7489 30.3783C35.135 27.197 35.4291 24.0158 35.7417 20.8345C36.0785 18.9214 36.1218 16.9682 35.8704 15.042C35.4647 12.2588 34.2917 9.64369 32.4827 7.49016C30.6738 5.33664 28.3007 3.72991 25.6296 2.85026C23.0158 1.85268 20.1739 1.6116 17.4294 2.15473C14.685 2.69785 12.1491 4.00318 10.1121 5.92115C8.34224 7.40699 6.95079 9.2923 6.05253 11.4216C5.15428 13.551 4.77495 15.8633 4.94573 18.1681C5.14798 21.4229 5.58923 24.6409 5.86502 27.8774C5.98856 30.5082 6.73191 33.0727 8.03451 35.3616C8.29191 35.7846 8.56769 36.042 9.0641 35.9133C11.4175 35.3064 13.7892 34.718 16.1242 34.0744C16.2654 34.0502 16.4003 33.9979 16.5208 33.9204C16.6413 33.8429 16.7451 33.742 16.8257 33.6235C16.9064 33.5051 16.9623 33.3716 16.9903 33.2311C17.0182 33.0906 17.0175 32.9458 16.9883 32.8056L16.8228 32.7136C14.4955 31.9576 12.4684 30.4815 11.0342 28.4984C9.60006 26.5154 8.83291 24.1278 8.84348 21.6804C8.84348 21.2023 8.60446 21.1103 8.25513 20.9816C7.80801 20.8204 7.40692 20.5527 7.08661 20.2015C6.7663 19.8503 6.53643 19.4263 6.4169 18.9663C6.29738 18.5062 6.29182 18.0239 6.40068 17.5612C6.50955 17.0985 6.72956 16.6693 7.04167 16.3108C7.6067 15.8224 8.22318 15.397 8.88023 15.042C8.88023 14.6743 8.88023 14.1409 8.88023 13.6261C8.88023 12.4492 9.3399 12.0814 10.4614 12.3756C12.8555 13.0373 15.3662 13.1612 17.8137 12.7384C20.2613 12.3156 22.5849 11.3565 24.6183 9.9299C25.5376 9.32307 25.8502 9.35989 26.4569 10.2058C26.9458 10.9402 27.6298 11.5238 28.432 11.8908C29.2342 12.2579 30.1229 12.394 30.9982 12.2837C31.6784 12.1734 32.0462 12.6331 32.0646 13.3318C32.083 14.0306 32.1197 14.5455 32.1197 15.1524ZM25.2619 11.7872C23.1549 13.1529 20.7996 14.0901 18.3305 14.5455C15.8354 15.0016 13.2756 14.9704 10.7924 14.4536V15.281C10.7924 16.8625 10.7924 16.8625 9.19281 17.1199C9.02874 17.1358 8.87116 17.1923 8.73435 17.2842C8.59755 17.3762 8.48583 17.5008 8.4092 17.6468C8.33258 17.7927 8.29348 17.9555 8.29547 18.1203C8.29746 18.2852 8.34046 18.447 8.42059 18.5911C8.67137 18.9016 9.03505 19.0999 9.43184 19.1427C10.5717 19.2898 10.7924 19.4737 10.7924 20.6138C10.7924 21.0184 10.7924 21.4413 10.7924 21.8459C10.7953 23.7074 11.3531 25.5257 12.3946 27.0685C13.436 28.6113 14.9138 29.8084 16.639 30.507C18.3004 31.2916 20.1587 31.5603 21.9743 31.2784C23.7898 30.9965 25.4793 30.177 26.8246 28.9256C28.0106 27.9041 28.9337 26.6125 29.5161 25.1596C30.0984 23.7066 30.323 22.135 30.1708 20.577C30.1708 19.4921 30.4099 19.2347 31.4946 19.1611C32.5794 19.0876 32.7448 18.683 32.6529 18.021C32.5609 17.359 32.1197 17.1383 31.4946 17.1016C30.3915 17.1016 30.1708 16.7889 30.1708 15.6856V14.2697C28.2803 14.0902 26.5271 13.2036 25.2619 11.7872ZM20.5 61.0324H35.5027C35.7417 61.0324 36.0358 61.0324 36.2197 61.0324C36.4529 60.8925 36.6239 60.6689 36.6977 60.4072C36.6977 60.26 36.3852 60.021 36.1645 59.9107C35.9826 59.873 35.7949 59.873 35.613 59.9107H5.36857C5.1804 59.8735 4.98679 59.8735 4.79862 59.9107C4.59638 60.021 4.26544 60.26 4.28382 60.4072C4.3188 60.5401 4.38101 60.6642 4.46645 60.7719C4.5519 60.8795 4.65872 60.9682 4.78021 61.0324C4.96407 61.1427 5.25827 61.0324 5.49728 61.0324H20.5ZM21.6766 33.2653H19.4152C19.2681 33.2653 18.9923 33.3756 18.9739 33.4676C18.8439 33.9868 18.6022 34.4713 18.2656 34.8874C17.929 35.3034 17.5056 35.641 17.0251 35.8765H23.4233L21.6766 33.2653Z" fill="#02B2E9"/>
<path d="M16.5653 47.8845C16.5285 47.3463 16.6027 46.8063 16.7833 46.298C16.9639 45.7897 17.247 45.324 17.6151 44.9297C17.9832 44.5355 18.4285 44.2212 18.9231 44.0062C19.4178 43.7913 19.9514 43.6804 20.4907 43.6804C21.03 43.6804 21.5636 43.7913 22.0583 44.0062C22.553 44.2212 22.9982 44.5355 23.3663 44.9297C23.7344 45.324 24.0175 45.7897 24.1981 46.298C24.3787 46.8063 24.4529 47.3463 24.4161 47.8845C24.3922 48.9204 23.9664 49.9065 23.2286 50.634C22.4909 51.3616 21.4992 51.7736 20.4631 51.7829C19.4324 51.7733 18.4465 51.3595 17.7176 50.6304C16.9887 49.9014 16.5749 48.9154 16.5653 47.8845ZM18.5142 47.8845C18.5238 48.4065 18.7366 48.9042 19.1075 49.2716C19.4783 49.6391 19.9779 49.8474 20.4999 49.8521C21.0209 49.8386 21.5174 49.6281 21.8893 49.2629C22.2612 48.8978 22.4808 48.4052 22.5039 47.8845C22.4895 47.3642 22.2714 46.8703 21.8966 46.5092C21.5218 46.1481 21.0203 45.9486 20.4999 45.9537C20.2418 45.9463 19.9848 45.9907 19.7442 46.0845C19.5036 46.1782 19.2842 46.3193 19.099 46.4993C18.9139 46.6793 18.7667 46.8947 18.6663 47.1326C18.5658 47.3705 18.5141 47.6262 18.5142 47.8845Z" fill="#082832"/>
<path d="M20.9044 28.19C19.9679 28.1719 19.0735 27.797 18.4039 27.1418C18.2905 27.0627 18.1952 26.9603 18.1244 26.8415C18.0536 26.7227 18.009 26.5902 17.9933 26.4528C17.9777 26.3154 17.9914 26.1762 18.0337 26.0445C18.076 25.9129 18.1458 25.7917 18.2385 25.6891C18.3282 25.5842 18.4396 25.5001 18.565 25.4424C18.6903 25.3847 18.8267 25.3548 18.9647 25.3548C19.1027 25.3548 19.2391 25.3847 19.3644 25.4424C19.4898 25.5001 19.6012 25.5842 19.6909 25.6891C20.6654 26.4982 21.1986 26.4614 22.173 25.5788C22.2543 25.4744 22.3567 25.3885 22.4736 25.3266C22.5904 25.2646 22.7191 25.2281 22.851 25.2194C22.983 25.2107 23.1153 25.2301 23.2393 25.2762C23.3633 25.3222 23.476 25.3941 23.5703 25.4868C23.6708 25.5714 23.7517 25.6769 23.8071 25.796C23.8626 25.9152 23.8913 26.045 23.8913 26.1764C23.8913 26.3078 23.8626 26.4376 23.8071 26.5567C23.7517 26.6758 23.6708 26.7814 23.5703 26.866C23.2483 27.2666 22.8432 27.5925 22.3829 27.8211C21.9226 28.0497 21.4181 28.1756 20.9044 28.19Z" fill="#082832"/>
<path d="M19.0476 22.1401C19.0476 21.993 19.0476 21.57 19.3234 21.3677C19.4484 21.239 19.6012 21.1407 19.7701 21.0801C19.939 21.0196 20.1195 20.9985 20.2978 21.0184C20.6104 21.1287 20.7943 21.57 21.0149 21.8826C21.1848 22.1426 21.3266 22.4201 21.4378 22.7101C21.5849 23.0963 21.879 23.6112 21.7503 23.887C21.6209 24.056 21.4537 24.1922 21.2622 24.2849C21.0706 24.3775 20.8599 24.4239 20.6472 24.4203C19.7095 24.2915 19.0476 23.3537 19.0476 22.1401Z" fill="#082832"/>
<path d="M17.5032 18.5911C17.2519 19.0766 16.9228 19.5176 16.5288 19.8966C16.3449 20.0254 15.5727 19.7495 15.5359 19.5473C15.4011 18.9417 15.4011 18.3139 15.5359 17.7084C15.5359 17.5245 16.3266 17.2671 16.5472 17.3958C16.7678 17.5245 17.1355 18.0762 17.5032 18.5911Z" fill="#082832"/>
<path d="M23.9014 18.6279C23.9014 17.6165 24.4161 17.0649 25.1332 17.3223C25.8502 17.5798 25.8134 18.0395 25.8134 18.5727C25.8134 19.106 25.8135 19.6944 25.1516 19.9335C24.4897 20.1726 23.9014 19.6393 23.9014 18.6279Z" fill="#082832"/>
</g>
<defs>
<clipPath id="clip0_327_127">
<rect width="41" height="63" fill="white"/>
</clipPath>
</defs>
</svg>
