<svg width="178" height="64" viewBox="0 0 178 64" fill="none" xmlns="http://www.w3.org/2000/svg">
<path d="M58.3829 0.758822H72.8291L36.4549 63.3296C35.4048 61.5408 34.4125 59.8474 33.4152 58.1522C22.399 39.3286 11.3845 20.5044 0.371665 1.67958C0.221893 1.42259 -0.120188 1.15027 0.0431994 0.862639C0.206587 0.575008 0.61337 0.736696 0.90951 0.736696C5.46735 0.736696 10.0257 0.745205 14.5847 0.762224L36.3698 38.3755C36.4634 38.304 36.5178 38.2819 36.54 38.241C39.1111 33.8556 41.6816 29.4691 44.2515 25.0815C48.1615 18.4007 52.0669 11.7189 55.9678 5.03584C56.7967 3.61981 57.7327 2.26846 58.3829 0.758822Z" fill="#082832"/>
<path d="M58.3829 0.758915C57.7328 2.26855 56.7967 3.6199 55.9746 5.03253C52.084 11.7269 48.1785 18.4088 44.2584 25.0782C41.6907 29.4658 39.1202 33.8523 36.5468 38.2377C36.523 38.2786 36.4685 38.3007 36.3766 38.3722L14.5916 0.758915C15.6127 0.735088 16.6237 0.692538 17.6398 0.689134C20.8378 0.680625 24.0357 0.702747 27.2337 0.67041C27.8243 0.67041 28.134 0.862734 28.4251 1.36481C30.9218 5.72182 33.4475 10.0635 35.9647 14.4086C36.1043 14.652 36.2541 14.8869 36.4532 15.217L40.1873 8.73769C41.6101 6.26758 43.0324 3.79861 44.4541 1.33077C44.6532 0.990379 44.8166 0.682328 45.3272 0.685732C49.6008 0.707858 53.8744 0.701049 58.148 0.706155C58.2278 0.716403 58.3064 0.734066 58.3829 0.758915Z" fill="#11323C"/>
<path d="M93.5947 39.5091C95.2104 34.0878 96.8199 28.6841 98.4232 23.298C99.4591 19.8101 100.493 16.3234 101.526 12.8378C101.749 12.0838 102.06 11.4762 102.988 11.4558C104.009 11.4336 105.103 11.9868 105.428 12.6982C105.617 13.1118 105.468 13.4811 105.355 13.8504C103.246 20.6923 101.132 27.5325 99.0137 34.3709C98.0742 37.4163 97.1365 40.4605 96.2004 43.5036C95.6388 45.3247 93.6968 46.0991 91.9914 45.1868C91.3839 44.8618 91.166 44.2899 90.9703 43.6891C88.1825 34.7255 85.393 25.7619 82.6018 16.7982C82.2614 15.7226 81.9465 14.6401 81.5806 13.573C81.3287 12.8292 81.5806 12.3136 82.2035 11.9255C82.6575 11.6325 83.1832 11.47 83.7234 11.4558C84.7275 11.4405 85.0849 11.6736 85.3794 12.6608C86.9486 17.871 88.5127 23.0818 90.0717 28.2932C91.1167 31.7754 92.1497 35.2713 93.2049 38.7432C93.2917 38.9951 93.2645 39.3219 93.5947 39.5091Z" fill="#082832"/>
<path d="M137.493 35.3818C135.43 35.3818 133.73 35.4074 132.032 35.3682C131.49 35.3546 131.416 35.5282 131.383 36.0286C131.056 41.0732 135.449 42.6832 138.996 42.3003C140.32 42.1573 141.484 41.5872 142.625 40.954C143.68 40.3686 144.344 40.4639 144.909 41.274C145.499 42.125 145.368 42.8909 144.449 43.6278C143.014 44.78 141.331 45.3196 139.524 45.4915C136.394 45.7893 133.422 45.3791 130.83 43.427C129.006 42.0535 127.877 40.2494 127.634 37.962C127.372 35.5996 127.36 33.2161 127.598 30.8512C127.991 27.0865 130.871 24.1319 134.688 23.2554C138.773 22.3227 143.128 24.2613 144.926 27.8115C145.761 29.4573 145.947 31.2052 145.654 33.0042C145.438 34.3045 144.633 35.0465 143.239 35.2491C141.21 35.552 139.166 35.3035 137.493 35.3818ZM136.164 32.8V32.771C137.578 32.771 138.994 32.8204 140.405 32.7591C141.9 32.6944 142.277 32.1702 142.066 30.6878C141.956 29.9096 141.676 29.1652 141.246 28.5069C140.817 27.8487 140.248 27.2927 139.58 26.8782C138.912 26.4637 138.162 26.2008 137.381 26.108C136.601 26.0151 135.809 26.0947 135.063 26.341C132.51 27.1546 131.319 29.0642 131.387 32.1958C131.397 32.6757 131.523 32.8221 132.004 32.8119C133.39 32.7864 134.777 32.8051 136.164 32.8051V32.8Z" fill="#082832"/>
<path d="M124.334 31.2154C124.334 33.1097 124.315 35.0039 124.334 36.8965C124.388 41.3301 119.975 46.0871 114.292 45.5612C112.252 45.3749 110.33 44.5192 108.826 43.1272C107.322 41.7353 106.321 39.8851 105.978 37.8649C105.924 37.5016 105.901 37.1344 105.907 36.7672C105.907 32.8663 105.907 28.9648 105.907 25.0628C105.907 23.9497 106.601 23.337 107.837 23.3353C109.028 23.3353 109.785 23.9889 109.789 25.073C109.799 29.0301 109.751 32.9888 109.814 36.9459C109.87 40.4468 113.584 42.9844 116.847 41.8322C118.978 41.0782 120.472 38.9252 120.484 36.5119C120.501 32.7522 120.508 28.9926 120.474 25.233C120.474 24.3939 120.693 23.7931 121.505 23.5072C122.383 23.1975 123.231 23.2247 123.976 23.8578C124.368 24.188 124.358 24.6526 124.358 25.1088C124.358 27.1443 124.358 29.1798 124.358 31.2154H124.334Z" fill="#082832"/>
<path d="M170.355 45.5936C168.031 45.5646 166.071 45.2243 164.277 44.2014C163.71 43.878 163.167 43.5206 162.798 42.9555C162.551 42.571 162.46 42.1073 162.542 41.6579C162.624 41.2085 162.873 40.8067 163.239 40.5337C163.829 40.1048 164.306 40.4162 164.77 40.7617C166.787 42.256 169.042 42.736 171.509 42.3735C173.04 42.1488 174.165 41.2893 174.402 40.132C174.669 38.8096 174.094 37.6506 172.761 36.7894C171.675 36.0865 170.428 35.8056 169.218 35.4278C168.517 35.2082 167.81 35.0108 167.116 34.7742C164.522 33.8892 163.123 32.1481 163.046 29.7313C162.965 27.1154 164.447 24.6255 166.818 23.7336C169.994 22.5423 173.161 22.8095 176.209 24.2442C177.479 24.8416 177.629 25.759 176.791 26.8618C176.383 27.3997 175.905 27.5818 175.238 27.3095C173.932 26.7767 172.634 26.2151 171.187 26.1487C170.3 26.1079 169.42 26.1487 168.602 26.4891C167.392 26.9997 166.619 27.8796 166.532 29.2378C166.449 30.5432 167.262 31.2342 168.319 31.7482C170.033 32.5838 171.929 32.8527 173.711 33.4893C177.072 34.6806 178.723 37.7901 177.699 41.2008C176.917 43.7946 174.909 44.906 172.434 45.3876C171.751 45.5351 171.053 45.6042 170.355 45.5936Z" fill="#082832"/>
<path d="M159.61 36.4846C159.61 39.989 159.61 43.4933 159.61 46.9976C159.61 48.8443 159.396 50.6619 158.609 52.3656C157.491 54.7824 155.57 55.9261 152.906 55.7695C151.805 55.7065 151.216 55.1568 151.204 54.1765C151.192 53.1962 151.819 52.5103 152.867 52.403C154.569 52.2329 155.069 51.8005 155.444 50.1411C155.637 49.2574 155.731 48.3549 155.725 47.4503C155.725 40.0446 155.725 32.6394 155.725 25.2347C155.725 24.4348 155.828 23.754 156.7 23.4851C157.607 23.206 158.489 23.2111 159.253 23.8646C159.643 24.1948 159.624 24.6594 159.624 25.1173C159.615 28.9081 159.61 32.6972 159.61 36.4846Z" fill="#082832"/>
<path d="M150.158 40.658C150.476 40.6579 150.791 40.7215 151.084 40.845C151.377 40.9686 151.642 41.1496 151.864 41.3774C152.086 41.6052 152.261 41.8751 152.377 42.1713C152.493 42.4675 152.548 42.7839 152.54 43.102C152.54 43.7298 152.293 44.3323 151.851 44.7785C151.409 45.2246 150.809 45.4784 150.181 45.4847C149.863 45.4874 149.548 45.4274 149.253 45.3081C148.959 45.1889 148.691 45.0127 148.464 44.7896C148.237 44.5666 148.057 44.3011 147.933 44.0083C147.81 43.7155 147.745 43.4011 147.742 43.0832C147.742 42.7654 147.804 42.4506 147.925 42.1567C148.046 41.8628 148.223 41.5956 148.448 41.3704C148.672 41.1452 148.938 40.9664 149.232 40.8441C149.525 40.7219 149.84 40.6586 150.158 40.658Z" fill="#082832"/>
<path d="M157.677 17.2918C156.37 17.3071 155.228 16.2996 155.211 15.1167C155.194 13.9339 156.302 12.9263 157.644 12.9314C158.952 12.9314 160 13.8964 160.002 15.0912C160.003 16.286 158.963 17.2765 157.677 17.2918Z" fill="#082832"/>
</svg>
