<svg width="178" height="48" viewBox="0 0 178 48" fill="none" xmlns="http://www.w3.org/2000/svg">
<path d="M57.4763 18.7706C57.4763 15.347 54.371 11.7108 48.998 11.7108C42.9641 11.7108 36.3356 16.4566 35.3226 25.9243C34.2876 35.4866 39.8369 39.7367 45.4303 39.7367C51.0238 39.7367 53.9528 37.3992 56.9478 34.2827C54.371 30.8117 51.046 32.4175 50.4074 32.7716C49.7027 33.1492 48.7998 33.6688 46.9499 33.6688C44.7917 33.6688 42.5896 32.6299 42.5896 28.3091C56.4194 26.8453 57.4763 22.1939 57.4763 18.7706ZM50.6274 19.3372C50.5395 20.3995 50.1432 22.2177 43.1403 23.2327C44.6158 17.6136 47.4342 17.1887 48.7338 17.1887C49.945 17.1887 50.7154 18.2037 50.6274 19.3372ZM27.1965 20.2578C27.1965 20.2578 24.224 30.2686 23.9813 31.095C23.8934 30.2451 21.7132 12.2774 21.7132 12.2774C16.6482 12.2774 13.9396 16.1495 12.5083 20.2344C12.5083 20.2344 8.89652 30.2686 8.5885 31.1185C8.56625 30.3394 8.03781 20.3525 8.03781 20.3525C7.72944 15.3466 3.45744 12.3013 0 12.3013L4.18404 39.5242C9.49136 39.5007 12.354 35.6521 13.8517 31.5672C13.8517 31.5672 17.0445 22.7135 17.1767 22.312C17.1989 22.6896 19.467 39.5242 19.467 39.5242C24.7962 39.5242 27.6592 35.9116 29.2007 31.9687L36.6659 12.3013C31.4024 12.3013 28.6281 16.1495 27.1965 20.2578ZM77.0312 11.6635C73.7501 11.6635 71.2396 13.5761 69.1255 16.3858V16.3623L71.0196 0C66.6593 0 63.1139 4.06104 62.4311 10.1051L59.1276 39.3117C61.6384 39.3117 64.3028 38.5327 65.7341 36.5493C67.0114 38.3199 68.9274 39.7367 71.7681 39.7367C79.1234 39.7367 84.1662 30.5757 84.1662 21.9814C84.1224 14.1426 80.5766 11.6635 77.0312 11.6635ZM76.3488 25.7126C75.578 30.5053 73.0895 33.7638 70.6889 33.7638C68.2668 33.7638 67.2318 32.6065 67.2318 32.6065C67.6942 28.4038 67.9804 25.8304 68.8613 23.611C69.7423 21.3917 71.8341 17.8499 74.0143 17.8499C76.1503 17.8499 77.1195 20.896 76.3488 25.7126ZM102.532 12.3005H97.4011L97.4234 12.0172C97.7755 8.42847 98.5682 6.53978 101.189 6.23301C102.973 6.04403 103.765 5.05216 103.963 3.96636C104.118 3.11651 104.602 0.164752 104.602 0.164752C94.2962 0.0939313 91.0592 4.86355 90.2224 12.1354L90.2001 12.3009H90.0899C88.4163 12.3009 86.5667 14.3312 86.2584 16.9046L86.1482 17.8492H89.5837L86.6989 43.3959L85.8179 47.9765C85.9281 47.9765 86.0602 48 86.1701 48C90.9931 47.811 94.0758 43.7265 94.7586 37.8003L97.0048 17.8492H98.6123C100.198 17.8492 102.048 16.1495 102.378 13.3159L102.532 12.3005ZM129.222 11.8286C123.298 11.8286 117.705 16.5036 115.987 23.8462C114.27 31.1893 116.868 39.8779 125.589 39.8779C134.287 39.8779 139.308 30.8352 139.308 23.3032C139.308 15.8185 134.574 11.8286 129.222 11.8286ZM131.623 25.4755C131.314 28.8045 129.949 33.8574 126.205 33.8574C122.44 33.8574 122.968 27.9546 123.343 25.1449C123.739 22.1465 125.303 17.8727 128.672 17.8727C131.689 17.8727 131.975 21.7212 131.623 25.4755ZM168.575 20.2575C168.575 20.2575 165.602 30.2682 165.36 31.0946C165.272 30.2448 163.091 12.277 163.091 12.277C158.026 12.277 155.318 16.1491 153.887 20.234C153.887 20.234 150.275 30.2682 149.967 31.1181C149.944 30.3391 149.416 20.3521 149.416 20.3521C149.108 15.3462 144.836 12.3009 141.378 12.3009L145.54 39.5238C150.847 39.5003 153.71 35.6518 155.208 31.5669C155.208 31.5669 158.401 22.7131 158.511 22.3117C158.533 22.6892 160.801 39.5238 160.801 39.5238C166.131 39.5238 168.993 35.9112 170.535 31.9683L178 12.3013C172.759 12.3013 169.984 16.1491 168.575 20.2575ZM107.377 0.165125L103.061 37.4935L102.18 42.0976C102.29 42.0976 102.422 42.1215 102.532 42.1215C107.179 42.0506 110.482 37.6825 111.098 32.1812L113.587 10.7663C114.336 4.22616 110.702 0.165498 107.377 0.165498" fill="#082832"/>
</svg>
